<?xml version="1.0" encoding="utf-8"?>
<!-- Generator: Adobe Illustrator 18.1.0, SVG Export Plug-In . SVG Version: 6.00 Build 0)  -->
<svg version="1.1" id="Laag_1" xmlns="http://www.w3.org/2000/svg" xmlns:xlink="http://www.w3.org/1999/xlink" x="0px" y="0px"
	 viewBox="0 0 1280 37.5" enable-background="new 0 0 1280 37.5" xml:space="preserve">
<g>
	<defs>
		<rect id="SVGID_1_" width="1280" height="37.5"/>
	</defs>
	<clipPath id="SVGID_2_">
		<use xlink:href="#SVGID_1_"  overflow="visible"/>
	</clipPath>
	<polygon clip-path="url(#SVGID_2_)" fill="#FCF0DE" points="1280,713.4 1,713.4 1,5 1281,5 	"/>
	<path clip-path="url(#SVGID_2_)" fill="#B59A76" d="M1227.7,22.1c-0.8,0-1.4-0.6-1.5-1.3c-0.1-1.1-0.6-1.9-1.4-2.5
		c-2.5-1.8-7.9-1.1-9.7-0.6c-0.8,0.2-1.6-0.3-1.8-1.1c-0.2-0.8,0.3-1.6,1.1-1.8c0.8-0.2,8.1-1.8,12.1,1.1c1.5,1.1,2.4,2.7,2.6,4.6
		c0.1,0.8-0.5,1.6-1.3,1.6C1227.8,22.1,1227.7,22.1,1227.7,22.1z"/>
	<path clip-path="url(#SVGID_2_)" fill="#B59A76" d="M1272.2,18.7c-0.5,0-1-0.2-1.3-0.7c-0.4-0.7-0.2-1.6,0.5-2.1
		c0.2-0.1,3.8-2.4,7.3-1.1c0.8,0.3,1.2,1.1,0.9,1.9c-0.3,0.8-1.1,1.2-1.9,0.9c-2.1-0.7-4.6,0.8-4.6,0.9
		C1272.7,18.6,1272.4,18.7,1272.2,18.7z"/>
	<path clip-path="url(#SVGID_2_)" fill="#B59A76" d="M1169.5,22.1c-0.8,0-1.4-0.6-1.5-1.3c-0.1-1.1-0.6-1.9-1.4-2.5
		c-2.5-1.8-7.9-1.1-9.7-0.6c-0.8,0.2-1.6-0.3-1.8-1.1c-0.2-0.8,0.3-1.6,1.1-1.8c0.8-0.2,8.1-1.8,12.1,1.1c1.5,1.1,2.4,2.7,2.6,4.6
		c0.1,0.8-0.5,1.6-1.3,1.6C1169.6,22.1,1169.5,22.1,1169.5,22.1z"/>
	<path clip-path="url(#SVGID_2_)" fill="#B59A76" d="M1228.8,27.7c-0.7,0-1.4-0.5-1.5-1.3l-0.2-1c-0.1-0.8,0.4-1.6,1.2-1.7
		c0.8-0.1,1.6,0.4,1.7,1.2l0.2,1c0.1,0.8-0.4,1.6-1.2,1.7C1228.9,27.7,1228.8,27.7,1228.8,27.7z"/>
	<path clip-path="url(#SVGID_2_)" fill="#B59A76" d="M1170.6,27.7c-0.7,0-1.4-0.5-1.5-1.3l-0.2-1c-0.1-0.8,0.4-1.6,1.2-1.7
		c0.8-0.1,1.6,0.4,1.7,1.2l0.2,1c0.1,0.8-0.4,1.6-1.2,1.7C1170.7,27.7,1170.7,27.7,1170.6,27.7z"/>
	<path clip-path="url(#SVGID_2_)" fill="#B59A76" d="M1111.3,22.1c-0.8,0-1.4-0.6-1.5-1.3c-0.1-1.1-0.6-1.9-1.4-2.5
		c-2.5-1.8-7.9-1.1-9.7-0.6c-0.8,0.2-1.6-0.3-1.8-1.1c-0.2-0.8,0.3-1.6,1.1-1.8c0.8-0.2,8.1-1.8,12.1,1.1c1.5,1.1,2.4,2.7,2.6,4.6
		c0.1,0.8-0.5,1.6-1.3,1.6C1111.5,22.1,1111.4,22.1,1111.3,22.1z"/>
	<path clip-path="url(#SVGID_2_)" fill="#B59A76" d="M1053.1,22.1c-0.8,0-1.4-0.6-1.5-1.3c-0.1-1.1-0.6-1.9-1.4-2.5
		c-2.5-1.8-7.9-1.1-9.7-0.6c-0.8,0.2-1.6-0.3-1.8-1.1c-0.2-0.8,0.3-1.6,1.1-1.8c0.8-0.2,8.1-1.8,12.1,1.1c1.5,1.1,2.4,2.7,2.6,4.6
		c0.1,0.8-0.5,1.6-1.3,1.6C1053.2,22.1,1053.2,22.1,1053.1,22.1z"/>
	<path clip-path="url(#SVGID_2_)" fill="#B59A76" d="M1112.4,27.7c-0.7,0-1.4-0.5-1.5-1.3l-0.2-1c-0.1-0.8,0.4-1.6,1.2-1.7
		c0.8-0.1,1.6,0.4,1.7,1.2l0.2,1c0.1,0.8-0.4,1.6-1.2,1.7C1112.6,27.7,1112.5,27.7,1112.4,27.7z"/>
	<path clip-path="url(#SVGID_2_)" fill="#B59A76" d="M1054.2,27.7c-0.7,0-1.4-0.5-1.5-1.3l-0.2-1c-0.1-0.8,0.4-1.6,1.2-1.7
		c0.8-0.1,1.6,0.4,1.7,1.2l0.2,1c0.1,0.8-0.4,1.6-1.2,1.7C1054.4,27.7,1054.3,27.7,1054.2,27.7z"/>
	<path clip-path="url(#SVGID_2_)" fill="#B59A76" d="M995.9,22.1c-0.8,0-1.4-0.6-1.5-1.3c-0.1-1.1-0.6-1.9-1.4-2.5
		c-2.5-1.8-7.9-1.1-9.7-0.6c-0.8,0.2-1.6-0.3-1.8-1.1c-0.2-0.8,0.3-1.6,1.1-1.8c0.8-0.2,8.1-1.8,12.1,1.1c1.5,1.1,2.4,2.7,2.6,4.6
		c0.1,0.8-0.5,1.6-1.3,1.6C996,22.1,995.9,22.1,995.9,22.1z"/>
	<path clip-path="url(#SVGID_2_)" fill="#B59A76" d="M937.7,22.1c-0.8,0-1.4-0.6-1.5-1.3c-0.1-1.1-0.6-1.9-1.4-2.5
		c-2.5-1.8-7.9-1.1-9.7-0.6c-0.8,0.2-1.6-0.3-1.8-1.1c-0.2-0.8,0.3-1.6,1.1-1.8c0.8-0.2,8.1-1.8,12.1,1.1c1.5,1.1,2.4,2.7,2.6,4.6
		c0.1,0.8-0.5,1.6-1.3,1.6C937.8,22.1,937.7,22.1,937.7,22.1z"/>
	<path clip-path="url(#SVGID_2_)" fill="#B59A76" d="M997,27.7c-0.7,0-1.4-0.5-1.5-1.3l-0.2-1c-0.1-0.8,0.4-1.6,1.2-1.7
		c0.8-0.1,1.6,0.4,1.7,1.2l0.2,1c0.1,0.8-0.4,1.6-1.2,1.7C997.1,27.7,997.1,27.7,997,27.7z"/>
	<path clip-path="url(#SVGID_2_)" fill="#B59A76" d="M938.8,27.7c-0.7,0-1.4-0.5-1.5-1.3l-0.2-1c-0.1-0.8,0.4-1.6,1.2-1.7
		c0.8-0.1,1.6,0.4,1.7,1.2l0.2,1c0.1,0.8-0.4,1.6-1.2,1.7C938.9,27.7,938.9,27.7,938.8,27.7z"/>
	<path clip-path="url(#SVGID_2_)" fill="#B59A76" d="M880.2,22.1c-0.8,0-1.4-0.6-1.5-1.3c-0.1-1.1-0.6-1.9-1.4-2.5
		c-2.5-1.8-7.9-1.1-9.7-0.6c-0.8,0.2-1.6-0.3-1.8-1.1c-0.2-0.8,0.3-1.6,1.1-1.8c0.8-0.2,8.1-1.8,12.1,1.1c1.5,1.1,2.4,2.7,2.6,4.6
		c0.1,0.8-0.5,1.6-1.3,1.6C880.3,22.1,880.2,22.1,880.2,22.1z"/>
	<path clip-path="url(#SVGID_2_)" fill="#B59A76" d="M821.9,22.1c-0.8,0-1.4-0.6-1.5-1.3c-0.1-1.1-0.6-1.9-1.4-2.5
		c-2.5-1.8-7.9-1.1-9.7-0.6c-0.8,0.2-1.6-0.3-1.8-1.1s0.3-1.6,1.1-1.8c0.8-0.2,8.1-1.8,12.1,1.1c1.5,1.1,2.4,2.7,2.6,4.6
		c0.1,0.8-0.5,1.6-1.3,1.6C822,22.1,822,22.1,821.9,22.1z"/>
	<path clip-path="url(#SVGID_2_)" fill="#B59A76" d="M881.2,27.7c-0.7,0-1.4-0.5-1.5-1.3l-0.2-1c-0.1-0.8,0.4-1.6,1.2-1.7
		c0.8-0.1,1.6,0.4,1.7,1.2l0.2,1c0.1,0.8-0.4,1.6-1.2,1.7C881.4,27.7,881.3,27.7,881.2,27.7z"/>
	<path clip-path="url(#SVGID_2_)" fill="#B59A76" d="M823,27.7c-0.7,0-1.4-0.5-1.5-1.3l-0.2-1c-0.1-0.8,0.4-1.6,1.2-1.7
		c0.8-0.1,1.6,0.4,1.7,1.2l0.2,1c0.1,0.8-0.4,1.6-1.2,1.7C823.2,27.7,823.1,27.7,823,27.7z"/>
	<path clip-path="url(#SVGID_2_)" fill="#B59A76" d="M764.9,22.1c-0.8,0-1.4-0.6-1.5-1.3c-0.1-1.1-0.6-1.9-1.4-2.5
		c-2.5-1.8-7.9-1.1-9.7-0.6c-0.8,0.2-1.6-0.3-1.8-1.1c-0.2-0.8,0.3-1.6,1.1-1.8c0.8-0.2,8.1-1.8,12.1,1.1c1.5,1.1,2.4,2.7,2.6,4.6
		c0.1,0.8-0.5,1.6-1.3,1.6C765,22.1,765,22.1,764.9,22.1z"/>
	<path clip-path="url(#SVGID_2_)" fill="#B59A76" d="M706.7,22.1c-0.8,0-1.4-0.6-1.5-1.3c-0.1-1.1-0.6-1.9-1.4-2.5
		c-2.5-1.8-7.9-1.1-9.7-0.6c-0.8,0.2-1.6-0.3-1.8-1.1c-0.2-0.8,0.3-1.6,1.1-1.8c0.8-0.2,8.1-1.8,12.1,1.1c1.5,1.1,2.4,2.7,2.6,4.6
		c0.1,0.8-0.5,1.6-1.3,1.6C706.8,22.1,706.7,22.1,706.7,22.1z"/>
	<path clip-path="url(#SVGID_2_)" fill="#B59A76" d="M766,27.7c-0.7,0-1.4-0.5-1.5-1.3l-0.2-1c-0.1-0.8,0.4-1.6,1.2-1.7
		c0.8-0.1,1.6,0.4,1.7,1.2l0.2,1c0.1,0.8-0.4,1.6-1.2,1.7C766.1,27.7,766.1,27.7,766,27.7z"/>
	<path clip-path="url(#SVGID_2_)" fill="#B59A76" d="M707.8,27.7c-0.7,0-1.4-0.5-1.5-1.3l-0.2-1c-0.1-0.8,0.4-1.6,1.2-1.7
		c0.8-0.1,1.6,0.4,1.7,1.2l0.2,1c0.1,0.8-0.4,1.6-1.2,1.7C708,27.7,707.9,27.7,707.8,27.7z"/>
	<path clip-path="url(#SVGID_2_)" fill="#B59A76" d="M649.9,27.7c-0.7,0-1.4-0.5-1.5-1.3l-0.2-1c-0.1-0.8,0.4-1.6,1.2-1.7
		c0.8-0.1,1.6,0.4,1.7,1.2l0.2,1c0.1,0.8-0.4,1.6-1.2,1.7C650,27.7,650,27.7,649.9,27.7z"/>
	<path clip-path="url(#SVGID_2_)" fill="#B59A76" d="M587.9,22.1c-0.8,0-1.4-0.6-1.5-1.3c-0.1-1.1-0.6-1.9-1.4-2.5
		c-2.5-1.8-7.9-1.1-9.7-0.6c-0.8,0.2-1.6-0.3-1.8-1.1c-0.2-0.8,0.3-1.6,1.1-1.8c0.8-0.2,8.1-1.8,12.1,1.1c1.5,1.1,2.4,2.7,2.6,4.6
		c0.1,0.8-0.5,1.6-1.3,1.6C588,22.1,587.9,22.1,587.9,22.1z"/>
	<path clip-path="url(#SVGID_2_)" fill="#B59A76" d="M529.6,22.1c-0.8,0-1.4-0.6-1.5-1.3c-0.1-1.1-0.6-1.9-1.4-2.5
		c-2.5-1.8-7.9-1.1-9.7-0.6c-0.8,0.2-1.6-0.3-1.8-1.1c-0.2-0.8,0.3-1.6,1.1-1.8c0.8-0.2,8.1-1.8,12.1,1.1c1.5,1.1,2.4,2.7,2.6,4.6
		c0.1,0.8-0.5,1.6-1.3,1.6C529.7,22.1,529.7,22.1,529.6,22.1z"/>
	<path clip-path="url(#SVGID_2_)" fill="#B59A76" d="M589,27.7c-0.7,0-1.4-0.5-1.5-1.3l-0.2-1c-0.1-0.8,0.4-1.6,1.2-1.7
		c0.8-0.1,1.6,0.4,1.7,1.2l0.2,1c0.1,0.8-0.4,1.6-1.2,1.7C589.1,27.7,589,27.7,589,27.7z"/>
	<path clip-path="url(#SVGID_2_)" fill="#B59A76" d="M530.8,27.7c-0.7,0-1.4-0.5-1.5-1.3l-0.2-1c-0.1-0.8,0.4-1.6,1.2-1.7
		c0.8-0.1,1.6,0.4,1.7,1.2l0.2,1c0.1,0.8-0.4,1.6-1.2,1.7C530.9,27.7,530.8,27.7,530.8,27.7z"/>
	<path clip-path="url(#SVGID_2_)" fill="#B59A76" d="M471.5,22.1c-0.8,0-1.4-0.6-1.5-1.3c-0.1-1.1-0.6-1.9-1.4-2.5
		c-2.5-1.8-7.9-1.1-9.7-0.6c-0.8,0.2-1.6-0.3-1.8-1.1c-0.2-0.8,0.3-1.6,1.1-1.8c0.8-0.2,8.1-1.8,12.1,1.1c1.5,1.1,2.4,2.7,2.6,4.6
		c0.1,0.8-0.5,1.6-1.3,1.6C471.6,22.1,471.6,22.1,471.5,22.1z"/>
	<path clip-path="url(#SVGID_2_)" fill="#B59A76" d="M413.3,22.1c-0.8,0-1.4-0.6-1.5-1.3c-0.1-1.1-0.6-1.9-1.4-2.5
		c-2.5-1.8-7.9-1.1-9.7-0.6c-0.8,0.2-1.6-0.3-1.8-1.1c-0.2-0.8,0.3-1.6,1.1-1.8c0.8-0.2,8.1-1.8,12.1,1.1c1.5,1.1,2.4,2.7,2.6,4.6
		c0.1,0.8-0.5,1.6-1.3,1.6C413.4,22.1,413.4,22.1,413.3,22.1z"/>
	<path clip-path="url(#SVGID_2_)" fill="#B59A76" d="M472.6,27.7c-0.7,0-1.4-0.5-1.5-1.3l-0.2-1c-0.1-0.8,0.4-1.6,1.2-1.7
		c0.8-0.1,1.6,0.4,1.7,1.2l0.2,1c0.1,0.8-0.4,1.6-1.2,1.7C472.8,27.7,472.7,27.7,472.6,27.7z"/>
	<path clip-path="url(#SVGID_2_)" fill="#B59A76" d="M414.4,27.7c-0.7,0-1.4-0.5-1.5-1.3l-0.2-1c-0.1-0.8,0.4-1.6,1.2-1.7
		c0.8-0.1,1.6,0.4,1.7,1.2l0.2,1c0.1,0.8-0.4,1.6-1.2,1.7C414.6,27.7,414.5,27.7,414.4,27.7z"/>
	<path clip-path="url(#SVGID_2_)" fill="#B59A76" d="M356.1,22.1c-0.8,0-1.4-0.6-1.5-1.3c-0.1-1.1-0.6-1.9-1.4-2.5
		c-2.5-1.8-7.9-1.1-9.7-0.6c-0.8,0.2-1.6-0.3-1.8-1.1c-0.2-0.8,0.3-1.6,1.1-1.8c0.8-0.2,8.1-1.8,12.1,1.1c1.5,1.1,2.4,2.7,2.6,4.6
		c0.1,0.8-0.5,1.6-1.3,1.6C356.2,22.1,356.1,22.1,356.1,22.1z"/>
	<path clip-path="url(#SVGID_2_)" fill="#B59A76" d="M297.9,22.1c-0.8,0-1.4-0.6-1.5-1.3c-0.1-1.1-0.6-1.9-1.4-2.5
		c-2.5-1.8-7.9-1.1-9.7-0.6c-0.8,0.2-1.6-0.3-1.8-1.1c-0.2-0.8,0.3-1.6,1.1-1.8c0.8-0.2,8.1-1.8,12.1,1.1c1.5,1.1,2.4,2.7,2.6,4.6
		c0.1,0.8-0.5,1.6-1.3,1.6C298,22.1,297.9,22.1,297.9,22.1z"/>
	<path clip-path="url(#SVGID_2_)" fill="#B59A76" d="M357.2,27.7c-0.7,0-1.4-0.5-1.5-1.3l-0.2-1c-0.1-0.8,0.4-1.6,1.2-1.7
		c0.8-0.1,1.6,0.4,1.7,1.2l0.2,1c0.1,0.8-0.4,1.6-1.2,1.7C357.3,27.7,357.2,27.7,357.2,27.7z"/>
	<path clip-path="url(#SVGID_2_)" fill="#B59A76" d="M299,27.7c-0.7,0-1.4-0.5-1.5-1.3l-0.2-1c-0.1-0.8,0.4-1.6,1.2-1.7
		c0.8-0.1,1.6,0.4,1.7,1.2l0.2,1c0.1,0.8-0.4,1.6-1.2,1.7C299.1,27.7,299.1,27.7,299,27.7z"/>
	<path clip-path="url(#SVGID_2_)" fill="#B59A76" d="M240.4,22.1c-0.8,0-1.4-0.6-1.5-1.3c-0.1-1.1-0.6-1.9-1.4-2.5
		c-2.5-1.8-7.9-1.1-9.7-0.6c-0.8,0.2-1.6-0.3-1.8-1.1c-0.2-0.8,0.3-1.6,1.1-1.8c0.8-0.2,8.1-1.8,12.1,1.1c1.5,1.1,2.4,2.7,2.6,4.6
		c0.1,0.8-0.5,1.6-1.3,1.6C240.5,22.1,240.4,22.1,240.4,22.1z"/>
	<path clip-path="url(#SVGID_2_)" fill="#B59A76" d="M182.1,22.1c-0.8,0-1.4-0.6-1.5-1.3c-0.1-1.1-0.6-1.9-1.4-2.5
		c-2.5-1.8-7.9-1.1-9.7-0.6c-0.8,0.2-1.6-0.3-1.8-1.1s0.3-1.6,1.1-1.8c0.8-0.2,8.1-1.8,12.1,1.1c1.5,1.1,2.4,2.7,2.6,4.6
		c0.1,0.8-0.5,1.6-1.3,1.6C182.2,22.1,182.2,22.1,182.1,22.1z"/>
	<path clip-path="url(#SVGID_2_)" fill="#B59A76" d="M241.4,27.7c-0.7,0-1.4-0.5-1.5-1.3l-0.2-1c-0.1-0.8,0.4-1.6,1.2-1.7
		c0.8-0.1,1.6,0.4,1.7,1.2l0.2,1c0.1,0.8-0.4,1.6-1.2,1.7C241.6,27.7,241.5,27.7,241.4,27.7z"/>
	<path clip-path="url(#SVGID_2_)" fill="#B59A76" d="M183.2,27.7c-0.7,0-1.4-0.5-1.5-1.3l-0.2-1c-0.1-0.8,0.4-1.6,1.2-1.7
		c0.8-0.1,1.6,0.4,1.7,1.2l0.2,1c0.1,0.8-0.4,1.6-1.2,1.7C183.4,27.7,183.3,27.7,183.2,27.7z"/>
	<path clip-path="url(#SVGID_2_)" fill="#B59A76" d="M125.1,22.1c-0.8,0-1.4-0.6-1.5-1.3c-0.1-1.1-0.6-1.9-1.4-2.5
		c-2.5-1.8-7.9-1.1-9.7-0.6c-0.8,0.2-1.6-0.3-1.8-1.1c-0.2-0.8,0.3-1.6,1.1-1.8c0.8-0.2,8.1-1.8,12.1,1.1c1.5,1.1,2.4,2.7,2.6,4.6
		c0.1,0.8-0.5,1.6-1.3,1.6C125.2,22.1,125.1,22.1,125.1,22.1z"/>
	<path clip-path="url(#SVGID_2_)" fill="#B59A76" d="M66.9,22.1c-0.8,0-1.4-0.6-1.5-1.3c-0.1-1.1-0.6-1.9-1.4-2.5
		c-2.5-1.8-7.9-1.1-9.7-0.6c-0.8,0.2-1.6-0.3-1.8-1.1c-0.2-0.8,0.3-1.6,1.1-1.8c0.8-0.2,8.1-1.8,12.1,1.1c1.5,1.1,2.4,2.7,2.6,4.6
		c0.1,0.8-0.5,1.6-1.3,1.6C67,22.1,66.9,22.1,66.9,22.1z"/>
	<path clip-path="url(#SVGID_2_)" fill="#B59A76" d="M126.2,27.7c-0.7,0-1.4-0.5-1.5-1.3l-0.2-1c-0.1-0.8,0.4-1.6,1.2-1.7
		c0.8-0.1,1.6,0.4,1.7,1.2l0.2,1c0.1,0.8-0.4,1.6-1.2,1.7C126.3,27.7,126.3,27.7,126.2,27.7z"/>
	<path clip-path="url(#SVGID_2_)" fill="#B59A76" d="M68,27.7c-0.7,0-1.4-0.5-1.5-1.3l-0.2-1c-0.1-0.8,0.4-1.6,1.2-1.7
		c0.8-0.1,1.6,0.4,1.7,1.2l0.2,1c0.1,0.8-0.4,1.6-1.2,1.7C68.1,27.7,68.1,27.7,68,27.7z"/>
	<path clip-path="url(#SVGID_2_)" fill="#B59A76" d="M8.9,22.1c-0.7,0-1.4-0.5-1.5-1.3c-0.5-3.3-5.7-4.2-5.7-4.2
		c-0.8-0.1-1.4-0.9-1.2-1.7c0.1-0.8,0.9-1.4,1.7-1.2c0.3,0,7.3,1.2,8.2,6.7c0.1,0.8-0.4,1.6-1.2,1.7C9.1,22.1,9,22.1,8.9,22.1z"/>
	<path clip-path="url(#SVGID_2_)" fill="#B59A76" d="M10.1,27.7c-0.7,0-1.4-0.5-1.5-1.3l-0.2-1c-0.1-0.8,0.4-1.6,1.2-1.7
		c0.8-0.1,1.6,0.4,1.7,1.2l0.2,1c0.1,0.8-0.4,1.6-1.2,1.7C10.2,27.7,10.2,27.7,10.1,27.7z"/>
	<path clip-path="url(#SVGID_2_)" fill="#B59A76" d="M647.7,22.1c-0.8,0-1.4-0.6-1.5-1.3c-0.1-1.1-0.6-1.9-1.4-2.5
		c-2.5-1.8-7.9-1.1-9.7-0.6c-0.8,0.2-1.6-0.3-1.8-1.1c-0.2-0.8,0.3-1.6,1.1-1.8c0.8-0.2,8.1-1.8,12.1,1.1c1.5,1.1,2.4,2.7,2.6,4.6
		c0.1,0.8-0.5,1.6-1.3,1.6C647.8,22.1,647.7,22.1,647.7,22.1z"/>
	<polygon clip-path="url(#SVGID_2_)" fill="#FCF0DE" points="929.7,713.4 918.8,715.8 914.3,727.4 887.6,726.9 879.4,713.5 
		862.6,714.9 856.8,726.5 830.5,726.5 821,714 804.7,715.3 798.8,726.9 772.5,727.4 763.9,713.5 746.7,714.9 740.4,727.4 
		714.5,727.4 707.7,714.4 689.2,714.9 682.8,726 655.7,726.9 648,713.5 639.8,712.9 639.8,592.4 929.7,592.4 	"/>
	<polygon clip-path="url(#SVGID_2_)" fill="#FCF0DE" points="1219.6,713.5 1208.7,715.8 1204.2,727.4 1177.4,726.9 1169.3,713.5 
		1152.5,714.9 1146.6,726.5 1120.4,726.5 1110.9,714 1094.6,715.3 1088.7,726.9 1062.4,727.4 1053.8,713.5 1036.6,714.9 
		1030.2,727.4 1004.4,727.4 997.6,714.4 979.1,714.9 972.7,726 945.5,726.9 937.8,713.5 920.7,713.5 920.7,592.4 1219.6,592.4 	"/>
	<polyline clip-path="url(#SVGID_2_)" fill="#FCF0DE" points="1268.9,714.9 1262.6,726 1235.4,726.9 1227.7,713.5 1218.6,712.9 
		1218.6,592.4 1279.8,592.4 1279.8,713.5 	"/>
	<polygon clip-path="url(#SVGID_2_)" fill="#FCF0DE" points="289.9,713.4 279,715.8 274.5,727.4 247.8,726.9 239.6,713.5 
		222.8,714.9 217,726.5 190.7,726.5 181.2,714 164.9,715.3 159,726.9 132.7,727.4 124.1,713.5 106.9,714.9 100.6,727.4 74.7,727.4 
		67.9,714.4 49.4,714.9 43,726 15.9,726.9 8.2,713.5 0,712.9 0,592.4 289.9,592.4 	"/>
	<polygon clip-path="url(#SVGID_2_)" fill="#FCF0DE" points="579.8,713.5 568.9,715.8 564.4,727.4 537.6,726.9 529.5,713.5 
		512.7,714.9 506.8,726.5 480.6,726.5 471.1,714 454.7,715.3 448.9,726.9 422.6,727.4 414,713.5 396.8,714.9 390.4,727.4 
		364.6,727.4 357.8,714.4 339.2,714.9 332.9,726 305.7,726.9 298,713.5 280.9,713.5 280.9,592.4 579.8,592.4 	"/>
	<polyline clip-path="url(#SVGID_2_)" fill="#FCF0DE" points="629.1,714.9 622.8,726 595.6,726.9 587.9,713.5 578.8,712.9 
		578.8,592.4 640,592.4 640,713.5 	"/>
	<path clip-path="url(#SVGID_2_)" fill="#7F3430" d="M1227.7,726.7c-0.8,0-1.4-0.6-1.5-1.3c-0.1-1.1-0.6-1.9-1.4-2.5
		c-2.5-1.8-7.9-1.1-9.7-0.6c-0.8,0.2-1.6-0.3-1.8-1.1c-0.2-0.8,0.3-1.6,1.1-1.8c0.8-0.2,8.1-1.8,12.1,1.1c1.5,1.1,2.4,2.7,2.6,4.6
		c0.1,0.8-0.5,1.6-1.3,1.6C1227.8,726.7,1227.7,726.7,1227.7,726.7z"/>
	<path clip-path="url(#SVGID_2_)" fill="#7F3430" d="M1272.2,723.3c-0.5,0-1-0.2-1.3-0.7c-0.4-0.7-0.2-1.6,0.5-2.1
		c0.2-0.1,3.8-2.4,7.3-1.1c0.8,0.3,1.2,1.1,0.9,1.9c-0.3,0.8-1.1,1.2-1.9,0.9c-2.1-0.7-4.6,0.8-4.6,0.9
		C1272.7,723.2,1272.4,723.3,1272.2,723.3z"/>
	<path clip-path="url(#SVGID_2_)" fill="#7F3430" d="M1169.5,726.7c-0.8,0-1.4-0.6-1.5-1.3c-0.1-1.1-0.6-1.9-1.4-2.5
		c-2.5-1.8-7.9-1.1-9.7-0.6c-0.8,0.2-1.6-0.3-1.8-1.1c-0.2-0.8,0.3-1.6,1.1-1.8c0.8-0.2,8.1-1.8,12.1,1.1c1.5,1.1,2.4,2.7,2.6,4.6
		c0.1,0.8-0.5,1.6-1.3,1.6C1169.6,726.7,1169.5,726.7,1169.5,726.7z"/>
	<path clip-path="url(#SVGID_2_)" fill="#7F3430" d="M1228.8,732.2c-0.7,0-1.4-0.5-1.5-1.3l-0.2-1c-0.1-0.8,0.4-1.6,1.2-1.7
		c0.8-0.1,1.6,0.4,1.7,1.2l0.2,1c0.1,0.8-0.4,1.6-1.2,1.7C1228.9,732.2,1228.8,732.2,1228.8,732.2z"/>
	<path clip-path="url(#SVGID_2_)" fill="#7F3430" d="M1170.6,732.2c-0.7,0-1.4-0.5-1.5-1.3l-0.2-1c-0.1-0.8,0.4-1.6,1.2-1.7
		c0.8-0.1,1.6,0.4,1.7,1.2l0.2,1c0.1,0.8-0.4,1.6-1.2,1.7C1170.7,732.2,1170.7,732.2,1170.6,732.2z"/>
	<path clip-path="url(#SVGID_2_)" fill="#7F3430" d="M1111.3,726.7c-0.8,0-1.4-0.6-1.5-1.3c-0.1-1.1-0.6-1.9-1.4-2.5
		c-2.5-1.8-7.9-1.1-9.7-0.6c-0.8,0.2-1.6-0.3-1.8-1.1c-0.2-0.8,0.3-1.6,1.1-1.8c0.8-0.2,8.1-1.8,12.1,1.1c1.5,1.1,2.4,2.7,2.6,4.6
		c0.1,0.8-0.5,1.6-1.3,1.6C1111.5,726.7,1111.4,726.7,1111.3,726.7z"/>
	<path clip-path="url(#SVGID_2_)" fill="#7F3430" d="M1053.1,726.7c-0.8,0-1.4-0.6-1.5-1.3c-0.1-1.1-0.6-1.9-1.4-2.5
		c-2.5-1.8-7.9-1.1-9.7-0.6c-0.8,0.2-1.6-0.3-1.8-1.1c-0.2-0.8,0.3-1.6,1.1-1.8c0.8-0.2,8.1-1.8,12.1,1.1c1.5,1.1,2.4,2.7,2.6,4.6
		c0.1,0.8-0.5,1.6-1.3,1.6C1053.2,726.7,1053.2,726.7,1053.1,726.7z"/>
	<path clip-path="url(#SVGID_2_)" fill="#7F3430" d="M1112.4,732.2c-0.7,0-1.4-0.5-1.5-1.3l-0.2-1c-0.1-0.8,0.4-1.6,1.2-1.7
		c0.8-0.1,1.6,0.4,1.7,1.2l0.2,1c0.1,0.8-0.4,1.6-1.2,1.7C1112.6,732.2,1112.5,732.2,1112.4,732.2z"/>
	<path clip-path="url(#SVGID_2_)" fill="#7F3430" d="M1054.2,732.2c-0.7,0-1.4-0.5-1.5-1.3l-0.2-1c-0.1-0.8,0.4-1.6,1.2-1.7
		c0.8-0.1,1.6,0.4,1.7,1.2l0.2,1c0.1,0.8-0.4,1.6-1.2,1.7C1054.4,732.2,1054.3,732.2,1054.2,732.2z"/>
	<path clip-path="url(#SVGID_2_)" fill="#7F3430" d="M995.9,726.7c-0.8,0-1.4-0.6-1.5-1.3c-0.1-1.1-0.6-1.9-1.4-2.5
		c-2.5-1.8-7.9-1.1-9.7-0.6c-0.8,0.2-1.6-0.3-1.8-1.1c-0.2-0.8,0.3-1.6,1.1-1.8c0.8-0.2,8.1-1.8,12.1,1.1c1.5,1.1,2.4,2.7,2.6,4.6
		c0.1,0.8-0.5,1.6-1.3,1.6C996,726.7,995.9,726.7,995.9,726.7z"/>
	<path clip-path="url(#SVGID_2_)" fill="#7F3430" d="M937.7,726.7c-0.8,0-1.4-0.6-1.5-1.3c-0.1-1.1-0.6-1.9-1.4-2.5
		c-2.5-1.8-7.9-1.1-9.7-0.6c-0.8,0.2-1.6-0.3-1.8-1.1c-0.2-0.8,0.3-1.6,1.1-1.8c0.8-0.2,8.1-1.8,12.1,1.1c1.5,1.1,2.4,2.7,2.6,4.6
		c0.1,0.8-0.5,1.6-1.3,1.6C937.8,726.7,937.7,726.7,937.7,726.7z"/>
	<path clip-path="url(#SVGID_2_)" fill="#7F3430" d="M997,732.2c-0.7,0-1.4-0.5-1.5-1.3l-0.2-1c-0.1-0.8,0.4-1.6,1.2-1.7
		c0.8-0.1,1.6,0.4,1.7,1.2l0.2,1c0.1,0.8-0.4,1.6-1.2,1.7C997.1,732.2,997.1,732.2,997,732.2z"/>
	<path clip-path="url(#SVGID_2_)" fill="#7F3430" d="M938.8,732.2c-0.7,0-1.4-0.5-1.5-1.3l-0.2-1c-0.1-0.8,0.4-1.6,1.2-1.7
		c0.8-0.1,1.6,0.4,1.7,1.2l0.2,1c0.1,0.8-0.4,1.6-1.2,1.7C938.9,732.2,938.9,732.2,938.8,732.2z"/>
	<path clip-path="url(#SVGID_2_)" fill="#7F3430" d="M880.2,726.7c-0.8,0-1.4-0.6-1.5-1.3c-0.1-1.1-0.6-1.9-1.4-2.5
		c-2.5-1.8-7.9-1.1-9.7-0.6c-0.8,0.2-1.6-0.3-1.8-1.1c-0.2-0.8,0.3-1.6,1.1-1.8c0.8-0.2,8.1-1.8,12.1,1.1c1.5,1.1,2.4,2.7,2.6,4.6
		c0.1,0.8-0.5,1.6-1.3,1.6C880.3,726.7,880.2,726.7,880.2,726.7z"/>
	<path clip-path="url(#SVGID_2_)" fill="#7F3430" d="M821.9,726.7c-0.8,0-1.4-0.6-1.5-1.3c-0.1-1.1-0.6-1.9-1.4-2.5
		c-2.5-1.8-7.9-1.1-9.7-0.6c-0.8,0.2-1.6-0.3-1.8-1.1s0.3-1.6,1.1-1.8c0.8-0.2,8.1-1.8,12.1,1.1c1.5,1.1,2.4,2.7,2.6,4.6
		c0.1,0.8-0.5,1.6-1.3,1.6C822,726.7,822,726.7,821.9,726.7z"/>
	<path clip-path="url(#SVGID_2_)" fill="#7F3430" d="M881.2,732.2c-0.7,0-1.4-0.5-1.5-1.3l-0.2-1c-0.1-0.8,0.4-1.6,1.2-1.7
		c0.8-0.1,1.6,0.4,1.7,1.2l0.2,1c0.1,0.8-0.4,1.6-1.2,1.7C881.4,732.2,881.3,732.2,881.2,732.2z"/>
	<path clip-path="url(#SVGID_2_)" fill="#7F3430" d="M823,732.2c-0.7,0-1.4-0.5-1.5-1.3l-0.2-1c-0.1-0.8,0.4-1.6,1.2-1.7
		c0.8-0.1,1.6,0.4,1.7,1.2l0.2,1c0.1,0.8-0.4,1.6-1.2,1.7C823.2,732.2,823.1,732.2,823,732.2z"/>
	<path clip-path="url(#SVGID_2_)" fill="#7F3430" d="M764.9,726.7c-0.8,0-1.4-0.6-1.5-1.3c-0.1-1.1-0.6-1.9-1.4-2.5
		c-2.5-1.8-7.9-1.1-9.7-0.6c-0.8,0.2-1.6-0.3-1.8-1.1c-0.2-0.8,0.3-1.6,1.1-1.8c0.8-0.2,8.1-1.8,12.1,1.1c1.5,1.1,2.4,2.7,2.6,4.6
		c0.1,0.8-0.5,1.6-1.3,1.6C765,726.7,765,726.7,764.9,726.7z"/>
	<path clip-path="url(#SVGID_2_)" fill="#7F3430" d="M706.7,726.7c-0.8,0-1.4-0.6-1.5-1.3c-0.1-1.1-0.6-1.9-1.4-2.5
		c-2.5-1.8-7.9-1.1-9.7-0.6c-0.8,0.2-1.6-0.3-1.8-1.1c-0.2-0.8,0.3-1.6,1.1-1.8c0.8-0.2,8.1-1.8,12.1,1.1c1.5,1.1,2.4,2.7,2.6,4.6
		c0.1,0.8-0.5,1.6-1.3,1.6C706.8,726.7,706.7,726.7,706.7,726.7z"/>
	<path clip-path="url(#SVGID_2_)" fill="#7F3430" d="M766,732.2c-0.7,0-1.4-0.5-1.5-1.3l-0.2-1c-0.1-0.8,0.4-1.6,1.2-1.7
		c0.8-0.1,1.6,0.4,1.7,1.2l0.2,1c0.1,0.8-0.4,1.6-1.2,1.7C766.1,732.2,766.1,732.2,766,732.2z"/>
	<path clip-path="url(#SVGID_2_)" fill="#7F3430" d="M707.8,732.2c-0.7,0-1.4-0.5-1.5-1.3l-0.2-1c-0.1-0.8,0.4-1.6,1.2-1.7
		c0.8-0.1,1.6,0.4,1.7,1.2l0.2,1c0.1,0.8-0.4,1.6-1.2,1.7C708,732.2,707.9,732.2,707.8,732.2z"/>
	<path clip-path="url(#SVGID_2_)" fill="#7F3430" d="M649.9,732.2c-0.7,0-1.4-0.5-1.5-1.3l-0.2-1c-0.1-0.8,0.4-1.6,1.2-1.7
		c0.8-0.1,1.6,0.4,1.7,1.2l0.2,1c0.1,0.8-0.4,1.6-1.2,1.7C650,732.2,650,732.2,649.9,732.2z"/>
	<path clip-path="url(#SVGID_2_)" fill="#7F3430" d="M587.9,726.7c-0.8,0-1.4-0.6-1.5-1.3c-0.1-1.1-0.6-1.9-1.4-2.5
		c-2.5-1.8-7.9-1.1-9.7-0.6c-0.8,0.2-1.6-0.3-1.8-1.1c-0.2-0.8,0.3-1.6,1.1-1.8c0.8-0.2,8.1-1.8,12.1,1.1c1.5,1.1,2.4,2.7,2.6,4.6
		c0.1,0.8-0.5,1.6-1.3,1.6C588,726.7,587.9,726.7,587.9,726.7z"/>
	<path clip-path="url(#SVGID_2_)" fill="#7F3430" d="M529.6,726.7c-0.8,0-1.4-0.6-1.5-1.3c-0.1-1.1-0.6-1.9-1.4-2.5
		c-2.5-1.8-7.9-1.1-9.7-0.6c-0.8,0.2-1.6-0.3-1.8-1.1c-0.2-0.8,0.3-1.6,1.1-1.8c0.8-0.2,8.1-1.8,12.1,1.1c1.5,1.1,2.4,2.7,2.6,4.6
		c0.1,0.8-0.5,1.6-1.3,1.6C529.7,726.7,529.7,726.7,529.6,726.7z"/>
	<path clip-path="url(#SVGID_2_)" fill="#7F3430" d="M589,732.2c-0.7,0-1.4-0.5-1.5-1.3l-0.2-1c-0.1-0.8,0.4-1.6,1.2-1.7
		c0.8-0.1,1.6,0.4,1.7,1.2l0.2,1c0.1,0.8-0.4,1.6-1.2,1.7C589.1,732.2,589,732.2,589,732.2z"/>
	<path clip-path="url(#SVGID_2_)" fill="#7F3430" d="M530.8,732.2c-0.7,0-1.4-0.5-1.5-1.3l-0.2-1c-0.1-0.8,0.4-1.6,1.2-1.7
		c0.8-0.1,1.6,0.4,1.7,1.2l0.2,1c0.1,0.8-0.4,1.6-1.2,1.7C530.9,732.2,530.8,732.2,530.8,732.2z"/>
	<path clip-path="url(#SVGID_2_)" fill="#7F3430" d="M471.5,726.7c-0.8,0-1.4-0.6-1.5-1.3c-0.1-1.1-0.6-1.9-1.4-2.5
		c-2.5-1.8-7.9-1.1-9.7-0.6c-0.8,0.2-1.6-0.3-1.8-1.1c-0.2-0.8,0.3-1.6,1.1-1.8c0.8-0.2,8.1-1.8,12.1,1.1c1.5,1.1,2.4,2.7,2.6,4.6
		c0.1,0.8-0.5,1.6-1.3,1.6C471.6,726.7,471.6,726.7,471.5,726.7z"/>
	<path clip-path="url(#SVGID_2_)" fill="#7F3430" d="M413.3,726.7c-0.8,0-1.4-0.6-1.5-1.3c-0.1-1.1-0.6-1.9-1.4-2.5
		c-2.5-1.8-7.9-1.1-9.7-0.6c-0.8,0.2-1.6-0.3-1.8-1.1c-0.2-0.8,0.3-1.6,1.1-1.8c0.8-0.2,8.1-1.8,12.1,1.1c1.5,1.1,2.4,2.7,2.6,4.6
		c0.1,0.8-0.5,1.6-1.3,1.6C413.4,726.7,413.4,726.7,413.3,726.7z"/>
	<path clip-path="url(#SVGID_2_)" fill="#7F3430" d="M472.6,732.2c-0.7,0-1.4-0.5-1.5-1.3l-0.2-1c-0.1-0.8,0.4-1.6,1.2-1.7
		c0.8-0.1,1.6,0.4,1.7,1.2l0.2,1c0.1,0.8-0.4,1.6-1.2,1.7C472.8,732.2,472.7,732.2,472.6,732.2z"/>
	<path clip-path="url(#SVGID_2_)" fill="#7F3430" d="M414.4,732.2c-0.7,0-1.4-0.5-1.5-1.3l-0.2-1c-0.1-0.8,0.4-1.6,1.2-1.7
		c0.8-0.1,1.6,0.4,1.7,1.2l0.2,1c0.1,0.8-0.4,1.6-1.2,1.7C414.6,732.2,414.5,732.2,414.4,732.2z"/>
	<path clip-path="url(#SVGID_2_)" fill="#7F3430" d="M356.1,726.7c-0.8,0-1.4-0.6-1.5-1.3c-0.1-1.1-0.6-1.9-1.4-2.5
		c-2.5-1.8-7.9-1.1-9.7-0.6c-0.8,0.2-1.6-0.3-1.8-1.1c-0.2-0.8,0.3-1.6,1.1-1.8c0.8-0.2,8.1-1.8,12.1,1.1c1.5,1.1,2.4,2.7,2.6,4.6
		c0.1,0.8-0.5,1.6-1.3,1.6C356.2,726.7,356.1,726.7,356.1,726.7z"/>
	<path clip-path="url(#SVGID_2_)" fill="#7F3430" d="M297.9,726.7c-0.8,0-1.4-0.6-1.5-1.3c-0.1-1.1-0.6-1.9-1.4-2.5
		c-2.5-1.8-7.9-1.1-9.7-0.6c-0.8,0.2-1.6-0.3-1.8-1.1c-0.2-0.8,0.3-1.6,1.1-1.8c0.8-0.2,8.1-1.8,12.1,1.1c1.5,1.1,2.4,2.7,2.6,4.6
		c0.1,0.8-0.5,1.6-1.3,1.6C298,726.7,297.9,726.7,297.9,726.7z"/>
	<path clip-path="url(#SVGID_2_)" fill="#7F3430" d="M357.2,732.2c-0.7,0-1.4-0.5-1.5-1.3l-0.2-1c-0.1-0.8,0.4-1.6,1.2-1.7
		c0.8-0.1,1.6,0.4,1.7,1.2l0.2,1c0.1,0.8-0.4,1.6-1.2,1.7C357.3,732.2,357.2,732.2,357.2,732.2z"/>
	<path clip-path="url(#SVGID_2_)" fill="#7F3430" d="M299,732.2c-0.7,0-1.4-0.5-1.5-1.3l-0.2-1c-0.1-0.8,0.4-1.6,1.2-1.7
		c0.8-0.1,1.6,0.4,1.7,1.2l0.2,1c0.1,0.8-0.4,1.6-1.2,1.7C299.1,732.2,299.1,732.2,299,732.2z"/>
	<path clip-path="url(#SVGID_2_)" fill="#7F3430" d="M240.4,726.7c-0.8,0-1.4-0.6-1.5-1.3c-0.1-1.1-0.6-1.9-1.4-2.5
		c-2.5-1.8-7.9-1.1-9.7-0.6c-0.8,0.2-1.6-0.3-1.8-1.1c-0.2-0.8,0.3-1.6,1.1-1.8c0.8-0.2,8.1-1.8,12.1,1.1c1.5,1.1,2.4,2.7,2.6,4.6
		c0.1,0.8-0.5,1.6-1.3,1.6C240.5,726.7,240.4,726.7,240.4,726.7z"/>
	<path clip-path="url(#SVGID_2_)" fill="#7F3430" d="M182.1,726.7c-0.8,0-1.4-0.6-1.5-1.3c-0.1-1.1-0.6-1.9-1.4-2.5
		c-2.5-1.8-7.9-1.1-9.7-0.6c-0.8,0.2-1.6-0.3-1.8-1.1s0.3-1.6,1.1-1.8c0.8-0.2,8.1-1.8,12.1,1.1c1.5,1.1,2.4,2.7,2.6,4.6
		c0.1,0.8-0.5,1.6-1.3,1.6C182.2,726.7,182.2,726.7,182.1,726.7z"/>
	<path clip-path="url(#SVGID_2_)" fill="#7F3430" d="M241.4,732.2c-0.7,0-1.4-0.5-1.5-1.3l-0.2-1c-0.1-0.8,0.4-1.6,1.2-1.7
		c0.8-0.1,1.6,0.4,1.7,1.2l0.2,1c0.1,0.8-0.4,1.6-1.2,1.7C241.6,732.2,241.5,732.2,241.4,732.2z"/>
	<path clip-path="url(#SVGID_2_)" fill="#7F3430" d="M183.2,732.2c-0.7,0-1.4-0.5-1.5-1.3l-0.2-1c-0.1-0.8,0.4-1.6,1.2-1.7
		c0.8-0.1,1.6,0.4,1.7,1.2l0.2,1c0.1,0.8-0.4,1.6-1.2,1.7C183.4,732.2,183.3,732.2,183.2,732.2z"/>
	<path clip-path="url(#SVGID_2_)" fill="#7F3430" d="M125.1,726.7c-0.8,0-1.4-0.6-1.5-1.3c-0.1-1.1-0.6-1.9-1.4-2.5
		c-2.5-1.8-7.9-1.1-9.7-0.6c-0.8,0.2-1.6-0.3-1.8-1.1c-0.2-0.8,0.3-1.6,1.1-1.8c0.8-0.2,8.1-1.8,12.1,1.1c1.5,1.1,2.4,2.7,2.6,4.6
		c0.1,0.8-0.5,1.6-1.3,1.6C125.2,726.7,125.1,726.7,125.1,726.7z"/>
	<path clip-path="url(#SVGID_2_)" fill="#7F3430" d="M66.9,726.7c-0.8,0-1.4-0.6-1.5-1.3c-0.1-1.1-0.6-1.9-1.4-2.5
		c-2.5-1.8-7.9-1.1-9.7-0.6c-0.8,0.2-1.6-0.3-1.8-1.1c-0.2-0.8,0.3-1.6,1.1-1.8c0.8-0.2,8.1-1.8,12.1,1.1c1.5,1.1,2.4,2.7,2.6,4.6
		c0.1,0.8-0.5,1.6-1.3,1.6C67,726.7,66.9,726.7,66.9,726.7z"/>
	<path clip-path="url(#SVGID_2_)" fill="#7F3430" d="M126.2,732.2c-0.7,0-1.4-0.5-1.5-1.3l-0.2-1c-0.1-0.8,0.4-1.6,1.2-1.7
		c0.8-0.1,1.6,0.4,1.7,1.2l0.2,1c0.1,0.8-0.4,1.6-1.2,1.7C126.3,732.2,126.3,732.2,126.2,732.2z"/>
	<path clip-path="url(#SVGID_2_)" fill="#7F3430" d="M68,732.2c-0.7,0-1.4-0.5-1.5-1.3l-0.2-1c-0.1-0.8,0.4-1.6,1.2-1.7
		c0.8-0.1,1.6,0.4,1.7,1.2l0.2,1c0.1,0.8-0.4,1.6-1.2,1.7C68.1,732.2,68.1,732.2,68,732.2z"/>
	<path clip-path="url(#SVGID_2_)" fill="#7F3430" d="M8.9,726.7c-0.7,0-1.4-0.5-1.5-1.3c-0.5-3.3-5.7-4.2-5.7-4.2
		c-0.8-0.1-1.4-0.9-1.2-1.7c0.1-0.8,0.9-1.4,1.7-1.2c0.3,0,7.3,1.2,8.2,6.7c0.1,0.8-0.4,1.6-1.2,1.7C9.1,726.7,9,726.7,8.9,726.7z"
		/>
	<path clip-path="url(#SVGID_2_)" fill="#7F3430" d="M10.1,732.2c-0.7,0-1.4-0.5-1.5-1.3l-0.2-1c-0.1-0.8,0.4-1.6,1.2-1.7
		c0.8-0.1,1.6,0.4,1.7,1.2l0.2,1c0.1,0.8-0.4,1.6-1.2,1.7C10.2,732.2,10.2,732.2,10.1,732.2z"/>
	<path clip-path="url(#SVGID_2_)" fill="#7F3430" d="M647.7,726.7c-0.8,0-1.4-0.6-1.5-1.3c-0.1-1.1-0.6-1.9-1.4-2.5
		c-2.5-1.8-7.9-1.1-9.7-0.6c-0.8,0.2-1.6-0.3-1.8-1.1c-0.2-0.8,0.3-1.6,1.1-1.8c0.8-0.2,8.1-1.8,12.1,1.1c1.5,1.1,2.4,2.7,2.6,4.6
		c0.1,0.8-0.5,1.6-1.3,1.6C647.8,726.7,647.7,726.7,647.7,726.7z"/>
	<g clip-path="url(#SVGID_2_)">
		<path fill="#FCF0DE" d="M43.8,726c0,6.6-5.9,12.5-13.1,12.5H28c-7.2,0-13.1-5.8-13.1-12.5"/>
		<path fill="#4F463B" d="M30.7,742H28c-9,0-16.6-7.3-16.6-16c0-1.9,1.6-3.5,3.5-3.5s3.5,1.6,3.5,3.5c0,4.8,4.5,9,9.6,9h2.8
			c5.1,0,9.6-4.2,9.6-9c0-1.9,1.6-3.5,3.5-3.5s3.5,1.6,3.5,3.5C47.3,734.7,39.7,742,30.7,742z"/>
	</g>
	<path clip-path="url(#SVGID_2_)" fill="#4F463B" d="M72.8,729.5c-1.9,0-3.5-1.6-3.5-3.5c0-4.8-4.5-9-9.6-9h-2.8
		c-5.1,0-9.6,4.2-9.6,9c0,1.9-1.6,3.5-3.5,3.5s-3.5-1.6-3.5-3.5c0-8.7,7.6-16,16.6-16h2.8c9,0,16.6,7.3,16.6,16
		C76.3,727.9,74.7,729.5,72.8,729.5z"/>
	<path clip-path="url(#SVGID_2_)" fill="#4F463B" d="M18.4,725.3h-7c0-4.2-5.6-8.2-11.4-8.2v-7C8.7,710,18.4,716.3,18.4,725.3z"/>
	<g clip-path="url(#SVGID_2_)">
		<path fill="#FCF0DE" d="M101.7,726c0,6.6-5.9,12.5-13.1,12.5h-2.8c-7.2,0-13.1-5.8-13.1-12.5"/>
		<path fill="#4F463B" d="M88.6,742h-2.8c-9,0-16.6-7.3-16.6-16c0-1.9,1.6-3.5,3.5-3.5s3.5,1.6,3.5,3.5c0,4.8,4.5,9,9.6,9h2.8
			c5.1,0,9.6-4.2,9.6-9c0-1.9,1.6-3.5,3.5-3.5s3.5,1.6,3.5,3.5C105.2,734.7,97.6,742,88.6,742z"/>
	</g>
	<path clip-path="url(#SVGID_2_)" fill="#4F463B" d="M130.7,729.5c-1.9,0-3.5-1.6-3.5-3.5c0-4.8-4.5-9-9.6-9h-2.8
		c-5.1,0-9.6,4.2-9.6,9c0,1.9-1.6,3.5-3.5,3.5s-3.5-1.6-3.5-3.5c0-8.7,7.6-16,16.6-16h2.8c9,0,16.6,7.3,16.6,16
		C134.2,727.9,132.6,729.5,130.7,729.5z"/>
	<g clip-path="url(#SVGID_2_)">
		<path fill="#FCF0DE" d="M159.6,726c0,6.6-5.9,12.5-13.1,12.5h-2.8c-7.2,0-13.1-5.8-13.1-12.5"/>
		<path fill="#4F463B" d="M146.5,742h-2.8c-9,0-16.6-7.3-16.6-16c0-1.9,1.6-3.5,3.5-3.5s3.5,1.6,3.5,3.5c0,4.8,4.5,9,9.6,9h2.8
			c5.1,0,9.6-4.2,9.6-9c0-1.9,1.6-3.5,3.5-3.5s3.5,1.6,3.5,3.5C163.1,734.7,155.5,742,146.5,742z"/>
	</g>
	<path clip-path="url(#SVGID_2_)" fill="#4F463B" d="M188.6,729.5c-1.9,0-3.5-1.6-3.5-3.5c0-4.8-4.5-9-9.6-9h-2.8
		c-5.1,0-9.6,4.2-9.6,9c0,1.9-1.6,3.5-3.5,3.5s-3.5-1.6-3.5-3.5c0-8.7,7.6-16,16.6-16h2.8c9,0,16.6,7.3,16.6,16
		C192.1,727.9,190.5,729.5,188.6,729.5z"/>
	<g clip-path="url(#SVGID_2_)">
		<path fill="#FCF0DE" d="M217.5,726c0,6.6-5.9,12.5-13.1,12.5h-2.8c-7.2,0-13.1-5.8-13.1-12.5"/>
		<path fill="#4F463B" d="M204.4,742h-2.8c-9,0-16.6-7.3-16.6-16c0-1.9,1.6-3.5,3.5-3.5s3.5,1.6,3.5,3.5c0,4.8,4.5,9,9.6,9h2.8
			c5.1,0,9.6-4.2,9.6-9c0-1.9,1.6-3.5,3.5-3.5s3.5,1.6,3.5,3.5C221,734.7,213.4,742,204.4,742z"/>
	</g>
	<path clip-path="url(#SVGID_2_)" fill="#4F463B" d="M246.5,729.5c-1.9,0-3.5-1.6-3.5-3.5c0-4.8-4.5-9-9.6-9h-2.8
		c-5.1,0-9.6,4.2-9.6,9c0,1.9-1.6,3.5-3.5,3.5s-3.5-1.6-3.5-3.5c0-8.7,7.6-16,16.6-16h2.8c9,0,16.6,7.3,16.6,16
		C250,727.9,248.4,729.5,246.5,729.5z"/>
	<g clip-path="url(#SVGID_2_)">
		<path fill="#FCF0DE" d="M275.4,726c0,6.6-5.9,12.5-13.1,12.5h-2.8c-7.2,0-13.1-5.8-13.1-12.5"/>
		<path fill="#4F463B" d="M262.3,742h-2.8c-9,0-16.6-7.3-16.6-16c0-1.9,1.6-3.5,3.5-3.5s3.5,1.6,3.5,3.5c0,4.8,4.5,9,9.6,9h2.8
			c5.1,0,9.6-4.2,9.6-9c0-1.9,1.6-3.5,3.5-3.5s3.5,1.6,3.5,3.5C278.9,734.7,271.3,742,262.3,742z"/>
	</g>
	<path clip-path="url(#SVGID_2_)" fill="#4F463B" d="M278.9,728.4h-7v-3.5c0-9,6.5-14.9,16.6-14.9h3.5v7h-3.5c-8,0-9.6,4.3-9.6,7.9
		V728.4z"/>
	<g clip-path="url(#SVGID_2_)">
		<path fill="#FCF0DE" d="M333.7,726c0,6.6-5.9,12.5-13.1,12.5h-2.8c-7.2,0-13.1-5.8-13.1-12.5"/>
		<path fill="#4F463B" d="M320.6,742h-2.8c-9,0-16.6-7.3-16.6-16c0-1.9,1.6-3.5,3.5-3.5s3.5,1.6,3.5,3.5c0,4.8,4.5,9,9.6,9h2.8
			c5.1,0,9.6-4.2,9.6-9c0-1.9,1.6-3.5,3.5-3.5s3.5,1.6,3.5,3.5C337.2,734.7,329.6,742,320.6,742z"/>
	</g>
	<path clip-path="url(#SVGID_2_)" fill="#4F463B" d="M362.7,729.5c-1.9,0-3.5-1.6-3.5-3.5c0-4.8-4.5-9-9.6-9h-2.8
		c-5.1,0-9.6,4.2-9.6,9c0,1.9-1.6,3.5-3.5,3.5s-3.5-1.6-3.5-3.5c0-8.7,7.6-16,16.6-16h2.8c9,0,16.6,7.3,16.6,16
		C366.2,727.9,364.6,729.5,362.7,729.5z"/>
	<path clip-path="url(#SVGID_2_)" fill="#4F463B" d="M308.3,728.8h-7v-3.5c0-4.5-4.6-8.2-10-8.2h-3.5v-7h3.5c9.4,0,17,6.8,17,15.2
		V728.8z"/>
	<g clip-path="url(#SVGID_2_)">
		<path fill="#FCF0DE" d="M391.6,726c0,6.6-5.9,12.5-13.1,12.5h-2.8c-7.2,0-13.1-5.8-13.1-12.5"/>
		<path fill="#4F463B" d="M378.5,742h-2.8c-9,0-16.6-7.3-16.6-16c0-1.9,1.6-3.5,3.5-3.5s3.5,1.6,3.5,3.5c0,4.8,4.5,9,9.6,9h2.8
			c5.1,0,9.6-4.2,9.6-9c0-1.9,1.6-3.5,3.5-3.5s3.5,1.6,3.5,3.5C395.1,734.7,387.5,742,378.5,742z"/>
	</g>
	<path clip-path="url(#SVGID_2_)" fill="#4F463B" d="M420.6,729.5c-1.9,0-3.5-1.6-3.5-3.5c0-4.8-4.5-9-9.6-9h-2.8
		c-5.1,0-9.6,4.2-9.6,9c0,1.9-1.6,3.5-3.5,3.5s-3.5-1.6-3.5-3.5c0-8.7,7.6-16,16.6-16h2.8c9,0,16.6,7.3,16.6,16
		C424.1,727.9,422.5,729.5,420.6,729.5z"/>
	<g clip-path="url(#SVGID_2_)">
		<path fill="#FCF0DE" d="M449.5,726c0,6.6-5.9,12.5-13.1,12.5h-2.8c-7.2,0-13.1-5.8-13.1-12.5"/>
		<path fill="#4F463B" d="M436.4,742h-2.8c-9,0-16.6-7.3-16.6-16c0-1.9,1.6-3.5,3.5-3.5s3.5,1.6,3.5,3.5c0,4.8,4.5,9,9.6,9h2.8
			c5.1,0,9.6-4.2,9.6-9c0-1.9,1.6-3.5,3.5-3.5s3.5,1.6,3.5,3.5C453,734.7,445.4,742,436.4,742z"/>
	</g>
	<path clip-path="url(#SVGID_2_)" fill="#4F463B" d="M478.5,729.5c-1.9,0-3.5-1.6-3.5-3.5c0-4.8-4.5-9-9.6-9h-2.8
		c-5.1,0-9.6,4.2-9.6,9c0,1.9-1.6,3.5-3.5,3.5s-3.5-1.6-3.5-3.5c0-8.7,7.6-16,16.6-16h2.8c9,0,16.6,7.3,16.6,16
		C482,727.9,480.4,729.5,478.5,729.5z"/>
	<g clip-path="url(#SVGID_2_)">
		<path fill="#FCF0DE" d="M507.4,726c0,6.6-5.9,12.5-13.1,12.5h-2.8c-7.2,0-13.1-5.8-13.1-12.5"/>
		<path fill="#4F463B" d="M494.3,742h-2.8c-9,0-16.6-7.3-16.6-16c0-1.9,1.6-3.5,3.5-3.5s3.5,1.6,3.5,3.5c0,4.8,4.5,9,9.6,9h2.8
			c5.1,0,9.6-4.2,9.6-9c0-1.9,1.6-3.5,3.5-3.5s3.5,1.6,3.5,3.5C510.9,734.7,503.3,742,494.3,742z"/>
	</g>
	<path clip-path="url(#SVGID_2_)" fill="#4F463B" d="M536.4,729.5c-1.9,0-3.5-1.6-3.5-3.5c0-4.8-4.5-9-9.6-9h-2.8
		c-5.1,0-9.6,4.2-9.6,9c0,1.9-1.6,3.5-3.5,3.5s-3.5-1.6-3.5-3.5c0-8.7,7.6-16,16.6-16h2.8c9,0,16.6,7.3,16.6,16
		C539.9,727.9,538.3,729.5,536.4,729.5z"/>
	<g clip-path="url(#SVGID_2_)">
		<path fill="#FCF0DE" d="M565.3,726c0,6.6-5.9,12.5-13.1,12.5h-2.8c-7.2,0-13.1-5.8-13.1-12.5"/>
		<path fill="#4F463B" d="M552.2,742h-2.8c-9,0-16.6-7.3-16.6-16c0-1.9,1.6-3.5,3.5-3.5s3.5,1.6,3.5,3.5c0,4.8,4.5,9,9.6,9h2.8
			c5.1,0,9.6-4.2,9.6-9c0-1.9,1.6-3.5,3.5-3.5s3.5,1.6,3.5,3.5C568.8,734.7,561.2,742,552.2,742z"/>
	</g>
	<path clip-path="url(#SVGID_2_)" fill="#4F463B" d="M568.8,728.4h-7v-3.5c0-9,6.5-14.9,16.6-14.9h3.5v7h-3.5c-8,0-9.6,4.3-9.6,7.9
		V728.4z"/>
	<g clip-path="url(#SVGID_2_)">
		<path fill="#FCF0DE" d="M623.6,726c0,6.6-5.9,12.5-13.1,12.5h-2.8c-7.2,0-13.1-5.8-13.1-12.5"/>
		<path fill="#4F463B" d="M610.5,742h-2.8c-9,0-16.6-7.3-16.6-16c0-1.9,1.6-3.5,3.5-3.5s3.5,1.6,3.5,3.5c0,4.8,4.5,9,9.6,9h2.8
			c5.1,0,9.6-4.2,9.6-9c0-1.9,1.6-3.5,3.5-3.5s3.5,1.6,3.5,3.5C627.1,734.7,619.5,742,610.5,742z"/>
	</g>
	<path clip-path="url(#SVGID_2_)" fill="#4F463B" d="M627.1,729.5h-7V726c0-8.7,7.6-16,16.6-16h3.5v7h-3.5c-5.1,0-9.6,4.2-9.6,9
		V729.5z"/>
	<path clip-path="url(#SVGID_2_)" fill="#4F463B" d="M598.1,728.8h-7v-3.5c0-4.5-4.6-8.2-10-8.2h-3.5v-7h3.5c9.4,0,17,6.8,17,15.2
		V728.8z"/>
	<g clip-path="url(#SVGID_2_)">
		<path fill="#FCF0DE" d="M683.6,726c0,6.6-5.9,12.5-13.1,12.5h-2.8c-7.2,0-13.1-5.8-13.1-12.5"/>
		<path fill="#4F463B" d="M670.5,742h-2.8c-9,0-16.6-7.3-16.6-16c0-1.9,1.6-3.5,3.5-3.5s3.5,1.6,3.5,3.5c0,4.8,4.5,9,9.6,9h2.8
			c5.1,0,9.6-4.2,9.6-9c0-1.9,1.6-3.5,3.5-3.5s3.5,1.6,3.5,3.5C687.1,734.7,679.5,742,670.5,742z"/>
	</g>
	<path clip-path="url(#SVGID_2_)" fill="#4F463B" d="M712.6,729.5c-1.9,0-3.5-1.6-3.5-3.5c0-4.8-4.5-9-9.6-9h-2.8
		c-5.1,0-9.6,4.2-9.6,9c0,1.9-1.6,3.5-3.5,3.5s-3.5-1.6-3.5-3.5c0-8.7,7.6-16,16.6-16h2.8c9,0,16.6,7.3,16.6,16
		C716.1,727.9,714.5,729.5,712.6,729.5z"/>
	<path clip-path="url(#SVGID_2_)" fill="#4F463B" d="M658.2,725.3h-7c0-4.2-5.6-8.2-11.4-8.2v-7C648.5,710,658.2,716.3,658.2,725.3z
		"/>
	<g clip-path="url(#SVGID_2_)">
		<path fill="#FCF0DE" d="M741.5,726c0,6.6-5.9,12.5-13.1,12.5h-2.8c-7.2,0-13.1-5.8-13.1-12.5"/>
		<path fill="#4F463B" d="M728.4,742h-2.8c-9,0-16.6-7.3-16.6-16c0-1.9,1.6-3.5,3.5-3.5s3.5,1.6,3.5,3.5c0,4.8,4.5,9,9.6,9h2.8
			c5.1,0,9.6-4.2,9.6-9c0-1.9,1.6-3.5,3.5-3.5s3.5,1.6,3.5,3.5C745,734.7,737.4,742,728.4,742z"/>
	</g>
	<path clip-path="url(#SVGID_2_)" fill="#4F463B" d="M770.5,729.5c-1.9,0-3.5-1.6-3.5-3.5c0-4.8-4.5-9-9.6-9h-2.8
		c-5.1,0-9.6,4.2-9.6,9c0,1.9-1.6,3.5-3.5,3.5s-3.5-1.6-3.5-3.5c0-8.7,7.6-16,16.6-16h2.8c9,0,16.6,7.3,16.6,16
		C774,727.9,772.4,729.5,770.5,729.5z"/>
	<g clip-path="url(#SVGID_2_)">
		<path fill="#FCF0DE" d="M799.4,726c0,6.6-5.9,12.5-13.1,12.5h-2.8c-7.2,0-13.1-5.8-13.1-12.5"/>
		<path fill="#4F463B" d="M786.3,742h-2.8c-9,0-16.6-7.3-16.6-16c0-1.9,1.6-3.5,3.5-3.5s3.5,1.6,3.5,3.5c0,4.8,4.5,9,9.6,9h2.8
			c5.1,0,9.6-4.2,9.6-9c0-1.9,1.6-3.5,3.5-3.5s3.5,1.6,3.5,3.5C802.9,734.7,795.3,742,786.3,742z"/>
	</g>
	<path clip-path="url(#SVGID_2_)" fill="#4F463B" d="M828.4,729.5c-1.9,0-3.5-1.6-3.5-3.5c0-4.8-4.5-9-9.6-9h-2.8
		c-5.1,0-9.6,4.2-9.6,9c0,1.9-1.6,3.5-3.5,3.5s-3.5-1.6-3.5-3.5c0-8.7,7.6-16,16.6-16h2.8c9,0,16.6,7.3,16.6,16
		C831.9,727.9,830.3,729.5,828.4,729.5z"/>
	<g clip-path="url(#SVGID_2_)">
		<path fill="#FCF0DE" d="M857.3,726c0,6.6-5.9,12.5-13.1,12.5h-2.8c-7.2,0-13.1-5.8-13.1-12.5"/>
		<path fill="#4F463B" d="M844.2,742h-2.8c-9,0-16.6-7.3-16.6-16c0-1.9,1.6-3.5,3.5-3.5s3.5,1.6,3.5,3.5c0,4.8,4.5,9,9.6,9h2.8
			c5.1,0,9.6-4.2,9.6-9c0-1.9,1.6-3.5,3.5-3.5s3.5,1.6,3.5,3.5C860.8,734.7,853.2,742,844.2,742z"/>
	</g>
	<path clip-path="url(#SVGID_2_)" fill="#4F463B" d="M886.3,729.5c-1.9,0-3.5-1.6-3.5-3.5c0-4.8-4.5-9-9.6-9h-2.8
		c-5.1,0-9.6,4.2-9.6,9c0,1.9-1.6,3.5-3.5,3.5s-3.5-1.6-3.5-3.5c0-8.7,7.6-16,16.6-16h2.8c9,0,16.6,7.3,16.6,16
		C889.8,727.9,888.2,729.5,886.3,729.5z"/>
	<g clip-path="url(#SVGID_2_)">
		<path fill="#FCF0DE" d="M915.2,726c0,6.6-5.9,12.5-13.1,12.5h-2.8c-7.2,0-13.1-5.8-13.1-12.5"/>
		<path fill="#4F463B" d="M902.1,742h-2.8c-9,0-16.6-7.3-16.6-16c0-1.9,1.6-3.5,3.5-3.5s3.5,1.6,3.5,3.5c0,4.8,4.5,9,9.6,9h2.8
			c5.1,0,9.6-4.2,9.6-9c0-1.9,1.6-3.5,3.5-3.5s3.5,1.6,3.5,3.5C918.7,734.7,911.1,742,902.1,742z"/>
	</g>
	<path clip-path="url(#SVGID_2_)" fill="#4F463B" d="M918.7,728.4h-7v-3.5c0-9,6.5-14.9,16.6-14.9h3.5v7h-3.5c-8,0-9.6,4.3-9.6,7.9
		V728.4z"/>
	<g clip-path="url(#SVGID_2_)">
		<path fill="#FCF0DE" d="M973.5,726c0,6.6-5.9,12.5-13.1,12.5h-2.8c-7.2,0-13.1-5.8-13.1-12.5"/>
		<path fill="#4F463B" d="M960.4,742h-2.8c-9,0-16.6-7.3-16.6-16c0-1.9,1.6-3.5,3.5-3.5s3.5,1.6,3.5,3.5c0,4.8,4.5,9,9.6,9h2.8
			c5.1,0,9.6-4.2,9.6-9c0-1.9,1.6-3.5,3.5-3.5s3.5,1.6,3.5,3.5C977,734.7,969.4,742,960.4,742z"/>
	</g>
	<path clip-path="url(#SVGID_2_)" fill="#4F463B" d="M1002.5,729.5c-1.9,0-3.5-1.6-3.5-3.5c0-4.8-4.5-9-9.6-9h-2.8
		c-5.1,0-9.6,4.2-9.6,9c0,1.9-1.6,3.5-3.5,3.5s-3.5-1.6-3.5-3.5c0-8.7,7.6-16,16.6-16h2.8c9,0,16.6,7.3,16.6,16
		C1006,727.9,1004.4,729.5,1002.5,729.5z"/>
	<path clip-path="url(#SVGID_2_)" fill="#4F463B" d="M948.1,728.8h-7v-3.5c0-4.5-4.6-8.2-10-8.2h-3.5v-7h3.5c9.4,0,17,6.8,17,15.2
		V728.8z"/>
	<g clip-path="url(#SVGID_2_)">
		<path fill="#FCF0DE" d="M1031.4,726c0,6.6-5.9,12.5-13.1,12.5h-2.8c-7.2,0-13.1-5.8-13.1-12.5"/>
		<path fill="#4F463B" d="M1018.3,742h-2.8c-9,0-16.6-7.3-16.6-16c0-1.9,1.6-3.5,3.5-3.5s3.5,1.6,3.5,3.5c0,4.8,4.5,9,9.6,9h2.8
			c5.1,0,9.6-4.2,9.6-9c0-1.9,1.6-3.5,3.5-3.5s3.5,1.6,3.5,3.5C1034.9,734.7,1027.3,742,1018.3,742z"/>
	</g>
	<path clip-path="url(#SVGID_2_)" fill="#4F463B" d="M1060.4,729.5c-1.9,0-3.5-1.6-3.5-3.5c0-4.8-4.5-9-9.6-9h-2.8
		c-5.1,0-9.6,4.2-9.6,9c0,1.9-1.6,3.5-3.5,3.5s-3.5-1.6-3.5-3.5c0-8.7,7.6-16,16.6-16h2.8c9,0,16.6,7.3,16.6,16
		C1063.9,727.9,1062.3,729.5,1060.4,729.5z"/>
	<g clip-path="url(#SVGID_2_)">
		<path fill="#FCF0DE" d="M1089.3,726c0,6.6-5.9,12.5-13.1,12.5h-2.8c-7.2,0-13.1-5.8-13.1-12.5"/>
		<path fill="#4F463B" d="M1076.2,742h-2.8c-9,0-16.6-7.3-16.6-16c0-1.9,1.6-3.5,3.5-3.5s3.5,1.6,3.5,3.5c0,4.8,4.5,9,9.6,9h2.8
			c5.1,0,9.6-4.2,9.6-9c0-1.9,1.6-3.5,3.5-3.5s3.5,1.6,3.5,3.5C1092.8,734.7,1085.2,742,1076.2,742z"/>
	</g>
	<path clip-path="url(#SVGID_2_)" fill="#4F463B" d="M1118.3,729.5c-1.9,0-3.5-1.6-3.5-3.5c0-4.8-4.5-9-9.6-9h-2.8
		c-5.1,0-9.6,4.2-9.6,9c0,1.9-1.6,3.5-3.5,3.5s-3.5-1.6-3.5-3.5c0-8.7,7.6-16,16.6-16h2.8c9,0,16.6,7.3,16.6,16
		C1121.8,727.9,1120.2,729.5,1118.3,729.5z"/>
	<g clip-path="url(#SVGID_2_)">
		<path fill="#FCF0DE" d="M1147.2,726c0,6.6-5.9,12.5-13.1,12.5h-2.8c-7.2,0-13.1-5.8-13.1-12.5"/>
		<path fill="#4F463B" d="M1134.1,742h-2.8c-9,0-16.6-7.3-16.6-16c0-1.9,1.6-3.5,3.5-3.5s3.5,1.6,3.5,3.5c0,4.8,4.5,9,9.6,9h2.8
			c5.1,0,9.6-4.2,9.6-9c0-1.9,1.6-3.5,3.5-3.5s3.5,1.6,3.5,3.5C1150.7,734.7,1143.1,742,1134.1,742z"/>
	</g>
	<path clip-path="url(#SVGID_2_)" fill="#4F463B" d="M1176.2,729.5c-1.9,0-3.5-1.6-3.5-3.5c0-4.8-4.5-9-9.6-9h-2.8
		c-5.1,0-9.6,4.2-9.6,9c0,1.9-1.6,3.5-3.5,3.5s-3.5-1.6-3.5-3.5c0-8.7,7.6-16,16.6-16h2.8c9,0,16.6,7.3,16.6,16
		C1179.7,727.9,1178.1,729.5,1176.2,729.5z"/>
	<g clip-path="url(#SVGID_2_)">
		<path fill="#FCF0DE" d="M1205.1,726c0,6.6-5.9,12.5-13.1,12.5h-2.8c-7.2,0-13.1-5.8-13.1-12.5"/>
		<path fill="#4F463B" d="M1192,742h-2.8c-9,0-16.6-7.3-16.6-16c0-1.9,1.6-3.5,3.5-3.5s3.5,1.6,3.5,3.5c0,4.8,4.5,9,9.6,9h2.8
			c5.1,0,9.6-4.2,9.6-9c0-1.9,1.6-3.5,3.5-3.5s3.5,1.6,3.5,3.5C1208.6,734.7,1201,742,1192,742z"/>
	</g>
	<path clip-path="url(#SVGID_2_)" fill="#4F463B" d="M1208.6,728.4h-7v-3.5c0-9,6.5-14.9,16.6-14.9h3.5v7h-3.5c-8,0-9.6,4.3-9.6,7.9
		V728.4z"/>
	<g clip-path="url(#SVGID_2_)">
		<path fill="#FCF0DE" d="M1263.4,726c0,6.6-5.9,12.5-13.1,12.5h-2.8c-7.2,0-13.1-5.8-13.1-12.5"/>
		<path fill="#4F463B" d="M1250.3,742h-2.8c-9,0-16.6-7.3-16.6-16c0-1.9,1.6-3.5,3.5-3.5s3.5,1.6,3.5,3.5c0,4.8,4.5,9,9.6,9h2.8
			c5.1,0,9.6-4.2,9.6-9c0-1.9,1.6-3.5,3.5-3.5s3.5,1.6,3.5,3.5C1266.9,734.7,1259.3,742,1250.3,742z"/>
	</g>
	<path clip-path="url(#SVGID_2_)" fill="#4F463B" d="M1266.9,729.5h-7V726c0-8.7,7.6-16,16.6-16h3.5v7h-3.5c-5.1,0-9.6,4.2-9.6,9
		V729.5z"/>
	<path clip-path="url(#SVGID_2_)" fill="#4F463B" d="M1237.9,728.8h-7v-3.5c0-4.5-4.6-8.2-10-8.2h-3.5v-7h3.5c9.4,0,17,6.8,17,15.2
		V728.8z"/>
	<circle clip-path="url(#SVGID_2_)" fill="#FFFFFF" cx="962.6" cy="730.2" r="3.1"/>
	<path clip-path="url(#SVGID_2_)" fill="#FFFFFF" d="M967.3,722.3c-0.1,0-0.2,0-0.3,0c-0.8-0.2-1.3-0.9-1.2-1.8
		c0-0.2,3.3-15.9,20.8-15.9c0.8,0,1.5,0.7,1.5,1.5s-0.7,1.5-1.5,1.5c-15.1,0-17.7,12.9-17.8,13.5C968.6,721.8,968,722.3,967.3,722.3
		z"/>
	<circle clip-path="url(#SVGID_2_)" fill="#FFFFFF" cx="1021" cy="730.2" r="3.1"/>
	<path clip-path="url(#SVGID_2_)" fill="#FFFFFF" d="M1025.6,722.3c-0.1,0-0.2,0-0.3,0c-0.8-0.2-1.3-0.9-1.2-1.8
		c0-0.2,3.3-15.9,20.8-15.9c0.8,0,1.5,0.7,1.5,1.5s-0.7,1.5-1.5,1.5c-15.1,0-17.7,12.9-17.8,13.5
		C1027,721.8,1026.3,722.3,1025.6,722.3z"/>
	<circle clip-path="url(#SVGID_2_)" fill="#FFFFFF" cx="1078.7" cy="730.2" r="3.1"/>
	<path clip-path="url(#SVGID_2_)" fill="#FFFFFF" d="M1083.3,722.3c-0.1,0-0.2,0-0.3,0c-0.8-0.2-1.3-0.9-1.2-1.8
		c0-0.2,3.3-15.9,20.8-15.9c0.8,0,1.5,0.7,1.5,1.5s-0.7,1.5-1.5,1.5c-15.1,0-17.7,12.9-17.8,13.5
		C1084.7,721.8,1084,722.3,1083.3,722.3z"/>
	<circle clip-path="url(#SVGID_2_)" fill="#FFFFFF" cx="1137" cy="730.2" r="3.1"/>
	<path clip-path="url(#SVGID_2_)" fill="#FFFFFF" d="M1141.7,722.3c-0.1,0-0.2,0-0.3,0c-0.8-0.2-1.3-0.9-1.2-1.8
		c0-0.2,3.3-15.9,20.8-15.9c0.8,0,1.5,0.7,1.5,1.5s-0.7,1.5-1.5,1.5c-15.1,0-17.7,12.9-17.8,13.5
		C1143,721.8,1142.4,722.3,1141.7,722.3z"/>
	<circle clip-path="url(#SVGID_2_)" fill="#FFFFFF" cx="1194.9" cy="730.2" r="3.1"/>
	<path clip-path="url(#SVGID_2_)" fill="#FFFFFF" d="M1199.5,722.3c-0.1,0-0.2,0-0.3,0c-0.8-0.2-1.3-0.9-1.2-1.8
		c0-0.2,3.3-15.9,20.8-15.9c0.8,0,1.5,0.7,1.5,1.5s-0.7,1.5-1.5,1.5c-15.1,0-17.7,12.9-17.8,13.5
		C1200.9,721.8,1200.2,722.3,1199.5,722.3z"/>
	<circle clip-path="url(#SVGID_2_)" fill="#FFFFFF" cx="672.9" cy="730.2" r="3.1"/>
	<path clip-path="url(#SVGID_2_)" fill="#FFFFFF" d="M677.5,722.3c-0.1,0-0.2,0-0.3,0c-0.8-0.2-1.3-0.9-1.2-1.8
		c0-0.2,3.3-15.9,20.8-15.9c0.8,0,1.5,0.7,1.5,1.5s-0.7,1.5-1.5,1.5c-15.1,0-17.7,12.9-17.8,13.5
		C678.9,721.8,678.2,722.3,677.5,722.3z"/>
	<circle clip-path="url(#SVGID_2_)" fill="#FFFFFF" cx="731.2" cy="730.2" r="3.1"/>
	<path clip-path="url(#SVGID_2_)" fill="#FFFFFF" d="M735.9,722.3c-0.1,0-0.2,0-0.3,0c-0.8-0.2-1.3-0.9-1.2-1.8
		c0-0.2,3.3-15.9,20.8-15.9c0.8,0,1.5,0.7,1.5,1.5s-0.7,1.5-1.5,1.5c-15.1,0-17.7,12.9-17.8,13.5
		C737.2,721.8,736.6,722.3,735.9,722.3z"/>
	<circle clip-path="url(#SVGID_2_)" fill="#FFFFFF" cx="788.9" cy="730.2" r="3.1"/>
	<path clip-path="url(#SVGID_2_)" fill="#FFFFFF" d="M793.6,722.3c-0.1,0-0.2,0-0.3,0c-0.8-0.2-1.3-0.9-1.2-1.8
		c0-0.2,3.3-15.9,20.8-15.9c0.8,0,1.5,0.7,1.5,1.5s-0.7,1.5-1.5,1.5c-15.1,0-17.7,12.9-17.8,13.5
		C794.9,721.8,794.3,722.3,793.6,722.3z"/>
	<circle clip-path="url(#SVGID_2_)" fill="#FFFFFF" cx="847.2" cy="730.2" r="3.1"/>
	<path clip-path="url(#SVGID_2_)" fill="#FFFFFF" d="M851.9,722.3c-0.1,0-0.2,0-0.3,0c-0.8-0.2-1.3-0.9-1.2-1.8
		c0-0.2,3.3-15.9,20.8-15.9c0.8,0,1.5,0.7,1.5,1.5s-0.7,1.5-1.5,1.5c-15.1,0-17.7,12.9-17.8,13.5
		C853.2,721.8,852.6,722.3,851.9,722.3z"/>
	<circle clip-path="url(#SVGID_2_)" fill="#FFFFFF" cx="905.1" cy="730.2" r="3.1"/>
	<path clip-path="url(#SVGID_2_)" fill="#FFFFFF" d="M909.8,722.3c-0.1,0-0.2,0-0.3,0c-0.8-0.2-1.3-0.9-1.2-1.8
		c0-0.2,3.3-15.9,20.8-15.9c0.8,0,1.5,0.7,1.5,1.5s-0.7,1.5-1.5,1.5c-15.1,0-17.7,12.9-17.8,13.5
		C911.1,721.8,910.5,722.3,909.8,722.3z"/>
	<circle clip-path="url(#SVGID_2_)" fill="#FFFFFF" cx="1253.2" cy="730.2" r="3.1"/>
	<path clip-path="url(#SVGID_2_)" fill="#FFFFFF" d="M1257.9,722.2c-0.1,0-0.2,0-0.3,0c-0.8-0.2-1.3-0.9-1.2-1.8
		c0-0.2,3.3-15.9,20.8-15.9c0.8,0,1.5,0.7,1.5,1.5s-0.7,1.5-1.5,1.5c-15,0-17.7,13-17.8,13.5
		C1259.2,721.8,1258.6,722.2,1257.9,722.2z"/>
	<circle clip-path="url(#SVGID_2_)" fill="#FFFFFF" cx="322.8" cy="730.2" r="3.1"/>
	<path clip-path="url(#SVGID_2_)" fill="#FFFFFF" d="M327.5,722.3c-0.1,0-0.2,0-0.3,0c-0.8-0.2-1.3-0.9-1.2-1.8
		c0-0.2,3.3-15.9,20.8-15.9c0.8,0,1.5,0.7,1.5,1.5s-0.7,1.5-1.5,1.5c-15.1,0-17.7,12.9-17.8,13.5
		C328.8,721.8,328.2,722.3,327.5,722.3z"/>
	<circle clip-path="url(#SVGID_2_)" fill="#FFFFFF" cx="381.2" cy="730.2" r="3.1"/>
	<path clip-path="url(#SVGID_2_)" fill="#FFFFFF" d="M385.8,722.3c-0.1,0-0.2,0-0.3,0c-0.8-0.2-1.3-0.9-1.2-1.8
		c0-0.2,3.3-15.9,20.8-15.9c0.8,0,1.5,0.7,1.5,1.5s-0.7,1.5-1.5,1.5c-15.1,0-17.7,12.9-17.8,13.5
		C387.2,721.8,386.5,722.3,385.8,722.3z"/>
	<circle clip-path="url(#SVGID_2_)" fill="#FFFFFF" cx="438.9" cy="730.2" r="3.1"/>
	<path clip-path="url(#SVGID_2_)" fill="#FFFFFF" d="M443.5,722.3c-0.1,0-0.2,0-0.3,0c-0.8-0.2-1.3-0.9-1.2-1.8
		c0-0.2,3.3-15.9,20.8-15.9c0.8,0,1.5,0.7,1.5,1.5s-0.7,1.5-1.5,1.5c-15.1,0-17.7,12.9-17.8,13.5
		C444.9,721.8,444.2,722.3,443.5,722.3z"/>
	<circle clip-path="url(#SVGID_2_)" fill="#FFFFFF" cx="497.2" cy="730.2" r="3.1"/>
	<path clip-path="url(#SVGID_2_)" fill="#FFFFFF" d="M501.9,722.3c-0.1,0-0.2,0-0.3,0c-0.8-0.2-1.3-0.9-1.2-1.8
		c0-0.2,3.3-15.9,20.8-15.9c0.8,0,1.5,0.7,1.5,1.5s-0.7,1.5-1.5,1.5c-15.1,0-17.7,12.9-17.8,13.5
		C503.2,721.8,502.6,722.3,501.9,722.3z"/>
	<circle clip-path="url(#SVGID_2_)" fill="#FFFFFF" cx="555.1" cy="730.2" r="3.1"/>
	<path clip-path="url(#SVGID_2_)" fill="#FFFFFF" d="M559.7,722.3c-0.1,0-0.2,0-0.3,0c-0.8-0.2-1.3-0.9-1.2-1.8
		c0-0.2,3.3-15.9,20.8-15.9c0.8,0,1.5,0.7,1.5,1.5s-0.7,1.5-1.5,1.5c-15.1,0-17.7,12.9-17.8,13.5
		C561.1,721.8,560.4,722.3,559.7,722.3z"/>
	<circle clip-path="url(#SVGID_2_)" fill="#FFFFFF" cx="33.1" cy="730.2" r="3.1"/>
	<path clip-path="url(#SVGID_2_)" fill="#FFFFFF" d="M37.7,722.3c-0.1,0-0.2,0-0.3,0c-0.8-0.2-1.3-0.9-1.2-1.8
		c0-0.2,3.3-15.9,20.8-15.9c0.8,0,1.5,0.7,1.5,1.5s-0.7,1.5-1.5,1.5c-15.1,0-17.7,12.9-17.8,13.5C39.1,721.8,38.4,722.3,37.7,722.3z
		"/>
	<circle clip-path="url(#SVGID_2_)" fill="#FFFFFF" cx="91.4" cy="730.2" r="3.1"/>
	<path clip-path="url(#SVGID_2_)" fill="#FFFFFF" d="M96.1,722.3c-0.1,0-0.2,0-0.3,0c-0.8-0.2-1.3-0.9-1.2-1.8
		c0-0.2,3.3-15.9,20.8-15.9c0.8,0,1.5,0.7,1.5,1.5s-0.7,1.5-1.5,1.5c-15.1,0-17.7,12.9-17.8,13.5C97.4,721.8,96.8,722.3,96.1,722.3z
		"/>
	<circle clip-path="url(#SVGID_2_)" fill="#FFFFFF" cx="149.1" cy="730.2" r="3.1"/>
	<path clip-path="url(#SVGID_2_)" fill="#FFFFFF" d="M153.8,722.3c-0.1,0-0.2,0-0.3,0c-0.8-0.2-1.3-0.9-1.2-1.8
		c0-0.2,3.3-15.9,20.8-15.9c0.8,0,1.5,0.7,1.5,1.5s-0.7,1.5-1.5,1.5c-15.1,0-17.7,12.9-17.8,13.5
		C155.1,721.8,154.5,722.3,153.8,722.3z"/>
	<circle clip-path="url(#SVGID_2_)" fill="#FFFFFF" cx="207.4" cy="730.2" r="3.1"/>
	<path clip-path="url(#SVGID_2_)" fill="#FFFFFF" d="M212.1,722.3c-0.1,0-0.2,0-0.3,0c-0.8-0.2-1.3-0.9-1.2-1.8
		c0-0.2,3.3-15.9,20.8-15.9c0.8,0,1.5,0.7,1.5,1.5s-0.7,1.5-1.5,1.5c-15.1,0-17.7,12.9-17.8,13.5
		C213.4,721.8,212.8,722.3,212.1,722.3z"/>
	<circle clip-path="url(#SVGID_2_)" fill="#FFFFFF" cx="265.3" cy="730.2" r="3.1"/>
	<path clip-path="url(#SVGID_2_)" fill="#FFFFFF" d="M270,722.3c-0.1,0-0.2,0-0.3,0c-0.8-0.2-1.3-0.9-1.2-1.8
		c0-0.2,3.3-15.9,20.8-15.9c0.8,0,1.5,0.7,1.5,1.5s-0.7,1.5-1.5,1.5c-15.1,0-17.7,12.9-17.8,13.5C271.3,721.8,270.7,722.3,270,722.3
		z"/>
	<circle clip-path="url(#SVGID_2_)" fill="#FFFFFF" cx="613.4" cy="730.2" r="3.1"/>
	<path clip-path="url(#SVGID_2_)" fill="#FFFFFF" d="M618,722.2c-0.1,0-0.2,0-0.3,0c-0.8-0.2-1.3-0.9-1.2-1.8
		c0-0.2,3.3-15.9,20.8-15.9c0.8,0,1.5,0.7,1.5,1.5s-0.7,1.5-1.5,1.5c-15,0-17.7,13-17.8,13.5C619.4,721.8,618.8,722.2,618,722.2z"/>
	<polygon clip-path="url(#SVGID_2_)" fill="#75C0CC" points="929.7,8.8 918.8,11.3 914.3,22.9 887.6,22.4 879.4,9 862.6,10.3 
		856.8,22 830.5,22 821,9.4 804.7,10.8 798.8,22.4 772.5,22.9 763.9,9 746.7,10.3 740.4,22.9 714.5,22.9 707.7,9.9 689.2,10.3 
		682.8,21.5 655.7,22.4 648,9 639.8,8.4 639.8,-496.3 929.7,-496.3 	"/>
	<polygon clip-path="url(#SVGID_2_)" fill="#75C0CC" points="1219.6,9 1208.7,11.3 1204.2,22.9 1177.4,22.4 1169.3,9 1152.5,10.3 
		1146.6,22 1120.4,22 1110.9,9.4 1094.6,10.8 1088.7,22.4 1062.4,22.9 1053.8,9 1036.6,10.3 1030.2,22.9 1004.4,22.9 997.6,9.9 
		979.1,10.3 972.7,21.5 945.5,22.4 937.8,9 920.7,9 920.7,-496.3 1219.6,-496.3 	"/>
	<polyline clip-path="url(#SVGID_2_)" fill="#75C0CC" points="1268.9,10.3 1262.6,21.5 1235.4,22.4 1227.7,9 1218.6,8.4 
		1218.6,-496.3 1279.8,-496.3 1279.8,9 	"/>
	<polygon clip-path="url(#SVGID_2_)" fill="#75C0CC" points="289.9,8.8 279,11.3 274.5,22.9 247.8,22.4 239.6,9 222.8,10.3 217,22 
		190.7,22 181.2,9.4 164.9,10.8 159,22.4 132.7,22.9 124.1,9 106.9,10.3 100.6,22.9 74.7,22.9 67.9,9.9 49.4,10.3 43,21.5 
		15.9,22.4 8.2,9 0,8.4 0,-496.3 289.9,-496.3 	"/>
	<polygon clip-path="url(#SVGID_2_)" fill="#75C0CC" points="579.8,9 568.9,11.3 564.4,22.9 537.6,22.4 529.5,9 512.7,10.3 
		506.8,22 480.6,22 471.1,9.4 454.7,10.8 448.9,22.4 422.6,22.9 414,9 396.8,10.3 390.4,22.9 364.6,22.9 357.8,9.9 339.2,10.3 
		332.9,21.5 305.7,22.4 298,9 280.9,9 280.9,-496.3 579.8,-496.3 	"/>
	<polyline clip-path="url(#SVGID_2_)" fill="#75C0CC" points="629.1,10.3 622.8,21.5 595.6,22.4 587.9,9 578.8,8.4 578.8,-496.3 
		640,-496.3 640,9 	"/>
	<g clip-path="url(#SVGID_2_)">
		<path fill="#75C0CC" d="M43.8,21.5c0,6.6-5.9,12.5-13.1,12.5H28c-7.2,0-13.1-5.8-13.1-12.5"/>
		<path fill="#4F463B" d="M30.7,37.5H28c-9,0-16.6-7.3-16.6-16c0-1.9,1.6-3.5,3.5-3.5s3.5,1.6,3.5,3.5c0,4.8,4.5,9,9.6,9h2.8
			c5.1,0,9.6-4.2,9.6-9c0-1.9,1.6-3.5,3.5-3.5s3.5,1.6,3.5,3.5C47.3,30.2,39.7,37.5,30.7,37.5z"/>
	</g>
	<path clip-path="url(#SVGID_2_)" fill="#4F463B" d="M72.8,24.9c-1.9,0-3.5-1.6-3.5-3.5c0-4.8-4.5-9-9.6-9h-2.8
		c-5.1,0-9.6,4.2-9.6,9c0,1.9-1.6,3.5-3.5,3.5s-3.5-1.6-3.5-3.5c0-8.7,7.6-16,16.6-16h2.8c9,0,16.6,7.3,16.6,16
		C76.3,23.4,74.7,24.9,72.8,24.9z"/>
	<path clip-path="url(#SVGID_2_)" fill="#4F463B" d="M18.4,20.7h-7c0-4.2-5.6-8.2-11.4-8.2v-7C8.7,5.5,18.4,11.7,18.4,20.7z"/>
	<g clip-path="url(#SVGID_2_)">
		<path fill="#75C0CC" d="M101.7,21.5c0,6.6-5.9,12.5-13.1,12.5h-2.8c-7.2,0-13.1-5.8-13.1-12.5"/>
		<path fill="#4F463B" d="M88.6,37.5h-2.8c-9,0-16.6-7.3-16.6-16c0-1.9,1.6-3.5,3.5-3.5s3.5,1.6,3.5,3.5c0,4.8,4.5,9,9.6,9h2.8
			c5.1,0,9.6-4.2,9.6-9c0-1.9,1.6-3.5,3.5-3.5s3.5,1.6,3.5,3.5C105.2,30.2,97.6,37.5,88.6,37.5z"/>
	</g>
	<path clip-path="url(#SVGID_2_)" fill="#4F463B" d="M130.7,24.9c-1.9,0-3.5-1.6-3.5-3.5c0-4.8-4.5-9-9.6-9h-2.8
		c-5.1,0-9.6,4.2-9.6,9c0,1.9-1.6,3.5-3.5,3.5s-3.5-1.6-3.5-3.5c0-8.7,7.6-16,16.6-16h2.8c9,0,16.6,7.3,16.6,16
		C134.2,23.4,132.6,24.9,130.7,24.9z"/>
	<g clip-path="url(#SVGID_2_)">
		<path fill="#75C0CC" d="M159.6,21.5c0,6.6-5.9,12.5-13.1,12.5h-2.8c-7.2,0-13.1-5.8-13.1-12.5"/>
		<path fill="#4F463B" d="M146.5,37.5h-2.8c-9,0-16.6-7.3-16.6-16c0-1.9,1.6-3.5,3.5-3.5s3.5,1.6,3.5,3.5c0,4.8,4.5,9,9.6,9h2.8
			c5.1,0,9.6-4.2,9.6-9c0-1.9,1.6-3.5,3.5-3.5s3.5,1.6,3.5,3.5C163.1,30.2,155.5,37.5,146.5,37.5z"/>
	</g>
	<path clip-path="url(#SVGID_2_)" fill="#4F463B" d="M188.6,24.9c-1.9,0-3.5-1.6-3.5-3.5c0-4.8-4.5-9-9.6-9h-2.8
		c-5.1,0-9.6,4.2-9.6,9c0,1.9-1.6,3.5-3.5,3.5s-3.5-1.6-3.5-3.5c0-8.7,7.6-16,16.6-16h2.8c9,0,16.6,7.3,16.6,16
		C192.1,23.4,190.5,24.9,188.6,24.9z"/>
	<g clip-path="url(#SVGID_2_)">
		<path fill="#75C0CC" d="M217.5,21.5c0,6.6-5.9,12.5-13.1,12.5h-2.8c-7.2,0-13.1-5.8-13.1-12.5"/>
		<path fill="#4F463B" d="M204.4,37.5h-2.8c-9,0-16.6-7.3-16.6-16c0-1.9,1.6-3.5,3.5-3.5s3.5,1.6,3.5,3.5c0,4.8,4.5,9,9.6,9h2.8
			c5.1,0,9.6-4.2,9.6-9c0-1.9,1.6-3.5,3.5-3.5s3.5,1.6,3.5,3.5C221,30.2,213.4,37.5,204.4,37.5z"/>
	</g>
	<path clip-path="url(#SVGID_2_)" fill="#4F463B" d="M246.5,24.9c-1.9,0-3.5-1.6-3.5-3.5c0-4.8-4.5-9-9.6-9h-2.8
		c-5.1,0-9.6,4.2-9.6,9c0,1.9-1.6,3.5-3.5,3.5s-3.5-1.6-3.5-3.5c0-8.7,7.6-16,16.6-16h2.8c9,0,16.6,7.3,16.6,16
		C250,23.4,248.4,24.9,246.5,24.9z"/>
	<g clip-path="url(#SVGID_2_)">
		<path fill="#75C0CC" d="M275.4,21.5c0,6.6-5.9,12.5-13.1,12.5h-2.8c-7.2,0-13.1-5.8-13.1-12.5"/>
		<path fill="#4F463B" d="M262.3,37.5h-2.8c-9,0-16.6-7.3-16.6-16c0-1.9,1.6-3.5,3.5-3.5s3.5,1.6,3.5,3.5c0,4.8,4.5,9,9.6,9h2.8
			c5.1,0,9.6-4.2,9.6-9c0-1.9,1.6-3.5,3.5-3.5s3.5,1.6,3.5,3.5C278.9,30.2,271.3,37.5,262.3,37.5z"/>
	</g>
	<path clip-path="url(#SVGID_2_)" fill="#4F463B" d="M278.9,23.9h-7v-3.5c0-9,6.5-14.9,16.6-14.9h3.5v7h-3.5c-8,0-9.6,4.3-9.6,7.9
		V23.9z"/>
	<g clip-path="url(#SVGID_2_)">
		<path fill="#75C0CC" d="M333.7,21.5c0,6.6-5.9,12.5-13.1,12.5h-2.8c-7.2,0-13.1-5.8-13.1-12.5"/>
		<path fill="#4F463B" d="M320.6,37.5h-2.8c-9,0-16.6-7.3-16.6-16c0-1.9,1.6-3.5,3.5-3.5s3.5,1.6,3.5,3.5c0,4.8,4.5,9,9.6,9h2.8
			c5.1,0,9.6-4.2,9.6-9c0-1.9,1.6-3.5,3.5-3.5s3.5,1.6,3.5,3.5C337.2,30.2,329.6,37.5,320.6,37.5z"/>
	</g>
	<path clip-path="url(#SVGID_2_)" fill="#4F463B" d="M362.7,24.9c-1.9,0-3.5-1.6-3.5-3.5c0-4.8-4.5-9-9.6-9h-2.8
		c-5.1,0-9.6,4.2-9.6,9c0,1.9-1.6,3.5-3.5,3.5s-3.5-1.6-3.5-3.5c0-8.7,7.6-16,16.6-16h2.8c9,0,16.6,7.3,16.6,16
		C366.2,23.4,364.6,24.9,362.7,24.9z"/>
	<path clip-path="url(#SVGID_2_)" fill="#4F463B" d="M308.3,24.2h-7v-3.5c0-4.5-4.6-8.2-10-8.2h-3.5v-7h3.5c9.4,0,17,6.8,17,15.2
		V24.2z"/>
	<g clip-path="url(#SVGID_2_)">
		<path fill="#75C0CC" d="M391.6,21.5c0,6.6-5.9,12.5-13.1,12.5h-2.8c-7.2,0-13.1-5.8-13.1-12.5"/>
		<path fill="#4F463B" d="M378.5,37.5h-2.8c-9,0-16.6-7.3-16.6-16c0-1.9,1.6-3.5,3.5-3.5s3.5,1.6,3.5,3.5c0,4.8,4.5,9,9.6,9h2.8
			c5.1,0,9.6-4.2,9.6-9c0-1.9,1.6-3.5,3.5-3.5s3.5,1.6,3.5,3.5C395.1,30.2,387.5,37.5,378.5,37.5z"/>
	</g>
	<path clip-path="url(#SVGID_2_)" fill="#4F463B" d="M420.6,24.9c-1.9,0-3.5-1.6-3.5-3.5c0-4.8-4.5-9-9.6-9h-2.8
		c-5.1,0-9.6,4.2-9.6,9c0,1.9-1.6,3.5-3.5,3.5s-3.5-1.6-3.5-3.5c0-8.7,7.6-16,16.6-16h2.8c9,0,16.6,7.3,16.6,16
		C424.1,23.4,422.5,24.9,420.6,24.9z"/>
	<g clip-path="url(#SVGID_2_)">
		<path fill="#75C0CC" d="M449.5,21.5c0,6.6-5.9,12.5-13.1,12.5h-2.8c-7.2,0-13.1-5.8-13.1-12.5"/>
		<path fill="#4F463B" d="M436.4,37.5h-2.8c-9,0-16.6-7.3-16.6-16c0-1.9,1.6-3.5,3.5-3.5s3.5,1.6,3.5,3.5c0,4.8,4.5,9,9.6,9h2.8
			c5.1,0,9.6-4.2,9.6-9c0-1.9,1.6-3.5,3.5-3.5s3.5,1.6,3.5,3.5C453,30.2,445.4,37.5,436.4,37.5z"/>
	</g>
	<path clip-path="url(#SVGID_2_)" fill="#4F463B" d="M478.5,24.9c-1.9,0-3.5-1.6-3.5-3.5c0-4.8-4.5-9-9.6-9h-2.8
		c-5.1,0-9.6,4.2-9.6,9c0,1.9-1.6,3.5-3.5,3.5s-3.5-1.6-3.5-3.5c0-8.7,7.6-16,16.6-16h2.8c9,0,16.6,7.3,16.6,16
		C482,23.4,480.4,24.9,478.5,24.9z"/>
	<g clip-path="url(#SVGID_2_)">
		<path fill="#75C0CC" d="M507.4,21.5c0,6.6-5.9,12.5-13.1,12.5h-2.8c-7.2,0-13.1-5.8-13.1-12.5"/>
		<path fill="#4F463B" d="M494.3,37.5h-2.8c-9,0-16.6-7.3-16.6-16c0-1.9,1.6-3.5,3.5-3.5s3.5,1.6,3.5,3.5c0,4.8,4.5,9,9.6,9h2.8
			c5.1,0,9.6-4.2,9.6-9c0-1.9,1.6-3.5,3.5-3.5s3.5,1.6,3.5,3.5C510.9,30.2,503.3,37.5,494.3,37.5z"/>
	</g>
	<path clip-path="url(#SVGID_2_)" fill="#4F463B" d="M536.4,24.9c-1.9,0-3.5-1.6-3.5-3.5c0-4.8-4.5-9-9.6-9h-2.8
		c-5.1,0-9.6,4.2-9.6,9c0,1.9-1.6,3.5-3.5,3.5s-3.5-1.6-3.5-3.5c0-8.7,7.6-16,16.6-16h2.8c9,0,16.6,7.3,16.6,16
		C539.9,23.4,538.3,24.9,536.4,24.9z"/>
	<g clip-path="url(#SVGID_2_)">
		<path fill="#75C0CC" d="M565.3,21.5c0,6.6-5.9,12.5-13.1,12.5h-2.8c-7.2,0-13.1-5.8-13.1-12.5"/>
		<path fill="#4F463B" d="M552.2,37.5h-2.8c-9,0-16.6-7.3-16.6-16c0-1.9,1.6-3.5,3.5-3.5s3.5,1.6,3.5,3.5c0,4.8,4.5,9,9.6,9h2.8
			c5.1,0,9.6-4.2,9.6-9c0-1.9,1.6-3.5,3.5-3.5s3.5,1.6,3.5,3.5C568.8,30.2,561.2,37.5,552.2,37.5z"/>
	</g>
	<path clip-path="url(#SVGID_2_)" fill="#4F463B" d="M568.8,23.9h-7v-3.5c0-9,6.5-14.9,16.6-14.9h3.5v7h-3.5c-8,0-9.6,4.3-9.6,7.9
		V23.9z"/>
	<g clip-path="url(#SVGID_2_)">
		<path fill="#75C0CC" d="M623.6,21.5c0,6.6-5.9,12.5-13.1,12.5h-2.8c-7.2,0-13.1-5.8-13.1-12.5"/>
		<path fill="#4F463B" d="M610.5,37.5h-2.8c-9,0-16.6-7.3-16.6-16c0-1.9,1.6-3.5,3.5-3.5s3.5,1.6,3.5,3.5c0,4.8,4.5,9,9.6,9h2.8
			c5.1,0,9.6-4.2,9.6-9c0-1.9,1.6-3.5,3.5-3.5s3.5,1.6,3.5,3.5C627.1,30.2,619.5,37.5,610.5,37.5z"/>
	</g>
	<path clip-path="url(#SVGID_2_)" fill="#4F463B" d="M627.1,24.9h-7v-3.5c0-8.7,7.6-16,16.6-16h3.5v7h-3.5c-5.1,0-9.6,4.2-9.6,9
		V24.9z"/>
	<path clip-path="url(#SVGID_2_)" fill="#4F463B" d="M598.1,24.2h-7v-3.5c0-4.5-4.6-8.2-10-8.2h-3.5v-7h3.5c9.4,0,17,6.8,17,15.2
		V24.2z"/>
	<g clip-path="url(#SVGID_2_)">
		<path fill="#75C0CC" d="M683.6,21.5c0,6.6-5.9,12.5-13.1,12.5h-2.8c-7.2,0-13.1-5.8-13.1-12.5"/>
		<path fill="#4F463B" d="M670.5,37.5h-2.8c-9,0-16.6-7.3-16.6-16c0-1.9,1.6-3.5,3.5-3.5s3.5,1.6,3.5,3.5c0,4.8,4.5,9,9.6,9h2.8
			c5.1,0,9.6-4.2,9.6-9c0-1.9,1.6-3.5,3.5-3.5s3.5,1.6,3.5,3.5C687.1,30.2,679.5,37.5,670.5,37.5z"/>
	</g>
	<path clip-path="url(#SVGID_2_)" fill="#4F463B" d="M712.6,24.9c-1.9,0-3.5-1.6-3.5-3.5c0-4.8-4.5-9-9.6-9h-2.8
		c-5.1,0-9.6,4.2-9.6,9c0,1.9-1.6,3.5-3.5,3.5s-3.5-1.6-3.5-3.5c0-8.7,7.6-16,16.6-16h2.8c9,0,16.6,7.3,16.6,16
		C716.1,23.4,714.5,24.9,712.6,24.9z"/>
	<path clip-path="url(#SVGID_2_)" fill="#4F463B" d="M658.2,20.7h-7c0-4.2-5.6-8.2-11.4-8.2v-7C648.5,5.5,658.2,11.7,658.2,20.7z"/>
	<g clip-path="url(#SVGID_2_)">
		<path fill="#75C0CC" d="M741.5,21.5c0,6.6-5.9,12.5-13.1,12.5h-2.8c-7.2,0-13.1-5.8-13.1-12.5"/>
		<path fill="#4F463B" d="M728.4,37.5h-2.8c-9,0-16.6-7.3-16.6-16c0-1.9,1.6-3.5,3.5-3.5s3.5,1.6,3.5,3.5c0,4.8,4.5,9,9.6,9h2.8
			c5.1,0,9.6-4.2,9.6-9c0-1.9,1.6-3.5,3.5-3.5s3.5,1.6,3.5,3.5C745,30.2,737.4,37.5,728.4,37.5z"/>
	</g>
	<path clip-path="url(#SVGID_2_)" fill="#4F463B" d="M770.5,24.9c-1.9,0-3.5-1.6-3.5-3.5c0-4.8-4.5-9-9.6-9h-2.8
		c-5.1,0-9.6,4.2-9.6,9c0,1.9-1.6,3.5-3.5,3.5s-3.5-1.6-3.5-3.5c0-8.7,7.6-16,16.6-16h2.8c9,0,16.6,7.3,16.6,16
		C774,23.4,772.4,24.9,770.5,24.9z"/>
	<g clip-path="url(#SVGID_2_)">
		<path fill="#75C0CC" d="M799.4,21.5c0,6.6-5.9,12.5-13.1,12.5h-2.8c-7.2,0-13.1-5.8-13.1-12.5"/>
		<path fill="#4F463B" d="M786.3,37.5h-2.8c-9,0-16.6-7.3-16.6-16c0-1.9,1.6-3.5,3.5-3.5s3.5,1.6,3.5,3.5c0,4.8,4.5,9,9.6,9h2.8
			c5.1,0,9.6-4.2,9.6-9c0-1.9,1.6-3.5,3.5-3.5s3.5,1.6,3.5,3.5C802.9,30.2,795.3,37.5,786.3,37.5z"/>
	</g>
	<path clip-path="url(#SVGID_2_)" fill="#4F463B" d="M828.4,24.9c-1.9,0-3.5-1.6-3.5-3.5c0-4.8-4.5-9-9.6-9h-2.8
		c-5.1,0-9.6,4.2-9.6,9c0,1.9-1.6,3.5-3.5,3.5s-3.5-1.6-3.5-3.5c0-8.7,7.6-16,16.6-16h2.8c9,0,16.6,7.3,16.6,16
		C831.9,23.4,830.3,24.9,828.4,24.9z"/>
	<g clip-path="url(#SVGID_2_)">
		<path fill="#75C0CC" d="M857.3,21.5c0,6.6-5.9,12.5-13.1,12.5h-2.8c-7.2,0-13.1-5.8-13.1-12.5"/>
		<path fill="#4F463B" d="M844.2,37.5h-2.8c-9,0-16.6-7.3-16.6-16c0-1.9,1.6-3.5,3.5-3.5s3.5,1.6,3.5,3.5c0,4.8,4.5,9,9.6,9h2.8
			c5.1,0,9.6-4.2,9.6-9c0-1.9,1.6-3.5,3.5-3.5s3.5,1.6,3.5,3.5C860.8,30.2,853.2,37.5,844.2,37.5z"/>
	</g>
	<path clip-path="url(#SVGID_2_)" fill="#4F463B" d="M886.3,24.9c-1.9,0-3.5-1.6-3.5-3.5c0-4.8-4.5-9-9.6-9h-2.8
		c-5.1,0-9.6,4.2-9.6,9c0,1.9-1.6,3.5-3.5,3.5s-3.5-1.6-3.5-3.5c0-8.7,7.6-16,16.6-16h2.8c9,0,16.6,7.3,16.6,16
		C889.8,23.4,888.2,24.9,886.3,24.9z"/>
	<g clip-path="url(#SVGID_2_)">
		<path fill="#75C0CC" d="M915.2,21.5c0,6.6-5.9,12.5-13.1,12.5h-2.8c-7.2,0-13.1-5.8-13.1-12.5"/>
		<path fill="#4F463B" d="M902.1,37.5h-2.8c-9,0-16.6-7.3-16.6-16c0-1.9,1.6-3.5,3.5-3.5s3.5,1.6,3.5,3.5c0,4.8,4.5,9,9.6,9h2.8
			c5.1,0,9.6-4.2,9.6-9c0-1.9,1.6-3.5,3.5-3.5s3.5,1.6,3.5,3.5C918.7,30.2,911.1,37.5,902.1,37.5z"/>
	</g>
	<path clip-path="url(#SVGID_2_)" fill="#4F463B" d="M918.7,23.9h-7v-3.5c0-9,6.5-14.9,16.6-14.9h3.5v7h-3.5c-8,0-9.6,4.3-9.6,7.9
		V23.9z"/>
	<g clip-path="url(#SVGID_2_)">
		<path fill="#75C0CC" d="M973.5,21.5c0,6.6-5.9,12.5-13.1,12.5h-2.8c-7.2,0-13.1-5.8-13.1-12.5"/>
		<path fill="#4F463B" d="M960.4,37.5h-2.8c-9,0-16.6-7.3-16.6-16c0-1.9,1.6-3.5,3.5-3.5s3.5,1.6,3.5,3.5c0,4.8,4.5,9,9.6,9h2.8
			c5.1,0,9.6-4.2,9.6-9c0-1.9,1.6-3.5,3.5-3.5s3.5,1.6,3.5,3.5C977,30.2,969.4,37.5,960.4,37.5z"/>
	</g>
	<path clip-path="url(#SVGID_2_)" fill="#4F463B" d="M1002.5,24.9c-1.9,0-3.5-1.6-3.5-3.5c0-4.8-4.5-9-9.6-9h-2.8
		c-5.1,0-9.6,4.2-9.6,9c0,1.9-1.6,3.5-3.5,3.5s-3.5-1.6-3.5-3.5c0-8.7,7.6-16,16.6-16h2.8c9,0,16.6,7.3,16.6,16
		C1006,23.4,1004.4,24.9,1002.5,24.9z"/>
	<path clip-path="url(#SVGID_2_)" fill="#4F463B" d="M948.1,24.2h-7v-3.5c0-4.5-4.6-8.2-10-8.2h-3.5v-7h3.5c9.4,0,17,6.8,17,15.2
		V24.2z"/>
	<g clip-path="url(#SVGID_2_)">
		<path fill="#75C0CC" d="M1031.4,21.5c0,6.6-5.9,12.5-13.1,12.5h-2.8c-7.2,0-13.1-5.8-13.1-12.5"/>
		<path fill="#4F463B" d="M1018.3,37.5h-2.8c-9,0-16.6-7.3-16.6-16c0-1.9,1.6-3.5,3.5-3.5s3.5,1.6,3.5,3.5c0,4.8,4.5,9,9.6,9h2.8
			c5.1,0,9.6-4.2,9.6-9c0-1.9,1.6-3.5,3.5-3.5s3.5,1.6,3.5,3.5C1034.9,30.2,1027.3,37.5,1018.3,37.5z"/>
	</g>
	<path clip-path="url(#SVGID_2_)" fill="#4F463B" d="M1060.4,24.9c-1.9,0-3.5-1.6-3.5-3.5c0-4.8-4.5-9-9.6-9h-2.8
		c-5.1,0-9.6,4.2-9.6,9c0,1.9-1.6,3.5-3.5,3.5s-3.5-1.6-3.5-3.5c0-8.7,7.6-16,16.6-16h2.8c9,0,16.6,7.3,16.6,16
		C1063.9,23.4,1062.3,24.9,1060.4,24.9z"/>
	<g clip-path="url(#SVGID_2_)">
		<path fill="#75C0CC" d="M1089.3,21.5c0,6.6-5.9,12.5-13.1,12.5h-2.8c-7.2,0-13.1-5.8-13.1-12.5"/>
		<path fill="#4F463B" d="M1076.2,37.5h-2.8c-9,0-16.6-7.3-16.6-16c0-1.9,1.6-3.5,3.5-3.5s3.5,1.6,3.5,3.5c0,4.8,4.5,9,9.6,9h2.8
			c5.1,0,9.6-4.2,9.6-9c0-1.9,1.6-3.5,3.5-3.5s3.5,1.6,3.5,3.5C1092.8,30.2,1085.2,37.5,1076.2,37.5z"/>
	</g>
	<path clip-path="url(#SVGID_2_)" fill="#4F463B" d="M1118.3,24.9c-1.9,0-3.5-1.6-3.5-3.5c0-4.8-4.5-9-9.6-9h-2.8
		c-5.1,0-9.6,4.2-9.6,9c0,1.9-1.6,3.5-3.5,3.5s-3.5-1.6-3.5-3.5c0-8.7,7.6-16,16.6-16h2.8c9,0,16.6,7.3,16.6,16
		C1121.8,23.4,1120.2,24.9,1118.3,24.9z"/>
	<g clip-path="url(#SVGID_2_)">
		<path fill="#75C0CC" d="M1147.2,21.5c0,6.6-5.9,12.5-13.1,12.5h-2.8c-7.2,0-13.1-5.8-13.1-12.5"/>
		<path fill="#4F463B" d="M1134.1,37.5h-2.8c-9,0-16.6-7.3-16.6-16c0-1.9,1.6-3.5,3.5-3.5s3.5,1.6,3.5,3.5c0,4.8,4.5,9,9.6,9h2.8
			c5.1,0,9.6-4.2,9.6-9c0-1.9,1.6-3.5,3.5-3.5s3.5,1.6,3.5,3.5C1150.7,30.2,1143.1,37.5,1134.1,37.5z"/>
	</g>
	<path clip-path="url(#SVGID_2_)" fill="#4F463B" d="M1176.2,24.9c-1.9,0-3.5-1.6-3.5-3.5c0-4.8-4.5-9-9.6-9h-2.8
		c-5.1,0-9.6,4.2-9.6,9c0,1.9-1.6,3.5-3.5,3.5s-3.5-1.6-3.5-3.5c0-8.7,7.6-16,16.6-16h2.8c9,0,16.6,7.3,16.6,16
		C1179.7,23.4,1178.1,24.9,1176.2,24.9z"/>
	<g clip-path="url(#SVGID_2_)">
		<path fill="#75C0CC" d="M1205.1,21.5c0,6.6-5.9,12.5-13.1,12.5h-2.8c-7.2,0-13.1-5.8-13.1-12.5"/>
		<path fill="#4F463B" d="M1192,37.5h-2.8c-9,0-16.6-7.3-16.6-16c0-1.9,1.6-3.5,3.5-3.5s3.5,1.6,3.5,3.5c0,4.8,4.5,9,9.6,9h2.8
			c5.1,0,9.6-4.2,9.6-9c0-1.9,1.6-3.5,3.5-3.5s3.5,1.6,3.5,3.5C1208.6,30.2,1201,37.5,1192,37.5z"/>
	</g>
	<path clip-path="url(#SVGID_2_)" fill="#4F463B" d="M1208.6,23.9h-7v-3.5c0-9,6.5-14.9,16.6-14.9h3.5v7h-3.5c-8,0-9.6,4.3-9.6,7.9
		V23.9z"/>
	<g clip-path="url(#SVGID_2_)">
		<path fill="#75C0CC" d="M1263.4,21.5c0,6.6-5.9,12.5-13.1,12.5h-2.8c-7.2,0-13.1-5.8-13.1-12.5"/>
		<path fill="#4F463B" d="M1250.3,37.5h-2.8c-9,0-16.6-7.3-16.6-16c0-1.9,1.6-3.5,3.5-3.5s3.5,1.6,3.5,3.5c0,4.8,4.5,9,9.6,9h2.8
			c5.1,0,9.6-4.2,9.6-9c0-1.9,1.6-3.5,3.5-3.5s3.5,1.6,3.5,3.5C1266.9,30.2,1259.3,37.5,1250.3,37.5z"/>
	</g>
	<path clip-path="url(#SVGID_2_)" fill="#4F463B" d="M1266.9,24.9h-7v-3.5c0-8.7,7.6-16,16.6-16h3.5v7h-3.5c-5.1,0-9.6,4.2-9.6,9
		V24.9z"/>
	<path clip-path="url(#SVGID_2_)" fill="#4F463B" d="M1237.9,24.2h-7v-3.5c0-4.5-4.6-8.2-10-8.2h-3.5v-7h3.5c9.4,0,17,6.8,17,15.2
		V24.2z"/>
	<circle clip-path="url(#SVGID_2_)" fill="#BDF2F2" cx="962.6" cy="25.6" r="3.1"/>
	<path clip-path="url(#SVGID_2_)" fill="#BDF2F2" d="M967.3,17.7c-0.1,0-0.2,0-0.3,0c-0.8-0.2-1.3-0.9-1.2-1.8
		c0-0.2,3.3-15.9,20.8-15.9c0.8,0,1.5,0.7,1.5,1.5S987.4,3,986.6,3c-15.1,0-17.7,12.9-17.8,13.5C968.6,17.2,968,17.7,967.3,17.7z"/>
	<circle clip-path="url(#SVGID_2_)" fill="#BDF2F2" cx="1021" cy="25.6" r="3.1"/>
	<path clip-path="url(#SVGID_2_)" fill="#BDF2F2" d="M1025.6,17.7c-0.1,0-0.2,0-0.3,0c-0.8-0.2-1.3-0.9-1.2-1.8
		c0-0.2,3.3-15.9,20.8-15.9c0.8,0,1.5,0.7,1.5,1.5s-0.7,1.5-1.5,1.5c-15.1,0-17.7,12.9-17.8,13.5C1027,17.2,1026.3,17.7,1025.6,17.7
		z"/>
	<circle clip-path="url(#SVGID_2_)" fill="#BDF2F2" cx="1078.7" cy="25.6" r="3.1"/>
	<path clip-path="url(#SVGID_2_)" fill="#BDF2F2" d="M1083.3,17.7c-0.1,0-0.2,0-0.3,0c-0.8-0.2-1.3-0.9-1.2-1.8
		c0-0.2,3.3-15.9,20.8-15.9c0.8,0,1.5,0.7,1.5,1.5s-0.7,1.5-1.5,1.5c-15.1,0-17.7,12.9-17.8,13.5C1084.7,17.2,1084,17.7,1083.3,17.7
		z"/>
	<circle clip-path="url(#SVGID_2_)" fill="#BDF2F2" cx="1137" cy="25.6" r="3.1"/>
	<path clip-path="url(#SVGID_2_)" fill="#BDF2F2" d="M1141.7,17.7c-0.1,0-0.2,0-0.3,0c-0.8-0.2-1.3-0.9-1.2-1.8
		c0-0.2,3.3-15.9,20.8-15.9c0.8,0,1.5,0.7,1.5,1.5S1161.8,3,1161,3c-15.1,0-17.7,12.9-17.8,13.5C1143,17.2,1142.4,17.7,1141.7,17.7z
		"/>
	<circle clip-path="url(#SVGID_2_)" fill="#BDF2F2" cx="1194.9" cy="25.6" r="3.1"/>
	<path clip-path="url(#SVGID_2_)" fill="#BDF2F2" d="M1199.5,17.7c-0.1,0-0.2,0-0.3,0c-0.8-0.2-1.3-0.9-1.2-1.8
		c0-0.2,3.3-15.9,20.8-15.9c0.8,0,1.5,0.7,1.5,1.5s-0.7,1.5-1.5,1.5c-15.1,0-17.7,12.9-17.8,13.5
		C1200.9,17.2,1200.2,17.7,1199.5,17.7z"/>
	<circle clip-path="url(#SVGID_2_)" fill="#BDF2F2" cx="672.9" cy="25.6" r="3.1"/>
	<path clip-path="url(#SVGID_2_)" fill="#BDF2F2" d="M677.5,17.7c-0.1,0-0.2,0-0.3,0c-0.8-0.2-1.3-0.9-1.2-1.8
		c0-0.2,3.3-15.9,20.8-15.9c0.8,0,1.5,0.7,1.5,1.5S697.7,3,696.8,3c-15.1,0-17.7,12.9-17.8,13.5C678.9,17.2,678.2,17.7,677.5,17.7z"
		/>
	<circle clip-path="url(#SVGID_2_)" fill="#BDF2F2" cx="731.2" cy="25.6" r="3.1"/>
	<path clip-path="url(#SVGID_2_)" fill="#BDF2F2" d="M735.9,17.7c-0.1,0-0.2,0-0.3,0c-0.8-0.2-1.3-0.9-1.2-1.8
		c0-0.2,3.3-15.9,20.8-15.9c0.8,0,1.5,0.7,1.5,1.5S756,3,755.2,3c-15.1,0-17.7,12.9-17.8,13.5C737.2,17.2,736.6,17.7,735.9,17.7z"/>
	<circle clip-path="url(#SVGID_2_)" fill="#BDF2F2" cx="788.9" cy="25.6" r="3.1"/>
	<path clip-path="url(#SVGID_2_)" fill="#BDF2F2" d="M793.6,17.7c-0.1,0-0.2,0-0.3,0c-0.8-0.2-1.3-0.9-1.2-1.8
		c0-0.2,3.3-15.9,20.8-15.9c0.8,0,1.5,0.7,1.5,1.5S813.7,3,812.9,3c-15.1,0-17.7,12.9-17.8,13.5C794.9,17.2,794.3,17.7,793.6,17.7z"
		/>
	<circle clip-path="url(#SVGID_2_)" fill="#BDF2F2" cx="847.2" cy="25.6" r="3.1"/>
	<path clip-path="url(#SVGID_2_)" fill="#BDF2F2" d="M851.9,17.7c-0.1,0-0.2,0-0.3,0c-0.8-0.2-1.3-0.9-1.2-1.8
		c0-0.2,3.3-15.9,20.8-15.9c0.8,0,1.5,0.7,1.5,1.5S872,3,871.2,3c-15.1,0-17.7,12.9-17.8,13.5C853.2,17.2,852.6,17.7,851.9,17.7z"/>
	<circle clip-path="url(#SVGID_2_)" fill="#BDF2F2" cx="905.1" cy="25.6" r="3.1"/>
	<path clip-path="url(#SVGID_2_)" fill="#BDF2F2" d="M909.8,17.7c-0.1,0-0.2,0-0.3,0c-0.8-0.2-1.3-0.9-1.2-1.8
		c0-0.2,3.3-15.9,20.8-15.9c0.8,0,1.5,0.7,1.5,1.5S929.9,3,929.1,3c-15.1,0-17.7,12.9-17.8,13.5C911.1,17.2,910.5,17.7,909.8,17.7z"
		/>
	<circle clip-path="url(#SVGID_2_)" fill="#BDF2F2" cx="1253.2" cy="25.6" r="3.1"/>
	<path clip-path="url(#SVGID_2_)" fill="#BDF2F2" d="M1257.9,17.7c-0.1,0-0.2,0-0.3,0c-0.8-0.2-1.3-0.9-1.2-1.8
		c0-0.2,3.3-15.9,20.8-15.9c0.8,0,1.5,0.7,1.5,1.5S1278,3,1277.2,3c-15,0-17.7,13-17.8,13.5C1259.2,17.2,1258.6,17.7,1257.9,17.7z"
		/>
	<circle clip-path="url(#SVGID_2_)" fill="#BDF2F2" cx="322.8" cy="25.6" r="3.1"/>
	<path clip-path="url(#SVGID_2_)" fill="#BDF2F2" d="M327.5,17.7c-0.1,0-0.2,0-0.3,0c-0.8-0.2-1.3-0.9-1.2-1.8
		c0-0.2,3.3-15.9,20.8-15.9c0.8,0,1.5,0.7,1.5,1.5S347.6,3,346.8,3c-15.1,0-17.7,12.9-17.8,13.5C328.8,17.2,328.2,17.7,327.5,17.7z"
		/>
	<circle clip-path="url(#SVGID_2_)" fill="#BDF2F2" cx="381.2" cy="25.6" r="3.1"/>
	<path clip-path="url(#SVGID_2_)" fill="#BDF2F2" d="M385.8,17.7c-0.1,0-0.2,0-0.3,0c-0.8-0.2-1.3-0.9-1.2-1.8
		c0-0.2,3.3-15.9,20.8-15.9c0.8,0,1.5,0.7,1.5,1.5S406,3,405.1,3c-15.1,0-17.7,12.9-17.8,13.5C387.2,17.2,386.5,17.7,385.8,17.7z"/>
	<circle clip-path="url(#SVGID_2_)" fill="#BDF2F2" cx="438.9" cy="25.6" r="3.1"/>
	<path clip-path="url(#SVGID_2_)" fill="#BDF2F2" d="M443.5,17.7c-0.1,0-0.2,0-0.3,0c-0.8-0.2-1.3-0.9-1.2-1.8
		c0-0.2,3.3-15.9,20.8-15.9c0.8,0,1.5,0.7,1.5,1.5S463.7,3,462.8,3c-15.1,0-17.7,12.9-17.8,13.5C444.9,17.2,444.2,17.7,443.5,17.7z"
		/>
	<circle clip-path="url(#SVGID_2_)" fill="#BDF2F2" cx="497.2" cy="25.6" r="3.1"/>
	<path clip-path="url(#SVGID_2_)" fill="#BDF2F2" d="M501.9,17.7c-0.1,0-0.2,0-0.3,0c-0.8-0.2-1.3-0.9-1.2-1.8
		c0-0.2,3.3-15.9,20.8-15.9c0.8,0,1.5,0.7,1.5,1.5S522,3,521.2,3c-15.1,0-17.7,12.9-17.8,13.5C503.2,17.2,502.6,17.7,501.9,17.7z"/>
	<circle clip-path="url(#SVGID_2_)" fill="#BDF2F2" cx="555.1" cy="25.6" r="3.1"/>
	<path clip-path="url(#SVGID_2_)" fill="#BDF2F2" d="M559.7,17.7c-0.1,0-0.2,0-0.3,0c-0.8-0.2-1.3-0.9-1.2-1.8
		c0-0.2,3.3-15.9,20.8-15.9c0.8,0,1.5,0.7,1.5,1.5S579.8,3,579,3c-15.1,0-17.7,12.9-17.8,13.5C561.1,17.2,560.4,17.7,559.7,17.7z"/>
	<circle clip-path="url(#SVGID_2_)" fill="#BDF2F2" cx="33.1" cy="25.6" r="3.1"/>
	<path clip-path="url(#SVGID_2_)" fill="#BDF2F2" d="M37.7,17.7c-0.1,0-0.2,0-0.3,0c-0.8-0.2-1.3-0.9-1.2-1.8C36.3,15.8,39.5,0,57,0
		c0.8,0,1.5,0.7,1.5,1.5S57.9,3,57,3C42,3,39.3,15.9,39.2,16.5C39.1,17.2,38.4,17.7,37.7,17.7z"/>
	<circle clip-path="url(#SVGID_2_)" fill="#BDF2F2" cx="91.4" cy="25.6" r="3.1"/>
	<path clip-path="url(#SVGID_2_)" fill="#BDF2F2" d="M96.1,17.7c-0.1,0-0.2,0-0.3,0c-0.8-0.2-1.3-0.9-1.2-1.8
		c0-0.2,3.3-15.9,20.8-15.9c0.8,0,1.5,0.7,1.5,1.5S116.2,3,115.4,3c-15.1,0-17.7,12.9-17.8,13.5C97.4,17.2,96.8,17.7,96.1,17.7z"/>
	<circle clip-path="url(#SVGID_2_)" fill="#BDF2F2" cx="149.1" cy="25.6" r="3.1"/>
	<path clip-path="url(#SVGID_2_)" fill="#BDF2F2" d="M153.8,17.7c-0.1,0-0.2,0-0.3,0c-0.8-0.2-1.3-0.9-1.2-1.8
		c0-0.2,3.3-15.9,20.8-15.9c0.8,0,1.5,0.7,1.5,1.5S173.9,3,173.1,3c-15.1,0-17.7,12.9-17.8,13.5C155.1,17.2,154.5,17.7,153.8,17.7z"
		/>
	<circle clip-path="url(#SVGID_2_)" fill="#BDF2F2" cx="207.4" cy="25.6" r="3.1"/>
	<path clip-path="url(#SVGID_2_)" fill="#BDF2F2" d="M212.1,17.7c-0.1,0-0.2,0-0.3,0c-0.8-0.2-1.3-0.9-1.2-1.8
		c0-0.2,3.3-15.9,20.8-15.9c0.8,0,1.5,0.7,1.5,1.5S232.2,3,231.4,3c-15.1,0-17.7,12.9-17.8,13.5C213.4,17.2,212.8,17.7,212.1,17.7z"
		/>
	<circle clip-path="url(#SVGID_2_)" fill="#BDF2F2" cx="265.3" cy="25.6" r="3.1"/>
	<path clip-path="url(#SVGID_2_)" fill="#BDF2F2" d="M270,17.7c-0.1,0-0.2,0-0.3,0c-0.8-0.2-1.3-0.9-1.2-1.8
		c0-0.2,3.3-15.9,20.8-15.9c0.8,0,1.5,0.7,1.5,1.5S290.1,3,289.3,3c-15.1,0-17.7,12.9-17.8,13.5C271.3,17.2,270.7,17.7,270,17.7z"/>
	<circle clip-path="url(#SVGID_2_)" fill="#BDF2F2" cx="613.4" cy="25.6" r="3.1"/>
	<path clip-path="url(#SVGID_2_)" fill="#BDF2F2" d="M618,17.7c-0.1,0-0.2,0-0.3,0c-0.8-0.2-1.3-0.9-1.2-1.8
		c0-0.2,3.3-15.9,20.8-15.9c0.8,0,1.5,0.7,1.5,1.5S638.2,3,637.3,3c-15,0-17.7,13-17.8,13.5C619.4,17.2,618.8,17.7,618,17.7z"/>
</g>
</svg>
