<?xml version="1.0" encoding="utf-8"?>
<!-- Generator: Adobe Illustrator 18.1.0, SVG Export Plug-In . SVG Version: 6.00 Build 0)  -->
<svg version="1.1" id="Laag_1" xmlns="http://www.w3.org/2000/svg" xmlns:xlink="http://www.w3.org/1999/xlink" x="0px" y="0px"
	 viewBox="0 0 427.1 524" enable-background="new 0 0 427.1 524" xml:space="preserve">
<polygon fill="#FFFFFF" points="2.6,486.7 3.1,515 24.2,515 24.9,510.2 26.7,506.3 32.5,502.5 35.9,502.3 41.1,503.2 44.2,505.3 
	46.9,510.9 47.5,515 52.2,520.2 55.8,521.3 59.1,521.4 65.5,519.2 68.2,514.4 69.5,509.5 72.7,504.6 77.6,502.4 80.2,502.3 
	84.5,502.8 87.8,504.6 89.9,507 91.3,512.6 94.9,519.1 100.2,521.3 105.4,521.2 111.3,517.7 113.5,512.8 116,505.6 123.6,502.3 
	123.6,480.7 "/>
<polygon fill="#FFFFFF" points="91.3,493.3 91.9,515 112.9,515 113.7,510.2 115.4,506.3 121.3,502.5 124.6,502.3 129.8,503.2 
	132.9,505.3 135.7,510.9 136.3,515 140.9,520.2 144.6,521.3 147.9,521.4 154.2,519.2 156.9,514.4 158.2,509.5 161.4,504.6 
	166.4,502.4 169,502.3 173.3,502.8 176.6,504.6 178.7,507 180.1,512.6 183.6,519.1 189,521.3 194.1,521.2 200.1,517.7 202.3,512.8 
	204.8,505.6 212.3,502.3 212.3,480.7 "/>
<polygon fill="#FFFFFF" points="180.1,493.3 180.7,515 201.7,515 202.5,510.2 204.2,506.3 210,502.5 213.4,502.3 218.6,503.2 
	221.7,505.3 224.4,510.9 225.1,515 229.7,520.2 233.3,521.3 236.6,521.4 243,519.2 245.7,514.4 247,509.5 250.2,504.6 255.1,502.4 
	257.8,502.3 262,502.8 265.4,504.6 267.5,507 268.9,512.6 272.4,519.1 277.7,521.3 282.9,521.2 288.9,517.7 291.1,512.8 
	293.5,505.6 291.1,502.3 291.1,480.7 "/>
<polygon fill="#FFFFFF" points="312.1,493.3 312.7,515 333.7,515 334.4,510.2 336.2,506.3 342,502.5 345.4,502.3 350.6,503.2 
	353.7,505.3 356.4,510.9 357,515 361.7,520.2 365.3,521.3 368.6,521.4 375,519.2 377.7,514.4 379,509.5 382.2,504.6 387.1,502.4 
	389.8,502.3 394,502.8 397.3,504.6 399.4,507 400.8,512.6 404.4,519.1 409.7,521.3 414.9,521.2 420.9,517.7 423.1,512.8 
	425.5,505.6 423.1,502.3 423.1,480.7 "/>
<polygon fill="#FFFFFF" points="268.9,493.3 269.4,515 290.5,515 291.2,510.2 293,506.3 298.8,502.5 302.2,502.3 307.4,503.2 
	310.5,505.3 313.2,510.9 313.8,515 318.5,520.2 322.1,521.3 325.4,521.4 331.8,519.2 334.5,514.4 335.8,509.5 338.9,504.6 
	343.9,502.4 346.5,502.3 350.8,502.8 354.1,504.6 356.2,507 357.6,512.6 361.2,519.1 366.5,521.3 371.6,521.2 377.6,517.7 
	379.8,512.8 382.3,505.6 379.9,502.3 379.9,480.7 "/>
<g>
	<path fill="#FFFFFF" d="M2.5,490.7v-419c0-16,13.1-29.1,29.1-29.1h364.8c16,0,29.1,13.1,29.1,29.1v419"/>
	<path fill="#4F463B" d="M424.6,493.3c-1.4,0-2.5-1.1-2.5-2.5v-419c0-14.7-11.9-26.6-26.6-26.6H31.7C17,45.1,5.1,57.1,5.1,71.7v419
		c0,1.4-1.1,2.5-2.5,2.5S0,492.1,0,490.7v-419C0,54.2,14.2,40,31.7,40h363.8c17.5,0,31.7,14.2,31.7,31.7v419
		C427.1,492.1,426,493.3,424.6,493.3z"/>
</g>
<g>
	<path fill="#FFFFFF" d="M2.6,511.9c0,5.1,4.5,9.6,10,9.6h2.1c5.5,0,10-4.5,10-9.6"/>
	<path fill="#4F463B" d="M14.7,524h-2.1C5.8,524,0,518.4,0,511.9c0-1.4,1.1-2.5,2.5-2.5s2.5,1.1,2.5,2.5c0,3.7,3.5,7,7.5,7h2.1
		c4,0,7.5-3.3,7.5-7c0-1.4,1.1-2.5,2.5-2.5c1.4,0,2.5,1.1,2.5,2.5C27.3,518.4,21.5,524,14.7,524z"/>
</g>
<path fill="#4F463B" d="M47,514.4c-1.4,0-2.5-1.1-2.5-2.5c0-3.7-3.5-7-7.5-7h-2.1c-4,0-7.5,3.3-7.5,7c0,1.4-1.1,2.5-2.5,2.5
	c-1.4,0-2.5-1.1-2.5-2.5c0-6.6,5.8-12.1,12.6-12.1h2.1c6.8,0,12.6,5.5,12.6,12.1C49.5,513.2,48.4,514.4,47,514.4z"/>
<g>
	<path fill="#FFFFFF" d="M69.1,511.9c0,5.1-4.5,9.6-10,9.6H57c-5.5,0-10-4.5-10-9.6"/>
	<path fill="#4F463B" d="M59.1,524H57c-6.8,0-12.6-5.5-12.6-12.1c0-1.4,1.1-2.5,2.5-2.5s2.5,1.1,2.5,2.5c0,3.7,3.5,7,7.5,7h2.1
		c4,0,7.5-3.3,7.5-7c0-1.4,1.1-2.5,2.5-2.5c1.4,0,2.5,1.1,2.5,2.5C71.7,518.4,65.9,524,59.1,524z"/>
</g>
<path fill="#4F463B" d="M91.3,514.4c-1.4,0-2.5-1.1-2.5-2.5c0-3.7-3.5-7-7.5-7h-2.1c-4,0-7.5,3.3-7.5,7c0,1.4-1.1,2.5-2.5,2.5
	c-1.4,0-2.5-1.1-2.5-2.5c0-6.6,5.8-12.1,12.6-12.1h2.1c6.8,0,12.6,5.5,12.6,12.1C93.9,513.2,92.7,514.4,91.3,514.4z"/>
<g>
	<path fill="#FFFFFF" d="M113.5,511.9c0,5.1-4.5,9.6-10,9.6h-2.1c-5.5,0-10-4.5-10-9.6"/>
	<path fill="#4F463B" d="M103.5,524h-2.1c-6.8,0-12.6-5.5-12.6-12.1c0-1.4,1.1-2.5,2.5-2.5c1.4,0,2.5,1.1,2.5,2.5c0,3.7,3.5,7,7.5,7
		h2.1c4,0,7.5-3.3,7.5-7c0-1.4,1.1-2.5,2.5-2.5c1.4,0,2.5,1.1,2.5,2.5C116.1,518.4,110.3,524,103.5,524z"/>
</g>
<path fill="#4F463B" d="M135.7,514.4c-1.4,0-2.5-1.1-2.5-2.5c0-3.7-3.5-7-7.5-7h-2.1c-4,0-7.5,3.3-7.5,7c0,1.4-1.1,2.5-2.5,2.5
	s-2.5-1.1-2.5-2.5c0-6.6,5.8-12.1,12.6-12.1h2.1c6.8,0,12.6,5.5,12.6,12.1C138.3,513.2,137.1,514.4,135.7,514.4z"/>
<g>
	<path fill="#FFFFFF" d="M157.9,511.9c0,5.1-4.5,9.6-10,9.6h-2.1c-5.5,0-10-4.5-10-9.6"/>
	<path fill="#4F463B" d="M147.9,524h-2.1c-6.8,0-12.6-5.5-12.6-12.1c0-1.4,1.1-2.5,2.5-2.5s2.5,1.1,2.5,2.5c0,3.7,3.5,7,7.5,7h2.1
		c4,0,7.5-3.3,7.5-7c0-1.4,1.1-2.5,2.5-2.5c1.4,0,2.5,1.1,2.5,2.5C160.4,518.4,154.7,524,147.9,524z"/>
</g>
<path fill="#4F463B" d="M180.1,514.4c-1.4,0-2.5-1.1-2.5-2.5c0-3.7-3.5-7-7.5-7H168c-4,0-7.5,3.3-7.5,7c0,1.4-1.1,2.5-2.5,2.5
	s-2.5-1.1-2.5-2.5c0-6.6,5.8-12.1,12.6-12.1h2.1c6.8,0,12.6,5.5,12.6,12.1C182.6,513.2,181.5,514.4,180.1,514.4z"/>
<g>
	<path fill="#FFFFFF" d="M202.3,511.9c0,5.1-4.5,9.6-10,9.6h-2.1c-5.5,0-10-4.5-10-9.6"/>
	<path fill="#4F463B" d="M192.2,524h-2.1c-6.8,0-12.6-5.5-12.6-12.1c0-1.4,1.1-2.5,2.5-2.5c1.4,0,2.5,1.1,2.5,2.5c0,3.7,3.5,7,7.5,7
		h2.1c4,0,7.5-3.3,7.5-7c0-1.4,1.1-2.5,2.5-2.5c1.4,0,2.5,1.1,2.5,2.5C204.8,518.4,199.1,524,192.2,524z"/>
</g>
<path fill="#4F463B" d="M224.5,514.4c-1.4,0-2.5-1.1-2.5-2.5c0-3.7-3.5-7-7.5-7h-2.1c-4,0-7.5,3.3-7.5,7c0,1.4-1.1,2.5-2.5,2.5
	s-2.5-1.1-2.5-2.5c0-6.6,5.8-12.1,12.6-12.1h2.1c6.8,0,12.6,5.5,12.6,12.1C227,513.2,225.9,514.4,224.5,514.4z"/>
<g>
	<path fill="#FFFFFF" d="M246.6,511.9c0,5.1-4.5,9.6-10,9.6h-2.1c-5.5,0-10-4.5-10-9.6"/>
	<path fill="#4F463B" d="M236.6,524h-2.1c-6.8,0-12.6-5.5-12.6-12.1c0-1.4,1.1-2.5,2.5-2.5s2.5,1.1,2.5,2.5c0,3.7,3.5,7,7.5,7h2.1
		c4,0,7.5-3.3,7.5-7c0-1.4,1.1-2.5,2.5-2.5s2.5,1.1,2.5,2.5C249.2,518.4,243.4,524,236.6,524z"/>
</g>
<path fill="#4F463B" d="M268.9,514.4c-1.4,0-2.5-1.1-2.5-2.5c0-3.7-3.5-7-7.5-7h-2.1c-4,0-7.5,3.3-7.5,7c0,1.4-1.1,2.5-2.5,2.5
	s-2.5-1.1-2.5-2.5c0-6.6,5.8-12.1,12.6-12.1h2.1c6.8,0,12.6,5.5,12.6,12.1C271.4,513.2,270.3,514.4,268.9,514.4z"/>
<g>
	<path fill="#FFFFFF" d="M291,511.9c0,5.1-4.5,9.6-10,9.6h-2.1c-5.5,0-10-4.5-10-9.6"/>
	<path fill="#4F463B" d="M281,524h-2.1c-6.8,0-12.6-5.5-12.6-12.1c0-1.4,1.1-2.5,2.5-2.5c1.4,0,2.5,1.1,2.5,2.5c0,3.7,3.5,7,7.5,7
		h2.1c4,0,7.5-3.3,7.5-7c0-1.4,1.1-2.5,2.5-2.5c1.4,0,2.5,1.1,2.5,2.5C293.6,518.4,287.8,524,281,524z"/>
</g>
<path fill="#4F463B" d="M313.3,514.4c-1.4,0-2.5-1.1-2.5-2.5c0-3.7-3.5-7-7.5-7h-2.1c-4,0-7.5,3.3-7.5,7c0,1.4-1.1,2.5-2.5,2.5
	s-2.5-1.1-2.5-2.5c0-6.6,5.8-12.1,12.6-12.1h2.1c6.8,0,12.6,5.5,12.6,12.1C315.9,513.2,314.8,514.4,313.3,514.4z"/>
<g>
	<path fill="#FFFFFF" d="M335.5,511.9c0,5.1-4.5,9.6-10,9.6h-2.1c-5.5,0-10-4.5-10-9.6"/>
	<path fill="#4F463B" d="M325.5,524h-2.1c-6.8,0-12.6-5.5-12.6-12.1c0-1.4,1.1-2.5,2.5-2.5c1.4,0,2.5,1.1,2.5,2.5c0,3.7,3.5,7,7.5,7
		h2.1c4,0,7.5-3.3,7.5-7c0-1.4,1.1-2.5,2.5-2.5c1.4,0,2.5,1.1,2.5,2.5C338.1,518.4,332.3,524,325.5,524z"/>
</g>
<path fill="#4F463B" d="M357.7,514.4c-1.4,0-2.5-1.1-2.5-2.5c0-3.7-3.5-7-7.5-7h-2.1c-4,0-7.5,3.3-7.5,7c0,1.4-1.1,2.5-2.5,2.5
	c-1.4,0-2.5-1.1-2.5-2.5c0-6.6,5.8-12.1,12.6-12.1h2.1c6.8,0,12.6,5.5,12.6,12.1C360.3,513.2,359.1,514.4,357.7,514.4z"/>
<g>
	<path fill="#FFFFFF" d="M379.9,511.9c0,5.1-4.5,9.6-10,9.6h-2.1c-5.5,0-10-4.5-10-9.6"/>
	<path fill="#4F463B" d="M369.9,524h-2.1c-6.8,0-12.6-5.5-12.6-12.1c0-1.4,1.1-2.5,2.5-2.5c1.4,0,2.5,1.1,2.5,2.5c0,3.7,3.5,7,7.5,7
		h2.1c4,0,7.5-3.3,7.5-7c0-1.4,1.1-2.5,2.5-2.5c1.4,0,2.5,1.1,2.5,2.5C382.4,518.4,376.7,524,369.9,524z"/>
</g>
<path fill="#4F463B" d="M402.1,514.4c-1.4,0-2.5-1.1-2.5-2.5c0-3.7-3.5-7-7.5-7H390c-4,0-7.5,3.3-7.5,7c0,1.4-1.1,2.5-2.5,2.5
	c-1.4,0-2.5-1.1-2.5-2.5c0-6.6,5.8-12.1,12.6-12.1h2.1c6.8,0,12.6,5.5,12.6,12.1C404.7,513.2,403.5,514.4,402.1,514.4z"/>
<g>
	<path fill="#FFFFFF" d="M424.3,511.9c0,5.1-4.5,9.6-10,9.6h-2.1c-5.5,0-10-4.5-10-9.6"/>
	<path fill="#4F463B" d="M414.3,524h-2.1c-6.8,0-12.6-5.5-12.6-12.1c0-1.4,1.1-2.5,2.5-2.5c1.4,0,2.5,1.1,2.5,2.5c0,3.7,3.5,7,7.5,7
		h2.1c4,0,7.5-3.3,7.5-7c0-1.4,1.1-2.5,2.5-2.5c1.4,0,2.5,1.1,2.5,2.5C426.8,518.4,421.1,524,414.3,524z"/>
</g>
<g>
	<path fill="#75C0CC" d="M78.9,57.2h-1.6c-8,0-14.6-6.6-14.6-14.6l-2.9-18.2c0-4,3.3-7.3,7.3-7.3h22c4,0,7.3,3.3,7.3,7.3l-2.9,18.2
		C93.4,50.6,86.9,57.2,78.9,57.2z"/>
	<path fill="#4F463B" d="M78.9,59.7h-1.6c-9.4,0-17-7.6-17.1-16.9l-2.9-18c0-0.1,0-0.3,0-0.4c0-5.4,4.4-9.8,9.8-9.8h22
		c5.4,0,9.8,4.4,9.8,9.8c0,0.1,0,0.3,0,0.4l-2.9,18C95.9,52.2,88.2,59.7,78.9,59.7z M62.3,24.2l2.9,18c0,0.1,0,0.3,0,0.4
		c0,6.6,5.4,12,12,12h1.6c6.6,0,12-5.4,12-12c0-0.1,0-0.3,0-0.4l2.9-18c-0.1-2.5-2.2-4.6-4.7-4.6H67C64.5,19.7,62.4,21.7,62.3,24.2z
		"/>
</g>
<g>
	<path fill="#75C0CC" d="M78,17.1L78,17.1c-4,0-7.3-3.3-7.3-7.3v0c0-4,3.3-7.3,7.3-7.3h0c4,0,7.3,3.3,7.3,7.3v0
		C85.3,13.8,82,17.1,78,17.1z"/>
	<path fill="#4F463B" d="M78,19.7c-5.4,0-9.8-4.4-9.8-9.8C68.2,4.4,72.6,0,78,0c5.4,0,9.8,4.4,9.8,9.8C87.9,15.3,83.5,19.7,78,19.7z
		 M78,5.1c-2.6,0-4.7,2.1-4.7,4.7c0,2.6,2.1,4.7,4.7,4.7c2.6,0,4.7-2.1,4.7-4.7C82.8,7.2,80.7,5.1,78,5.1z"/>
</g>
<path opacity="0.5" fill="#50706E" d="M72,45.1c-0.9,0-1.7-0.6-1.8-1.6L68.1,29c-0.1-1,0.5-1.9,1.5-2.1c1-0.2,1.9,0.5,2.1,1.5
	L73.9,43c0.1,1-0.5,1.9-1.5,2.1C72.2,45.1,72.1,45.1,72,45.1z"/>
<path opacity="0.5" fill="#50706E" d="M84.4,45.1c-0.1,0-0.2,0-0.3,0c-1-0.1-1.7-1.1-1.5-2.1l2.2-14.5c0.2-1,1.1-1.7,2.1-1.5
	c1,0.1,1.7,1.1,1.5,2.1l-2.2,14.5C86.1,44.5,85.3,45.1,84.4,45.1z"/>
<path opacity="0.5" fill="#50706E" d="M78,47.4c-1,0-1.8-0.8-1.8-1.8V27c0-1,0.8-1.8,1.8-1.8s1.8,0.8,1.8,1.8v18.6
	C79.8,46.5,79,47.4,78,47.4z"/>
<g>
	<path fill="#75C0CC" d="M348.3,57.2h-1.6c-8,0-14.6-6.6-14.6-14.6l-2.9-18.2c0-4,3.3-7.3,7.3-7.3h22c4,0,7.3,3.3,7.3,7.3l-2.9,18.2
		C362.8,50.6,356.3,57.2,348.3,57.2z"/>
	<path fill="#4F463B" d="M348.3,59.7h-1.6c-9.4,0-17-7.6-17.1-16.9l-2.9-18c0-0.1,0-0.3,0-0.4c0-5.4,4.4-9.8,9.8-9.8h22
		c5.4,0,9.8,4.4,9.8,9.8c0,0.1,0,0.3,0,0.4l-2.9,18C365.3,52.2,357.6,59.7,348.3,59.7z M331.7,24.2l2.9,18c0,0.1,0,0.3,0,0.4
		c0,6.6,5.4,12,12,12h1.6c6.6,0,12-5.4,12-12c0-0.1,0-0.3,0-0.4l2.9-18c-0.1-2.5-2.2-4.6-4.7-4.6h-22
		C333.9,19.7,331.8,21.7,331.7,24.2z"/>
</g>
<g>
	<path fill="#75C0CC" d="M347.5,17.1L347.5,17.1c-4,0-7.3-3.3-7.3-7.3v0c0-4,3.3-7.3,7.3-7.3h0c4,0,7.3,3.3,7.3,7.3v0
		C354.8,13.8,351.5,17.1,347.5,17.1z"/>
	<path fill="#4F463B" d="M347.5,19.7c-5.4,0-9.8-4.4-9.8-9.8c0-5.4,4.4-9.8,9.8-9.8s9.8,4.4,9.8,9.8
		C357.3,15.3,352.9,19.7,347.5,19.7z M347.5,5.1c-2.6,0-4.7,2.1-4.7,4.7c0,2.6,2.1,4.7,4.7,4.7c2.6,0,4.7-2.1,4.7-4.7
		C352.2,7.2,350.1,5.1,347.5,5.1z"/>
</g>
<path opacity="0.5" fill="#50706E" d="M341.5,45.1c-0.9,0-1.7-0.6-1.8-1.6L337.5,29c-0.1-1,0.5-1.9,1.5-2.1c1-0.2,1.9,0.5,2.1,1.5
	l2.2,14.5c0.1,1-0.5,1.9-1.5,2.1C341.7,45.1,341.6,45.1,341.5,45.1z"/>
<path opacity="0.5" fill="#50706E" d="M353.9,45.1c-0.1,0-0.2,0-0.3,0c-1-0.1-1.7-1.1-1.5-2.1l2.2-14.5c0.2-1,1.1-1.7,2.1-1.5
	c1,0.1,1.7,1.1,1.5,2.1l-2.2,14.5C355.5,44.5,354.8,45.1,353.9,45.1z"/>
<path opacity="0.5" fill="#50706E" d="M347.4,47.4c-1,0-1.8-0.8-1.8-1.8V27c0-1,0.8-1.8,1.8-1.8c1,0,1.8,0.8,1.8,1.8v18.6
	C349.2,46.5,348.4,47.4,347.4,47.4z"/>
<g>
	<line fill="#FFFFFF" x1="424.6" y1="511.9" x2="424.6" y2="423.1"/>
	<path fill="#4F463B" d="M424.6,514.4c-1.4,0-2.5-1.1-2.5-2.5v-88.7c0-1.4,1.1-2.5,2.5-2.5c1.4,0,2.5,1.1,2.5,2.5v88.7
		C427.1,513.3,426,514.4,424.6,514.4z"/>
</g>
<g>
	<line fill="#FFFFFF" x1="2.5" y1="511.9" x2="2.5" y2="423.1"/>
	<path fill="#4F463B" d="M2.5,514.4c-1.4,0-2.5-1.1-2.5-2.5v-88.7c0-1.4,1.1-2.5,2.5-2.5s2.5,1.1,2.5,2.5v88.7
		C5.1,513.3,4,514.4,2.5,514.4z"/>
</g>
<path fill="#7F3430" d="M263.2,511.8c-0.4,0-0.8-0.2-1-0.7c-1.1-2.6-4-2.6-4-2.6c-0.6,0-1.1-0.5-1.1-1.1c0-0.6,0.5-1.1,1.1-1.1
	c0.2,0,4.4,0,6.1,3.9c0.2,0.6,0,1.2-0.6,1.4C263.5,511.8,263.3,511.8,263.2,511.8z"/>
<path fill="#7F3430" d="M264,515.9c-0.5,0-1-0.4-1.1-0.9l-0.1-0.7c-0.1-0.6,0.3-1.2,0.9-1.3c0.6-0.1,1.2,0.3,1.3,0.9l0.1,0.7
	c0.1,0.6-0.3,1.2-0.9,1.3C264.1,515.9,264.1,515.9,264,515.9z"/>
<path fill="#7F3430" d="M218.5,511.8c-0.4,0-0.8-0.2-1-0.7c-1.1-2.6-4-2.6-4-2.6c-0.6,0-1.1-0.5-1.1-1.1c0-0.6,0.5-1.1,1.1-1.1
	c0.2,0,4.4,0,6.1,3.9c0.2,0.6,0,1.2-0.6,1.4C218.8,511.8,218.6,511.8,218.5,511.8z"/>
<path fill="#7F3430" d="M219.3,515.9c-0.5,0-1-0.4-1.1-0.9l-0.1-0.7c-0.1-0.6,0.3-1.2,0.9-1.3c0.6-0.1,1.2,0.3,1.3,0.9l0.1,0.7
	c0.1,0.6-0.3,1.2-0.9,1.3C219.4,515.9,219.4,515.9,219.3,515.9z"/>
<path fill="#7F3430" d="M174.2,511.8c-0.4,0-0.8-0.2-1-0.7c-1.1-2.6-4-2.6-4-2.6c-0.6,0-1.1-0.5-1.1-1.1c0-0.6,0.5-1.1,1.1-1.1
	c0.2,0,4.4,0,6.1,3.9c0.2,0.6,0,1.2-0.6,1.4C174.5,511.8,174.3,511.8,174.2,511.8z"/>
<path fill="#7F3430" d="M175,515.9c-0.5,0-1-0.4-1.1-0.9l-0.1-0.7c-0.1-0.6,0.3-1.2,0.9-1.3c0.6-0.1,1.2,0.3,1.3,0.9l0.1,0.7
	c0.1,0.6-0.3,1.2-0.9,1.3C175.1,515.9,175.1,515.9,175,515.9z"/>
<path fill="#7F3430" d="M130.2,511.8c-0.4,0-0.8-0.2-1-0.7c-1.1-2.6-4-2.6-4-2.6c-0.6,0-1.1-0.5-1.1-1.1c0-0.6,0.5-1.1,1.1-1.1
	c0.2,0,4.4,0,6.1,3.9c0.2,0.6,0,1.2-0.6,1.4C130.5,511.8,130.3,511.8,130.2,511.8z"/>
<path fill="#7F3430" d="M131,515.9c-0.5,0-1-0.4-1.1-0.9l-0.1-0.7c-0.1-0.6,0.3-1.2,0.9-1.3c0.6-0.1,1.2,0.3,1.3,0.9l0.1,0.7
	c0.1,0.6-0.3,1.2-0.9,1.3C131.1,515.9,131.1,515.9,131,515.9z"/>
<path fill="#7F3430" d="M85.5,511.8c-0.4,0-0.8-0.2-1-0.7c-1.1-2.6-4-2.6-4-2.6c-0.6,0-1.1-0.5-1.1-1.1c0-0.6,0.5-1.1,1.1-1.1
	c0.2,0,4.4,0,6.1,3.9c0.2,0.6,0,1.2-0.6,1.4C85.8,511.8,85.7,511.8,85.5,511.8z"/>
<path fill="#7F3430" d="M86.3,515.9c-0.5,0-1-0.4-1.1-0.9l-0.1-0.7c-0.1-0.6,0.3-1.2,0.9-1.3c0.6-0.1,1.2,0.3,1.3,0.9l0.1,0.7
	c0.1,0.6-0.3,1.2-0.9,1.3C86.4,515.9,86.4,515.9,86.3,515.9z"/>
<path fill="#7F3430" d="M41.2,511.8c-0.4,0-0.8-0.2-1-0.7c-1.1-2.6-4-2.6-4-2.6c-0.6,0-1.1-0.5-1.1-1.1c0-0.6,0.5-1.1,1.1-1.1
	c0.2,0,4.4,0,6.1,3.9c0.2,0.6,0,1.2-0.6,1.4C41.5,511.8,41.3,511.8,41.2,511.8z"/>
<path fill="#7F3430" d="M42,515.9c-0.5,0-1-0.4-1.1-0.9l-0.1-0.7c-0.1-0.6,0.3-1.2,0.9-1.3c0.6-0.1,1.2,0.3,1.3,0.9l0.1,0.7
	c0.1,0.6-0.3,1.2-0.9,1.3C42.1,515.9,42.1,515.9,42,515.9z"/>
<path fill="#7F3430" d="M396,511.8c-0.4,0-0.8-0.2-1-0.7c-1.1-2.6-4-2.6-4-2.6c-0.6,0-1.1-0.5-1.1-1.1c0-0.6,0.5-1.1,1.1-1.1
	c0.2,0,4.4,0,6.1,3.9c0.2,0.6,0,1.2-0.6,1.4C396.3,511.8,396.2,511.8,396,511.8z"/>
<path fill="#7F3430" d="M396.8,515.9c-0.5,0-1-0.4-1.1-0.9l-0.1-0.7c-0.1-0.6,0.3-1.2,0.9-1.3c0.6-0.1,1.2,0.3,1.3,0.9l0.1,0.7
	c0.1,0.6-0.3,1.2-0.9,1.3C397,515.9,396.9,515.9,396.8,515.9z"/>
<path fill="#7F3430" d="M351.3,511.8c-0.4,0-0.8-0.2-1-0.7c-1.1-2.6-4-2.6-4-2.6c-0.6,0-1.1-0.5-1.1-1.1c0-0.6,0.5-1.1,1.1-1.1
	c0.2,0,4.4,0,6.1,3.9c0.2,0.6,0,1.2-0.6,1.4C351.6,511.8,351.5,511.8,351.3,511.8z"/>
<path fill="#7F3430" d="M352.1,515.9c-0.5,0-1-0.4-1.1-0.9l-0.1-0.7c-0.1-0.6,0.3-1.2,0.9-1.3c0.6-0.1,1.2,0.3,1.3,0.9l0.1,0.7
	c0.1,0.6-0.3,1.2-0.9,1.3C352.3,515.9,352.2,515.9,352.1,515.9z"/>
<path fill="#7F3430" d="M307,511.8c-0.4,0-0.8-0.2-1-0.7c-1.1-2.6-4-2.6-4-2.6c-0.6,0-1.1-0.5-1.1-1.1c0-0.6,0.5-1.1,1.1-1.1
	c0.2,0,4.4,0,6.1,3.9c0.2,0.6,0,1.2-0.6,1.4C307.3,511.8,307.2,511.8,307,511.8z"/>
<path fill="#7F3430" d="M307.8,515.9c-0.5,0-1-0.4-1.1-0.9l-0.1-0.7c-0.1-0.6,0.3-1.2,0.9-1.3c0.6-0.1,1.2,0.3,1.3,0.9l0.1,0.7
	c0.1,0.6-0.3,1.2-0.9,1.3C308,515.9,307.9,515.9,307.8,515.9z"/>
<path fill="#7F3430" d="M263,511.8c-0.4,0-0.8-0.2-1-0.7c-1.1-2.6-4-2.6-4-2.6c-0.6,0-1.1-0.5-1.1-1.1c0-0.6,0.5-1.1,1.1-1.1
	c0.2,0,4.4,0,6.1,3.9c0.2,0.6,0,1.2-0.6,1.4C263.3,511.8,263.2,511.8,263,511.8z"/>
<path fill="#7F3430" d="M263.9,515.9c-0.5,0-1-0.4-1.1-0.9l-0.1-0.7c-0.1-0.6,0.3-1.2,0.9-1.3c0.6-0.1,1.2,0.3,1.3,0.9l0.1,0.7
	c0.1,0.6-0.3,1.2-0.9,1.3C264,515.9,263.9,515.9,263.9,515.9z"/>
<path fill="#7F3430" d="M218.4,511.8c-0.4,0-0.8-0.2-1-0.7c-1.1-2.6-4-2.6-4-2.6c-0.6,0-1.1-0.5-1.1-1.1c0-0.6,0.5-1.1,1.1-1.1
	c0.2,0,4.4,0,6.1,3.9c0.2,0.6,0,1.2-0.6,1.4C218.6,511.8,218.5,511.8,218.4,511.8z"/>
<path fill="#7F3430" d="M219.2,515.9c-0.5,0-1-0.4-1.1-0.9l-0.1-0.7c-0.1-0.6,0.3-1.2,0.9-1.3c0.6-0.1,1.2,0.3,1.3,0.9l0.1,0.7
	c0.1,0.6-0.3,1.2-0.9,1.3C219.3,515.9,219.2,515.9,219.2,515.9z"/>
<path fill="#7F3430" d="M174,511.8c-0.4,0-0.8-0.2-1-0.7c-1.1-2.6-4-2.6-4-2.6c-0.6,0-1.1-0.5-1.1-1.1c0-0.6,0.5-1.1,1.1-1.1
	c0.2,0,4.4,0,6.1,3.9c0.2,0.6,0,1.2-0.6,1.4C174.3,511.8,174.2,511.8,174,511.8z"/>
<path fill="#7F3430" d="M174.9,515.9c-0.5,0-1-0.4-1.1-0.9l-0.1-0.7c-0.1-0.6,0.3-1.2,0.9-1.3c0.6-0.1,1.2,0.3,1.3,0.9l0.1,0.7
	c0.1,0.6-0.3,1.2-0.9,1.3C175,515.9,174.9,515.9,174.9,515.9z"/>
<g display="none" opacity="5.000000e-02">
	<polyline display="inline" fill="#FFFFFF" points="457.2,137.7 457.2,107.4 483.4,92.3 509.6,107.4 	"/>
</g>
<g display="none" opacity="5.000000e-02">
	<polyline display="inline" fill="#FFFFFF" points="391,136.8 391,106.5 417.2,91.4 443.4,106.5 	"/>
</g>
<g display="none" opacity="5.000000e-02">
	<polyline display="inline" fill="#FFFFFF" points="960.4,137.7 960.4,107.4 986.6,92.3 1012.8,107.4 	"/>
</g>
<g display="none" opacity="5.000000e-02">
	<polyline display="inline" fill="#FFFFFF" points="894.2,136.8 894.2,106.5 920.4,91.4 946.6,106.5 	"/>
</g>
</svg>
