<?xml version="1.0" encoding="utf-8"?>
<!-- Generator: Adobe Illustrator 18.1.0, SVG Export Plug-In . SVG Version: 6.00 Build 0)  -->
<svg version="1.1" id="Laag_1" xmlns="http://www.w3.org/2000/svg" xmlns:xlink="http://www.w3.org/1999/xlink" x="0px" y="0px"
	 viewBox="0 0 1280 540.2" enable-background="new 0 0 1280 540.2" xml:space="preserve">
<rect x="1" y="507.7" fill="#FCF0DE" width="1279" height="32.5"/>
<path fill="#B59A76" d="M1227.7,524.8c-0.8,0-1.4-0.6-1.5-1.3c-0.1-1.1-0.6-1.9-1.4-2.5c-2.5-1.8-7.9-1.1-9.7-0.6
	c-0.8,0.2-1.6-0.3-1.8-1.1c-0.2-0.8,0.3-1.6,1.1-1.8c0.8-0.2,8.1-1.8,12.1,1.1c1.5,1.1,2.4,2.7,2.6,4.6c0.1,0.8-0.5,1.6-1.3,1.6
	C1227.8,524.8,1227.7,524.8,1227.7,524.8z"/>
<path fill="#B59A76" d="M1272.2,521.4c-0.5,0-1-0.2-1.3-0.7c-0.4-0.7-0.2-1.6,0.5-2.1c0.2-0.1,3.8-2.4,7.3-1.1
	c0.8,0.3,1.2,1.1,0.9,1.9c-0.3,0.8-1.1,1.2-1.9,0.9c-2.1-0.7-4.6,0.8-4.6,0.9C1272.7,521.3,1272.4,521.4,1272.2,521.4z"/>
<path fill="#B59A76" d="M1169.5,524.8c-0.8,0-1.4-0.6-1.5-1.3c-0.1-1.1-0.6-1.9-1.4-2.5c-2.5-1.8-7.9-1.1-9.7-0.6
	c-0.8,0.2-1.6-0.3-1.8-1.1c-0.2-0.8,0.3-1.6,1.1-1.8c0.8-0.2,8.1-1.8,12.1,1.1c1.5,1.1,2.4,2.7,2.6,4.6c0.1,0.8-0.5,1.6-1.3,1.6
	C1169.6,524.8,1169.5,524.8,1169.5,524.8z"/>
<path fill="#B59A76" d="M1228.8,530.4c-0.7,0-1.4-0.5-1.5-1.3l-0.2-1c-0.1-0.8,0.4-1.6,1.2-1.7c0.8-0.1,1.6,0.4,1.7,1.2l0.2,1
	c0.1,0.8-0.4,1.6-1.2,1.7C1228.9,530.4,1228.8,530.4,1228.8,530.4z"/>
<path fill="#B59A76" d="M1170.6,530.4c-0.7,0-1.4-0.5-1.5-1.3l-0.2-1c-0.1-0.8,0.4-1.6,1.2-1.7c0.8-0.1,1.6,0.4,1.7,1.2l0.2,1
	c0.1,0.8-0.4,1.6-1.2,1.7C1170.7,530.4,1170.7,530.4,1170.6,530.4z"/>
<path fill="#B59A76" d="M1111.3,524.8c-0.8,0-1.4-0.6-1.5-1.3c-0.1-1.1-0.6-1.9-1.4-2.5c-2.5-1.8-7.9-1.1-9.7-0.6
	c-0.8,0.2-1.6-0.3-1.8-1.1c-0.2-0.8,0.3-1.6,1.1-1.8c0.8-0.2,8.1-1.8,12.1,1.1c1.5,1.1,2.4,2.7,2.6,4.6c0.1,0.8-0.5,1.6-1.3,1.6
	C1111.5,524.8,1111.4,524.8,1111.3,524.8z"/>
<path fill="#B59A76" d="M1053.1,524.8c-0.8,0-1.4-0.6-1.5-1.3c-0.1-1.1-0.6-1.9-1.4-2.5c-2.5-1.8-7.9-1.1-9.7-0.6
	c-0.8,0.2-1.6-0.3-1.8-1.1c-0.2-0.8,0.3-1.6,1.1-1.8c0.8-0.2,8.1-1.8,12.1,1.1c1.5,1.1,2.4,2.7,2.6,4.6c0.1,0.8-0.5,1.6-1.3,1.6
	C1053.2,524.8,1053.2,524.8,1053.1,524.8z"/>
<path fill="#B59A76" d="M1112.4,530.4c-0.7,0-1.4-0.5-1.5-1.3l-0.2-1c-0.1-0.8,0.4-1.6,1.2-1.7c0.8-0.1,1.6,0.4,1.7,1.2l0.2,1
	c0.1,0.8-0.4,1.6-1.2,1.7C1112.6,530.4,1112.5,530.4,1112.4,530.4z"/>
<path fill="#B59A76" d="M1054.2,530.4c-0.7,0-1.4-0.5-1.5-1.3l-0.2-1c-0.1-0.8,0.4-1.6,1.2-1.7c0.8-0.1,1.6,0.4,1.7,1.2l0.2,1
	c0.1,0.8-0.4,1.6-1.2,1.7C1054.4,530.4,1054.3,530.4,1054.2,530.4z"/>
<path fill="#B59A76" d="M995.9,524.8c-0.8,0-1.4-0.6-1.5-1.3c-0.1-1.1-0.6-1.9-1.4-2.5c-2.5-1.8-7.9-1.1-9.7-0.6
	c-0.8,0.2-1.6-0.3-1.8-1.1c-0.2-0.8,0.3-1.6,1.1-1.8c0.8-0.2,8.1-1.8,12.1,1.1c1.5,1.1,2.4,2.7,2.6,4.6c0.1,0.8-0.5,1.6-1.3,1.6
	C996,524.8,995.9,524.8,995.9,524.8z"/>
<path fill="#B59A76" d="M937.7,524.8c-0.8,0-1.4-0.6-1.5-1.3c-0.1-1.1-0.6-1.9-1.4-2.5c-2.5-1.8-7.9-1.1-9.7-0.6
	c-0.8,0.2-1.6-0.3-1.8-1.1c-0.2-0.8,0.3-1.6,1.1-1.8c0.8-0.2,8.1-1.8,12.1,1.1c1.5,1.1,2.4,2.7,2.6,4.6c0.1,0.8-0.5,1.6-1.3,1.6
	C937.8,524.8,937.7,524.8,937.7,524.8z"/>
<path fill="#B59A76" d="M997,530.4c-0.7,0-1.4-0.5-1.5-1.3l-0.2-1c-0.1-0.8,0.4-1.6,1.2-1.7c0.8-0.1,1.6,0.4,1.7,1.2l0.2,1
	c0.1,0.8-0.4,1.6-1.2,1.7C997.1,530.4,997.1,530.4,997,530.4z"/>
<path fill="#B59A76" d="M938.8,530.4c-0.7,0-1.4-0.5-1.5-1.3l-0.2-1c-0.1-0.8,0.4-1.6,1.2-1.7c0.8-0.1,1.6,0.4,1.7,1.2l0.2,1
	c0.1,0.8-0.4,1.6-1.2,1.7C938.9,530.4,938.9,530.4,938.8,530.4z"/>
<path fill="#B59A76" d="M880.2,524.8c-0.8,0-1.4-0.6-1.5-1.3c-0.1-1.1-0.6-1.9-1.4-2.5c-2.5-1.8-7.9-1.1-9.7-0.6
	c-0.8,0.2-1.6-0.3-1.8-1.1c-0.2-0.8,0.3-1.6,1.1-1.8c0.8-0.2,8.1-1.8,12.1,1.1c1.5,1.1,2.4,2.7,2.6,4.6c0.1,0.8-0.5,1.6-1.3,1.6
	C880.3,524.8,880.2,524.8,880.2,524.8z"/>
<path fill="#B59A76" d="M821.9,524.8c-0.8,0-1.4-0.6-1.5-1.3c-0.1-1.1-0.6-1.9-1.4-2.5c-2.5-1.8-7.9-1.1-9.7-0.6
	c-0.8,0.2-1.6-0.3-1.8-1.1s0.3-1.6,1.1-1.8c0.8-0.2,8.1-1.8,12.1,1.1c1.5,1.1,2.4,2.7,2.6,4.6c0.1,0.8-0.5,1.6-1.3,1.6
	C822,524.8,822,524.8,821.9,524.8z"/>
<path fill="#B59A76" d="M881.2,530.4c-0.7,0-1.4-0.5-1.5-1.3l-0.2-1c-0.1-0.8,0.4-1.6,1.2-1.7c0.8-0.1,1.6,0.4,1.7,1.2l0.2,1
	c0.1,0.8-0.4,1.6-1.2,1.7C881.4,530.4,881.3,530.4,881.2,530.4z"/>
<path fill="#B59A76" d="M823,530.4c-0.7,0-1.4-0.5-1.5-1.3l-0.2-1c-0.1-0.8,0.4-1.6,1.2-1.7c0.8-0.1,1.6,0.4,1.7,1.2l0.2,1
	c0.1,0.8-0.4,1.6-1.2,1.7C823.2,530.4,823.1,530.4,823,530.4z"/>
<path fill="#B59A76" d="M764.9,524.8c-0.8,0-1.4-0.6-1.5-1.3c-0.1-1.1-0.6-1.9-1.4-2.5c-2.5-1.8-7.9-1.1-9.7-0.6
	c-0.8,0.2-1.6-0.3-1.8-1.1c-0.2-0.8,0.3-1.6,1.1-1.8c0.8-0.2,8.1-1.8,12.1,1.1c1.5,1.1,2.4,2.7,2.6,4.6c0.1,0.8-0.5,1.6-1.3,1.6
	C765,524.8,765,524.8,764.9,524.8z"/>
<path fill="#B59A76" d="M706.7,524.8c-0.8,0-1.4-0.6-1.5-1.3c-0.1-1.1-0.6-1.9-1.4-2.5c-2.5-1.8-7.9-1.1-9.7-0.6
	c-0.8,0.2-1.6-0.3-1.8-1.1c-0.2-0.8,0.3-1.6,1.1-1.8c0.8-0.2,8.1-1.8,12.1,1.1c1.5,1.1,2.4,2.7,2.6,4.6c0.1,0.8-0.5,1.6-1.3,1.6
	C706.8,524.8,706.7,524.8,706.7,524.8z"/>
<path fill="#B59A76" d="M766,530.4c-0.7,0-1.4-0.5-1.5-1.3l-0.2-1c-0.1-0.8,0.4-1.6,1.2-1.7c0.8-0.1,1.6,0.4,1.7,1.2l0.2,1
	c0.1,0.8-0.4,1.6-1.2,1.7C766.1,530.4,766.1,530.4,766,530.4z"/>
<path fill="#B59A76" d="M707.8,530.4c-0.7,0-1.4-0.5-1.5-1.3l-0.2-1c-0.1-0.8,0.4-1.6,1.2-1.7c0.8-0.1,1.6,0.4,1.7,1.2l0.2,1
	c0.1,0.8-0.4,1.6-1.2,1.7C708,530.4,707.9,530.4,707.8,530.4z"/>
<path fill="#B59A76" d="M649.9,530.4c-0.7,0-1.4-0.5-1.5-1.3l-0.2-1c-0.1-0.8,0.4-1.6,1.2-1.7c0.8-0.1,1.6,0.4,1.7,1.2l0.2,1
	c0.1,0.8-0.4,1.6-1.2,1.7C650,530.4,650,530.4,649.9,530.4z"/>
<path fill="#B59A76" d="M587.9,524.8c-0.8,0-1.4-0.6-1.5-1.3c-0.1-1.1-0.6-1.9-1.4-2.5c-2.5-1.8-7.9-1.1-9.7-0.6
	c-0.8,0.2-1.6-0.3-1.8-1.1c-0.2-0.8,0.3-1.6,1.1-1.8c0.8-0.2,8.1-1.8,12.1,1.1c1.5,1.1,2.4,2.7,2.6,4.6c0.1,0.8-0.5,1.6-1.3,1.6
	C588,524.8,587.9,524.8,587.9,524.8z"/>
<path fill="#B59A76" d="M529.6,524.8c-0.8,0-1.4-0.6-1.5-1.3c-0.1-1.1-0.6-1.9-1.4-2.5c-2.5-1.8-7.9-1.1-9.7-0.6
	c-0.8,0.2-1.6-0.3-1.8-1.1c-0.2-0.8,0.3-1.6,1.1-1.8c0.8-0.2,8.1-1.8,12.1,1.1c1.5,1.1,2.4,2.7,2.6,4.6c0.1,0.8-0.5,1.6-1.3,1.6
	C529.7,524.8,529.7,524.8,529.6,524.8z"/>
<path fill="#B59A76" d="M589,530.4c-0.7,0-1.4-0.5-1.5-1.3l-0.2-1c-0.1-0.8,0.4-1.6,1.2-1.7c0.8-0.1,1.6,0.4,1.7,1.2l0.2,1
	c0.1,0.8-0.4,1.6-1.2,1.7C589.1,530.4,589,530.4,589,530.4z"/>
<path fill="#B59A76" d="M530.8,530.4c-0.7,0-1.4-0.5-1.5-1.3l-0.2-1c-0.1-0.8,0.4-1.6,1.2-1.7c0.8-0.1,1.6,0.4,1.7,1.2l0.2,1
	c0.1,0.8-0.4,1.6-1.2,1.7C530.9,530.4,530.8,530.4,530.8,530.4z"/>
<path fill="#B59A76" d="M471.5,524.8c-0.8,0-1.4-0.6-1.5-1.3c-0.1-1.1-0.6-1.9-1.4-2.5c-2.5-1.8-7.9-1.1-9.7-0.6
	c-0.8,0.2-1.6-0.3-1.8-1.1c-0.2-0.8,0.3-1.6,1.1-1.8c0.8-0.2,8.1-1.8,12.1,1.1c1.5,1.1,2.4,2.7,2.6,4.6c0.1,0.8-0.5,1.6-1.3,1.6
	C471.6,524.8,471.6,524.8,471.5,524.8z"/>
<path fill="#B59A76" d="M413.3,524.8c-0.8,0-1.4-0.6-1.5-1.3c-0.1-1.1-0.6-1.9-1.4-2.5c-2.5-1.8-7.9-1.1-9.7-0.6
	c-0.8,0.2-1.6-0.3-1.8-1.1c-0.2-0.8,0.3-1.6,1.1-1.8c0.8-0.2,8.1-1.8,12.1,1.1c1.5,1.1,2.4,2.7,2.6,4.6c0.1,0.8-0.5,1.6-1.3,1.6
	C413.4,524.8,413.4,524.8,413.3,524.8z"/>
<path fill="#B59A76" d="M472.6,530.4c-0.7,0-1.4-0.5-1.5-1.3l-0.2-1c-0.1-0.8,0.4-1.6,1.2-1.7c0.8-0.1,1.6,0.4,1.7,1.2l0.2,1
	c0.1,0.8-0.4,1.6-1.2,1.7C472.8,530.4,472.7,530.4,472.6,530.4z"/>
<path fill="#B59A76" d="M414.4,530.4c-0.7,0-1.4-0.5-1.5-1.3l-0.2-1c-0.1-0.8,0.4-1.6,1.2-1.7c0.8-0.1,1.6,0.4,1.7,1.2l0.2,1
	c0.1,0.8-0.4,1.6-1.2,1.7C414.6,530.4,414.5,530.4,414.4,530.4z"/>
<path fill="#B59A76" d="M356.1,524.8c-0.8,0-1.4-0.6-1.5-1.3c-0.1-1.1-0.6-1.9-1.4-2.5c-2.5-1.8-7.9-1.1-9.7-0.6
	c-0.8,0.2-1.6-0.3-1.8-1.1c-0.2-0.8,0.3-1.6,1.1-1.8c0.8-0.2,8.1-1.8,12.1,1.1c1.5,1.1,2.4,2.7,2.6,4.6c0.1,0.8-0.5,1.6-1.3,1.6
	C356.2,524.8,356.1,524.8,356.1,524.8z"/>
<path fill="#B59A76" d="M297.9,524.8c-0.8,0-1.4-0.6-1.5-1.3c-0.1-1.1-0.6-1.9-1.4-2.5c-2.5-1.8-7.9-1.1-9.7-0.6
	c-0.8,0.2-1.6-0.3-1.8-1.1c-0.2-0.8,0.3-1.6,1.1-1.8c0.8-0.2,8.1-1.8,12.1,1.1c1.5,1.1,2.4,2.7,2.6,4.6c0.1,0.8-0.5,1.6-1.3,1.6
	C298,524.8,297.9,524.8,297.9,524.8z"/>
<path fill="#B59A76" d="M357.2,530.4c-0.7,0-1.4-0.5-1.5-1.3l-0.2-1c-0.1-0.8,0.4-1.6,1.2-1.7c0.8-0.1,1.6,0.4,1.7,1.2l0.2,1
	c0.1,0.8-0.4,1.6-1.2,1.7C357.3,530.4,357.2,530.4,357.2,530.4z"/>
<path fill="#B59A76" d="M299,530.4c-0.7,0-1.4-0.5-1.5-1.3l-0.2-1c-0.1-0.8,0.4-1.6,1.2-1.7c0.8-0.1,1.6,0.4,1.7,1.2l0.2,1
	c0.1,0.8-0.4,1.6-1.2,1.7C299.1,530.4,299.1,530.4,299,530.4z"/>
<path fill="#B59A76" d="M240.4,524.8c-0.8,0-1.4-0.6-1.5-1.3c-0.1-1.1-0.6-1.9-1.4-2.5c-2.5-1.8-7.9-1.1-9.7-0.6
	c-0.8,0.2-1.6-0.3-1.8-1.1c-0.2-0.8,0.3-1.6,1.1-1.8c0.8-0.2,8.1-1.8,12.1,1.1c1.5,1.1,2.4,2.7,2.6,4.6c0.1,0.8-0.5,1.6-1.3,1.6
	C240.5,524.8,240.4,524.8,240.4,524.8z"/>
<path fill="#B59A76" d="M182.1,524.8c-0.8,0-1.4-0.6-1.5-1.3c-0.1-1.1-0.6-1.9-1.4-2.5c-2.5-1.8-7.9-1.1-9.7-0.6
	c-0.8,0.2-1.6-0.3-1.8-1.1s0.3-1.6,1.1-1.8c0.8-0.2,8.1-1.8,12.1,1.1c1.5,1.1,2.4,2.7,2.6,4.6c0.1,0.8-0.5,1.6-1.3,1.6
	C182.2,524.8,182.2,524.8,182.1,524.8z"/>
<path fill="#B59A76" d="M241.4,530.4c-0.7,0-1.4-0.5-1.5-1.3l-0.2-1c-0.1-0.8,0.4-1.6,1.2-1.7c0.8-0.1,1.6,0.4,1.7,1.2l0.2,1
	c0.1,0.8-0.4,1.6-1.2,1.7C241.6,530.4,241.5,530.4,241.4,530.4z"/>
<path fill="#B59A76" d="M183.2,530.4c-0.7,0-1.4-0.5-1.5-1.3l-0.2-1c-0.1-0.8,0.4-1.6,1.2-1.7c0.8-0.1,1.6,0.4,1.7,1.2l0.2,1
	c0.1,0.8-0.4,1.6-1.2,1.7C183.4,530.4,183.3,530.4,183.2,530.4z"/>
<path fill="#B59A76" d="M125.1,524.8c-0.8,0-1.4-0.6-1.5-1.3c-0.1-1.1-0.6-1.9-1.4-2.5c-2.5-1.8-7.9-1.1-9.7-0.6
	c-0.8,0.2-1.6-0.3-1.8-1.1c-0.2-0.8,0.3-1.6,1.1-1.8c0.8-0.2,8.1-1.8,12.1,1.1c1.5,1.1,2.4,2.7,2.6,4.6c0.1,0.8-0.5,1.6-1.3,1.6
	C125.2,524.8,125.1,524.8,125.1,524.8z"/>
<path fill="#B59A76" d="M66.9,524.8c-0.8,0-1.4-0.6-1.5-1.3c-0.1-1.1-0.6-1.9-1.4-2.5c-2.5-1.8-7.9-1.1-9.7-0.6
	c-0.8,0.2-1.6-0.3-1.8-1.1c-0.2-0.8,0.3-1.6,1.1-1.8c0.8-0.2,8.1-1.8,12.1,1.1c1.5,1.1,2.4,2.7,2.6,4.6c0.1,0.8-0.5,1.6-1.3,1.6
	C67,524.8,66.9,524.8,66.9,524.8z"/>
<path fill="#B59A76" d="M126.2,530.4c-0.7,0-1.4-0.5-1.5-1.3l-0.2-1c-0.1-0.8,0.4-1.6,1.2-1.7c0.8-0.1,1.6,0.4,1.7,1.2l0.2,1
	c0.1,0.8-0.4,1.6-1.2,1.7C126.3,530.4,126.3,530.4,126.2,530.4z"/>
<path fill="#B59A76" d="M68,530.4c-0.7,0-1.4-0.5-1.5-1.3l-0.2-1c-0.1-0.8,0.4-1.6,1.2-1.7c0.8-0.1,1.6,0.4,1.7,1.2l0.2,1
	c0.1,0.8-0.4,1.6-1.2,1.7C68.1,530.4,68.1,530.4,68,530.4z"/>
<path fill="#B59A76" d="M8.9,524.8c-0.7,0-1.4-0.5-1.5-1.3c-0.5-3.3-5.7-4.2-5.7-4.2c-0.8-0.1-1.4-0.9-1.2-1.7
	c0.1-0.8,0.9-1.4,1.7-1.2c0.3,0,7.3,1.2,8.2,6.7c0.1,0.8-0.4,1.6-1.2,1.7C9.1,524.8,9,524.8,8.9,524.8z"/>
<path fill="#B59A76" d="M10.1,530.4c-0.7,0-1.4-0.5-1.5-1.3l-0.2-1c-0.1-0.8,0.4-1.6,1.2-1.7c0.8-0.1,1.6,0.4,1.7,1.2l0.2,1
	c0.1,0.8-0.4,1.6-1.2,1.7C10.2,530.4,10.2,530.4,10.1,530.4z"/>
<path fill="#B59A76" d="M647.7,524.8c-0.8,0-1.4-0.6-1.5-1.3c-0.1-1.1-0.6-1.9-1.4-2.5c-2.5-1.8-7.9-1.1-9.7-0.6
	c-0.8,0.2-1.6-0.3-1.8-1.1c-0.2-0.8,0.3-1.6,1.1-1.8c0.8-0.2,8.1-1.8,12.1,1.1c1.5,1.1,2.4,2.7,2.6,4.6c0.1,0.8-0.5,1.6-1.3,1.6
	C647.8,524.8,647.7,524.8,647.7,524.8z"/>
<polygon fill="#75C0CC" points="929.7,511.5 918.8,513.9 914.3,525.6 887.6,525.1 879.4,511.7 862.6,513 856.8,524.7 830.5,524.7 
	821,512.1 804.7,513.5 798.8,525.1 772.5,525.6 763.9,511.7 746.7,513 740.4,525.6 714.5,525.6 707.7,512.6 689.2,513 682.8,524.2 
	655.7,525.1 648,511.7 639.8,511.1 639.8,483.1 639.8,6.4 929.7,6.4 929.7,488.5 "/>
<polygon fill="#75C0CC" points="1219.6,511.7 1208.7,513.9 1204.2,525.6 1177.4,525.1 1169.3,511.7 1152.5,513 1146.6,524.7 
	1120.4,524.7 1110.9,512.1 1094.6,513.5 1088.7,525.1 1062.4,525.6 1053.8,511.7 1036.6,513 1030.2,525.6 1004.4,525.6 997.6,512.6 
	979.1,513 972.7,524.2 945.5,525.1 937.8,511.7 920.7,511.7 920.7,475.7 920.7,6.4 1219.6,6.4 1219.6,479.1 "/>
<polyline fill="#75C0CC" points="1268.9,513 1262.6,524.2 1235.4,525.1 1227.7,511.7 1218.6,511.1 1218.6,489.7 1218.6,6.4 
	1279.8,6.4 1279.8,489.1 1279.8,511.7 "/>
<polygon fill="#75C0CC" points="289.9,511.5 279,513.9 274.5,525.6 247.8,525.1 239.6,511.7 222.8,513 217,524.7 190.7,524.7 
	181.2,512.1 164.9,513.5 159,525.1 132.7,525.6 124.1,511.7 106.9,513 100.6,525.6 74.7,525.6 67.9,512.6 49.4,513 43,524.2 
	15.9,525.1 8.2,511.7 0,511.1 0,492.4 0,6.4 289.9,6.4 289.9,488.4 "/>
<polygon fill="#75C0CC" points="579.8,511.7 568.9,513.9 564.4,525.6 537.6,525.1 529.5,511.7 512.7,513 506.8,524.7 480.6,524.7 
	471.1,512.1 454.7,513.5 448.9,525.1 422.6,525.6 414,511.7 396.8,513 390.4,525.6 364.6,525.6 357.8,512.6 339.2,513 332.9,524.2 
	305.7,525.1 298,511.7 280.9,511.7 280.9,482.4 280.9,6.4 579.8,6.4 579.8,488.4 "/>
<polyline fill="#75C0CC" points="629.1,513 622.8,524.2 595.6,525.1 587.9,511.7 578.8,511.1 578.8,478.4 578.8,6.4 640,6.4 
	640,480.4 640,511.7 "/>
<g>
	<path fill="#75C0CC" d="M43.8,524.2c0,6.6-5.9,12.5-13.1,12.5H28c-7.2,0-13.1-5.8-13.1-12.5"/>
	<path fill="#4F463B" d="M30.7,540.2H28c-9,0-16.6-7.3-16.6-16c0-1.9,1.6-3.5,3.5-3.5s3.5,1.6,3.5,3.5c0,4.8,4.5,9,9.6,9h2.8
		c5.1,0,9.6-4.2,9.6-9c0-1.9,1.6-3.5,3.5-3.5s3.5,1.6,3.5,3.5C47.3,532.8,39.7,540.2,30.7,540.2z"/>
</g>
<path fill="#4F463B" d="M72.8,527.6c-1.9,0-3.5-1.6-3.5-3.5c0-4.8-4.5-9-9.6-9h-2.8c-5.1,0-9.6,4.2-9.6,9c0,1.9-1.6,3.5-3.5,3.5
	s-3.5-1.6-3.5-3.5c0-8.7,7.6-16,16.6-16h2.8c9,0,16.6,7.3,16.6,16C76.3,526.1,74.7,527.6,72.8,527.6z"/>
<path fill="#4F463B" d="M18.4,523.4h-7c0-4.2-5.6-8.2-11.4-8.2v-7C8.7,508.2,18.4,514.4,18.4,523.4z"/>
<g>
	<path fill="#75C0CC" d="M101.7,524.2c0,6.6-5.9,12.5-13.1,12.5h-2.8c-7.2,0-13.1-5.8-13.1-12.5"/>
	<path fill="#4F463B" d="M88.6,540.2h-2.8c-9,0-16.6-7.3-16.6-16c0-1.9,1.6-3.5,3.5-3.5s3.5,1.6,3.5,3.5c0,4.8,4.5,9,9.6,9h2.8
		c5.1,0,9.6-4.2,9.6-9c0-1.9,1.6-3.5,3.5-3.5s3.5,1.6,3.5,3.5C105.2,532.8,97.6,540.2,88.6,540.2z"/>
</g>
<path fill="#4F463B" d="M130.7,527.6c-1.9,0-3.5-1.6-3.5-3.5c0-4.8-4.5-9-9.6-9h-2.8c-5.1,0-9.6,4.2-9.6,9c0,1.9-1.6,3.5-3.5,3.5
	s-3.5-1.6-3.5-3.5c0-8.7,7.6-16,16.6-16h2.8c9,0,16.6,7.3,16.6,16C134.2,526.1,132.6,527.6,130.7,527.6z"/>
<g>
	<path fill="#75C0CC" d="M159.6,524.2c0,6.6-5.9,12.5-13.1,12.5h-2.8c-7.2,0-13.1-5.8-13.1-12.5"/>
	<path fill="#4F463B" d="M146.5,540.2h-2.8c-9,0-16.6-7.3-16.6-16c0-1.9,1.6-3.5,3.5-3.5s3.5,1.6,3.5,3.5c0,4.8,4.5,9,9.6,9h2.8
		c5.1,0,9.6-4.2,9.6-9c0-1.9,1.6-3.5,3.5-3.5s3.5,1.6,3.5,3.5C163.1,532.8,155.5,540.2,146.5,540.2z"/>
</g>
<path fill="#4F463B" d="M188.6,527.6c-1.9,0-3.5-1.6-3.5-3.5c0-4.8-4.5-9-9.6-9h-2.8c-5.1,0-9.6,4.2-9.6,9c0,1.9-1.6,3.5-3.5,3.5
	s-3.5-1.6-3.5-3.5c0-8.7,7.6-16,16.6-16h2.8c9,0,16.6,7.3,16.6,16C192.1,526.1,190.5,527.6,188.6,527.6z"/>
<g>
	<path fill="#75C0CC" d="M217.5,524.2c0,6.6-5.9,12.5-13.1,12.5h-2.8c-7.2,0-13.1-5.8-13.1-12.5"/>
	<path fill="#4F463B" d="M204.4,540.2h-2.8c-9,0-16.6-7.3-16.6-16c0-1.9,1.6-3.5,3.5-3.5s3.5,1.6,3.5,3.5c0,4.8,4.5,9,9.6,9h2.8
		c5.1,0,9.6-4.2,9.6-9c0-1.9,1.6-3.5,3.5-3.5s3.5,1.6,3.5,3.5C221,532.8,213.4,540.2,204.4,540.2z"/>
</g>
<path fill="#4F463B" d="M246.5,527.6c-1.9,0-3.5-1.6-3.5-3.5c0-4.8-4.5-9-9.6-9h-2.8c-5.1,0-9.6,4.2-9.6,9c0,1.9-1.6,3.5-3.5,3.5
	s-3.5-1.6-3.5-3.5c0-8.7,7.6-16,16.6-16h2.8c9,0,16.6,7.3,16.6,16C250,526.1,248.4,527.6,246.5,527.6z"/>
<g>
	<path fill="#75C0CC" d="M275.4,524.2c0,6.6-5.9,12.5-13.1,12.5h-2.8c-7.2,0-13.1-5.8-13.1-12.5"/>
	<path fill="#4F463B" d="M262.3,540.2h-2.8c-9,0-16.6-7.3-16.6-16c0-1.9,1.6-3.5,3.5-3.5s3.5,1.6,3.5,3.5c0,4.8,4.5,9,9.6,9h2.8
		c5.1,0,9.6-4.2,9.6-9c0-1.9,1.6-3.5,3.5-3.5s3.5,1.6,3.5,3.5C278.9,532.8,271.3,540.2,262.3,540.2z"/>
</g>
<path fill="#4F463B" d="M278.9,526.6h-7v-3.5c0-9,6.5-14.9,16.6-14.9h3.5v7h-3.5c-8,0-9.6,4.3-9.6,7.9V526.6z"/>
<g>
	<path fill="#75C0CC" d="M333.7,524.2c0,6.6-5.9,12.5-13.1,12.5h-2.8c-7.2,0-13.1-5.8-13.1-12.5"/>
	<path fill="#4F463B" d="M320.6,540.2h-2.8c-9,0-16.6-7.3-16.6-16c0-1.9,1.6-3.5,3.5-3.5s3.5,1.6,3.5,3.5c0,4.8,4.5,9,9.6,9h2.8
		c5.1,0,9.6-4.2,9.6-9c0-1.9,1.6-3.5,3.5-3.5s3.5,1.6,3.5,3.5C337.2,532.8,329.6,540.2,320.6,540.2z"/>
</g>
<path fill="#4F463B" d="M362.7,527.6c-1.9,0-3.5-1.6-3.5-3.5c0-4.8-4.5-9-9.6-9h-2.8c-5.1,0-9.6,4.2-9.6,9c0,1.9-1.6,3.5-3.5,3.5
	s-3.5-1.6-3.5-3.5c0-8.7,7.6-16,16.6-16h2.8c9,0,16.6,7.3,16.6,16C366.2,526.1,364.6,527.6,362.7,527.6z"/>
<path fill="#4F463B" d="M308.3,526.9h-7v-3.5c0-4.5-4.6-8.2-10-8.2h-3.5v-7h3.5c9.4,0,17,6.8,17,15.2V526.9z"/>
<g>
	<path fill="#75C0CC" d="M391.6,524.2c0,6.6-5.9,12.5-13.1,12.5h-2.8c-7.2,0-13.1-5.8-13.1-12.5"/>
	<path fill="#4F463B" d="M378.5,540.2h-2.8c-9,0-16.6-7.3-16.6-16c0-1.9,1.6-3.5,3.5-3.5s3.5,1.6,3.5,3.5c0,4.8,4.5,9,9.6,9h2.8
		c5.1,0,9.6-4.2,9.6-9c0-1.9,1.6-3.5,3.5-3.5s3.5,1.6,3.5,3.5C395.1,532.8,387.5,540.2,378.5,540.2z"/>
</g>
<path fill="#4F463B" d="M420.6,527.6c-1.9,0-3.5-1.6-3.5-3.5c0-4.8-4.5-9-9.6-9h-2.8c-5.1,0-9.6,4.2-9.6,9c0,1.9-1.6,3.5-3.5,3.5
	s-3.5-1.6-3.5-3.5c0-8.7,7.6-16,16.6-16h2.8c9,0,16.6,7.3,16.6,16C424.1,526.1,422.5,527.6,420.6,527.6z"/>
<g>
	<path fill="#75C0CC" d="M449.5,524.2c0,6.6-5.9,12.5-13.1,12.5h-2.8c-7.2,0-13.1-5.8-13.1-12.5"/>
	<path fill="#4F463B" d="M436.4,540.2h-2.8c-9,0-16.6-7.3-16.6-16c0-1.9,1.6-3.5,3.5-3.5s3.5,1.6,3.5,3.5c0,4.8,4.5,9,9.6,9h2.8
		c5.1,0,9.6-4.2,9.6-9c0-1.9,1.6-3.5,3.5-3.5s3.5,1.6,3.5,3.5C453,532.8,445.4,540.2,436.4,540.2z"/>
</g>
<path fill="#4F463B" d="M478.5,527.6c-1.9,0-3.5-1.6-3.5-3.5c0-4.8-4.5-9-9.6-9h-2.8c-5.1,0-9.6,4.2-9.6,9c0,1.9-1.6,3.5-3.5,3.5
	s-3.5-1.6-3.5-3.5c0-8.7,7.6-16,16.6-16h2.8c9,0,16.6,7.3,16.6,16C482,526.1,480.4,527.6,478.5,527.6z"/>
<g>
	<path fill="#75C0CC" d="M507.4,524.2c0,6.6-5.9,12.5-13.1,12.5h-2.8c-7.2,0-13.1-5.8-13.1-12.5"/>
	<path fill="#4F463B" d="M494.3,540.2h-2.8c-9,0-16.6-7.3-16.6-16c0-1.9,1.6-3.5,3.5-3.5s3.5,1.6,3.5,3.5c0,4.8,4.5,9,9.6,9h2.8
		c5.1,0,9.6-4.2,9.6-9c0-1.9,1.6-3.5,3.5-3.5s3.5,1.6,3.5,3.5C510.9,532.8,503.3,540.2,494.3,540.2z"/>
</g>
<path fill="#4F463B" d="M536.4,527.6c-1.9,0-3.5-1.6-3.5-3.5c0-4.8-4.5-9-9.6-9h-2.8c-5.1,0-9.6,4.2-9.6,9c0,1.9-1.6,3.5-3.5,3.5
	s-3.5-1.6-3.5-3.5c0-8.7,7.6-16,16.6-16h2.8c9,0,16.6,7.3,16.6,16C539.9,526.1,538.3,527.6,536.4,527.6z"/>
<g>
	<path fill="#75C0CC" d="M565.3,524.2c0,6.6-5.9,12.5-13.1,12.5h-2.8c-7.2,0-13.1-5.8-13.1-12.5"/>
	<path fill="#4F463B" d="M552.2,540.2h-2.8c-9,0-16.6-7.3-16.6-16c0-1.9,1.6-3.5,3.5-3.5s3.5,1.6,3.5,3.5c0,4.8,4.5,9,9.6,9h2.8
		c5.1,0,9.6-4.2,9.6-9c0-1.9,1.6-3.5,3.5-3.5s3.5,1.6,3.5,3.5C568.8,532.8,561.2,540.2,552.2,540.2z"/>
</g>
<path fill="#4F463B" d="M568.8,526.6h-7v-3.5c0-9,6.5-14.9,16.6-14.9h3.5v7h-3.5c-8,0-9.6,4.3-9.6,7.9V526.6z"/>
<g>
	<path fill="#75C0CC" d="M623.6,524.2c0,6.6-5.9,12.5-13.1,12.5h-2.8c-7.2,0-13.1-5.8-13.1-12.5"/>
	<path fill="#4F463B" d="M610.5,540.2h-2.8c-9,0-16.6-7.3-16.6-16c0-1.9,1.6-3.5,3.5-3.5s3.5,1.6,3.5,3.5c0,4.8,4.5,9,9.6,9h2.8
		c5.1,0,9.6-4.2,9.6-9c0-1.9,1.6-3.5,3.5-3.5s3.5,1.6,3.5,3.5C627.1,532.8,619.5,540.2,610.5,540.2z"/>
</g>
<path fill="#4F463B" d="M627.1,527.6h-7v-3.5c0-8.7,7.6-16,16.6-16h3.5v7h-3.5c-5.1,0-9.6,4.2-9.6,9V527.6z"/>
<path fill="#4F463B" d="M598.1,526.9h-7v-3.5c0-4.5-4.6-8.2-10-8.2h-3.5v-7h3.5c9.4,0,17,6.8,17,15.2V526.9z"/>
<g>
	<path fill="#75C0CC" d="M683.6,524.2c0,6.6-5.9,12.5-13.1,12.5h-2.8c-7.2,0-13.1-5.8-13.1-12.5"/>
	<path fill="#4F463B" d="M670.5,540.2h-2.8c-9,0-16.6-7.3-16.6-16c0-1.9,1.6-3.5,3.5-3.5s3.5,1.6,3.5,3.5c0,4.8,4.5,9,9.6,9h2.8
		c5.1,0,9.6-4.2,9.6-9c0-1.9,1.6-3.5,3.5-3.5s3.5,1.6,3.5,3.5C687.1,532.8,679.5,540.2,670.5,540.2z"/>
</g>
<path fill="#4F463B" d="M712.6,527.6c-1.9,0-3.5-1.6-3.5-3.5c0-4.8-4.5-9-9.6-9h-2.8c-5.1,0-9.6,4.2-9.6,9c0,1.9-1.6,3.5-3.5,3.5
	s-3.5-1.6-3.5-3.5c0-8.7,7.6-16,16.6-16h2.8c9,0,16.6,7.3,16.6,16C716.1,526.1,714.5,527.6,712.6,527.6z"/>
<path fill="#4F463B" d="M658.2,523.4h-7c0-4.2-5.6-8.2-11.4-8.2v-7C648.5,508.2,658.2,514.4,658.2,523.4z"/>
<g>
	<path fill="#75C0CC" d="M741.5,524.2c0,6.6-5.9,12.5-13.1,12.5h-2.8c-7.2,0-13.1-5.8-13.1-12.5"/>
	<path fill="#4F463B" d="M728.4,540.2h-2.8c-9,0-16.6-7.3-16.6-16c0-1.9,1.6-3.5,3.5-3.5s3.5,1.6,3.5,3.5c0,4.8,4.5,9,9.6,9h2.8
		c5.1,0,9.6-4.2,9.6-9c0-1.9,1.6-3.5,3.5-3.5s3.5,1.6,3.5,3.5C745,532.8,737.4,540.2,728.4,540.2z"/>
</g>
<path fill="#4F463B" d="M770.5,527.6c-1.9,0-3.5-1.6-3.5-3.5c0-4.8-4.5-9-9.6-9h-2.8c-5.1,0-9.6,4.2-9.6,9c0,1.9-1.6,3.5-3.5,3.5
	s-3.5-1.6-3.5-3.5c0-8.7,7.6-16,16.6-16h2.8c9,0,16.6,7.3,16.6,16C774,526.1,772.4,527.6,770.5,527.6z"/>
<g>
	<path fill="#75C0CC" d="M799.4,524.2c0,6.6-5.9,12.5-13.1,12.5h-2.8c-7.2,0-13.1-5.8-13.1-12.5"/>
	<path fill="#4F463B" d="M786.3,540.2h-2.8c-9,0-16.6-7.3-16.6-16c0-1.9,1.6-3.5,3.5-3.5s3.5,1.6,3.5,3.5c0,4.8,4.5,9,9.6,9h2.8
		c5.1,0,9.6-4.2,9.6-9c0-1.9,1.6-3.5,3.5-3.5s3.5,1.6,3.5,3.5C802.9,532.8,795.3,540.2,786.3,540.2z"/>
</g>
<path fill="#4F463B" d="M828.4,527.6c-1.9,0-3.5-1.6-3.5-3.5c0-4.8-4.5-9-9.6-9h-2.8c-5.1,0-9.6,4.2-9.6,9c0,1.9-1.6,3.5-3.5,3.5
	s-3.5-1.6-3.5-3.5c0-8.7,7.6-16,16.6-16h2.8c9,0,16.6,7.3,16.6,16C831.9,526.1,830.3,527.6,828.4,527.6z"/>
<g>
	<path fill="#75C0CC" d="M857.3,524.2c0,6.6-5.9,12.5-13.1,12.5h-2.8c-7.2,0-13.1-5.8-13.1-12.5"/>
	<path fill="#4F463B" d="M844.2,540.2h-2.8c-9,0-16.6-7.3-16.6-16c0-1.9,1.6-3.5,3.5-3.5s3.5,1.6,3.5,3.5c0,4.8,4.5,9,9.6,9h2.8
		c5.1,0,9.6-4.2,9.6-9c0-1.9,1.6-3.5,3.5-3.5s3.5,1.6,3.5,3.5C860.8,532.8,853.2,540.2,844.2,540.2z"/>
</g>
<path fill="#4F463B" d="M886.3,527.6c-1.9,0-3.5-1.6-3.5-3.5c0-4.8-4.5-9-9.6-9h-2.8c-5.1,0-9.6,4.2-9.6,9c0,1.9-1.6,3.5-3.5,3.5
	s-3.5-1.6-3.5-3.5c0-8.7,7.6-16,16.6-16h2.8c9,0,16.6,7.3,16.6,16C889.8,526.1,888.2,527.6,886.3,527.6z"/>
<g>
	<path fill="#75C0CC" d="M915.2,524.2c0,6.6-5.9,12.5-13.1,12.5h-2.8c-7.2,0-13.1-5.8-13.1-12.5"/>
	<path fill="#4F463B" d="M902.1,540.2h-2.8c-9,0-16.6-7.3-16.6-16c0-1.9,1.6-3.5,3.5-3.5s3.5,1.6,3.5,3.5c0,4.8,4.5,9,9.6,9h2.8
		c5.1,0,9.6-4.2,9.6-9c0-1.9,1.6-3.5,3.5-3.5s3.5,1.6,3.5,3.5C918.7,532.8,911.1,540.2,902.1,540.2z"/>
</g>
<path fill="#4F463B" d="M918.7,526.6h-7v-3.5c0-9,6.5-14.9,16.6-14.9h3.5v7h-3.5c-8,0-9.6,4.3-9.6,7.9V526.6z"/>
<g>
	<path fill="#75C0CC" d="M973.5,524.2c0,6.6-5.9,12.5-13.1,12.5h-2.8c-7.2,0-13.1-5.8-13.1-12.5"/>
	<path fill="#4F463B" d="M960.4,540.2h-2.8c-9,0-16.6-7.3-16.6-16c0-1.9,1.6-3.5,3.5-3.5s3.5,1.6,3.5,3.5c0,4.8,4.5,9,9.6,9h2.8
		c5.1,0,9.6-4.2,9.6-9c0-1.9,1.6-3.5,3.5-3.5s3.5,1.6,3.5,3.5C977,532.8,969.4,540.2,960.4,540.2z"/>
</g>
<path fill="#4F463B" d="M1002.5,527.6c-1.9,0-3.5-1.6-3.5-3.5c0-4.8-4.5-9-9.6-9h-2.8c-5.1,0-9.6,4.2-9.6,9c0,1.9-1.6,3.5-3.5,3.5
	s-3.5-1.6-3.5-3.5c0-8.7,7.6-16,16.6-16h2.8c9,0,16.6,7.3,16.6,16C1006,526.1,1004.4,527.6,1002.5,527.6z"/>
<path fill="#4F463B" d="M948.1,526.9h-7v-3.5c0-4.5-4.6-8.2-10-8.2h-3.5v-7h3.5c9.4,0,17,6.8,17,15.2V526.9z"/>
<g>
	<path fill="#75C0CC" d="M1031.4,524.2c0,6.6-5.9,12.5-13.1,12.5h-2.8c-7.2,0-13.1-5.8-13.1-12.5"/>
	<path fill="#4F463B" d="M1018.3,540.2h-2.8c-9,0-16.6-7.3-16.6-16c0-1.9,1.6-3.5,3.5-3.5s3.5,1.6,3.5,3.5c0,4.8,4.5,9,9.6,9h2.8
		c5.1,0,9.6-4.2,9.6-9c0-1.9,1.6-3.5,3.5-3.5s3.5,1.6,3.5,3.5C1034.9,532.8,1027.3,540.2,1018.3,540.2z"/>
</g>
<path fill="#4F463B" d="M1060.4,527.6c-1.9,0-3.5-1.6-3.5-3.5c0-4.8-4.5-9-9.6-9h-2.8c-5.1,0-9.6,4.2-9.6,9c0,1.9-1.6,3.5-3.5,3.5
	s-3.5-1.6-3.5-3.5c0-8.7,7.6-16,16.6-16h2.8c9,0,16.6,7.3,16.6,16C1063.9,526.1,1062.3,527.6,1060.4,527.6z"/>
<g>
	<path fill="#75C0CC" d="M1089.3,524.2c0,6.6-5.9,12.5-13.1,12.5h-2.8c-7.2,0-13.1-5.8-13.1-12.5"/>
	<path fill="#4F463B" d="M1076.2,540.2h-2.8c-9,0-16.6-7.3-16.6-16c0-1.9,1.6-3.5,3.5-3.5s3.5,1.6,3.5,3.5c0,4.8,4.5,9,9.6,9h2.8
		c5.1,0,9.6-4.2,9.6-9c0-1.9,1.6-3.5,3.5-3.5s3.5,1.6,3.5,3.5C1092.8,532.8,1085.2,540.2,1076.2,540.2z"/>
</g>
<path fill="#4F463B" d="M1118.3,527.6c-1.9,0-3.5-1.6-3.5-3.5c0-4.8-4.5-9-9.6-9h-2.8c-5.1,0-9.6,4.2-9.6,9c0,1.9-1.6,3.5-3.5,3.5
	s-3.5-1.6-3.5-3.5c0-8.7,7.6-16,16.6-16h2.8c9,0,16.6,7.3,16.6,16C1121.8,526.1,1120.2,527.6,1118.3,527.6z"/>
<g>
	<path fill="#75C0CC" d="M1147.2,524.2c0,6.6-5.9,12.5-13.1,12.5h-2.8c-7.2,0-13.1-5.8-13.1-12.5"/>
	<path fill="#4F463B" d="M1134.1,540.2h-2.8c-9,0-16.6-7.3-16.6-16c0-1.9,1.6-3.5,3.5-3.5s3.5,1.6,3.5,3.5c0,4.8,4.5,9,9.6,9h2.8
		c5.1,0,9.6-4.2,9.6-9c0-1.9,1.6-3.5,3.5-3.5s3.5,1.6,3.5,3.5C1150.7,532.8,1143.1,540.2,1134.1,540.2z"/>
</g>
<path fill="#4F463B" d="M1176.2,527.6c-1.9,0-3.5-1.6-3.5-3.5c0-4.8-4.5-9-9.6-9h-2.8c-5.1,0-9.6,4.2-9.6,9c0,1.9-1.6,3.5-3.5,3.5
	s-3.5-1.6-3.5-3.5c0-8.7,7.6-16,16.6-16h2.8c9,0,16.6,7.3,16.6,16C1179.7,526.1,1178.1,527.6,1176.2,527.6z"/>
<g>
	<path fill="#75C0CC" d="M1205.1,524.2c0,6.6-5.9,12.5-13.1,12.5h-2.8c-7.2,0-13.1-5.8-13.1-12.5"/>
	<path fill="#4F463B" d="M1192,540.2h-2.8c-9,0-16.6-7.3-16.6-16c0-1.9,1.6-3.5,3.5-3.5s3.5,1.6,3.5,3.5c0,4.8,4.5,9,9.6,9h2.8
		c5.1,0,9.6-4.2,9.6-9c0-1.9,1.6-3.5,3.5-3.5s3.5,1.6,3.5,3.5C1208.6,532.8,1201,540.2,1192,540.2z"/>
</g>
<path fill="#4F463B" d="M1208.6,526.6h-7v-3.5c0-9,6.5-14.9,16.6-14.9h3.5v7h-3.5c-8,0-9.6,4.3-9.6,7.9V526.6z"/>
<g>
	<path fill="#75C0CC" d="M1263.4,524.2c0,6.6-5.9,12.5-13.1,12.5h-2.8c-7.2,0-13.1-5.8-13.1-12.5"/>
	<path fill="#4F463B" d="M1250.3,540.2h-2.8c-9,0-16.6-7.3-16.6-16c0-1.9,1.6-3.5,3.5-3.5s3.5,1.6,3.5,3.5c0,4.8,4.5,9,9.6,9h2.8
		c5.1,0,9.6-4.2,9.6-9c0-1.9,1.6-3.5,3.5-3.5s3.5,1.6,3.5,3.5C1266.9,532.8,1259.3,540.2,1250.3,540.2z"/>
</g>
<path fill="#4F463B" d="M1266.9,527.6h-7v-3.5c0-8.7,7.6-16,16.6-16h3.5v7h-3.5c-5.1,0-9.6,4.2-9.6,9V527.6z"/>
<path fill="#4F463B" d="M1237.9,526.9h-7v-3.5c0-4.5-4.6-8.2-10-8.2h-3.5v-7h3.5c9.4,0,17,6.8,17,15.2V526.9z"/>
<circle fill="#BDF2F2" cx="962.6" cy="528.3" r="3.1"/>
<path fill="#BDF2F2" d="M967.3,520.4c-0.1,0-0.2,0-0.3,0c-0.8-0.2-1.3-0.9-1.2-1.8c0-0.2,3.3-15.9,20.8-15.9c0.8,0,1.5,0.7,1.5,1.5
	s-0.7,1.5-1.5,1.5c-15.1,0-17.7,12.9-17.8,13.5C968.6,519.9,968,520.4,967.3,520.4z"/>
<circle fill="#BDF2F2" cx="1021" cy="528.3" r="3.1"/>
<path fill="#BDF2F2" d="M1025.6,520.4c-0.1,0-0.2,0-0.3,0c-0.8-0.2-1.3-0.9-1.2-1.8c0-0.2,3.3-15.9,20.8-15.9c0.8,0,1.5,0.7,1.5,1.5
	s-0.7,1.5-1.5,1.5c-15.1,0-17.7,12.9-17.8,13.5C1027,519.9,1026.3,520.4,1025.6,520.4z"/>
<circle fill="#BDF2F2" cx="1078.7" cy="528.3" r="3.1"/>
<path fill="#BDF2F2" d="M1083.3,520.4c-0.1,0-0.2,0-0.3,0c-0.8-0.2-1.3-0.9-1.2-1.8c0-0.2,3.3-15.9,20.8-15.9c0.8,0,1.5,0.7,1.5,1.5
	s-0.7,1.5-1.5,1.5c-15.1,0-17.7,12.9-17.8,13.5C1084.7,519.9,1084,520.4,1083.3,520.4z"/>
<circle fill="#BDF2F2" cx="1137" cy="528.3" r="3.1"/>
<path fill="#BDF2F2" d="M1141.7,520.4c-0.1,0-0.2,0-0.3,0c-0.8-0.2-1.3-0.9-1.2-1.8c0-0.2,3.3-15.9,20.8-15.9c0.8,0,1.5,0.7,1.5,1.5
	s-0.7,1.5-1.5,1.5c-15.1,0-17.7,12.9-17.8,13.5C1143,519.9,1142.4,520.4,1141.7,520.4z"/>
<circle fill="#BDF2F2" cx="1194.9" cy="528.3" r="3.1"/>
<path fill="#BDF2F2" d="M1199.5,520.4c-0.1,0-0.2,0-0.3,0c-0.8-0.2-1.3-0.9-1.2-1.8c0-0.2,3.3-15.9,20.8-15.9c0.8,0,1.5,0.7,1.5,1.5
	s-0.7,1.5-1.5,1.5c-15.1,0-17.7,12.9-17.8,13.5C1200.9,519.9,1200.2,520.4,1199.5,520.4z"/>
<circle fill="#BDF2F2" cx="672.9" cy="528.3" r="3.1"/>
<path fill="#BDF2F2" d="M677.5,520.4c-0.1,0-0.2,0-0.3,0c-0.8-0.2-1.3-0.9-1.2-1.8c0-0.2,3.3-15.9,20.8-15.9c0.8,0,1.5,0.7,1.5,1.5
	s-0.7,1.5-1.5,1.5c-15.1,0-17.7,12.9-17.8,13.5C678.9,519.9,678.2,520.4,677.5,520.4z"/>
<circle fill="#BDF2F2" cx="731.2" cy="528.3" r="3.1"/>
<path fill="#BDF2F2" d="M735.9,520.4c-0.1,0-0.2,0-0.3,0c-0.8-0.2-1.3-0.9-1.2-1.8c0-0.2,3.3-15.9,20.8-15.9c0.8,0,1.5,0.7,1.5,1.5
	s-0.7,1.5-1.5,1.5c-15.1,0-17.7,12.9-17.8,13.5C737.2,519.9,736.6,520.4,735.9,520.4z"/>
<circle fill="#BDF2F2" cx="788.9" cy="528.3" r="3.1"/>
<path fill="#BDF2F2" d="M793.6,520.4c-0.1,0-0.2,0-0.3,0c-0.8-0.2-1.3-0.9-1.2-1.8c0-0.2,3.3-15.9,20.8-15.9c0.8,0,1.5,0.7,1.5,1.5
	s-0.7,1.5-1.5,1.5c-15.1,0-17.7,12.9-17.8,13.5C794.9,519.9,794.3,520.4,793.6,520.4z"/>
<circle fill="#BDF2F2" cx="847.2" cy="528.3" r="3.1"/>
<path fill="#BDF2F2" d="M851.9,520.4c-0.1,0-0.2,0-0.3,0c-0.8-0.2-1.3-0.9-1.2-1.8c0-0.2,3.3-15.9,20.8-15.9c0.8,0,1.5,0.7,1.5,1.5
	s-0.7,1.5-1.5,1.5c-15.1,0-17.7,12.9-17.8,13.5C853.2,519.9,852.6,520.4,851.9,520.4z"/>
<circle fill="#BDF2F2" cx="905.1" cy="528.3" r="3.1"/>
<path fill="#BDF2F2" d="M909.8,520.4c-0.1,0-0.2,0-0.3,0c-0.8-0.2-1.3-0.9-1.2-1.8c0-0.2,3.3-15.9,20.8-15.9c0.8,0,1.5,0.7,1.5,1.5
	s-0.7,1.5-1.5,1.5c-15.1,0-17.7,12.9-17.8,13.5C911.1,519.9,910.5,520.4,909.8,520.4z"/>
<circle fill="#BDF2F2" cx="1253.2" cy="528.3" r="3.1"/>
<path fill="#BDF2F2" d="M1257.9,520.4c-0.1,0-0.2,0-0.3,0c-0.8-0.2-1.3-0.9-1.2-1.8c0-0.2,3.3-15.9,20.8-15.9c0.8,0,1.5,0.7,1.5,1.5
	s-0.7,1.5-1.5,1.5c-15,0-17.7,13-17.8,13.5C1259.2,519.9,1258.6,520.4,1257.9,520.4z"/>
<circle fill="#BDF2F2" cx="322.8" cy="528.3" r="3.1"/>
<path fill="#BDF2F2" d="M327.5,520.4c-0.1,0-0.2,0-0.3,0c-0.8-0.2-1.3-0.9-1.2-1.8c0-0.2,3.3-15.9,20.8-15.9c0.8,0,1.5,0.7,1.5,1.5
	s-0.7,1.5-1.5,1.5c-15.1,0-17.7,12.9-17.8,13.5C328.8,519.9,328.2,520.4,327.5,520.4z"/>
<circle fill="#BDF2F2" cx="381.2" cy="528.3" r="3.1"/>
<path fill="#BDF2F2" d="M385.8,520.4c-0.1,0-0.2,0-0.3,0c-0.8-0.2-1.3-0.9-1.2-1.8c0-0.2,3.3-15.9,20.8-15.9c0.8,0,1.5,0.7,1.5,1.5
	s-0.7,1.5-1.5,1.5c-15.1,0-17.7,12.9-17.8,13.5C387.2,519.9,386.5,520.4,385.8,520.4z"/>
<circle fill="#BDF2F2" cx="438.9" cy="528.3" r="3.1"/>
<path fill="#BDF2F2" d="M443.5,520.4c-0.1,0-0.2,0-0.3,0c-0.8-0.2-1.3-0.9-1.2-1.8c0-0.2,3.3-15.9,20.8-15.9c0.8,0,1.5,0.7,1.5,1.5
	s-0.7,1.5-1.5,1.5c-15.1,0-17.7,12.9-17.8,13.5C444.9,519.9,444.2,520.4,443.5,520.4z"/>
<circle fill="#BDF2F2" cx="497.2" cy="528.3" r="3.1"/>
<path fill="#BDF2F2" d="M501.9,520.4c-0.1,0-0.2,0-0.3,0c-0.8-0.2-1.3-0.9-1.2-1.8c0-0.2,3.3-15.9,20.8-15.9c0.8,0,1.5,0.7,1.5,1.5
	s-0.7,1.5-1.5,1.5c-15.1,0-17.7,12.9-17.8,13.5C503.2,519.9,502.6,520.4,501.9,520.4z"/>
<circle fill="#BDF2F2" cx="555.1" cy="528.3" r="3.1"/>
<path fill="#BDF2F2" d="M559.7,520.4c-0.1,0-0.2,0-0.3,0c-0.8-0.2-1.3-0.9-1.2-1.8c0-0.2,3.3-15.9,20.8-15.9c0.8,0,1.5,0.7,1.5,1.5
	s-0.7,1.5-1.5,1.5c-15.1,0-17.7,12.9-17.8,13.5C561.1,519.9,560.4,520.4,559.7,520.4z"/>
<circle fill="#BDF2F2" cx="33.1" cy="528.3" r="3.1"/>
<path fill="#BDF2F2" d="M37.7,520.4c-0.1,0-0.2,0-0.3,0c-0.8-0.2-1.3-0.9-1.2-1.8c0-0.2,3.3-15.9,20.8-15.9c0.8,0,1.5,0.7,1.5,1.5
	s-0.7,1.5-1.5,1.5c-15.1,0-17.7,12.9-17.8,13.5C39.1,519.9,38.4,520.4,37.7,520.4z"/>
<circle fill="#BDF2F2" cx="91.4" cy="528.3" r="3.1"/>
<path fill="#BDF2F2" d="M96.1,520.4c-0.1,0-0.2,0-0.3,0c-0.8-0.2-1.3-0.9-1.2-1.8c0-0.2,3.3-15.9,20.8-15.9c0.8,0,1.5,0.7,1.5,1.5
	s-0.7,1.5-1.5,1.5c-15.1,0-17.7,12.9-17.8,13.5C97.4,519.9,96.8,520.4,96.1,520.4z"/>
<circle fill="#BDF2F2" cx="149.1" cy="528.3" r="3.1"/>
<path fill="#BDF2F2" d="M153.8,520.4c-0.1,0-0.2,0-0.3,0c-0.8-0.2-1.3-0.9-1.2-1.8c0-0.2,3.3-15.9,20.8-15.9c0.8,0,1.5,0.7,1.5,1.5
	s-0.7,1.5-1.5,1.5c-15.1,0-17.7,12.9-17.8,13.5C155.1,519.9,154.5,520.4,153.8,520.4z"/>
<circle fill="#BDF2F2" cx="207.4" cy="528.3" r="3.1"/>
<path fill="#BDF2F2" d="M212.1,520.4c-0.1,0-0.2,0-0.3,0c-0.8-0.2-1.3-0.9-1.2-1.8c0-0.2,3.3-15.9,20.8-15.9c0.8,0,1.5,0.7,1.5,1.5
	s-0.7,1.5-1.5,1.5c-15.1,0-17.7,12.9-17.8,13.5C213.4,519.9,212.8,520.4,212.1,520.4z"/>
<circle fill="#BDF2F2" cx="265.3" cy="528.3" r="3.1"/>
<path fill="#BDF2F2" d="M270,520.4c-0.1,0-0.2,0-0.3,0c-0.8-0.2-1.3-0.9-1.2-1.8c0-0.2,3.3-15.9,20.8-15.9c0.8,0,1.5,0.7,1.5,1.5
	s-0.7,1.5-1.5,1.5c-15.1,0-17.7,12.9-17.8,13.5C271.3,519.9,270.7,520.4,270,520.4z"/>
<circle fill="#BDF2F2" cx="613.4" cy="528.3" r="3.1"/>
<path fill="#BDF2F2" d="M618,520.4c-0.1,0-0.2,0-0.3,0c-0.8-0.2-1.3-0.9-1.2-1.8c0-0.2,3.3-15.9,20.8-15.9c0.8,0,1.5,0.7,1.5,1.5
	s-0.7,1.5-1.5,1.5c-15,0-17.7,13-17.8,13.5C619.4,519.9,618.8,520.4,618,520.4z"/>
<polygon fill="#FCF0DE" points="929.7,8.8 918.8,11.3 914.3,22.9 887.6,22.4 879.4,9 862.6,10.3 856.8,22 830.5,22 821,9.4 
	804.7,10.8 798.8,22.4 772.5,22.9 763.9,9 746.7,10.3 740.4,22.9 714.5,22.9 707.7,9.9 689.2,10.3 682.8,21.5 655.7,22.4 648,9 
	639.8,8.4 639.8,0 929.7,0 "/>
<polygon fill="#FCF0DE" points="1219.6,9 1208.7,11.3 1204.2,22.9 1177.4,22.4 1169.3,9 1152.5,10.3 1146.6,22 1120.4,22 
	1110.9,9.4 1094.6,10.8 1088.7,22.4 1062.4,22.9 1053.8,9 1036.6,10.3 1030.2,22.9 1004.4,22.9 997.6,9.9 979.1,10.3 972.7,21.5 
	945.5,22.4 937.8,9 920.7,9 920.7,0 1219.6,0 "/>
<polyline fill="#FCF0DE" points="1268.9,10.3 1262.6,21.5 1235.4,22.4 1227.7,9 1218.6,8.4 1218.6,0 1279.8,0 1279.8,9 "/>
<polygon fill="#FCF0DE" points="289.9,8.8 279,11.3 274.5,22.9 247.8,22.4 239.6,9 222.8,10.3 217,22 190.7,22 181.2,9.4 
	164.9,10.8 159,22.4 132.7,22.9 124.1,9 106.9,10.3 100.6,22.9 74.7,22.9 67.9,9.9 49.4,10.3 43,21.5 15.9,22.4 8.2,9 0,8.4 0,0 
	289.9,0 "/>
<polygon fill="#FCF0DE" points="579.8,9 568.9,11.3 564.4,22.9 537.6,22.4 529.5,9 512.7,10.3 506.8,22 480.6,22 471.1,9.4 
	454.7,10.8 448.9,22.4 422.6,22.9 414,9 396.8,10.3 390.4,22.9 364.6,22.9 357.8,9.9 339.2,10.3 332.9,21.5 305.7,22.4 298,9 
	280.9,9 280.9,0 579.8,0 "/>
<polyline fill="#FCF0DE" points="629.1,10.3 622.8,21.5 595.6,22.4 587.9,9 578.8,8.4 578.8,0 640,0 640,9 "/>
<path fill="#50706E" d="M1227.7,22.1c-0.8,0-1.4-0.6-1.5-1.3c-0.1-1.1-0.6-1.9-1.4-2.5c-2.5-1.8-7.9-1.1-9.7-0.6
	c-0.8,0.2-1.6-0.3-1.8-1.1c-0.2-0.8,0.3-1.6,1.1-1.8c0.8-0.2,8.1-1.8,12.1,1.1c1.5,1.1,2.4,2.7,2.6,4.6c0.1,0.8-0.5,1.6-1.3,1.6
	C1227.8,22.1,1227.7,22.1,1227.7,22.1z"/>
<path fill="#50706E" d="M1272.2,18.7c-0.5,0-1-0.2-1.3-0.7c-0.4-0.7-0.2-1.6,0.5-2.1c0.2-0.1,3.8-2.4,7.3-1.1
	c0.8,0.3,1.2,1.1,0.9,1.9c-0.3,0.8-1.1,1.2-1.9,0.9c-2.1-0.7-4.6,0.8-4.6,0.9C1272.7,18.6,1272.4,18.7,1272.2,18.7z"/>
<path fill="#50706E" d="M1169.5,22.1c-0.8,0-1.4-0.6-1.5-1.3c-0.1-1.1-0.6-1.9-1.4-2.5c-2.5-1.8-7.9-1.1-9.7-0.6
	c-0.8,0.2-1.6-0.3-1.8-1.1c-0.2-0.8,0.3-1.6,1.1-1.8c0.8-0.2,8.1-1.8,12.1,1.1c1.5,1.1,2.4,2.7,2.6,4.6c0.1,0.8-0.5,1.6-1.3,1.6
	C1169.6,22.1,1169.5,22.1,1169.5,22.1z"/>
<path fill="#50706E" d="M1228.8,27.7c-0.7,0-1.4-0.5-1.5-1.3l-0.2-1c-0.1-0.8,0.4-1.6,1.2-1.7c0.8-0.1,1.6,0.4,1.7,1.2l0.2,1
	c0.1,0.8-0.4,1.6-1.2,1.7C1228.9,27.7,1228.8,27.7,1228.8,27.7z"/>
<path fill="#50706E" d="M1170.6,27.7c-0.7,0-1.4-0.5-1.5-1.3l-0.2-1c-0.1-0.8,0.4-1.6,1.2-1.7c0.8-0.1,1.6,0.4,1.7,1.2l0.2,1
	c0.1,0.8-0.4,1.6-1.2,1.7C1170.7,27.7,1170.7,27.7,1170.6,27.7z"/>
<path fill="#50706E" d="M1111.3,22.1c-0.8,0-1.4-0.6-1.5-1.3c-0.1-1.1-0.6-1.9-1.4-2.5c-2.5-1.8-7.9-1.1-9.7-0.6
	c-0.8,0.2-1.6-0.3-1.8-1.1c-0.2-0.8,0.3-1.6,1.1-1.8c0.8-0.2,8.1-1.8,12.1,1.1c1.5,1.1,2.4,2.7,2.6,4.6c0.1,0.8-0.5,1.6-1.3,1.6
	C1111.5,22.1,1111.4,22.1,1111.3,22.1z"/>
<path fill="#50706E" d="M1053.1,22.1c-0.8,0-1.4-0.6-1.5-1.3c-0.1-1.1-0.6-1.9-1.4-2.5c-2.5-1.8-7.9-1.1-9.7-0.6
	c-0.8,0.2-1.6-0.3-1.8-1.1c-0.2-0.8,0.3-1.6,1.1-1.8c0.8-0.2,8.1-1.8,12.1,1.1c1.5,1.1,2.4,2.7,2.6,4.6c0.1,0.8-0.5,1.6-1.3,1.6
	C1053.2,22.1,1053.2,22.1,1053.1,22.1z"/>
<path fill="#50706E" d="M1112.4,27.7c-0.7,0-1.4-0.5-1.5-1.3l-0.2-1c-0.1-0.8,0.4-1.6,1.2-1.7c0.8-0.1,1.6,0.4,1.7,1.2l0.2,1
	c0.1,0.8-0.4,1.6-1.2,1.7C1112.6,27.7,1112.5,27.7,1112.4,27.7z"/>
<path fill="#50706E" d="M1054.2,27.7c-0.7,0-1.4-0.5-1.5-1.3l-0.2-1c-0.1-0.8,0.4-1.6,1.2-1.7c0.8-0.1,1.6,0.4,1.7,1.2l0.2,1
	c0.1,0.8-0.4,1.6-1.2,1.7C1054.4,27.7,1054.3,27.7,1054.2,27.7z"/>
<path fill="#50706E" d="M995.9,22.1c-0.8,0-1.4-0.6-1.5-1.3c-0.1-1.1-0.6-1.9-1.4-2.5c-2.5-1.8-7.9-1.1-9.7-0.6
	c-0.8,0.2-1.6-0.3-1.8-1.1c-0.2-0.8,0.3-1.6,1.1-1.8c0.8-0.2,8.1-1.8,12.1,1.1c1.5,1.1,2.4,2.7,2.6,4.6c0.1,0.8-0.5,1.6-1.3,1.6
	C996,22.1,995.9,22.1,995.9,22.1z"/>
<path fill="#50706E" d="M937.7,22.1c-0.8,0-1.4-0.6-1.5-1.3c-0.1-1.1-0.6-1.9-1.4-2.5c-2.5-1.8-7.9-1.1-9.7-0.6
	c-0.8,0.2-1.6-0.3-1.8-1.1c-0.2-0.8,0.3-1.6,1.1-1.8c0.8-0.2,8.1-1.8,12.1,1.1c1.5,1.1,2.4,2.7,2.6,4.6c0.1,0.8-0.5,1.6-1.3,1.6
	C937.8,22.1,937.7,22.1,937.7,22.1z"/>
<path fill="#50706E" d="M997,27.7c-0.7,0-1.4-0.5-1.5-1.3l-0.2-1c-0.1-0.8,0.4-1.6,1.2-1.7c0.8-0.1,1.6,0.4,1.7,1.2l0.2,1
	c0.1,0.8-0.4,1.6-1.2,1.7C997.1,27.7,997.1,27.7,997,27.7z"/>
<path fill="#50706E" d="M938.8,27.7c-0.7,0-1.4-0.5-1.5-1.3l-0.2-1c-0.1-0.8,0.4-1.6,1.2-1.7c0.8-0.1,1.6,0.4,1.7,1.2l0.2,1
	c0.1,0.8-0.4,1.6-1.2,1.7C938.9,27.7,938.9,27.7,938.8,27.7z"/>
<path fill="#50706E" d="M880.2,22.1c-0.8,0-1.4-0.6-1.5-1.3c-0.1-1.1-0.6-1.9-1.4-2.5c-2.5-1.8-7.9-1.1-9.7-0.6
	c-0.8,0.2-1.6-0.3-1.8-1.1c-0.2-0.8,0.3-1.6,1.1-1.8c0.8-0.2,8.1-1.8,12.1,1.1c1.5,1.1,2.4,2.7,2.6,4.6c0.1,0.8-0.5,1.6-1.3,1.6
	C880.3,22.1,880.2,22.1,880.2,22.1z"/>
<path fill="#50706E" d="M821.9,22.1c-0.8,0-1.4-0.6-1.5-1.3c-0.1-1.1-0.6-1.9-1.4-2.5c-2.5-1.8-7.9-1.1-9.7-0.6
	c-0.8,0.2-1.6-0.3-1.8-1.1s0.3-1.6,1.1-1.8c0.8-0.2,8.1-1.8,12.1,1.1c1.5,1.1,2.4,2.7,2.6,4.6c0.1,0.8-0.5,1.6-1.3,1.6
	C822,22.1,822,22.1,821.9,22.1z"/>
<path fill="#50706E" d="M881.2,27.7c-0.7,0-1.4-0.5-1.5-1.3l-0.2-1c-0.1-0.8,0.4-1.6,1.2-1.7c0.8-0.1,1.6,0.4,1.7,1.2l0.2,1
	c0.1,0.8-0.4,1.6-1.2,1.7C881.4,27.7,881.3,27.7,881.2,27.7z"/>
<path fill="#50706E" d="M823,27.7c-0.7,0-1.4-0.5-1.5-1.3l-0.2-1c-0.1-0.8,0.4-1.6,1.2-1.7c0.8-0.1,1.6,0.4,1.7,1.2l0.2,1
	c0.1,0.8-0.4,1.6-1.2,1.7C823.2,27.7,823.1,27.7,823,27.7z"/>
<path fill="#50706E" d="M764.9,22.1c-0.8,0-1.4-0.6-1.5-1.3c-0.1-1.1-0.6-1.9-1.4-2.5c-2.5-1.8-7.9-1.1-9.7-0.6
	c-0.8,0.2-1.6-0.3-1.8-1.1c-0.2-0.8,0.3-1.6,1.1-1.8c0.8-0.2,8.1-1.8,12.1,1.1c1.5,1.1,2.4,2.7,2.6,4.6c0.1,0.8-0.5,1.6-1.3,1.6
	C765,22.1,765,22.1,764.9,22.1z"/>
<path fill="#50706E" d="M706.7,22.1c-0.8,0-1.4-0.6-1.5-1.3c-0.1-1.1-0.6-1.9-1.4-2.5c-2.5-1.8-7.9-1.1-9.7-0.6
	c-0.8,0.2-1.6-0.3-1.8-1.1c-0.2-0.8,0.3-1.6,1.1-1.8c0.8-0.2,8.1-1.8,12.1,1.1c1.5,1.1,2.4,2.7,2.6,4.6c0.1,0.8-0.5,1.6-1.3,1.6
	C706.8,22.1,706.7,22.1,706.7,22.1z"/>
<path fill="#50706E" d="M766,27.7c-0.7,0-1.4-0.5-1.5-1.3l-0.2-1c-0.1-0.8,0.4-1.6,1.2-1.7c0.8-0.1,1.6,0.4,1.7,1.2l0.2,1
	c0.1,0.8-0.4,1.6-1.2,1.7C766.1,27.7,766.1,27.7,766,27.7z"/>
<path fill="#50706E" d="M707.8,27.7c-0.7,0-1.4-0.5-1.5-1.3l-0.2-1c-0.1-0.8,0.4-1.6,1.2-1.7c0.8-0.1,1.6,0.4,1.7,1.2l0.2,1
	c0.1,0.8-0.4,1.6-1.2,1.7C708,27.7,707.9,27.7,707.8,27.7z"/>
<path fill="#50706E" d="M649.9,27.7c-0.7,0-1.4-0.5-1.5-1.3l-0.2-1c-0.1-0.8,0.4-1.6,1.2-1.7c0.8-0.1,1.6,0.4,1.7,1.2l0.2,1
	c0.1,0.8-0.4,1.6-1.2,1.7C650,27.7,650,27.7,649.9,27.7z"/>
<path fill="#50706E" d="M587.9,22.1c-0.8,0-1.4-0.6-1.5-1.3c-0.1-1.1-0.6-1.9-1.4-2.5c-2.5-1.8-7.9-1.1-9.7-0.6
	c-0.8,0.2-1.6-0.3-1.8-1.1c-0.2-0.8,0.3-1.6,1.1-1.8c0.8-0.2,8.1-1.8,12.1,1.1c1.5,1.1,2.4,2.7,2.6,4.6c0.1,0.8-0.5,1.6-1.3,1.6
	C588,22.1,587.9,22.1,587.9,22.1z"/>
<path fill="#50706E" d="M529.6,22.1c-0.8,0-1.4-0.6-1.5-1.3c-0.1-1.1-0.6-1.9-1.4-2.5c-2.5-1.8-7.9-1.1-9.7-0.6
	c-0.8,0.2-1.6-0.3-1.8-1.1c-0.2-0.8,0.3-1.6,1.1-1.8c0.8-0.2,8.1-1.8,12.1,1.1c1.5,1.1,2.4,2.7,2.6,4.6c0.1,0.8-0.5,1.6-1.3,1.6
	C529.7,22.1,529.7,22.1,529.6,22.1z"/>
<path fill="#50706E" d="M589,27.7c-0.7,0-1.4-0.5-1.5-1.3l-0.2-1c-0.1-0.8,0.4-1.6,1.2-1.7c0.8-0.1,1.6,0.4,1.7,1.2l0.2,1
	c0.1,0.8-0.4,1.6-1.2,1.7C589.1,27.7,589,27.7,589,27.7z"/>
<path fill="#50706E" d="M530.8,27.7c-0.7,0-1.4-0.5-1.5-1.3l-0.2-1c-0.1-0.8,0.4-1.6,1.2-1.7c0.8-0.1,1.6,0.4,1.7,1.2l0.2,1
	c0.1,0.8-0.4,1.6-1.2,1.7C530.9,27.7,530.8,27.7,530.8,27.7z"/>
<path fill="#50706E" d="M471.5,22.1c-0.8,0-1.4-0.6-1.5-1.3c-0.1-1.1-0.6-1.9-1.4-2.5c-2.5-1.8-7.9-1.1-9.7-0.6
	c-0.8,0.2-1.6-0.3-1.8-1.1c-0.2-0.8,0.3-1.6,1.1-1.8c0.8-0.2,8.1-1.8,12.1,1.1c1.5,1.1,2.4,2.7,2.6,4.6c0.1,0.8-0.5,1.6-1.3,1.6
	C471.6,22.1,471.6,22.1,471.5,22.1z"/>
<path fill="#50706E" d="M413.3,22.1c-0.8,0-1.4-0.6-1.5-1.3c-0.1-1.1-0.6-1.9-1.4-2.5c-2.5-1.8-7.9-1.1-9.7-0.6
	c-0.8,0.2-1.6-0.3-1.8-1.1c-0.2-0.8,0.3-1.6,1.1-1.8c0.8-0.2,8.1-1.8,12.1,1.1c1.5,1.1,2.4,2.7,2.6,4.6c0.1,0.8-0.5,1.6-1.3,1.6
	C413.4,22.1,413.4,22.1,413.3,22.1z"/>
<path fill="#50706E" d="M472.6,27.7c-0.7,0-1.4-0.5-1.5-1.3l-0.2-1c-0.1-0.8,0.4-1.6,1.2-1.7c0.8-0.1,1.6,0.4,1.7,1.2l0.2,1
	c0.1,0.8-0.4,1.6-1.2,1.7C472.8,27.7,472.7,27.7,472.6,27.7z"/>
<path fill="#50706E" d="M414.4,27.7c-0.7,0-1.4-0.5-1.5-1.3l-0.2-1c-0.1-0.8,0.4-1.6,1.2-1.7c0.8-0.1,1.6,0.4,1.7,1.2l0.2,1
	c0.1,0.8-0.4,1.6-1.2,1.7C414.6,27.7,414.5,27.7,414.4,27.7z"/>
<path fill="#50706E" d="M356.1,22.1c-0.8,0-1.4-0.6-1.5-1.3c-0.1-1.1-0.6-1.9-1.4-2.5c-2.5-1.8-7.9-1.1-9.7-0.6
	c-0.8,0.2-1.6-0.3-1.8-1.1c-0.2-0.8,0.3-1.6,1.1-1.8c0.8-0.2,8.1-1.8,12.1,1.1c1.5,1.1,2.4,2.7,2.6,4.6c0.1,0.8-0.5,1.6-1.3,1.6
	C356.2,22.1,356.1,22.1,356.1,22.1z"/>
<path fill="#50706E" d="M297.9,22.1c-0.8,0-1.4-0.6-1.5-1.3c-0.1-1.1-0.6-1.9-1.4-2.5c-2.5-1.8-7.9-1.1-9.7-0.6
	c-0.8,0.2-1.6-0.3-1.8-1.1c-0.2-0.8,0.3-1.6,1.1-1.8c0.8-0.2,8.1-1.8,12.1,1.1c1.5,1.1,2.4,2.7,2.6,4.6c0.1,0.8-0.5,1.6-1.3,1.6
	C298,22.1,297.9,22.1,297.9,22.1z"/>
<path fill="#50706E" d="M357.2,27.7c-0.7,0-1.4-0.5-1.5-1.3l-0.2-1c-0.1-0.8,0.4-1.6,1.2-1.7c0.8-0.1,1.6,0.4,1.7,1.2l0.2,1
	c0.1,0.8-0.4,1.6-1.2,1.7C357.3,27.7,357.2,27.7,357.2,27.7z"/>
<path fill="#50706E" d="M299,27.7c-0.7,0-1.4-0.5-1.5-1.3l-0.2-1c-0.1-0.8,0.4-1.6,1.2-1.7c0.8-0.1,1.6,0.4,1.7,1.2l0.2,1
	c0.1,0.8-0.4,1.6-1.2,1.7C299.1,27.7,299.1,27.7,299,27.7z"/>
<path fill="#50706E" d="M240.4,22.1c-0.8,0-1.4-0.6-1.5-1.3c-0.1-1.1-0.6-1.9-1.4-2.5c-2.5-1.8-7.9-1.1-9.7-0.6
	c-0.8,0.2-1.6-0.3-1.8-1.1c-0.2-0.8,0.3-1.6,1.1-1.8c0.8-0.2,8.1-1.8,12.1,1.1c1.5,1.1,2.4,2.7,2.6,4.6c0.1,0.8-0.5,1.6-1.3,1.6
	C240.5,22.1,240.4,22.1,240.4,22.1z"/>
<path fill="#50706E" d="M182.1,22.1c-0.8,0-1.4-0.6-1.5-1.3c-0.1-1.1-0.6-1.9-1.4-2.5c-2.5-1.8-7.9-1.1-9.7-0.6
	c-0.8,0.2-1.6-0.3-1.8-1.1s0.3-1.6,1.1-1.8c0.8-0.2,8.1-1.8,12.1,1.1c1.5,1.1,2.4,2.7,2.6,4.6c0.1,0.8-0.5,1.6-1.3,1.6
	C182.2,22.1,182.2,22.1,182.1,22.1z"/>
<path fill="#50706E" d="M241.4,27.7c-0.7,0-1.4-0.5-1.5-1.3l-0.2-1c-0.1-0.8,0.4-1.6,1.2-1.7c0.8-0.1,1.6,0.4,1.7,1.2l0.2,1
	c0.1,0.8-0.4,1.6-1.2,1.7C241.6,27.7,241.5,27.7,241.4,27.7z"/>
<path fill="#50706E" d="M183.2,27.7c-0.7,0-1.4-0.5-1.5-1.3l-0.2-1c-0.1-0.8,0.4-1.6,1.2-1.7c0.8-0.1,1.6,0.4,1.7,1.2l0.2,1
	c0.1,0.8-0.4,1.6-1.2,1.7C183.4,27.7,183.3,27.7,183.2,27.7z"/>
<path fill="#50706E" d="M125.1,22.1c-0.8,0-1.4-0.6-1.5-1.3c-0.1-1.1-0.6-1.9-1.4-2.5c-2.5-1.8-7.9-1.1-9.7-0.6
	c-0.8,0.2-1.6-0.3-1.8-1.1c-0.2-0.8,0.3-1.6,1.1-1.8c0.8-0.2,8.1-1.8,12.1,1.1c1.5,1.1,2.4,2.7,2.6,4.6c0.1,0.8-0.5,1.6-1.3,1.6
	C125.2,22.1,125.1,22.1,125.1,22.1z"/>
<path fill="#50706E" d="M66.9,22.1c-0.8,0-1.4-0.6-1.5-1.3c-0.1-1.1-0.6-1.9-1.4-2.5c-2.5-1.8-7.9-1.1-9.7-0.6
	c-0.8,0.2-1.6-0.3-1.8-1.1c-0.2-0.8,0.3-1.6,1.1-1.8c0.8-0.2,8.1-1.8,12.1,1.1c1.5,1.1,2.4,2.7,2.6,4.6c0.1,0.8-0.5,1.6-1.3,1.6
	C67,22.1,66.9,22.1,66.9,22.1z"/>
<path fill="#50706E" d="M126.2,27.7c-0.7,0-1.4-0.5-1.5-1.3l-0.2-1c-0.1-0.8,0.4-1.6,1.2-1.7c0.8-0.1,1.6,0.4,1.7,1.2l0.2,1
	c0.1,0.8-0.4,1.6-1.2,1.7C126.3,27.7,126.3,27.7,126.2,27.7z"/>
<path fill="#50706E" d="M68,27.7c-0.7,0-1.4-0.5-1.5-1.3l-0.2-1c-0.1-0.8,0.4-1.6,1.2-1.7c0.8-0.1,1.6,0.4,1.7,1.2l0.2,1
	c0.1,0.8-0.4,1.6-1.2,1.7C68.1,27.7,68.1,27.7,68,27.7z"/>
<path fill="#50706E" d="M8.9,22.1c-0.7,0-1.4-0.5-1.5-1.3c-0.5-3.3-5.7-4.2-5.7-4.2c-0.8-0.1-1.4-0.9-1.2-1.7
	c0.1-0.8,0.9-1.4,1.7-1.2c0.3,0,7.3,1.2,8.2,6.7c0.1,0.8-0.4,1.6-1.2,1.7C9.1,22.1,9,22.1,8.9,22.1z"/>
<path fill="#50706E" d="M10.1,27.7c-0.7,0-1.4-0.5-1.5-1.3l-0.2-1c-0.1-0.8,0.4-1.6,1.2-1.7c0.8-0.1,1.6,0.4,1.7,1.2l0.2,1
	c0.1,0.8-0.4,1.6-1.2,1.7C10.2,27.7,10.2,27.7,10.1,27.7z"/>
<path fill="#50706E" d="M647.7,22.1c-0.8,0-1.4-0.6-1.5-1.3c-0.1-1.1-0.6-1.9-1.4-2.5c-2.5-1.8-7.9-1.1-9.7-0.6
	c-0.8,0.2-1.6-0.3-1.8-1.1c-0.2-0.8,0.3-1.6,1.1-1.8c0.8-0.2,8.1-1.8,12.1,1.1c1.5,1.1,2.4,2.7,2.6,4.6c0.1,0.8-0.5,1.6-1.3,1.6
	C647.8,22.1,647.7,22.1,647.7,22.1z"/>
<g>
	<path fill="#FCF0DE" d="M43.8,21.5c0,6.6-5.9,12.5-13.1,12.5H28c-7.2,0-13.1-5.8-13.1-12.5"/>
	<path fill="#4F463B" d="M30.7,37.5H28c-9,0-16.6-7.3-16.6-16c0-1.9,1.6-3.5,3.5-3.5s3.5,1.6,3.5,3.5c0,4.8,4.5,9,9.6,9h2.8
		c5.1,0,9.6-4.2,9.6-9c0-1.9,1.6-3.5,3.5-3.5s3.5,1.6,3.5,3.5C47.3,30.2,39.7,37.5,30.7,37.5z"/>
</g>
<path fill="#4F463B" d="M72.8,24.9c-1.9,0-3.5-1.6-3.5-3.5c0-4.8-4.5-9-9.6-9h-2.8c-5.1,0-9.6,4.2-9.6,9c0,1.9-1.6,3.5-3.5,3.5
	s-3.5-1.6-3.5-3.5c0-8.7,7.6-16,16.6-16h2.8c9,0,16.6,7.3,16.6,16C76.3,23.4,74.7,24.9,72.8,24.9z"/>
<path fill="#4F463B" d="M18.4,20.7h-7c0-4.2-5.6-8.2-11.4-8.2v-7C8.7,5.5,18.4,11.7,18.4,20.7z"/>
<g>
	<path fill="#FCF0DE" d="M101.7,21.5c0,6.6-5.9,12.5-13.1,12.5h-2.8c-7.2,0-13.1-5.8-13.1-12.5"/>
	<path fill="#4F463B" d="M88.6,37.5h-2.8c-9,0-16.6-7.3-16.6-16c0-1.9,1.6-3.5,3.5-3.5s3.5,1.6,3.5,3.5c0,4.8,4.5,9,9.6,9h2.8
		c5.1,0,9.6-4.2,9.6-9c0-1.9,1.6-3.5,3.5-3.5s3.5,1.6,3.5,3.5C105.2,30.2,97.6,37.5,88.6,37.5z"/>
</g>
<path fill="#4F463B" d="M130.7,24.9c-1.9,0-3.5-1.6-3.5-3.5c0-4.8-4.5-9-9.6-9h-2.8c-5.1,0-9.6,4.2-9.6,9c0,1.9-1.6,3.5-3.5,3.5
	s-3.5-1.6-3.5-3.5c0-8.7,7.6-16,16.6-16h2.8c9,0,16.6,7.3,16.6,16C134.2,23.4,132.6,24.9,130.7,24.9z"/>
<g>
	<path fill="#FCF0DE" d="M159.6,21.5c0,6.6-5.9,12.5-13.1,12.5h-2.8c-7.2,0-13.1-5.8-13.1-12.5"/>
	<path fill="#4F463B" d="M146.5,37.5h-2.8c-9,0-16.6-7.3-16.6-16c0-1.9,1.6-3.5,3.5-3.5s3.5,1.6,3.5,3.5c0,4.8,4.5,9,9.6,9h2.8
		c5.1,0,9.6-4.2,9.6-9c0-1.9,1.6-3.5,3.5-3.5s3.5,1.6,3.5,3.5C163.1,30.2,155.5,37.5,146.5,37.5z"/>
</g>
<path fill="#4F463B" d="M188.6,24.9c-1.9,0-3.5-1.6-3.5-3.5c0-4.8-4.5-9-9.6-9h-2.8c-5.1,0-9.6,4.2-9.6,9c0,1.9-1.6,3.5-3.5,3.5
	s-3.5-1.6-3.5-3.5c0-8.7,7.6-16,16.6-16h2.8c9,0,16.6,7.3,16.6,16C192.1,23.4,190.5,24.9,188.6,24.9z"/>
<g>
	<path fill="#FCF0DE" d="M217.5,21.5c0,6.6-5.9,12.5-13.1,12.5h-2.8c-7.2,0-13.1-5.8-13.1-12.5"/>
	<path fill="#4F463B" d="M204.4,37.5h-2.8c-9,0-16.6-7.3-16.6-16c0-1.9,1.6-3.5,3.5-3.5s3.5,1.6,3.5,3.5c0,4.8,4.5,9,9.6,9h2.8
		c5.1,0,9.6-4.2,9.6-9c0-1.9,1.6-3.5,3.5-3.5s3.5,1.6,3.5,3.5C221,30.2,213.4,37.5,204.4,37.5z"/>
</g>
<path fill="#4F463B" d="M246.5,24.9c-1.9,0-3.5-1.6-3.5-3.5c0-4.8-4.5-9-9.6-9h-2.8c-5.1,0-9.6,4.2-9.6,9c0,1.9-1.6,3.5-3.5,3.5
	s-3.5-1.6-3.5-3.5c0-8.7,7.6-16,16.6-16h2.8c9,0,16.6,7.3,16.6,16C250,23.4,248.4,24.9,246.5,24.9z"/>
<g>
	<path fill="#FCF0DE" d="M275.4,21.5c0,6.6-5.9,12.5-13.1,12.5h-2.8c-7.2,0-13.1-5.8-13.1-12.5"/>
	<path fill="#4F463B" d="M262.3,37.5h-2.8c-9,0-16.6-7.3-16.6-16c0-1.9,1.6-3.5,3.5-3.5s3.5,1.6,3.5,3.5c0,4.8,4.5,9,9.6,9h2.8
		c5.1,0,9.6-4.2,9.6-9c0-1.9,1.6-3.5,3.5-3.5s3.5,1.6,3.5,3.5C278.9,30.2,271.3,37.5,262.3,37.5z"/>
</g>
<path fill="#4F463B" d="M278.9,23.9h-7v-3.5c0-9,6.5-14.9,16.6-14.9h3.5v7h-3.5c-8,0-9.6,4.3-9.6,7.9V23.9z"/>
<g>
	<path fill="#FCF0DE" d="M333.7,21.5c0,6.6-5.9,12.5-13.1,12.5h-2.8c-7.2,0-13.1-5.8-13.1-12.5"/>
	<path fill="#4F463B" d="M320.6,37.5h-2.8c-9,0-16.6-7.3-16.6-16c0-1.9,1.6-3.5,3.5-3.5s3.5,1.6,3.5,3.5c0,4.8,4.5,9,9.6,9h2.8
		c5.1,0,9.6-4.2,9.6-9c0-1.9,1.6-3.5,3.5-3.5s3.5,1.6,3.5,3.5C337.2,30.2,329.6,37.5,320.6,37.5z"/>
</g>
<path fill="#4F463B" d="M362.7,24.9c-1.9,0-3.5-1.6-3.5-3.5c0-4.8-4.5-9-9.6-9h-2.8c-5.1,0-9.6,4.2-9.6,9c0,1.9-1.6,3.5-3.5,3.5
	s-3.5-1.6-3.5-3.5c0-8.7,7.6-16,16.6-16h2.8c9,0,16.6,7.3,16.6,16C366.2,23.4,364.6,24.9,362.7,24.9z"/>
<path fill="#4F463B" d="M308.3,24.2h-7v-3.5c0-4.5-4.6-8.2-10-8.2h-3.5v-7h3.5c9.4,0,17,6.8,17,15.2V24.2z"/>
<g>
	<path fill="#FCF0DE" d="M391.6,21.5c0,6.6-5.9,12.5-13.1,12.5h-2.8c-7.2,0-13.1-5.8-13.1-12.5"/>
	<path fill="#4F463B" d="M378.5,37.5h-2.8c-9,0-16.6-7.3-16.6-16c0-1.9,1.6-3.5,3.5-3.5s3.5,1.6,3.5,3.5c0,4.8,4.5,9,9.6,9h2.8
		c5.1,0,9.6-4.2,9.6-9c0-1.9,1.6-3.5,3.5-3.5s3.5,1.6,3.5,3.5C395.1,30.2,387.5,37.5,378.5,37.5z"/>
</g>
<path fill="#4F463B" d="M420.6,24.9c-1.9,0-3.5-1.6-3.5-3.5c0-4.8-4.5-9-9.6-9h-2.8c-5.1,0-9.6,4.2-9.6,9c0,1.9-1.6,3.5-3.5,3.5
	s-3.5-1.6-3.5-3.5c0-8.7,7.6-16,16.6-16h2.8c9,0,16.6,7.3,16.6,16C424.1,23.4,422.5,24.9,420.6,24.9z"/>
<g>
	<path fill="#FCF0DE" d="M449.5,21.5c0,6.6-5.9,12.5-13.1,12.5h-2.8c-7.2,0-13.1-5.8-13.1-12.5"/>
	<path fill="#4F463B" d="M436.4,37.5h-2.8c-9,0-16.6-7.3-16.6-16c0-1.9,1.6-3.5,3.5-3.5s3.5,1.6,3.5,3.5c0,4.8,4.5,9,9.6,9h2.8
		c5.1,0,9.6-4.2,9.6-9c0-1.9,1.6-3.5,3.5-3.5s3.5,1.6,3.5,3.5C453,30.2,445.4,37.5,436.4,37.5z"/>
</g>
<path fill="#4F463B" d="M478.5,24.9c-1.9,0-3.5-1.6-3.5-3.5c0-4.8-4.5-9-9.6-9h-2.8c-5.1,0-9.6,4.2-9.6,9c0,1.9-1.6,3.5-3.5,3.5
	s-3.5-1.6-3.5-3.5c0-8.7,7.6-16,16.6-16h2.8c9,0,16.6,7.3,16.6,16C482,23.4,480.4,24.9,478.5,24.9z"/>
<g>
	<path fill="#FCF0DE" d="M507.4,21.5c0,6.6-5.9,12.5-13.1,12.5h-2.8c-7.2,0-13.1-5.8-13.1-12.5"/>
	<path fill="#4F463B" d="M494.3,37.5h-2.8c-9,0-16.6-7.3-16.6-16c0-1.9,1.6-3.5,3.5-3.5s3.5,1.6,3.5,3.5c0,4.8,4.5,9,9.6,9h2.8
		c5.1,0,9.6-4.2,9.6-9c0-1.9,1.6-3.5,3.5-3.5s3.5,1.6,3.5,3.5C510.9,30.2,503.3,37.5,494.3,37.5z"/>
</g>
<path fill="#4F463B" d="M536.4,24.9c-1.9,0-3.5-1.6-3.5-3.5c0-4.8-4.5-9-9.6-9h-2.8c-5.1,0-9.6,4.2-9.6,9c0,1.9-1.6,3.5-3.5,3.5
	s-3.5-1.6-3.5-3.5c0-8.7,7.6-16,16.6-16h2.8c9,0,16.6,7.3,16.6,16C539.9,23.4,538.3,24.9,536.4,24.9z"/>
<g>
	<path fill="#FCF0DE" d="M565.3,21.5c0,6.6-5.9,12.5-13.1,12.5h-2.8c-7.2,0-13.1-5.8-13.1-12.5"/>
	<path fill="#4F463B" d="M552.2,37.5h-2.8c-9,0-16.6-7.3-16.6-16c0-1.9,1.6-3.5,3.5-3.5s3.5,1.6,3.5,3.5c0,4.8,4.5,9,9.6,9h2.8
		c5.1,0,9.6-4.2,9.6-9c0-1.9,1.6-3.5,3.5-3.5s3.5,1.6,3.5,3.5C568.8,30.2,561.2,37.5,552.2,37.5z"/>
</g>
<path fill="#4F463B" d="M568.8,23.9h-7v-3.5c0-9,6.5-14.9,16.6-14.9h3.5v7h-3.5c-8,0-9.6,4.3-9.6,7.9V23.9z"/>
<g>
	<path fill="#FCF0DE" d="M623.6,21.5c0,6.6-5.9,12.5-13.1,12.5h-2.8c-7.2,0-13.1-5.8-13.1-12.5"/>
	<path fill="#4F463B" d="M610.5,37.5h-2.8c-9,0-16.6-7.3-16.6-16c0-1.9,1.6-3.5,3.5-3.5s3.5,1.6,3.5,3.5c0,4.8,4.5,9,9.6,9h2.8
		c5.1,0,9.6-4.2,9.6-9c0-1.9,1.6-3.5,3.5-3.5s3.5,1.6,3.5,3.5C627.1,30.2,619.5,37.5,610.5,37.5z"/>
</g>
<path fill="#4F463B" d="M627.1,24.9h-7v-3.5c0-8.7,7.6-16,16.6-16h3.5v7h-3.5c-5.1,0-9.6,4.2-9.6,9V24.9z"/>
<path fill="#4F463B" d="M598.1,24.2h-7v-3.5c0-4.5-4.6-8.2-10-8.2h-3.5v-7h3.5c9.4,0,17,6.8,17,15.2V24.2z"/>
<g>
	<path fill="#FCF0DE" d="M683.6,21.5c0,6.6-5.9,12.5-13.1,12.5h-2.8c-7.2,0-13.1-5.8-13.1-12.5"/>
	<path fill="#4F463B" d="M670.5,37.5h-2.8c-9,0-16.6-7.3-16.6-16c0-1.9,1.6-3.5,3.5-3.5s3.5,1.6,3.5,3.5c0,4.8,4.5,9,9.6,9h2.8
		c5.1,0,9.6-4.2,9.6-9c0-1.9,1.6-3.5,3.5-3.5s3.5,1.6,3.5,3.5C687.1,30.2,679.5,37.5,670.5,37.5z"/>
</g>
<path fill="#4F463B" d="M712.6,24.9c-1.9,0-3.5-1.6-3.5-3.5c0-4.8-4.5-9-9.6-9h-2.8c-5.1,0-9.6,4.2-9.6,9c0,1.9-1.6,3.5-3.5,3.5
	s-3.5-1.6-3.5-3.5c0-8.7,7.6-16,16.6-16h2.8c9,0,16.6,7.3,16.6,16C716.1,23.4,714.5,24.9,712.6,24.9z"/>
<path fill="#4F463B" d="M658.2,20.7h-7c0-4.2-5.6-8.2-11.4-8.2v-7C648.5,5.5,658.2,11.7,658.2,20.7z"/>
<g>
	<path fill="#FCF0DE" d="M741.5,21.5c0,6.6-5.9,12.5-13.1,12.5h-2.8c-7.2,0-13.1-5.8-13.1-12.5"/>
	<path fill="#4F463B" d="M728.4,37.5h-2.8c-9,0-16.6-7.3-16.6-16c0-1.9,1.6-3.5,3.5-3.5s3.5,1.6,3.5,3.5c0,4.8,4.5,9,9.6,9h2.8
		c5.1,0,9.6-4.2,9.6-9c0-1.9,1.6-3.5,3.5-3.5s3.5,1.6,3.5,3.5C745,30.2,737.4,37.5,728.4,37.5z"/>
</g>
<path fill="#4F463B" d="M770.5,24.9c-1.9,0-3.5-1.6-3.5-3.5c0-4.8-4.5-9-9.6-9h-2.8c-5.1,0-9.6,4.2-9.6,9c0,1.9-1.6,3.5-3.5,3.5
	s-3.5-1.6-3.5-3.5c0-8.7,7.6-16,16.6-16h2.8c9,0,16.6,7.3,16.6,16C774,23.4,772.4,24.9,770.5,24.9z"/>
<g>
	<path fill="#FCF0DE" d="M799.4,21.5c0,6.6-5.9,12.5-13.1,12.5h-2.8c-7.2,0-13.1-5.8-13.1-12.5"/>
	<path fill="#4F463B" d="M786.3,37.5h-2.8c-9,0-16.6-7.3-16.6-16c0-1.9,1.6-3.5,3.5-3.5s3.5,1.6,3.5,3.5c0,4.8,4.5,9,9.6,9h2.8
		c5.1,0,9.6-4.2,9.6-9c0-1.9,1.6-3.5,3.5-3.5s3.5,1.6,3.5,3.5C802.9,30.2,795.3,37.5,786.3,37.5z"/>
</g>
<path fill="#4F463B" d="M828.4,24.9c-1.9,0-3.5-1.6-3.5-3.5c0-4.8-4.5-9-9.6-9h-2.8c-5.1,0-9.6,4.2-9.6,9c0,1.9-1.6,3.5-3.5,3.5
	s-3.5-1.6-3.5-3.5c0-8.7,7.6-16,16.6-16h2.8c9,0,16.6,7.3,16.6,16C831.9,23.4,830.3,24.9,828.4,24.9z"/>
<g>
	<path fill="#FCF0DE" d="M857.3,21.5c0,6.6-5.9,12.5-13.1,12.5h-2.8c-7.2,0-13.1-5.8-13.1-12.5"/>
	<path fill="#4F463B" d="M844.2,37.5h-2.8c-9,0-16.6-7.3-16.6-16c0-1.9,1.6-3.5,3.5-3.5s3.5,1.6,3.5,3.5c0,4.8,4.5,9,9.6,9h2.8
		c5.1,0,9.6-4.2,9.6-9c0-1.9,1.6-3.5,3.5-3.5s3.5,1.6,3.5,3.5C860.8,30.2,853.2,37.5,844.2,37.5z"/>
</g>
<path fill="#4F463B" d="M886.3,24.9c-1.9,0-3.5-1.6-3.5-3.5c0-4.8-4.5-9-9.6-9h-2.8c-5.1,0-9.6,4.2-9.6,9c0,1.9-1.6,3.5-3.5,3.5
	s-3.5-1.6-3.5-3.5c0-8.7,7.6-16,16.6-16h2.8c9,0,16.6,7.3,16.6,16C889.8,23.4,888.2,24.9,886.3,24.9z"/>
<g>
	<path fill="#FCF0DE" d="M915.2,21.5c0,6.6-5.9,12.5-13.1,12.5h-2.8c-7.2,0-13.1-5.8-13.1-12.5"/>
	<path fill="#4F463B" d="M902.1,37.5h-2.8c-9,0-16.6-7.3-16.6-16c0-1.9,1.6-3.5,3.5-3.5s3.5,1.6,3.5,3.5c0,4.8,4.5,9,9.6,9h2.8
		c5.1,0,9.6-4.2,9.6-9c0-1.9,1.6-3.5,3.5-3.5s3.5,1.6,3.5,3.5C918.7,30.2,911.1,37.5,902.1,37.5z"/>
</g>
<path fill="#4F463B" d="M918.7,23.9h-7v-3.5c0-9,6.5-14.9,16.6-14.9h3.5v7h-3.5c-8,0-9.6,4.3-9.6,7.9V23.9z"/>
<g>
	<path fill="#FCF0DE" d="M973.5,21.5c0,6.6-5.9,12.5-13.1,12.5h-2.8c-7.2,0-13.1-5.8-13.1-12.5"/>
	<path fill="#4F463B" d="M960.4,37.5h-2.8c-9,0-16.6-7.3-16.6-16c0-1.9,1.6-3.5,3.5-3.5s3.5,1.6,3.5,3.5c0,4.8,4.5,9,9.6,9h2.8
		c5.1,0,9.6-4.2,9.6-9c0-1.9,1.6-3.5,3.5-3.5s3.5,1.6,3.5,3.5C977,30.2,969.4,37.5,960.4,37.5z"/>
</g>
<path fill="#4F463B" d="M1002.5,24.9c-1.9,0-3.5-1.6-3.5-3.5c0-4.8-4.5-9-9.6-9h-2.8c-5.1,0-9.6,4.2-9.6,9c0,1.9-1.6,3.5-3.5,3.5
	s-3.5-1.6-3.5-3.5c0-8.7,7.6-16,16.6-16h2.8c9,0,16.6,7.3,16.6,16C1006,23.4,1004.4,24.9,1002.5,24.9z"/>
<path fill="#4F463B" d="M948.1,24.2h-7v-3.5c0-4.5-4.6-8.2-10-8.2h-3.5v-7h3.5c9.4,0,17,6.8,17,15.2V24.2z"/>
<g>
	<path fill="#FCF0DE" d="M1031.4,21.5c0,6.6-5.9,12.5-13.1,12.5h-2.8c-7.2,0-13.1-5.8-13.1-12.5"/>
	<path fill="#4F463B" d="M1018.3,37.5h-2.8c-9,0-16.6-7.3-16.6-16c0-1.9,1.6-3.5,3.5-3.5s3.5,1.6,3.5,3.5c0,4.8,4.5,9,9.6,9h2.8
		c5.1,0,9.6-4.2,9.6-9c0-1.9,1.6-3.5,3.5-3.5s3.5,1.6,3.5,3.5C1034.9,30.2,1027.3,37.5,1018.3,37.5z"/>
</g>
<path fill="#4F463B" d="M1060.4,24.9c-1.9,0-3.5-1.6-3.5-3.5c0-4.8-4.5-9-9.6-9h-2.8c-5.1,0-9.6,4.2-9.6,9c0,1.9-1.6,3.5-3.5,3.5
	s-3.5-1.6-3.5-3.5c0-8.7,7.6-16,16.6-16h2.8c9,0,16.6,7.3,16.6,16C1063.9,23.4,1062.3,24.9,1060.4,24.9z"/>
<g>
	<path fill="#FCF0DE" d="M1089.3,21.5c0,6.6-5.9,12.5-13.1,12.5h-2.8c-7.2,0-13.1-5.8-13.1-12.5"/>
	<path fill="#4F463B" d="M1076.2,37.5h-2.8c-9,0-16.6-7.3-16.6-16c0-1.9,1.6-3.5,3.5-3.5s3.5,1.6,3.5,3.5c0,4.8,4.5,9,9.6,9h2.8
		c5.1,0,9.6-4.2,9.6-9c0-1.9,1.6-3.5,3.5-3.5s3.5,1.6,3.5,3.5C1092.8,30.2,1085.2,37.5,1076.2,37.5z"/>
</g>
<path fill="#4F463B" d="M1118.3,24.9c-1.9,0-3.5-1.6-3.5-3.5c0-4.8-4.5-9-9.6-9h-2.8c-5.1,0-9.6,4.2-9.6,9c0,1.9-1.6,3.5-3.5,3.5
	s-3.5-1.6-3.5-3.5c0-8.7,7.6-16,16.6-16h2.8c9,0,16.6,7.3,16.6,16C1121.8,23.4,1120.2,24.9,1118.3,24.9z"/>
<g>
	<path fill="#FCF0DE" d="M1147.2,21.5c0,6.6-5.9,12.5-13.1,12.5h-2.8c-7.2,0-13.1-5.8-13.1-12.5"/>
	<path fill="#4F463B" d="M1134.1,37.5h-2.8c-9,0-16.6-7.3-16.6-16c0-1.9,1.6-3.5,3.5-3.5s3.5,1.6,3.5,3.5c0,4.8,4.5,9,9.6,9h2.8
		c5.1,0,9.6-4.2,9.6-9c0-1.9,1.6-3.5,3.5-3.5s3.5,1.6,3.5,3.5C1150.7,30.2,1143.1,37.5,1134.1,37.5z"/>
</g>
<path fill="#4F463B" d="M1176.2,24.9c-1.9,0-3.5-1.6-3.5-3.5c0-4.8-4.5-9-9.6-9h-2.8c-5.1,0-9.6,4.2-9.6,9c0,1.9-1.6,3.5-3.5,3.5
	s-3.5-1.6-3.5-3.5c0-8.7,7.6-16,16.6-16h2.8c9,0,16.6,7.3,16.6,16C1179.7,23.4,1178.1,24.9,1176.2,24.9z"/>
<g>
	<path fill="#FCF0DE" d="M1205.1,21.5c0,6.6-5.9,12.5-13.1,12.5h-2.8c-7.2,0-13.1-5.8-13.1-12.5"/>
	<path fill="#4F463B" d="M1192,37.5h-2.8c-9,0-16.6-7.3-16.6-16c0-1.9,1.6-3.5,3.5-3.5s3.5,1.6,3.5,3.5c0,4.8,4.5,9,9.6,9h2.8
		c5.1,0,9.6-4.2,9.6-9c0-1.9,1.6-3.5,3.5-3.5s3.5,1.6,3.5,3.5C1208.6,30.2,1201,37.5,1192,37.5z"/>
</g>
<path fill="#4F463B" d="M1208.6,23.9h-7v-3.5c0-9,6.5-14.9,16.6-14.9h3.5v7h-3.5c-8,0-9.6,4.3-9.6,7.9V23.9z"/>
<g>
	<path fill="#FCF0DE" d="M1263.4,21.5c0,6.6-5.9,12.5-13.1,12.5h-2.8c-7.2,0-13.1-5.8-13.1-12.5"/>
	<path fill="#4F463B" d="M1250.3,37.5h-2.8c-9,0-16.6-7.3-16.6-16c0-1.9,1.6-3.5,3.5-3.5s3.5,1.6,3.5,3.5c0,4.8,4.5,9,9.6,9h2.8
		c5.1,0,9.6-4.2,9.6-9c0-1.9,1.6-3.5,3.5-3.5s3.5,1.6,3.5,3.5C1266.9,30.2,1259.3,37.5,1250.3,37.5z"/>
</g>
<path fill="#4F463B" d="M1266.9,24.9h-7v-3.5c0-8.7,7.6-16,16.6-16h3.5v7h-3.5c-5.1,0-9.6,4.2-9.6,9V24.9z"/>
<path fill="#4F463B" d="M1237.9,24.2h-7v-3.5c0-4.5-4.6-8.2-10-8.2h-3.5v-7h3.5c9.4,0,17,6.8,17,15.2V24.2z"/>
<circle fill="#FFFFFF" cx="962.6" cy="25.6" r="3.1"/>
<path fill="#FFFFFF" d="M967.3,17.7c-0.1,0-0.2,0-0.3,0c-0.8-0.2-1.3-0.9-1.2-1.8c0-0.2,3.3-15.9,20.8-15.9c0.8,0,1.5,0.7,1.5,1.5
	S987.4,3,986.6,3c-15.1,0-17.7,12.9-17.8,13.5C968.6,17.2,968,17.7,967.3,17.7z"/>
<circle fill="#FFFFFF" cx="1021" cy="25.6" r="3.1"/>
<path fill="#FFFFFF" d="M1025.6,17.7c-0.1,0-0.2,0-0.3,0c-0.8-0.2-1.3-0.9-1.2-1.8c0-0.2,3.3-15.9,20.8-15.9c0.8,0,1.5,0.7,1.5,1.5
	s-0.7,1.5-1.5,1.5c-15.1,0-17.7,12.9-17.8,13.5C1027,17.2,1026.3,17.7,1025.6,17.7z"/>
<circle fill="#FFFFFF" cx="1078.7" cy="25.6" r="3.1"/>
<path fill="#FFFFFF" d="M1083.3,17.7c-0.1,0-0.2,0-0.3,0c-0.8-0.2-1.3-0.9-1.2-1.8c0-0.2,3.3-15.9,20.8-15.9c0.8,0,1.5,0.7,1.5,1.5
	s-0.7,1.5-1.5,1.5c-15.1,0-17.7,12.9-17.8,13.5C1084.7,17.2,1084,17.7,1083.3,17.7z"/>
<circle fill="#FFFFFF" cx="1137" cy="25.6" r="3.1"/>
<path fill="#FFFFFF" d="M1141.7,17.7c-0.1,0-0.2,0-0.3,0c-0.8-0.2-1.3-0.9-1.2-1.8c0-0.2,3.3-15.9,20.8-15.9c0.8,0,1.5,0.7,1.5,1.5
	S1161.8,3,1161,3c-15.1,0-17.7,12.9-17.8,13.5C1143,17.2,1142.4,17.7,1141.7,17.7z"/>
<circle fill="#FFFFFF" cx="1194.9" cy="25.6" r="3.1"/>
<path fill="#FFFFFF" d="M1199.5,17.7c-0.1,0-0.2,0-0.3,0c-0.8-0.2-1.3-0.9-1.2-1.8c0-0.2,3.3-15.9,20.8-15.9c0.8,0,1.5,0.7,1.5,1.5
	s-0.7,1.5-1.5,1.5c-15.1,0-17.7,12.9-17.8,13.5C1200.9,17.2,1200.2,17.7,1199.5,17.7z"/>
<circle fill="#FFFFFF" cx="672.9" cy="25.6" r="3.1"/>
<path fill="#FFFFFF" d="M677.5,17.7c-0.1,0-0.2,0-0.3,0c-0.8-0.2-1.3-0.9-1.2-1.8c0-0.2,3.3-15.9,20.8-15.9c0.8,0,1.5,0.7,1.5,1.5
	S697.7,3,696.8,3c-15.1,0-17.7,12.9-17.8,13.5C678.9,17.2,678.2,17.7,677.5,17.7z"/>
<circle fill="#FFFFFF" cx="731.2" cy="25.6" r="3.1"/>
<path fill="#FFFFFF" d="M735.9,17.7c-0.1,0-0.2,0-0.3,0c-0.8-0.2-1.3-0.9-1.2-1.8c0-0.2,3.3-15.9,20.8-15.9c0.8,0,1.5,0.7,1.5,1.5
	S756,3,755.2,3c-15.1,0-17.7,12.9-17.8,13.5C737.2,17.2,736.6,17.7,735.9,17.7z"/>
<circle fill="#FFFFFF" cx="788.9" cy="25.6" r="3.1"/>
<path fill="#FFFFFF" d="M793.6,17.7c-0.1,0-0.2,0-0.3,0c-0.8-0.2-1.3-0.9-1.2-1.8c0-0.2,3.3-15.9,20.8-15.9c0.8,0,1.5,0.7,1.5,1.5
	S813.7,3,812.9,3c-15.1,0-17.7,12.9-17.8,13.5C794.9,17.2,794.3,17.7,793.6,17.7z"/>
<circle fill="#FFFFFF" cx="847.2" cy="25.6" r="3.1"/>
<path fill="#FFFFFF" d="M851.9,17.7c-0.1,0-0.2,0-0.3,0c-0.8-0.2-1.3-0.9-1.2-1.8c0-0.2,3.3-15.9,20.8-15.9c0.8,0,1.5,0.7,1.5,1.5
	S872,3,871.2,3c-15.1,0-17.7,12.9-17.8,13.5C853.2,17.2,852.6,17.7,851.9,17.7z"/>
<circle fill="#FFFFFF" cx="905.1" cy="25.6" r="3.1"/>
<path fill="#FFFFFF" d="M909.8,17.7c-0.1,0-0.2,0-0.3,0c-0.8-0.2-1.3-0.9-1.2-1.8c0-0.2,3.3-15.9,20.8-15.9c0.8,0,1.5,0.7,1.5,1.5
	S929.9,3,929.1,3c-15.1,0-17.7,12.9-17.8,13.5C911.1,17.2,910.5,17.7,909.8,17.7z"/>
<circle fill="#FFFFFF" cx="1253.2" cy="25.6" r="3.1"/>
<path fill="#FFFFFF" d="M1257.9,17.7c-0.1,0-0.2,0-0.3,0c-0.8-0.2-1.3-0.9-1.2-1.8c0-0.2,3.3-15.9,20.8-15.9c0.8,0,1.5,0.7,1.5,1.5
	S1278,3,1277.2,3c-15,0-17.7,13-17.8,13.5C1259.2,17.2,1258.6,17.7,1257.9,17.7z"/>
<circle fill="#FFFFFF" cx="322.8" cy="25.6" r="3.1"/>
<path fill="#FFFFFF" d="M327.5,17.7c-0.1,0-0.2,0-0.3,0c-0.8-0.2-1.3-0.9-1.2-1.8c0-0.2,3.3-15.9,20.8-15.9c0.8,0,1.5,0.7,1.5,1.5
	S347.6,3,346.8,3c-15.1,0-17.7,12.9-17.8,13.5C328.8,17.2,328.2,17.7,327.5,17.7z"/>
<circle fill="#FFFFFF" cx="381.2" cy="25.6" r="3.1"/>
<path fill="#FFFFFF" d="M385.8,17.7c-0.1,0-0.2,0-0.3,0c-0.8-0.2-1.3-0.9-1.2-1.8c0-0.2,3.3-15.9,20.8-15.9c0.8,0,1.5,0.7,1.5,1.5
	S406,3,405.1,3c-15.1,0-17.7,12.9-17.8,13.5C387.2,17.2,386.5,17.7,385.8,17.7z"/>
<circle fill="#FFFFFF" cx="438.9" cy="25.6" r="3.1"/>
<path fill="#FFFFFF" d="M443.5,17.7c-0.1,0-0.2,0-0.3,0c-0.8-0.2-1.3-0.9-1.2-1.8c0-0.2,3.3-15.9,20.8-15.9c0.8,0,1.5,0.7,1.5,1.5
	S463.7,3,462.8,3c-15.1,0-17.7,12.9-17.8,13.5C444.9,17.2,444.2,17.7,443.5,17.7z"/>
<circle fill="#FFFFFF" cx="497.2" cy="25.6" r="3.1"/>
<path fill="#FFFFFF" d="M501.9,17.7c-0.1,0-0.2,0-0.3,0c-0.8-0.2-1.3-0.9-1.2-1.8c0-0.2,3.3-15.9,20.8-15.9c0.8,0,1.5,0.7,1.5,1.5
	S522,3,521.2,3c-15.1,0-17.7,12.9-17.8,13.5C503.2,17.2,502.6,17.7,501.9,17.7z"/>
<circle fill="#FFFFFF" cx="555.1" cy="25.6" r="3.1"/>
<path fill="#FFFFFF" d="M559.7,17.7c-0.1,0-0.2,0-0.3,0c-0.8-0.2-1.3-0.9-1.2-1.8c0-0.2,3.3-15.9,20.8-15.9c0.8,0,1.5,0.7,1.5,1.5
	S579.8,3,579,3c-15.1,0-17.7,12.9-17.8,13.5C561.1,17.2,560.4,17.7,559.7,17.7z"/>
<circle fill="#FFFFFF" cx="33.1" cy="25.6" r="3.1"/>
<path fill="#FFFFFF" d="M37.7,17.7c-0.1,0-0.2,0-0.3,0c-0.8-0.2-1.3-0.9-1.2-1.8C36.3,15.8,39.5,0,57,0c0.8,0,1.5,0.7,1.5,1.5
	S57.9,3,57,3C42,3,39.3,15.9,39.2,16.5C39.1,17.2,38.4,17.7,37.7,17.7z"/>
<circle fill="#FFFFFF" cx="91.4" cy="25.6" r="3.1"/>
<path fill="#FFFFFF" d="M96.1,17.7c-0.1,0-0.2,0-0.3,0c-0.8-0.2-1.3-0.9-1.2-1.8c0-0.2,3.3-15.9,20.8-15.9c0.8,0,1.5,0.7,1.5,1.5
	S116.2,3,115.4,3c-15.1,0-17.7,12.9-17.8,13.5C97.4,17.2,96.8,17.7,96.1,17.7z"/>
<circle fill="#FFFFFF" cx="149.1" cy="25.6" r="3.1"/>
<path fill="#FFFFFF" d="M153.8,17.7c-0.1,0-0.2,0-0.3,0c-0.8-0.2-1.3-0.9-1.2-1.8c0-0.2,3.3-15.9,20.8-15.9c0.8,0,1.5,0.7,1.5,1.5
	S173.9,3,173.1,3c-15.1,0-17.7,12.9-17.8,13.5C155.1,17.2,154.5,17.7,153.8,17.7z"/>
<circle fill="#FFFFFF" cx="207.4" cy="25.6" r="3.1"/>
<path fill="#FFFFFF" d="M212.1,17.7c-0.1,0-0.2,0-0.3,0c-0.8-0.2-1.3-0.9-1.2-1.8c0-0.2,3.3-15.9,20.8-15.9c0.8,0,1.5,0.7,1.5,1.5
	S232.2,3,231.4,3c-15.1,0-17.7,12.9-17.8,13.5C213.4,17.2,212.8,17.7,212.1,17.7z"/>
<circle fill="#FFFFFF" cx="265.3" cy="25.6" r="3.1"/>
<path fill="#FFFFFF" d="M270,17.7c-0.1,0-0.2,0-0.3,0c-0.8-0.2-1.3-0.9-1.2-1.8c0-0.2,3.3-15.9,20.8-15.9c0.8,0,1.5,0.7,1.5,1.5
	S290.1,3,289.3,3c-15.1,0-17.7,12.9-17.8,13.5C271.3,17.2,270.7,17.7,270,17.7z"/>
<circle fill="#FFFFFF" cx="613.4" cy="25.6" r="3.1"/>
<path fill="#FFFFFF" d="M618,17.7c-0.1,0-0.2,0-0.3,0c-0.8-0.2-1.3-0.9-1.2-1.8c0-0.2,3.3-15.9,20.8-15.9c0.8,0,1.5,0.7,1.5,1.5
	S638.2,3,637.3,3c-15,0-17.7,13-17.8,13.5C619.4,17.2,618.8,17.7,618,17.7z"/>
</svg>
