<?xml version="1.0" encoding="utf-8"?>
<!-- Generator: Adobe Illustrator 18.1.0, SVG Export Plug-In . SVG Version: 6.00 Build 0)  -->
<svg version="1.1" id="Laag_1" xmlns="http://www.w3.org/2000/svg" xmlns:xlink="http://www.w3.org/1999/xlink" x="0px" y="0px"
	 viewBox="0 0 76.3 118.4" enable-background="new 0 0 76.3 118.4" xml:space="preserve">
<g>
	<path fill="#FCF0DE" d="M59.2,114.8c-3.5,0-6.9-1.3-9.6-4L7.6,68.8c-5.3-5.3-5.3-13.8,0-19.1L49.6,7.6c5.3-5.3,13.8-5.3,19.1,0
		c5.3,5.3,5.3,13.8,0,19.1L36.2,59.2l32.5,32.5c5.3,5.3,5.3,13.8,0,19.1C66.1,113.5,62.6,114.8,59.2,114.8z"/>
	<path fill="#4F463B" d="M59.2,118.4c-4.6,0-8.9-1.8-12.1-5L5,71.3c-6.7-6.7-6.7-17.5,0-24.2L47.1,5c3.2-3.2,7.5-5,12.1-5
		c4.6,0,8.9,1.8,12.1,5c6.7,6.7,6.7,17.5,0,24.2l-30,30l30,30c6.7,6.7,6.7,17.5,0,24.2C68,116.6,63.7,118.4,59.2,118.4z M59.2,7.2
		c-2.6,0-5.1,1-7,2.9L10.1,52.2c-3.9,3.9-3.9,10.2,0,14l42.1,42.1c1.9,1.9,4.4,2.9,7,2.9c2.6,0,5.1-1,7-2.9c3.9-3.9,3.9-10.2,0-14
		L33.7,61.8c-0.7-0.7-1.1-1.6-1.1-2.5s0.4-1.9,1.1-2.5l32.5-32.5c3.9-3.9,3.9-10.2,0-14C64.3,8.2,61.9,7.2,59.2,7.2z"/>
</g>
<path fill="#FFFFFF" d="M62.8,108.1c-0.5,0-0.9-0.1-1.3-0.4c-0.9-0.7-1.1-2.1-0.4-3c3.2-4.1-4.1-10.4-4.2-10.4c0,0-0.1-0.1-0.1-0.1
	L50,87.5c-0.9-0.8-0.9-2.2,0-3.1c0.8-0.9,2.2-0.9,3.1,0l6.7,6.6c3.9,3.3,9.3,10.4,4.8,16.3C64.1,107.8,63.4,108.1,62.8,108.1z"/>
<path fill="#FFFFFF" d="M47.2,84.9c-0.6,0-1.1-0.2-1.5-0.6l-4.1-4.1c-0.8-0.8-0.8-2.2,0-3.1c0.8-0.8,2.2-0.8,3.1,0l4.1,4.1
	c0.8,0.8,0.8,2.2,0,3.1C48.3,84.7,47.8,84.9,47.2,84.9z"/>
<path fill="#918373" d="M44,27.7c-0.5,0-1.1-0.2-1.5-0.6c-0.9-0.8-0.9-2.2,0-3.1l6.6-6.7c3.3-3.9,10.4-9.3,16.3-4.8
	c0.9,0.7,1.1,2.1,0.4,3c-0.7,0.9-2.1,1.1-3,0.4c-4.1-3.2-10.4,4.1-10.4,4.2c0,0-0.1,0.1-0.1,0.1L45.5,27
	C45.1,27.4,44.6,27.7,44,27.7z"/>
<path fill="#918373" d="M36.8,36c-0.6,0-1.1-0.2-1.5-0.6c-0.8-0.8-0.8-2.2,0-3.1l4.1-4.1c0.8-0.8,2.2-0.8,3.1,0
	c0.8,0.8,0.8,2.2,0,3.1l-4.1,4.1C37.9,35.7,37.3,36,36.8,36z"/>
</svg>
