<?xml version="1.0" encoding="utf-8"?>
<!-- Generator: Adobe Illustrator 18.1.0, SVG Export Plug-In . SVG Version: 6.00 Build 0)  -->
<svg version="1.1" id="Laag_1" xmlns="http://www.w3.org/2000/svg" xmlns:xlink="http://www.w3.org/1999/xlink" x="0px" y="0px"
	 viewBox="0 0 76.3 118.4" enable-background="new 0 0 76.3 118.4" xml:space="preserve">
<g>
	<path fill="#FCF0DE" d="M17.1,114.8c-3.5,0-6.9-1.3-9.6-4c-5.3-5.3-5.3-13.8,0-19.1l32.5-32.5L7.6,26.7c-5.3-5.3-5.3-13.8,0-19.1
		c5.3-5.3,13.8-5.3,19.1,0l42.1,42.1c5.3,5.3,5.3,13.8,0,19.1l-42.1,42.1C24,113.5,20.6,114.8,17.1,114.8z"/>
	<path fill="#4F463B" d="M17.1,118.4c-4.6,0-8.9-1.8-12.1-5c-6.7-6.7-6.7-17.5,0-24.2l30-30l-30-30C-1.6,22.6-1.6,11.7,5,5
		c3.2-3.2,7.5-5,12.1-5c4.6,0,8.9,1.8,12.1,5l42.1,42.1c6.7,6.7,6.7,17.5,0,24.2l-42.1,42.1C26,116.6,21.7,118.4,17.1,118.4z
		 M17.2,7.2c-2.6,0-5.1,1-7,2.9c-3.9,3.9-3.9,10.2,0,14l32.5,32.5c1.4,1.4,1.4,3.7,0,5.1L10.1,94.3c-3.9,3.9-3.9,10.2,0,14
		c1.9,1.9,4.4,2.9,7,2.9s5.1-1,7-2.9l42.1-42.1c3.9-3.9,3.9-10.2,0-14L24.2,10.1C22.3,8.2,19.8,7.2,17.2,7.2z"/>
</g>
<path fill="#918373" d="M12.1,108.2c-0.6,0-1.3-0.3-1.7-0.8c-4.5-5.9,0.8-13,4.8-16.3l6.7-6.6c0.9-0.8,2.2-0.8,3.1,0
	c0.8,0.9,0.8,2.2,0,3.1l-6.8,6.6c0,0-0.1,0.1-0.1,0.1c-0.1,0.1-7.3,6.3-4.2,10.4c0.7,0.9,0.6,2.3-0.4,3
	C13,108,12.6,108.2,12.1,108.2z"/>
<path fill="#918373" d="M27.7,85c-0.6,0-1.1-0.2-1.5-0.6c-0.8-0.8-0.8-2.2,0-3.1l4.1-4.1c0.8-0.8,2.2-0.8,3.1,0
	c0.8,0.8,0.8,2.2,0,3.1l-4.1,4.1C28.8,84.8,28.2,85,27.7,85z"/>
<path fill="#FFFFFF" d="M33.1,26.3c-0.6,0-1.1-0.2-1.5-0.7l-6.6-6.8c0,0-0.1-0.1-0.1-0.1c-0.1-0.1-6.3-7.3-10.4-4.2
	c-0.9,0.7-2.3,0.6-3-0.4c-0.7-0.9-0.6-2.3,0.4-3c5.9-4.5,13,0.8,16.3,4.8l6.6,6.7c0.8,0.9,0.8,2.2,0,3.1
	C34.2,26.1,33.6,26.3,33.1,26.3z"/>
<path fill="#FFFFFF" d="M40.3,34.6c-0.6,0-1.1-0.2-1.5-0.6l-4.1-4.1c-0.8-0.8-0.8-2.2,0-3.1c0.8-0.8,2.2-0.8,3.1,0l4.1,4.1
	c0.8,0.8,0.8,2.2,0,3.1C41.4,34.4,40.9,34.6,40.3,34.6z"/>
</svg>
