<?xml version="1.0" encoding="utf-8"?>
<!-- Generator: Adobe Illustrator 18.1.0, SVG Export Plug-In . SVG Version: 6.00 Build 0)  -->
<svg version="1.1" id="Laag_1" xmlns="http://www.w3.org/2000/svg" xmlns:xlink="http://www.w3.org/1999/xlink" x="0px" y="0px"
	 viewBox="0 0 236 82" enable-background="new 0 0 236 82" xml:space="preserve">
<g>
	<path fill="#575756" d="M31.1,20.7h4.5c0.3,0,0.5-0.2,0.5-0.5c0-0.3-0.2-0.5-0.5-0.5h-4.5c-0.3,0-0.5,0.2-0.5,0.5
		C30.6,20.5,30.8,20.7,31.1,20.7z M33.3,59.9c-1.3,0-2.3,1-2.3,2.3c0,1.3,1,2.3,2.3,2.3c1.3,0,2.3-1,2.3-2.3
		C35.6,60.9,34.6,59.9,33.3,59.9z M21.9,57.9h22.8V24.2H21.9V57.9z M95,46.8c-1.1,0-2.1,0.4-2.9,1.1c-0.9,0.7-1.5,1.7-1.7,2.8
		c-0.1,0.5-0.2,1-0.2,1.3v3.3c0,1.4,0.4,2.7,1.3,3.6c0.9,1,2,1.5,3.4,1.5c1.6,0,2.9-0.6,3.9-1.9c0.9-1.3,1.4-2.9,1.4-5
		c0-1.9-0.4-3.5-1.3-4.7C97.9,47.5,96.6,46.8,95,46.8z M175,46.5c-1.8,0-3.1,0.8-4,2.3c-0.8,1.3-1.2,2.9-1.2,4.7
		c0,1.8,0.4,3.4,1.2,4.7c0.9,1.6,2.3,2.3,4,2.3c1.7,0,3-0.8,3.9-2.4c0.8-1.3,1.2-2.9,1.2-4.7s-0.4-3.4-1.2-4.7
		C178,47.3,176.7,46.5,175,46.5z M116.7,46.8c-1.1,0-2.1,0.4-2.9,1.1c-0.9,0.7-1.5,1.7-1.7,2.8c-0.1,0.5-0.2,1-0.2,1.3v3.3
		c0,1.4,0.4,2.7,1.3,3.6c0.9,1,2,1.5,3.4,1.5c1.7,0,2.9-0.6,3.9-1.9c0.9-1.3,1.4-2.9,1.4-5c0-1.9-0.4-3.5-1.3-4.7
		C119.6,47.5,118.3,46.8,116.7,46.8z M71.4,39.8L71.4,39.8c-0.4,1.2-0.8,2.9-1.4,5.2l-2.3,7.1h7.3l-2.3-7.1
		C72.6,44.2,72.1,42.5,71.4,39.8z M208.2,46.3c-1.4,0-2.6,0.6-3.5,1.8c-0.7,0.9-1.2,2.1-1.3,3.4h9.1c0-1.3-0.3-2.4-0.8-3.4
		C211,46.9,209.8,46.3,208.2,46.3z M90.7,26.9c0.1-0.2,0.1-0.4,0.1-0.6v-1.4c-1.8,0-3.5,0.4-3.5,1.9c0,1,0.6,1.5,1.5,1.5
		C89.8,28.3,90.5,27.6,90.7,26.9z M66.8,20.5c-0.3-0.9-0.5-1.8-0.7-2.6h0c-0.2,0.8-0.4,1.8-0.7,2.6l-1.1,3.5h3.6L66.8,20.5z M226,0
		H10C4.5,0,0,4.5,0,10v62.1c0,5.5,4.5,10,10,10h216c5.5,0,10-4.5,10-10V10C236,4.5,231.5,0,226,0z M212.3,19.5
		c3.3,0,4.4,2.7,4.4,4.9c0,0.5,0,0.9-0.1,1.1h-6.8c0.1,1.8,1.5,2.6,3.1,2.6c1.2,0,2-0.2,2.8-0.5l0.4,1.8c-0.9,0.4-2.1,0.6-3.5,0.6
		c-3.3,0-5.2-2-5.2-5.1C207.3,22.1,209,19.5,212.3,19.5z M171.6,19.7l0.1,1.5h0.1c0.5-0.8,1.6-1.8,3.3-1.8c1.8,0,3.6,1.1,3.6,4.4v6
		h-2.6v-5.7c0-1.5-0.5-2.6-1.9-2.6c-1,0-1.7,0.7-2,1.5c-0.1,0.2-0.1,0.5-0.1,0.8v6h-2.6v-7.1c0-1.2,0-2.1-0.1-3H171.6z M144.6,19.5
		c3.3,0,4.4,2.7,4.4,4.9c0,0.5,0,0.9-0.1,1.1h-6.8c0.1,1.8,1.5,2.6,3.1,2.6c1.2,0,2-0.2,2.8-0.5l0.4,1.8c-0.9,0.4-2.1,0.6-3.5,0.6
		c-3.3,0-5.2-2-5.2-5.1C139.7,22.1,141.4,19.5,144.6,19.5z M134.1,15h2.6v14.8h-2.6V15z M113.8,21.3c-1,0-2,0.3-2.7,0.8l-0.5-1.7
		c0.8-0.5,2.1-0.9,3.7-0.9c3.3,0,4.2,2.1,4.2,4.3v3.7c0,0.9,0,1.8,0.2,2.4h-2.3l-0.2-1.1H116c-0.6,0.8-1.7,1.4-3,1.4
		c-2,0-3.2-1.5-3.2-3c0-2.5,2.3-3.9,6-3.8v-0.2C115.8,22.4,115.5,21.3,113.8,21.3z M98.6,15.5c0.9,0,1.4,0.6,1.4,1.4
		c0,0.8-0.6,1.4-1.5,1.4c-0.9,0-1.4-0.6-1.4-1.4C97.1,16.1,97.7,15.5,98.6,15.5z M99.8,19.7v10.2h-2.6V19.7H99.8z M64.6,15.8h3.3
		l4.6,14.1h-2.8l-1.3-4h-4.4l-1.2,4H60L64.6,15.8z M47.5,62.4c0,2.5-2,4.5-4.5,4.5H23.7c-2.5,0-4.5-2-4.5-4.5V19.6
		c0-2.5,2-4.5,4.5-4.5H43c2.5,0,4.5,2,4.5,4.5V62.4z M78.4,63.5l-2.6-8H67l-2.4,8H60l8.8-27.4h5.4l8.9,27.4H78.4z M79.4,29.9h-2.5
		l-3.8-10.2h2.8l1.6,5.2c0.3,0.9,0.5,1.7,0.7,2.5h0.1c0.2-0.8,0.4-1.6,0.7-2.5l1.6-5.2h2.7L79.4,29.9z M84.7,27.1
		c0-2.5,2.3-3.9,6-3.8v-0.2c0-0.7-0.3-1.8-2.1-1.8c-1,0-2,0.3-2.7,0.8l-0.5-1.7c0.8-0.5,2.1-0.9,3.7-0.9c3.3,0,4.2,2.1,4.2,4.3v3.7
		c0,0.9,0,1.8,0.2,2.4h-2.3L91,28.7h-0.1c-0.6,0.8-1.7,1.4-3,1.4C85.9,30.1,84.7,28.6,84.7,27.1z M101.9,61.3
		c-1.6,1.7-3.7,2.6-6.1,2.6c-2.6,0-4.5-0.9-5.6-2.8v10.4h-4.4V50.2c0-2.1-0.1-4.3-0.2-6.5h3.9l0.2,3.1h0.1c1.5-2.3,3.7-3.5,6.7-3.5
		c2.3,0,4.3,0.9,5.8,2.8c1.6,1.8,2.3,4.3,2.3,7.3C104.6,56.7,103.7,59.4,101.9,61.3z M106.4,29.9h-2.6V15h2.6V29.9z M123.6,61.3
		c-1.6,1.7-3.7,2.6-6.1,2.6c-2.6,0-4.5-0.9-5.6-2.8v10.4h-4.4V50.2c0-2.1-0.1-4.3-0.2-6.5h3.8l0.3,3.1h0.1c1.5-2.3,3.7-3.5,6.7-3.5
		c2.3,0,4.3,0.9,5.8,2.8c1.6,1.8,2.3,4.3,2.3,7.3C126.3,56.7,125.4,59.4,123.6,61.3z M126.6,30.1c-1.3,0-2.5-0.5-3.2-1.8h0l-0.1,1.5
		H121c0-0.7,0.1-1.8,0.1-2.9V15h2.6v6h0c0.6-1,1.7-1.6,3.3-1.6c2.5,0,4.3,2.1,4.2,5.2C131.2,28.3,128.9,30.1,126.6,30.1z
		 M148.6,61.5c-1.8,1.6-4.3,2.4-7.5,2.4c-3,0-5.3-0.6-7.1-1.7l1-3.7c1.9,1.1,4,1.7,6.3,1.7c1.7,0,2.9-0.4,3.9-1.1
		c0.9-0.7,1.4-1.7,1.4-3c0-1.1-0.4-2-1.1-2.8c-0.8-0.8-2-1.5-3.8-2.1c-4.8-1.8-7.2-4.4-7.2-7.8c0-2.2,0.8-4.1,2.5-5.5
		c1.7-1.4,3.9-2.1,6.7-2.1c2.5,0,4.6,0.4,6.2,1.3l-1.1,3.6c-1.5-0.8-3.3-1.3-5.2-1.3c-1.5,0-2.8,0.4-3.6,1.1
		c-0.7,0.7-1.1,1.5-1.1,2.5c0,1.1,0.4,2,1.3,2.7c0.7,0.6,2.1,1.3,4,2.1c2.4,0.9,4.1,2.1,5.2,3.3c1.1,1.3,1.7,2.9,1.7,4.7
		C151.1,58.1,150.2,60,148.6,61.5z M164.1,47h-4.8v9.6c0,2.4,0.9,3.6,2.6,3.6c0.8,0,1.4-0.1,1.9-0.2l0.1,3.3c-0.9,0.3-2,0.5-3.4,0.5
		c-1.7,0-3.1-0.5-4.1-1.6c-1-1-1.5-2.8-1.5-5.3V47h-2.9v-3.3h2.9v-3.6l4.3-1.3v4.9h4.8V47z M161.6,30.1c-2.9,0-5.1-2-5.1-5.2
		c0-3.3,2.2-5.4,5.3-5.4c3,0,5,2.1,5,5.2C166.8,28.4,164.2,30.1,161.6,30.1z M182.1,60.9c-1.8,2-4.2,3-7.2,3c-2.9,0-5.2-1-6.9-2.9
		c-1.7-1.9-2.6-4.3-2.6-7.3c0-3.1,0.9-5.6,2.7-7.5c1.8-2,4.2-2.9,7.2-2.9c2.9,0,5.2,1,7,2.9c1.7,1.9,2.5,4.3,2.5,7.2
		C184.7,56.5,183.8,59,182.1,60.9z M186.6,19.7h1.4v-1.9l2.5-0.7v2.6h2.4v1.9h-2.4v4.5c0,1.3,0.3,1.9,1.3,1.9c0.5,0,0.7,0,1-0.1
		l0,1.9c-0.4,0.1-1.1,0.3-1.9,0.3c-1,0-1.7-0.3-2.2-0.8c-0.6-0.6-0.8-1.5-0.8-2.9v-4.8h-1.4V19.7z M197.9,47.6
		c-0.4-0.1-0.9-0.1-1.4-0.1c-1.5,0-2.7,0.6-3.6,1.7c-0.7,1-1.1,2.3-1.1,3.9v10.4h-4.4V49.9c0-2.3,0-4.3-0.1-6.2h3.8l0.2,3.8h0.1
		c0.5-1.3,1.2-2.3,2.2-3.1c1-0.7,2-1.1,3.2-1.1c0.4,0,0.8,0,1.1,0.1V47.6z M198.5,23.8v6.1H196V15h2.6v6h0c0.3-0.5,0.8-0.9,1.3-1.1
		c0.5-0.3,1.1-0.5,1.8-0.5c1.7,0,3.5,1.1,3.5,4.4v6h-2.6v-5.7c0-1.5-0.5-2.6-2-2.6c-1,0-1.7,0.7-2,1.4
		C198.5,23.2,198.5,23.5,198.5,23.8z M216.6,54.7h-13.2c0.1,1.9,0.7,3.4,1.9,4.5c1.1,0.9,2.5,1.4,4.3,1.4c2,0,3.7-0.3,5.3-0.9l0.7,3
		c-1.9,0.8-4.1,1.2-6.6,1.2c-3.1,0-5.5-0.9-7.2-2.7c-1.7-1.8-2.6-4.2-2.6-7.2c0-3,0.8-5.5,2.4-7.4c1.7-2.1,4-3.2,6.9-3.2
		c2.9,0,5,1.1,6.5,3.2c1.2,1.7,1.7,3.8,1.7,6.2C216.8,53.4,216.7,54.1,216.6,54.7z M126,21.5c-1,0-2,0.8-2.3,1.9
		c0,0.2-0.1,0.4-0.1,0.7v1.6c0,0.2,0,0.4,0.1,0.6c0.3,1,1.2,1.8,2.3,1.8c1.6,0,2.6-1.3,2.6-3.3C128.6,22.9,127.7,21.5,126,21.5z
		 M144.5,21.2c-1.6,0-2.3,1.4-2.4,2.5h4.5C146.6,22.8,146.2,21.2,144.5,21.2z M161.7,21.3c-1.8,0-2.5,1.8-2.5,3.5c0,2,1,3.4,2.5,3.4
		c1.5,0,2.5-1.4,2.5-3.5C164.2,23.2,163.5,21.3,161.7,21.3z M112.3,26.8c0,1,0.6,1.5,1.5,1.5c1,0,1.8-0.7,2-1.4
		c0.1-0.2,0.1-0.4,0.1-0.6v-1.4C114.1,24.9,112.3,25.3,112.3,26.8z M212.1,21.2c-1.6,0-2.3,1.4-2.4,2.5h4.5
		C214.3,22.8,213.9,21.2,212.1,21.2z"/>
</g>
</svg>
