<?xml version="1.0" encoding="utf-8"?>
<!-- Generator: Adobe Illustrator 18.1.0, SVG Export Plug-In . SVG Version: 6.00 Build 0)  -->
<svg version="1.1" id="Laag_1" xmlns="http://www.w3.org/2000/svg" xmlns:xlink="http://www.w3.org/1999/xlink" x="0px" y="0px"
	 viewBox="0 0 164.3 321.5" enable-background="new 0 0 164.3 321.5" xml:space="preserve">
<path fill="#75C0CC" d="M23.5,319.3c-11,0-20-9-20-20V23.2c0-11,9-20,20-20h117.8c11,0,20,9,20,20v276.1c0,11-9,20-20,20"/>
<g opacity="0.2">
	<path fill="#50706E" d="M120.1,263.2H43.2c-1.3,0-2.3,1-2.3,2.3s1,2.3,2.3,2.3h76.9c1.3,0,2.3-1,2.3-2.3S121.3,263.2,120.1,263.2z"
		/>
	<path fill="#50706E" d="M118.9,272.6H44.3c-1.3,0-2.3,1-2.3,2.3s1,2.3,2.3,2.3h74.6c1.3,0,2.3-1,2.3-2.3S120.2,272.6,118.9,272.6z"
		/>
	<path fill="#50706E" d="M115.8,284.2H47.5c-1.3,0-2.3,1-2.3,2.3s1,2.3,2.3,2.3h68.3c1.3,0,2.3-1,2.3-2.3S117.1,284.2,115.8,284.2z"
		/>
	<path fill="#50706E" d="M47.5,123.2c-1.3,0-2.3,1-2.3,2.3s1,2.3,2.3,2.3h68.3c1.3,0,2.3-1,2.3-2.3s-1-2.3-2.3-2.3H47.5z"/>
	<path fill="#50706E" d="M120.1,252H43.2c-1.3,0-2.3,1-2.3,2.3s1,2.3,2.3,2.3h76.9c1.3,0,2.3-1,2.3-2.3S121.3,252,120.1,252z"/>
	<path fill="#50706E" d="M121.4,239.4H41.9c-1.3,0-2.3,1-2.3,2.3c0,1.3,1,2.3,2.3,2.3h79.5c1.3,0,2.3-1,2.3-2.3
		C123.7,240.4,122.7,239.4,121.4,239.4z"/>
	<path fill="#50706E" d="M123.5,228.1H39.8c-1.3,0-2.3,1-2.3,2.3c0,1.3,1,2.3,2.3,2.3h83.7c1.3,0,2.3-1,2.3-2.3
		C125.8,229.1,124.8,228.1,123.5,228.1z"/>
	<path fill="#50706E" d="M132.8,107.6c0-1.3-1-2.3-2.3-2.3H32.8c-1.3,0-2.3,1-2.3,2.3s1,2.3,2.3,2.3h97.7
		C131.8,109.9,132.8,108.9,132.8,107.6z"/>
	<path fill="#50706E" d="M32.8,34.7h97.7c1.3,0,2.3-1,2.3-2.3s-1-2.3-2.3-2.3H32.8c-1.3,0-2.3,1-2.3,2.3S31.5,34.7,32.8,34.7z"/>
	<path fill="#50706E" d="M125.8,116.3c0-1.3-1-2.3-2.3-2.3H39.8c-1.3,0-2.3,1-2.3,2.3s1,2.3,2.3,2.3h83.7
		C124.8,118.6,125.8,117.5,125.8,116.3z"/>
	<path fill="#50706E" d="M139.1,215.5H24.2c-1.3,0-2.3,1-2.3,2.3c0,1.3,1,2.3,2.3,2.3h114.8c1.3,0,2.3-1,2.3-2.3
		C141.3,216.5,140.3,215.5,139.1,215.5z"/>
	<path fill="#50706E" d="M139.1,96H24.2C23,96,22,97,22,98.2s1,2.3,2.3,2.3h114.8c1.3,0,2.3-1,2.3-2.3S140.3,96,139.1,96z"/>
	<path fill="#50706E" d="M24.2,42h114.8c1.3,0,2.3-1,2.3-2.3s-1-2.3-2.3-2.3H24.2c-1.3,0-2.3,1-2.3,2.3S23,42,24.2,42z"/>
	<path fill="#50706E" d="M139.1,202.7H24.2c-1.3,0-2.3,1-2.3,2.3c0,1.3,1,2.3,2.3,2.3h114.8c1.3,0,2.3-1,2.3-2.3
		C141.3,203.7,140.3,202.7,139.1,202.7z"/>
	<path fill="#50706E" d="M139.1,190.4H24.2c-1.3,0-2.3,1-2.3,2.3c0,1.3,1,2.3,2.3,2.3h114.8c1.3,0,2.3-1,2.3-2.3
		C141.3,191.4,140.3,190.4,139.1,190.4z"/>
	<path fill="#50706E" d="M22,146.6c0,1.3,1,2.3,2.3,2.3h114.8c1.3,0,2.3-1,2.3-2.3c0-1.3-1-2.3-2.3-2.3H24.2
		C23,144.3,22,145.3,22,146.6z"/>
	<path fill="#50706E" d="M26,135.3c0,1.3,1,2.3,2.3,2.3h106.8c1.3,0,2.3-1,2.3-2.3c0-1.3-1-2.3-2.3-2.3H28.2
		C27,133,26,134.1,26,135.3z"/>
	<path fill="#50706E" d="M141.3,179.3H22c-1.3,0-2.3,1-2.3,2.3c0,1.3,1,2.3,2.3,2.3h119.3c1.3,0,2.3-1,2.3-2.3
		C143.6,180.3,142.5,179.3,141.3,179.3z"/>
	<path fill="#50706E" d="M22,91.2h119.3c1.3,0,2.3-1,2.3-2.3c0-1.3-1-2.3-2.3-2.3H22c-1.3,0-2.3,1-2.3,2.3
		C19.7,90.2,20.7,91.2,22,91.2z"/>
	<path fill="#50706E" d="M22,81.3h119.3c1.3,0,2.3-1,2.3-2.3s-1-2.3-2.3-2.3H22c-1.3,0-2.3,1-2.3,2.3S20.7,81.3,22,81.3z"/>
	<path fill="#50706E" d="M22,71.4h119.3c1.3,0,2.3-1,2.3-2.3s-1-2.3-2.3-2.3H22c-1.3,0-2.3,1-2.3,2.3S20.7,71.4,22,71.4z"/>
	<path fill="#50706E" d="M22,61.7h119.3c1.3,0,2.3-1,2.3-2.3s-1-2.3-2.3-2.3H22c-1.3,0-2.3,1-2.3,2.3S20.7,61.7,22,61.7z"/>
	<path fill="#50706E" d="M22,51.8h119.3c1.3,0,2.3-1,2.3-2.3s-1-2.3-2.3-2.3H22c-1.3,0-2.3,1-2.3,2.3S20.7,51.8,22,51.8z"/>
	<path fill="#50706E" d="M22,161.5h119.3c1.3,0,2.3-1,2.3-2.3s-1-2.3-2.3-2.3H22c-1.3,0-2.3,1-2.3,2.3S20.7,161.5,22,161.5z"/>
	<path fill="#50706E" d="M147,168.1H16.3c-1.3,0-2.3,1-2.3,2.3c0,1.3,1,2.3,2.3,2.3H147c1.3,0,2.3-1,2.3-2.3
		C149.3,169.1,148.3,168.1,147,168.1z"/>
	<path fill="#50706E" d="M103.3,293.2H59.9c-1.3,0-2.3,1-2.3,2.3s1,2.3,2.3,2.3h43.4c1.3,0,2.3-1,2.3-2.3S104.6,293.2,103.3,293.2z"
		/>
	<path fill="#50706E" d="M93.9,302.8H69.4c-1.3,0-2.3,1-2.3,2.3s1,2.3,2.3,2.3h24.4c1.3,0,2.3-1,2.3-2.3S95.1,302.8,93.9,302.8z"/>
	<path fill="#50706E" d="M47,26.9h69.2c1.3,0,2.3-1,2.3-2.3c0-1.3-1-2.3-2.3-2.3H47c-1.3,0-2.3,1-2.3,2.3
		C44.8,25.9,45.8,26.9,47,26.9z"/>
	<path fill="#50706E" d="M57.5,19.2h48.3c1.3,0,2.3-1,2.3-2.3c0-1.3-1-2.3-2.3-2.3H57.5c-1.3,0-2.3,1-2.3,2.3
		C55.2,18.2,56.3,19.2,57.5,19.2z"/>
</g>
<path fill="#4F463B" d="M142.7,321.5H21.6C9.7,321.5,0,311.9,0,300V21.6C0,9.7,9.7,0,21.6,0h121.1c11.9,0,21.6,9.7,21.6,21.6V300
	C164.3,311.9,154.6,321.5,142.7,321.5z M21.6,6.4c-8.4,0-15.2,6.8-15.2,15.2V300c0,8.4,6.8,15.2,15.2,15.2h121.1
	c8.4,0,15.2-6.8,15.2-15.2V21.6c0-8.4-6.8-15.2-15.2-15.2H21.6z"/>
<path fill="#75C0CC" stroke="#4F463B" stroke-width="4" stroke-linecap="round" stroke-linejoin="round" stroke-miterlimit="10" d="
	M145.3,189.5"/>
<path fill="#75C0CC" stroke="#4F463B" stroke-width="4" stroke-linecap="round" stroke-linejoin="round" stroke-miterlimit="10" d="
	M19.3,189.5"/>
</svg>
