<?xml version="1.0" encoding="utf-8"?>
<!-- Generator: Adobe Illustrator 18.1.0, SVG Export Plug-In . SVG Version: 6.00 Build 0)  -->
<svg version="1.1" id="Laag_1" xmlns="http://www.w3.org/2000/svg" xmlns:xlink="http://www.w3.org/1999/xlink" x="0px" y="0px"
	 viewBox="0 0 1280 1002.3" enable-background="new 0 0 1280 1002.3" xml:space="preserve">
<rect y="0" fill="#D15847" width="1280" height="973.2"/>
<path fill="#B59A76" d="M1227.7,29.2c-0.8,0-1.4-0.6-1.5-1.3c-0.1-1.1-0.6-1.9-1.4-2.5c-2.5-1.8-7.9-1.1-9.7-0.6
	c-0.8,0.2-1.6-0.3-1.8-1.1c-0.2-0.8,0.3-1.6,1.1-1.8c0.8-0.2,8.1-1.8,12.1,1.1c1.5,1.1,2.4,2.7,2.6,4.6c0.1,0.8-0.5,1.6-1.3,1.6
	C1227.8,29.2,1227.7,29.2,1227.7,29.2z"/>
<path fill="#B59A76" d="M1272.2,25.8c-0.5,0-1-0.2-1.3-0.7c-0.4-0.7-0.2-1.6,0.5-2.1c0.2-0.1,3.8-2.4,7.3-1.1
	c0.8,0.3,1.2,1.1,0.9,1.9c-0.3,0.8-1.1,1.2-1.9,0.9c-2.1-0.7-4.6,0.8-4.6,0.9C1272.7,25.7,1272.4,25.8,1272.2,25.8z"/>
<path fill="#B59A76" d="M1169.5,29.2c-0.8,0-1.4-0.6-1.5-1.3c-0.1-1.1-0.6-1.9-1.4-2.5c-2.5-1.8-7.9-1.1-9.7-0.6
	c-0.8,0.2-1.6-0.3-1.8-1.1c-0.2-0.8,0.3-1.6,1.1-1.8c0.8-0.2,8.1-1.8,12.1,1.1c1.5,1.1,2.4,2.7,2.6,4.6c0.1,0.8-0.5,1.6-1.3,1.6
	C1169.6,29.2,1169.5,29.2,1169.5,29.2z"/>
<path fill="#B59A76" d="M1228.8,34.8c-0.7,0-1.4-0.5-1.5-1.3l-0.2-1c-0.1-0.8,0.4-1.6,1.2-1.7c0.8-0.1,1.6,0.4,1.7,1.2l0.2,1
	c0.1,0.8-0.4,1.6-1.2,1.7C1228.9,34.8,1228.8,34.8,1228.8,34.8z"/>
<path fill="#B59A76" d="M1170.6,34.8c-0.7,0-1.4-0.5-1.5-1.3l-0.2-1c-0.1-0.8,0.4-1.6,1.2-1.7c0.8-0.1,1.6,0.4,1.7,1.2l0.2,1
	c0.1,0.8-0.4,1.6-1.2,1.7C1170.7,34.8,1170.7,34.8,1170.6,34.8z"/>
<path fill="#B59A76" d="M1111.3,29.2c-0.8,0-1.4-0.6-1.5-1.3c-0.1-1.1-0.6-1.9-1.4-2.5c-2.5-1.8-7.9-1.1-9.7-0.6
	c-0.8,0.2-1.6-0.3-1.8-1.1c-0.2-0.8,0.3-1.6,1.1-1.8c0.8-0.2,8.1-1.8,12.1,1.1c1.5,1.1,2.4,2.7,2.6,4.6c0.1,0.8-0.5,1.6-1.3,1.6
	C1111.5,29.2,1111.4,29.2,1111.3,29.2z"/>
<path fill="#B59A76" d="M1053.1,29.2c-0.8,0-1.4-0.6-1.5-1.3c-0.1-1.1-0.6-1.9-1.4-2.5c-2.5-1.8-7.9-1.1-9.7-0.6
	c-0.8,0.2-1.6-0.3-1.8-1.1c-0.2-0.8,0.3-1.6,1.1-1.8c0.8-0.2,8.1-1.8,12.1,1.1c1.5,1.1,2.4,2.7,2.6,4.6c0.1,0.8-0.5,1.6-1.3,1.6
	C1053.2,29.2,1053.2,29.2,1053.1,29.2z"/>
<path fill="#B59A76" d="M1112.4,34.8c-0.7,0-1.4-0.5-1.5-1.3l-0.2-1c-0.1-0.8,0.4-1.6,1.2-1.7c0.8-0.1,1.6,0.4,1.7,1.2l0.2,1
	c0.1,0.8-0.4,1.6-1.2,1.7C1112.6,34.8,1112.5,34.8,1112.4,34.8z"/>
<path fill="#B59A76" d="M1054.2,34.8c-0.7,0-1.4-0.5-1.5-1.3l-0.2-1c-0.1-0.8,0.4-1.6,1.2-1.7c0.8-0.1,1.6,0.4,1.7,1.2l0.2,1
	c0.1,0.8-0.4,1.6-1.2,1.7C1054.4,34.8,1054.3,34.8,1054.2,34.8z"/>
<path fill="#B59A76" d="M995.9,29.2c-0.8,0-1.4-0.6-1.5-1.3c-0.1-1.1-0.6-1.9-1.4-2.5c-2.5-1.8-7.9-1.1-9.7-0.6
	c-0.8,0.2-1.6-0.3-1.8-1.1c-0.2-0.8,0.3-1.6,1.1-1.8c0.8-0.2,8.1-1.8,12.1,1.1c1.5,1.1,2.4,2.7,2.6,4.6c0.1,0.8-0.5,1.6-1.3,1.6
	C996,29.2,995.9,29.2,995.9,29.2z"/>
<path fill="#B59A76" d="M937.7,29.2c-0.8,0-1.4-0.6-1.5-1.3c-0.1-1.1-0.6-1.9-1.4-2.5c-2.5-1.8-7.9-1.1-9.7-0.6
	c-0.8,0.2-1.6-0.3-1.8-1.1c-0.2-0.8,0.3-1.6,1.1-1.8c0.8-0.2,8.1-1.8,12.1,1.1c1.5,1.1,2.4,2.7,2.6,4.6c0.1,0.8-0.5,1.6-1.3,1.6
	C937.8,29.2,937.7,29.2,937.7,29.2z"/>
<path fill="#B59A76" d="M997,34.8c-0.7,0-1.4-0.5-1.5-1.3l-0.2-1c-0.1-0.8,0.4-1.6,1.2-1.7c0.8-0.1,1.6,0.4,1.7,1.2l0.2,1
	c0.1,0.8-0.4,1.6-1.2,1.7C997.1,34.8,997.1,34.8,997,34.8z"/>
<path fill="#B59A76" d="M938.8,34.8c-0.7,0-1.4-0.5-1.5-1.3l-0.2-1c-0.1-0.8,0.4-1.6,1.2-1.7c0.8-0.1,1.6,0.4,1.7,1.2l0.2,1
	c0.1,0.8-0.4,1.6-1.2,1.7C938.9,34.8,938.9,34.8,938.8,34.8z"/>
<path fill="#B59A76" d="M880.2,29.2c-0.8,0-1.4-0.6-1.5-1.3c-0.1-1.1-0.6-1.9-1.4-2.5c-2.5-1.8-7.9-1.1-9.7-0.6
	c-0.8,0.2-1.6-0.3-1.8-1.1c-0.2-0.8,0.3-1.6,1.1-1.8c0.8-0.2,8.1-1.8,12.1,1.1c1.5,1.1,2.4,2.7,2.6,4.6c0.1,0.8-0.5,1.6-1.3,1.6
	C880.3,29.2,880.2,29.2,880.2,29.2z"/>
<path fill="#B59A76" d="M821.9,29.2c-0.8,0-1.4-0.6-1.5-1.3c-0.1-1.1-0.6-1.9-1.4-2.5c-2.5-1.8-7.9-1.1-9.7-0.6
	c-0.8,0.2-1.6-0.3-1.8-1.1s0.3-1.6,1.1-1.8c0.8-0.2,8.1-1.8,12.1,1.1c1.5,1.1,2.4,2.7,2.6,4.6c0.1,0.8-0.5,1.6-1.3,1.6
	C822,29.2,822,29.2,821.9,29.2z"/>
<path fill="#B59A76" d="M881.2,34.8c-0.7,0-1.4-0.5-1.5-1.3l-0.2-1c-0.1-0.8,0.4-1.6,1.2-1.7c0.8-0.1,1.6,0.4,1.7,1.2l0.2,1
	c0.1,0.8-0.4,1.6-1.2,1.7C881.4,34.8,881.3,34.8,881.2,34.8z"/>
<path fill="#B59A76" d="M823,34.8c-0.7,0-1.4-0.5-1.5-1.3l-0.2-1c-0.1-0.8,0.4-1.6,1.2-1.7c0.8-0.1,1.6,0.4,1.7,1.2l0.2,1
	c0.1,0.8-0.4,1.6-1.2,1.7C823.2,34.8,823.1,34.8,823,34.8z"/>
<path fill="#B59A76" d="M764.9,29.2c-0.8,0-1.4-0.6-1.5-1.3c-0.1-1.1-0.6-1.9-1.4-2.5c-2.5-1.8-7.9-1.1-9.7-0.6
	c-0.8,0.2-1.6-0.3-1.8-1.1c-0.2-0.8,0.3-1.6,1.1-1.8c0.8-0.2,8.1-1.8,12.1,1.1c1.5,1.1,2.4,2.7,2.6,4.6c0.1,0.8-0.5,1.6-1.3,1.6
	C765,29.2,765,29.2,764.9,29.2z"/>
<path fill="#B59A76" d="M706.7,29.2c-0.8,0-1.4-0.6-1.5-1.3c-0.1-1.1-0.6-1.9-1.4-2.5c-2.5-1.8-7.9-1.1-9.7-0.6
	c-0.8,0.2-1.6-0.3-1.8-1.1c-0.2-0.8,0.3-1.6,1.1-1.8c0.8-0.2,8.1-1.8,12.1,1.1c1.5,1.1,2.4,2.7,2.6,4.6c0.1,0.8-0.5,1.6-1.3,1.6
	C706.8,29.2,706.7,29.2,706.7,29.2z"/>
<path fill="#B59A76" d="M766,34.8c-0.7,0-1.4-0.5-1.5-1.3l-0.2-1c-0.1-0.8,0.4-1.6,1.2-1.7c0.8-0.1,1.6,0.4,1.7,1.2l0.2,1
	c0.1,0.8-0.4,1.6-1.2,1.7C766.1,34.8,766.1,34.8,766,34.8z"/>
<path fill="#B59A76" d="M707.8,34.8c-0.7,0-1.4-0.5-1.5-1.3l-0.2-1c-0.1-0.8,0.4-1.6,1.2-1.7c0.8-0.1,1.6,0.4,1.7,1.2l0.2,1
	c0.1,0.8-0.4,1.6-1.2,1.7C708,34.8,707.9,34.8,707.8,34.8z"/>
<path fill="#B59A76" d="M649.9,34.8c-0.7,0-1.4-0.5-1.5-1.3l-0.2-1c-0.1-0.8,0.4-1.6,1.2-1.7c0.8-0.1,1.6,0.4,1.7,1.2l0.2,1
	c0.1,0.8-0.4,1.6-1.2,1.7C650,34.8,650,34.8,649.9,34.8z"/>
<path fill="#B59A76" d="M587.9,29.2c-0.8,0-1.4-0.6-1.5-1.3c-0.1-1.1-0.6-1.9-1.4-2.5c-2.5-1.8-7.9-1.1-9.7-0.6
	c-0.8,0.2-1.6-0.3-1.8-1.1c-0.2-0.8,0.3-1.6,1.1-1.8c0.8-0.2,8.1-1.8,12.1,1.1c1.5,1.1,2.4,2.7,2.6,4.6c0.1,0.8-0.5,1.6-1.3,1.6
	C588,29.2,587.9,29.2,587.9,29.2z"/>
<path fill="#B59A76" d="M529.6,29.2c-0.8,0-1.4-0.6-1.5-1.3c-0.1-1.1-0.6-1.9-1.4-2.5c-2.5-1.8-7.9-1.1-9.7-0.6
	c-0.8,0.2-1.6-0.3-1.8-1.1c-0.2-0.8,0.3-1.6,1.1-1.8c0.8-0.2,8.1-1.8,12.1,1.1c1.5,1.1,2.4,2.7,2.6,4.6c0.1,0.8-0.5,1.6-1.3,1.6
	C529.7,29.2,529.7,29.2,529.6,29.2z"/>
<path fill="#B59A76" d="M589,34.8c-0.7,0-1.4-0.5-1.5-1.3l-0.2-1c-0.1-0.8,0.4-1.6,1.2-1.7c0.8-0.1,1.6,0.4,1.7,1.2l0.2,1
	c0.1,0.8-0.4,1.6-1.2,1.7C589.1,34.8,589,34.8,589,34.8z"/>
<path fill="#B59A76" d="M530.8,34.8c-0.7,0-1.4-0.5-1.5-1.3l-0.2-1c-0.1-0.8,0.4-1.6,1.2-1.7c0.8-0.1,1.6,0.4,1.7,1.2l0.2,1
	c0.1,0.8-0.4,1.6-1.2,1.7C530.9,34.8,530.8,34.8,530.8,34.8z"/>
<path fill="#B59A76" d="M471.5,29.2c-0.8,0-1.4-0.6-1.5-1.3c-0.1-1.1-0.6-1.9-1.4-2.5c-2.5-1.8-7.9-1.1-9.7-0.6
	c-0.8,0.2-1.6-0.3-1.8-1.1c-0.2-0.8,0.3-1.6,1.1-1.8c0.8-0.2,8.1-1.8,12.1,1.1c1.5,1.1,2.4,2.7,2.6,4.6c0.1,0.8-0.5,1.6-1.3,1.6
	C471.6,29.2,471.6,29.2,471.5,29.2z"/>
<path fill="#B59A76" d="M413.3,29.2c-0.8,0-1.4-0.6-1.5-1.3c-0.1-1.1-0.6-1.9-1.4-2.5c-2.5-1.8-7.9-1.1-9.7-0.6
	c-0.8,0.2-1.6-0.3-1.8-1.1c-0.2-0.8,0.3-1.6,1.1-1.8c0.8-0.2,8.1-1.8,12.1,1.1c1.5,1.1,2.4,2.7,2.6,4.6c0.1,0.8-0.5,1.6-1.3,1.6
	C413.4,29.2,413.4,29.2,413.3,29.2z"/>
<path fill="#B59A76" d="M472.6,34.8c-0.7,0-1.4-0.5-1.5-1.3l-0.2-1c-0.1-0.8,0.4-1.6,1.2-1.7c0.8-0.1,1.6,0.4,1.7,1.2l0.2,1
	c0.1,0.8-0.4,1.6-1.2,1.7C472.8,34.8,472.7,34.8,472.6,34.8z"/>
<path fill="#B59A76" d="M414.4,34.8c-0.7,0-1.4-0.5-1.5-1.3l-0.2-1c-0.1-0.8,0.4-1.6,1.2-1.7c0.8-0.1,1.6,0.4,1.7,1.2l0.2,1
	c0.1,0.8-0.4,1.6-1.2,1.7C414.6,34.8,414.5,34.8,414.4,34.8z"/>
<path fill="#B59A76" d="M356.1,29.2c-0.8,0-1.4-0.6-1.5-1.3c-0.1-1.1-0.6-1.9-1.4-2.5c-2.5-1.8-7.9-1.1-9.7-0.6
	c-0.8,0.2-1.6-0.3-1.8-1.1c-0.2-0.8,0.3-1.6,1.1-1.8c0.8-0.2,8.1-1.8,12.1,1.1c1.5,1.1,2.4,2.7,2.6,4.6c0.1,0.8-0.5,1.6-1.3,1.6
	C356.2,29.2,356.1,29.2,356.1,29.2z"/>
<path fill="#B59A76" d="M297.9,29.2c-0.8,0-1.4-0.6-1.5-1.3c-0.1-1.1-0.6-1.9-1.4-2.5c-2.5-1.8-7.9-1.1-9.7-0.6
	c-0.8,0.2-1.6-0.3-1.8-1.1c-0.2-0.8,0.3-1.6,1.1-1.8c0.8-0.2,8.1-1.8,12.1,1.1c1.5,1.1,2.4,2.7,2.6,4.6c0.1,0.8-0.5,1.6-1.3,1.6
	C298,29.2,297.9,29.2,297.9,29.2z"/>
<path fill="#B59A76" d="M357.2,34.8c-0.7,0-1.4-0.5-1.5-1.3l-0.2-1c-0.1-0.8,0.4-1.6,1.2-1.7c0.8-0.1,1.6,0.4,1.7,1.2l0.2,1
	c0.1,0.8-0.4,1.6-1.2,1.7C357.3,34.8,357.2,34.8,357.2,34.8z"/>
<path fill="#B59A76" d="M299,34.8c-0.7,0-1.4-0.5-1.5-1.3l-0.2-1c-0.1-0.8,0.4-1.6,1.2-1.7c0.8-0.1,1.6,0.4,1.7,1.2l0.2,1
	c0.1,0.8-0.4,1.6-1.2,1.7C299.1,34.8,299.1,34.8,299,34.8z"/>
<path fill="#B59A76" d="M240.4,29.2c-0.8,0-1.4-0.6-1.5-1.3c-0.1-1.1-0.6-1.9-1.4-2.5c-2.5-1.8-7.9-1.1-9.7-0.6
	c-0.8,0.2-1.6-0.3-1.8-1.1c-0.2-0.8,0.3-1.6,1.1-1.8c0.8-0.2,8.1-1.8,12.1,1.1c1.5,1.1,2.4,2.7,2.6,4.6c0.1,0.8-0.5,1.6-1.3,1.6
	C240.5,29.2,240.4,29.2,240.4,29.2z"/>
<path fill="#B59A76" d="M182.1,29.2c-0.8,0-1.4-0.6-1.5-1.3c-0.1-1.1-0.6-1.9-1.4-2.5c-2.5-1.8-7.9-1.1-9.7-0.6
	c-0.8,0.2-1.6-0.3-1.8-1.1s0.3-1.6,1.1-1.8c0.8-0.2,8.1-1.8,12.1,1.1c1.5,1.1,2.4,2.7,2.6,4.6c0.1,0.8-0.5,1.6-1.3,1.6
	C182.2,29.2,182.2,29.2,182.1,29.2z"/>
<path fill="#B59A76" d="M241.4,34.8c-0.7,0-1.4-0.5-1.5-1.3l-0.2-1c-0.1-0.8,0.4-1.6,1.2-1.7c0.8-0.1,1.6,0.4,1.7,1.2l0.2,1
	c0.1,0.8-0.4,1.6-1.2,1.7C241.6,34.8,241.5,34.8,241.4,34.8z"/>
<path fill="#B59A76" d="M183.2,34.8c-0.7,0-1.4-0.5-1.5-1.3l-0.2-1c-0.1-0.8,0.4-1.6,1.2-1.7c0.8-0.1,1.6,0.4,1.7,1.2l0.2,1
	c0.1,0.8-0.4,1.6-1.2,1.7C183.4,34.8,183.3,34.8,183.2,34.8z"/>
<path fill="#B59A76" d="M125.1,29.2c-0.8,0-1.4-0.6-1.5-1.3c-0.1-1.1-0.6-1.9-1.4-2.5c-2.5-1.8-7.9-1.1-9.7-0.6
	c-0.8,0.2-1.6-0.3-1.8-1.1c-0.2-0.8,0.3-1.6,1.1-1.8c0.8-0.2,8.1-1.8,12.1,1.1c1.5,1.1,2.4,2.7,2.6,4.6c0.1,0.8-0.5,1.6-1.3,1.6
	C125.2,29.2,125.1,29.2,125.1,29.2z"/>
<path fill="#B59A76" d="M66.9,29.2c-0.8,0-1.4-0.6-1.5-1.3c-0.1-1.1-0.6-1.9-1.4-2.5c-2.5-1.8-7.9-1.1-9.7-0.6
	c-0.8,0.2-1.6-0.3-1.8-1.1c-0.2-0.8,0.3-1.6,1.1-1.8c0.8-0.2,8.1-1.8,12.1,1.1c1.5,1.1,2.4,2.7,2.6,4.6c0.1,0.8-0.5,1.6-1.3,1.6
	C67,29.2,66.9,29.2,66.9,29.2z"/>
<path fill="#B59A76" d="M126.2,34.8c-0.7,0-1.4-0.5-1.5-1.3l-0.2-1c-0.1-0.8,0.4-1.6,1.2-1.7c0.8-0.1,1.6,0.4,1.7,1.2l0.2,1
	c0.1,0.8-0.4,1.6-1.2,1.7C126.3,34.8,126.3,34.8,126.2,34.8z"/>
<path fill="#B59A76" d="M68,34.8c-0.7,0-1.4-0.5-1.5-1.3l-0.2-1c-0.1-0.8,0.4-1.6,1.2-1.7c0.8-0.1,1.6,0.4,1.7,1.2l0.2,1
	c0.1,0.8-0.4,1.6-1.2,1.7C68.1,34.8,68.1,34.8,68,34.8z"/>
<path fill="#B59A76" d="M8.9,29.2c-0.7,0-1.4-0.5-1.5-1.3c-0.5-3.3-5.7-4.2-5.7-4.2c-0.8-0.1-1.4-0.9-1.2-1.7
	c0.1-0.8,0.9-1.4,1.7-1.2c0.3,0,7.3,1.2,8.2,6.7c0.1,0.8-0.4,1.6-1.2,1.7C9.1,29.2,9,29.2,8.9,29.2z"/>
<path fill="#B59A76" d="M10.1,34.8c-0.7,0-1.4-0.5-1.5-1.3l-0.2-1c-0.1-0.8,0.4-1.6,1.2-1.7c0.8-0.1,1.6,0.4,1.7,1.2l0.2,1
	c0.1,0.8-0.4,1.6-1.2,1.7C10.2,34.8,10.2,34.8,10.1,34.8z"/>
<path fill="#B59A76" d="M647.7,29.2c-0.8,0-1.4-0.6-1.5-1.3c-0.1-1.1-0.6-1.9-1.4-2.5c-2.5-1.8-7.9-1.1-9.7-0.6
	c-0.8,0.2-1.6-0.3-1.8-1.1c-0.2-0.8,0.3-1.6,1.1-1.8c0.8-0.2,8.1-1.8,12.1,1.1c1.5,1.1,2.4,2.7,2.6,4.6c0.1,0.8-0.5,1.6-1.3,1.6
	C647.8,29.2,647.7,29.2,647.7,29.2z"/>
<polygon fill="#D15847" points="929.7,973.7 918.8,976.1 914.3,987.7 887.6,987.3 879.4,973.9 862.6,975.2 856.8,986.8 830.5,986.8 
	821,974.3 804.7,975.7 798.8,987.3 772.5,987.7 763.9,973.9 746.7,975.2 740.4,987.7 714.5,987.7 707.7,974.8 689.2,975.2 
	682.8,986.4 655.7,987.3 648,973.9 639.8,973.2 639.8,599.5 929.7,599.5 "/>
<polygon fill="#D15847" points="1219.6,973.9 1208.7,976.1 1204.2,987.7 1177.4,987.3 1169.3,973.9 1152.5,975.2 1146.6,986.8 
	1120.4,986.8 1110.9,974.3 1094.6,975.7 1088.7,987.3 1062.4,987.7 1053.8,973.9 1036.6,975.2 1030.2,987.7 1004.4,987.7 
	997.6,974.8 979.1,975.2 972.7,986.4 945.5,987.3 937.8,973.9 920.7,973.9 920.7,599.5 1219.6,599.5 "/>
<polyline fill="#D15847" points="1268.9,975.2 1262.6,986.4 1235.4,987.3 1227.7,973.9 1218.6,973.2 1218.6,599.5 1279.8,599.5 
	1279.8,973.9 "/>
<polygon fill="#D15847" points="289.9,973.7 279,976.1 274.5,987.7 247.8,987.3 239.6,973.9 222.8,975.2 217,986.8 190.7,986.8 
	181.2,974.3 164.9,975.7 159,987.3 132.7,987.7 124.1,973.9 106.9,975.2 100.6,987.7 74.7,987.7 67.9,974.8 49.4,975.2 43,986.4 
	15.9,987.3 8.2,973.9 0,973.2 0,599.5 289.9,599.5 "/>
<polygon fill="#D15847" points="579.8,973.9 568.9,976.1 564.4,987.7 537.6,987.3 529.5,973.9 512.7,975.2 506.8,986.8 480.6,986.8 
	471.1,974.3 454.7,975.7 448.9,987.3 422.6,987.7 414,973.9 396.8,975.2 390.4,987.7 364.6,987.7 357.8,974.8 339.2,975.2 
	332.9,986.4 305.7,987.3 298,973.9 280.9,973.9 280.9,599.5 579.8,599.5 "/>
<polyline fill="#D15847" points="629.1,975.2 622.8,986.4 595.6,987.3 587.9,973.9 578.8,973.2 578.8,599.5 640,599.5 640,973.9 "/>
<path fill="#B59A76" d="M1227.7,987c-0.8,0-1.4-0.6-1.5-1.3c-0.1-1.1-0.6-1.9-1.4-2.5c-2.5-1.8-7.9-1.1-9.7-0.6
	c-0.8,0.2-1.6-0.3-1.8-1.1c-0.2-0.8,0.3-1.6,1.1-1.8c0.8-0.2,8.1-1.8,12.1,1.1c1.5,1.1,2.4,2.7,2.6,4.6c0.1,0.8-0.5,1.6-1.3,1.6
	C1227.8,987,1227.7,987,1227.7,987z"/>
<path fill="#B59A76" d="M1272.2,983.6c-0.5,0-1-0.2-1.3-0.7c-0.4-0.7-0.2-1.6,0.5-2.1c0.2-0.1,3.8-2.4,7.3-1.1
	c0.8,0.3,1.2,1.1,0.9,1.9c-0.3,0.8-1.1,1.2-1.9,0.9c-2.1-0.7-4.6,0.8-4.6,0.9C1272.7,983.5,1272.4,983.6,1272.2,983.6z"/>
<path fill="#B59A76" d="M1169.5,987c-0.8,0-1.4-0.6-1.5-1.3c-0.1-1.1-0.6-1.9-1.4-2.5c-2.5-1.8-7.9-1.1-9.7-0.6
	c-0.8,0.2-1.6-0.3-1.8-1.1c-0.2-0.8,0.3-1.6,1.1-1.8c0.8-0.2,8.1-1.8,12.1,1.1c1.5,1.1,2.4,2.7,2.6,4.6c0.1,0.8-0.5,1.6-1.3,1.6
	C1169.6,987,1169.5,987,1169.5,987z"/>
<path fill="#B59A76" d="M1228.8,992.6c-0.7,0-1.4-0.5-1.5-1.3l-0.2-1c-0.1-0.8,0.4-1.6,1.2-1.7c0.8-0.1,1.6,0.4,1.7,1.2l0.2,1
	c0.1,0.8-0.4,1.6-1.2,1.7C1228.9,992.6,1228.8,992.6,1228.8,992.6z"/>
<path fill="#B59A76" d="M1170.6,992.6c-0.7,0-1.4-0.5-1.5-1.3l-0.2-1c-0.1-0.8,0.4-1.6,1.2-1.7c0.8-0.1,1.6,0.4,1.7,1.2l0.2,1
	c0.1,0.8-0.4,1.6-1.2,1.7C1170.7,992.6,1170.7,992.6,1170.6,992.6z"/>
<path fill="#B59A76" d="M1111.3,987c-0.8,0-1.4-0.6-1.5-1.3c-0.1-1.1-0.6-1.9-1.4-2.5c-2.5-1.8-7.9-1.1-9.7-0.6
	c-0.8,0.2-1.6-0.3-1.8-1.1c-0.2-0.8,0.3-1.6,1.1-1.8c0.8-0.2,8.1-1.8,12.1,1.1c1.5,1.1,2.4,2.7,2.6,4.6c0.1,0.8-0.5,1.6-1.3,1.6
	C1111.5,987,1111.4,987,1111.3,987z"/>
<path fill="#B59A76" d="M1053.1,987c-0.8,0-1.4-0.6-1.5-1.3c-0.1-1.1-0.6-1.9-1.4-2.5c-2.5-1.8-7.9-1.1-9.7-0.6
	c-0.8,0.2-1.6-0.3-1.8-1.1c-0.2-0.8,0.3-1.6,1.1-1.8c0.8-0.2,8.1-1.8,12.1,1.1c1.5,1.1,2.4,2.7,2.6,4.6c0.1,0.8-0.5,1.6-1.3,1.6
	C1053.2,987,1053.2,987,1053.1,987z"/>
<path fill="#B59A76" d="M1112.4,992.6c-0.7,0-1.4-0.5-1.5-1.3l-0.2-1c-0.1-0.8,0.4-1.6,1.2-1.7c0.8-0.1,1.6,0.4,1.7,1.2l0.2,1
	c0.1,0.8-0.4,1.6-1.2,1.7C1112.6,992.6,1112.5,992.6,1112.4,992.6z"/>
<path fill="#B59A76" d="M1054.2,992.6c-0.7,0-1.4-0.5-1.5-1.3l-0.2-1c-0.1-0.8,0.4-1.6,1.2-1.7c0.8-0.1,1.6,0.4,1.7,1.2l0.2,1
	c0.1,0.8-0.4,1.6-1.2,1.7C1054.4,992.6,1054.3,992.6,1054.2,992.6z"/>
<path fill="#B59A76" d="M995.9,987c-0.8,0-1.4-0.6-1.5-1.3c-0.1-1.1-0.6-1.9-1.4-2.5c-2.5-1.8-7.9-1.1-9.7-0.6
	c-0.8,0.2-1.6-0.3-1.8-1.1c-0.2-0.8,0.3-1.6,1.1-1.8c0.8-0.2,8.1-1.8,12.1,1.1c1.5,1.1,2.4,2.7,2.6,4.6c0.1,0.8-0.5,1.6-1.3,1.6
	C996,987,995.9,987,995.9,987z"/>
<path fill="#B59A76" d="M937.7,987c-0.8,0-1.4-0.6-1.5-1.3c-0.1-1.1-0.6-1.9-1.4-2.5c-2.5-1.8-7.9-1.1-9.7-0.6
	c-0.8,0.2-1.6-0.3-1.8-1.1c-0.2-0.8,0.3-1.6,1.1-1.8c0.8-0.2,8.1-1.8,12.1,1.1c1.5,1.1,2.4,2.7,2.6,4.6c0.1,0.8-0.5,1.6-1.3,1.6
	C937.8,987,937.7,987,937.7,987z"/>
<path fill="#B59A76" d="M997,992.6c-0.7,0-1.4-0.5-1.5-1.3l-0.2-1c-0.1-0.8,0.4-1.6,1.2-1.7c0.8-0.1,1.6,0.4,1.7,1.2l0.2,1
	c0.1,0.8-0.4,1.6-1.2,1.7C997.1,992.6,997.1,992.6,997,992.6z"/>
<path fill="#B59A76" d="M938.8,992.6c-0.7,0-1.4-0.5-1.5-1.3l-0.2-1c-0.1-0.8,0.4-1.6,1.2-1.7c0.8-0.1,1.6,0.4,1.7,1.2l0.2,1
	c0.1,0.8-0.4,1.6-1.2,1.7C938.9,992.6,938.9,992.6,938.8,992.6z"/>
<path fill="#B59A76" d="M880.2,987c-0.8,0-1.4-0.6-1.5-1.3c-0.1-1.1-0.6-1.9-1.4-2.5c-2.5-1.8-7.9-1.1-9.7-0.6
	c-0.8,0.2-1.6-0.3-1.8-1.1c-0.2-0.8,0.3-1.6,1.1-1.8c0.8-0.2,8.1-1.8,12.1,1.1c1.5,1.1,2.4,2.7,2.6,4.6c0.1,0.8-0.5,1.6-1.3,1.6
	C880.3,987,880.2,987,880.2,987z"/>
<path fill="#B59A76" d="M821.9,987c-0.8,0-1.4-0.6-1.5-1.3c-0.1-1.1-0.6-1.9-1.4-2.5c-2.5-1.8-7.9-1.1-9.7-0.6
	c-0.8,0.2-1.6-0.3-1.8-1.1s0.3-1.6,1.1-1.8c0.8-0.2,8.1-1.8,12.1,1.1c1.5,1.1,2.4,2.7,2.6,4.6c0.1,0.8-0.5,1.6-1.3,1.6
	C822,987,822,987,821.9,987z"/>
<path fill="#B59A76" d="M881.2,992.6c-0.7,0-1.4-0.5-1.5-1.3l-0.2-1c-0.1-0.8,0.4-1.6,1.2-1.7c0.8-0.1,1.6,0.4,1.7,1.2l0.2,1
	c0.1,0.8-0.4,1.6-1.2,1.7C881.4,992.6,881.3,992.6,881.2,992.6z"/>
<path fill="#B59A76" d="M823,992.6c-0.7,0-1.4-0.5-1.5-1.3l-0.2-1c-0.1-0.8,0.4-1.6,1.2-1.7c0.8-0.1,1.6,0.4,1.7,1.2l0.2,1
	c0.1,0.8-0.4,1.6-1.2,1.7C823.2,992.6,823.1,992.6,823,992.6z"/>
<path fill="#B59A76" d="M764.9,987c-0.8,0-1.4-0.6-1.5-1.3c-0.1-1.1-0.6-1.9-1.4-2.5c-2.5-1.8-7.9-1.1-9.7-0.6
	c-0.8,0.2-1.6-0.3-1.8-1.1c-0.2-0.8,0.3-1.6,1.1-1.8c0.8-0.2,8.1-1.8,12.1,1.1c1.5,1.1,2.4,2.7,2.6,4.6c0.1,0.8-0.5,1.6-1.3,1.6
	C765,987,765,987,764.9,987z"/>
<path fill="#B59A76" d="M706.7,987c-0.8,0-1.4-0.6-1.5-1.3c-0.1-1.1-0.6-1.9-1.4-2.5c-2.5-1.8-7.9-1.1-9.7-0.6
	c-0.8,0.2-1.6-0.3-1.8-1.1c-0.2-0.8,0.3-1.6,1.1-1.8c0.8-0.2,8.1-1.8,12.1,1.1c1.5,1.1,2.4,2.7,2.6,4.6c0.1,0.8-0.5,1.6-1.3,1.6
	C706.8,987,706.7,987,706.7,987z"/>
<path fill="#B59A76" d="M766,992.6c-0.7,0-1.4-0.5-1.5-1.3l-0.2-1c-0.1-0.8,0.4-1.6,1.2-1.7c0.8-0.1,1.6,0.4,1.7,1.2l0.2,1
	c0.1,0.8-0.4,1.6-1.2,1.7C766.1,992.6,766.1,992.6,766,992.6z"/>
<path fill="#B59A76" d="M707.8,992.6c-0.7,0-1.4-0.5-1.5-1.3l-0.2-1c-0.1-0.8,0.4-1.6,1.2-1.7c0.8-0.1,1.6,0.4,1.7,1.2l0.2,1
	c0.1,0.8-0.4,1.6-1.2,1.7C708,992.6,707.9,992.6,707.8,992.6z"/>
<path fill="#B59A76" d="M649.9,992.6c-0.7,0-1.4-0.5-1.5-1.3l-0.2-1c-0.1-0.8,0.4-1.6,1.2-1.7c0.8-0.1,1.6,0.4,1.7,1.2l0.2,1
	c0.1,0.8-0.4,1.6-1.2,1.7C650,992.6,650,992.6,649.9,992.6z"/>
<path fill="#B59A76" d="M587.9,987c-0.8,0-1.4-0.6-1.5-1.3c-0.1-1.1-0.6-1.9-1.4-2.5c-2.5-1.8-7.9-1.1-9.7-0.6
	c-0.8,0.2-1.6-0.3-1.8-1.1c-0.2-0.8,0.3-1.6,1.1-1.8c0.8-0.2,8.1-1.8,12.1,1.1c1.5,1.1,2.4,2.7,2.6,4.6c0.1,0.8-0.5,1.6-1.3,1.6
	C588,987,587.9,987,587.9,987z"/>
<path fill="#B59A76" d="M529.6,987c-0.8,0-1.4-0.6-1.5-1.3c-0.1-1.1-0.6-1.9-1.4-2.5c-2.5-1.8-7.9-1.1-9.7-0.6
	c-0.8,0.2-1.6-0.3-1.8-1.1c-0.2-0.8,0.3-1.6,1.1-1.8c0.8-0.2,8.1-1.8,12.1,1.1c1.5,1.1,2.4,2.7,2.6,4.6c0.1,0.8-0.5,1.6-1.3,1.6
	C529.7,987,529.7,987,529.6,987z"/>
<path fill="#B59A76" d="M589,992.6c-0.7,0-1.4-0.5-1.5-1.3l-0.2-1c-0.1-0.8,0.4-1.6,1.2-1.7c0.8-0.1,1.6,0.4,1.7,1.2l0.2,1
	c0.1,0.8-0.4,1.6-1.2,1.7C589.1,992.6,589,992.6,589,992.6z"/>
<path fill="#B59A76" d="M530.8,992.6c-0.7,0-1.4-0.5-1.5-1.3l-0.2-1c-0.1-0.8,0.4-1.6,1.2-1.7c0.8-0.1,1.6,0.4,1.7,1.2l0.2,1
	c0.1,0.8-0.4,1.6-1.2,1.7C530.9,992.6,530.8,992.6,530.8,992.6z"/>
<path fill="#B59A76" d="M471.5,987c-0.8,0-1.4-0.6-1.5-1.3c-0.1-1.1-0.6-1.9-1.4-2.5c-2.5-1.8-7.9-1.1-9.7-0.6
	c-0.8,0.2-1.6-0.3-1.8-1.1c-0.2-0.8,0.3-1.6,1.1-1.8c0.8-0.2,8.1-1.8,12.1,1.1c1.5,1.1,2.4,2.7,2.6,4.6c0.1,0.8-0.5,1.6-1.3,1.6
	C471.6,987,471.6,987,471.5,987z"/>
<path fill="#B59A76" d="M413.3,987c-0.8,0-1.4-0.6-1.5-1.3c-0.1-1.1-0.6-1.9-1.4-2.5c-2.5-1.8-7.9-1.1-9.7-0.6
	c-0.8,0.2-1.6-0.3-1.8-1.1c-0.2-0.8,0.3-1.6,1.1-1.8c0.8-0.2,8.1-1.8,12.1,1.1c1.5,1.1,2.4,2.7,2.6,4.6c0.1,0.8-0.5,1.6-1.3,1.6
	C413.4,987,413.4,987,413.3,987z"/>
<path fill="#B59A76" d="M472.6,992.6c-0.7,0-1.4-0.5-1.5-1.3l-0.2-1c-0.1-0.8,0.4-1.6,1.2-1.7c0.8-0.1,1.6,0.4,1.7,1.2l0.2,1
	c0.1,0.8-0.4,1.6-1.2,1.7C472.8,992.6,472.7,992.6,472.6,992.6z"/>
<path fill="#B59A76" d="M414.4,992.6c-0.7,0-1.4-0.5-1.5-1.3l-0.2-1c-0.1-0.8,0.4-1.6,1.2-1.7c0.8-0.1,1.6,0.4,1.7,1.2l0.2,1
	c0.1,0.8-0.4,1.6-1.2,1.7C414.6,992.6,414.5,992.6,414.4,992.6z"/>
<path fill="#B59A76" d="M356.1,987c-0.8,0-1.4-0.6-1.5-1.3c-0.1-1.1-0.6-1.9-1.4-2.5c-2.5-1.8-7.9-1.1-9.7-0.6
	c-0.8,0.2-1.6-0.3-1.8-1.1c-0.2-0.8,0.3-1.6,1.1-1.8c0.8-0.2,8.1-1.8,12.1,1.1c1.5,1.1,2.4,2.7,2.6,4.6c0.1,0.8-0.5,1.6-1.3,1.6
	C356.2,987,356.1,987,356.1,987z"/>
<path fill="#B59A76" d="M297.9,987c-0.8,0-1.4-0.6-1.5-1.3c-0.1-1.1-0.6-1.9-1.4-2.5c-2.5-1.8-7.9-1.1-9.7-0.6
	c-0.8,0.2-1.6-0.3-1.8-1.1c-0.2-0.8,0.3-1.6,1.1-1.8c0.8-0.2,8.1-1.8,12.1,1.1c1.5,1.1,2.4,2.7,2.6,4.6c0.1,0.8-0.5,1.6-1.3,1.6
	C298,987,297.9,987,297.9,987z"/>
<path fill="#B59A76" d="M357.2,992.6c-0.7,0-1.4-0.5-1.5-1.3l-0.2-1c-0.1-0.8,0.4-1.6,1.2-1.7c0.8-0.1,1.6,0.4,1.7,1.2l0.2,1
	c0.1,0.8-0.4,1.6-1.2,1.7C357.3,992.6,357.2,992.6,357.2,992.6z"/>
<path fill="#B59A76" d="M299,992.6c-0.7,0-1.4-0.5-1.5-1.3l-0.2-1c-0.1-0.8,0.4-1.6,1.2-1.7c0.8-0.1,1.6,0.4,1.7,1.2l0.2,1
	c0.1,0.8-0.4,1.6-1.2,1.7C299.1,992.6,299.1,992.6,299,992.6z"/>
<path fill="#B59A76" d="M240.4,987c-0.8,0-1.4-0.6-1.5-1.3c-0.1-1.1-0.6-1.9-1.4-2.5c-2.5-1.8-7.9-1.1-9.7-0.6
	c-0.8,0.2-1.6-0.3-1.8-1.1c-0.2-0.8,0.3-1.6,1.1-1.8c0.8-0.2,8.1-1.8,12.1,1.1c1.5,1.1,2.4,2.7,2.6,4.6c0.1,0.8-0.5,1.6-1.3,1.6
	C240.5,987,240.4,987,240.4,987z"/>
<path fill="#B59A76" d="M182.1,987c-0.8,0-1.4-0.6-1.5-1.3c-0.1-1.1-0.6-1.9-1.4-2.5c-2.5-1.8-7.9-1.1-9.7-0.6
	c-0.8,0.2-1.6-0.3-1.8-1.1s0.3-1.6,1.1-1.8c0.8-0.2,8.1-1.8,12.1,1.1c1.5,1.1,2.4,2.7,2.6,4.6c0.1,0.8-0.5,1.6-1.3,1.6
	C182.2,987,182.2,987,182.1,987z"/>
<path fill="#B59A76" d="M241.4,992.6c-0.7,0-1.4-0.5-1.5-1.3l-0.2-1c-0.1-0.8,0.4-1.6,1.2-1.7c0.8-0.1,1.6,0.4,1.7,1.2l0.2,1
	c0.1,0.8-0.4,1.6-1.2,1.7C241.6,992.6,241.5,992.6,241.4,992.6z"/>
<path fill="#B59A76" d="M183.2,992.6c-0.7,0-1.4-0.5-1.5-1.3l-0.2-1c-0.1-0.8,0.4-1.6,1.2-1.7c0.8-0.1,1.6,0.4,1.7,1.2l0.2,1
	c0.1,0.8-0.4,1.6-1.2,1.7C183.4,992.6,183.3,992.6,183.2,992.6z"/>
<path fill="#B59A76" d="M125.1,987c-0.8,0-1.4-0.6-1.5-1.3c-0.1-1.1-0.6-1.9-1.4-2.5c-2.5-1.8-7.9-1.1-9.7-0.6
	c-0.8,0.2-1.6-0.3-1.8-1.1c-0.2-0.8,0.3-1.6,1.1-1.8c0.8-0.2,8.1-1.8,12.1,1.1c1.5,1.1,2.4,2.7,2.6,4.6c0.1,0.8-0.5,1.6-1.3,1.6
	C125.2,987,125.1,987,125.1,987z"/>
<path fill="#B59A76" d="M66.9,987c-0.8,0-1.4-0.6-1.5-1.3c-0.1-1.1-0.6-1.9-1.4-2.5c-2.5-1.8-7.9-1.1-9.7-0.6
	c-0.8,0.2-1.6-0.3-1.8-1.1c-0.2-0.8,0.3-1.6,1.1-1.8c0.8-0.2,8.1-1.8,12.1,1.1c1.5,1.1,2.4,2.7,2.6,4.6c0.1,0.8-0.5,1.6-1.3,1.6
	C67,987,66.9,987,66.9,987z"/>
<path fill="#B59A76" d="M126.2,992.6c-0.7,0-1.4-0.5-1.5-1.3l-0.2-1c-0.1-0.8,0.4-1.6,1.2-1.7c0.8-0.1,1.6,0.4,1.7,1.2l0.2,1
	c0.1,0.8-0.4,1.6-1.2,1.7C126.3,992.6,126.3,992.6,126.2,992.6z"/>
<path fill="#B59A76" d="M68,992.6c-0.7,0-1.4-0.5-1.5-1.3l-0.2-1c-0.1-0.8,0.4-1.6,1.2-1.7c0.8-0.1,1.6,0.4,1.7,1.2l0.2,1
	c0.1,0.8-0.4,1.6-1.2,1.7C68.1,992.6,68.1,992.6,68,992.6z"/>
<path fill="#B59A76" d="M8.9,987c-0.7,0-1.4-0.5-1.5-1.3c-0.5-3.3-5.7-4.2-5.7-4.2c-0.8-0.1-1.4-0.9-1.2-1.7
	c0.1-0.8,0.9-1.4,1.7-1.2c0.3,0,7.3,1.2,8.2,6.7c0.1,0.8-0.4,1.6-1.2,1.7C9.1,987,9,987,8.9,987z"/>
<path fill="#B59A76" d="M10.1,992.6c-0.7,0-1.4-0.5-1.5-1.3l-0.2-1c-0.1-0.8,0.4-1.6,1.2-1.7c0.8-0.1,1.6,0.4,1.7,1.2l0.2,1
	c0.1,0.8-0.4,1.6-1.2,1.7C10.2,992.6,10.2,992.6,10.1,992.6z"/>
<path fill="#B59A76" d="M647.7,987c-0.8,0-1.4-0.6-1.5-1.3c-0.1-1.1-0.6-1.9-1.4-2.5c-2.5-1.8-7.9-1.1-9.7-0.6
	c-0.8,0.2-1.6-0.3-1.8-1.1c-0.2-0.8,0.3-1.6,1.1-1.8c0.8-0.2,8.1-1.8,12.1,1.1c1.5,1.1,2.4,2.7,2.6,4.6c0.1,0.8-0.5,1.6-1.3,1.6
	C647.8,987,647.7,987,647.7,987z"/>
<g>
	<path fill="#D15847" d="M43.8,986.4c0,6.6-5.9,12.5-13.1,12.5H28c-7.2,0-13.1-5.8-13.1-12.5"/>
	<path fill="#4F463B" d="M30.7,1002.3H28c-9,0-16.6-7.3-16.6-16c0-1.9,1.6-3.5,3.5-3.5s3.5,1.6,3.5,3.5c0,4.8,4.5,9,9.6,9h2.8
		c5.1,0,9.6-4.2,9.6-9c0-1.9,1.6-3.5,3.5-3.5s3.5,1.6,3.5,3.5C47.3,995,39.7,1002.3,30.7,1002.3z"/>
</g>
<path fill="#4F463B" d="M72.8,989.8c-1.9,0-3.5-1.6-3.5-3.5c0-4.8-4.5-9-9.6-9h-2.8c-5.1,0-9.6,4.2-9.6,9c0,1.9-1.6,3.5-3.5,3.5
	s-3.5-1.6-3.5-3.5c0-8.7,7.6-16,16.6-16h2.8c9,0,16.6,7.3,16.6,16C76.3,988.3,74.7,989.8,72.8,989.8z"/>
<path fill="#4F463B" d="M18.4,985.6h-7c0-4.2-5.6-8.2-11.4-8.2v-7C8.7,970.4,18.4,976.6,18.4,985.6z"/>
<g>
	<path fill="#D15847" d="M101.7,986.4c0,6.6-5.9,12.5-13.1,12.5h-2.8c-7.2,0-13.1-5.8-13.1-12.5"/>
	<path fill="#4F463B" d="M88.6,1002.3h-2.8c-9,0-16.6-7.3-16.6-16c0-1.9,1.6-3.5,3.5-3.5s3.5,1.6,3.5,3.5c0,4.8,4.5,9,9.6,9h2.8
		c5.1,0,9.6-4.2,9.6-9c0-1.9,1.6-3.5,3.5-3.5s3.5,1.6,3.5,3.5C105.2,995,97.6,1002.3,88.6,1002.3z"/>
</g>
<path fill="#4F463B" d="M130.7,989.8c-1.9,0-3.5-1.6-3.5-3.5c0-4.8-4.5-9-9.6-9h-2.8c-5.1,0-9.6,4.2-9.6,9c0,1.9-1.6,3.5-3.5,3.5
	s-3.5-1.6-3.5-3.5c0-8.7,7.6-16,16.6-16h2.8c9,0,16.6,7.3,16.6,16C134.2,988.3,132.6,989.8,130.7,989.8z"/>
<g>
	<path fill="#D15847" d="M159.6,986.4c0,6.6-5.9,12.5-13.1,12.5h-2.8c-7.2,0-13.1-5.8-13.1-12.5"/>
	<path fill="#4F463B" d="M146.5,1002.3h-2.8c-9,0-16.6-7.3-16.6-16c0-1.9,1.6-3.5,3.5-3.5s3.5,1.6,3.5,3.5c0,4.8,4.5,9,9.6,9h2.8
		c5.1,0,9.6-4.2,9.6-9c0-1.9,1.6-3.5,3.5-3.5s3.5,1.6,3.5,3.5C163.1,995,155.5,1002.3,146.5,1002.3z"/>
</g>
<path fill="#4F463B" d="M188.6,989.8c-1.9,0-3.5-1.6-3.5-3.5c0-4.8-4.5-9-9.6-9h-2.8c-5.1,0-9.6,4.2-9.6,9c0,1.9-1.6,3.5-3.5,3.5
	s-3.5-1.6-3.5-3.5c0-8.7,7.6-16,16.6-16h2.8c9,0,16.6,7.3,16.6,16C192.1,988.3,190.5,989.8,188.6,989.8z"/>
<g>
	<path fill="#D15847" d="M217.5,986.4c0,6.6-5.9,12.5-13.1,12.5h-2.8c-7.2,0-13.1-5.8-13.1-12.5"/>
	<path fill="#4F463B" d="M204.4,1002.3h-2.8c-9,0-16.6-7.3-16.6-16c0-1.9,1.6-3.5,3.5-3.5s3.5,1.6,3.5,3.5c0,4.8,4.5,9,9.6,9h2.8
		c5.1,0,9.6-4.2,9.6-9c0-1.9,1.6-3.5,3.5-3.5s3.5,1.6,3.5,3.5C221,995,213.4,1002.3,204.4,1002.3z"/>
</g>
<path fill="#4F463B" d="M246.5,989.8c-1.9,0-3.5-1.6-3.5-3.5c0-4.8-4.5-9-9.6-9h-2.8c-5.1,0-9.6,4.2-9.6,9c0,1.9-1.6,3.5-3.5,3.5
	s-3.5-1.6-3.5-3.5c0-8.7,7.6-16,16.6-16h2.8c9,0,16.6,7.3,16.6,16C250,988.3,248.4,989.8,246.5,989.8z"/>
<g>
	<path fill="#D15847" d="M275.4,986.4c0,6.6-5.9,12.5-13.1,12.5h-2.8c-7.2,0-13.1-5.8-13.1-12.5"/>
	<path fill="#4F463B" d="M262.3,1002.3h-2.8c-9,0-16.6-7.3-16.6-16c0-1.9,1.6-3.5,3.5-3.5s3.5,1.6,3.5,3.5c0,4.8,4.5,9,9.6,9h2.8
		c5.1,0,9.6-4.2,9.6-9c0-1.9,1.6-3.5,3.5-3.5s3.5,1.6,3.5,3.5C278.9,995,271.3,1002.3,262.3,1002.3z"/>
</g>
<path fill="#4F463B" d="M278.9,988.8h-7v-3.5c0-9,6.5-14.9,16.6-14.9h3.5v7h-3.5c-8,0-9.6,4.3-9.6,7.9V988.8z"/>
<g>
	<path fill="#D15847" d="M333.7,986.4c0,6.6-5.9,12.5-13.1,12.5h-2.8c-7.2,0-13.1-5.8-13.1-12.5"/>
	<path fill="#4F463B" d="M320.6,1002.3h-2.8c-9,0-16.6-7.3-16.6-16c0-1.9,1.6-3.5,3.5-3.5s3.5,1.6,3.5,3.5c0,4.8,4.5,9,9.6,9h2.8
		c5.1,0,9.6-4.2,9.6-9c0-1.9,1.6-3.5,3.5-3.5s3.5,1.6,3.5,3.5C337.2,995,329.6,1002.3,320.6,1002.3z"/>
</g>
<path fill="#4F463B" d="M362.7,989.8c-1.9,0-3.5-1.6-3.5-3.5c0-4.8-4.5-9-9.6-9h-2.8c-5.1,0-9.6,4.2-9.6,9c0,1.9-1.6,3.5-3.5,3.5
	s-3.5-1.6-3.5-3.5c0-8.7,7.6-16,16.6-16h2.8c9,0,16.6,7.3,16.6,16C366.2,988.3,364.6,989.8,362.7,989.8z"/>
<path fill="#4F463B" d="M308.3,989.1h-7v-3.5c0-4.5-4.6-8.2-10-8.2h-3.5v-7h3.5c9.4,0,17,6.8,17,15.2V989.1z"/>
<g>
	<path fill="#D15847" d="M391.6,986.4c0,6.6-5.9,12.5-13.1,12.5h-2.8c-7.2,0-13.1-5.8-13.1-12.5"/>
	<path fill="#4F463B" d="M378.5,1002.3h-2.8c-9,0-16.6-7.3-16.6-16c0-1.9,1.6-3.5,3.5-3.5s3.5,1.6,3.5,3.5c0,4.8,4.5,9,9.6,9h2.8
		c5.1,0,9.6-4.2,9.6-9c0-1.9,1.6-3.5,3.5-3.5s3.5,1.6,3.5,3.5C395.1,995,387.5,1002.3,378.5,1002.3z"/>
</g>
<path fill="#4F463B" d="M420.6,989.8c-1.9,0-3.5-1.6-3.5-3.5c0-4.8-4.5-9-9.6-9h-2.8c-5.1,0-9.6,4.2-9.6,9c0,1.9-1.6,3.5-3.5,3.5
	s-3.5-1.6-3.5-3.5c0-8.7,7.6-16,16.6-16h2.8c9,0,16.6,7.3,16.6,16C424.1,988.3,422.5,989.8,420.6,989.8z"/>
<g>
	<path fill="#D15847" d="M449.5,986.4c0,6.6-5.9,12.5-13.1,12.5h-2.8c-7.2,0-13.1-5.8-13.1-12.5"/>
	<path fill="#4F463B" d="M436.4,1002.3h-2.8c-9,0-16.6-7.3-16.6-16c0-1.9,1.6-3.5,3.5-3.5s3.5,1.6,3.5,3.5c0,4.8,4.5,9,9.6,9h2.8
		c5.1,0,9.6-4.2,9.6-9c0-1.9,1.6-3.5,3.5-3.5s3.5,1.6,3.5,3.5C453,995,445.4,1002.3,436.4,1002.3z"/>
</g>
<path fill="#4F463B" d="M478.5,989.8c-1.9,0-3.5-1.6-3.5-3.5c0-4.8-4.5-9-9.6-9h-2.8c-5.1,0-9.6,4.2-9.6,9c0,1.9-1.6,3.5-3.5,3.5
	s-3.5-1.6-3.5-3.5c0-8.7,7.6-16,16.6-16h2.8c9,0,16.6,7.3,16.6,16C482,988.3,480.4,989.8,478.5,989.8z"/>
<g>
	<path fill="#D15847" d="M507.4,986.4c0,6.6-5.9,12.5-13.1,12.5h-2.8c-7.2,0-13.1-5.8-13.1-12.5"/>
	<path fill="#4F463B" d="M494.3,1002.3h-2.8c-9,0-16.6-7.3-16.6-16c0-1.9,1.6-3.5,3.5-3.5s3.5,1.6,3.5,3.5c0,4.8,4.5,9,9.6,9h2.8
		c5.1,0,9.6-4.2,9.6-9c0-1.9,1.6-3.5,3.5-3.5s3.5,1.6,3.5,3.5C510.9,995,503.3,1002.3,494.3,1002.3z"/>
</g>
<path fill="#4F463B" d="M536.4,989.8c-1.9,0-3.5-1.6-3.5-3.5c0-4.8-4.5-9-9.6-9h-2.8c-5.1,0-9.6,4.2-9.6,9c0,1.9-1.6,3.5-3.5,3.5
	s-3.5-1.6-3.5-3.5c0-8.7,7.6-16,16.6-16h2.8c9,0,16.6,7.3,16.6,16C539.9,988.3,538.3,989.8,536.4,989.8z"/>
<g>
	<path fill="#D15847" d="M565.3,986.4c0,6.6-5.9,12.5-13.1,12.5h-2.8c-7.2,0-13.1-5.8-13.1-12.5"/>
	<path fill="#4F463B" d="M552.2,1002.3h-2.8c-9,0-16.6-7.3-16.6-16c0-1.9,1.6-3.5,3.5-3.5s3.5,1.6,3.5,3.5c0,4.8,4.5,9,9.6,9h2.8
		c5.1,0,9.6-4.2,9.6-9c0-1.9,1.6-3.5,3.5-3.5s3.5,1.6,3.5,3.5C568.8,995,561.2,1002.3,552.2,1002.3z"/>
</g>
<path fill="#4F463B" d="M568.8,988.8h-7v-3.5c0-9,6.5-14.9,16.6-14.9h3.5v7h-3.5c-8,0-9.6,4.3-9.6,7.9V988.8z"/>
<g>
	<path fill="#D15847" d="M623.6,986.4c0,6.6-5.9,12.5-13.1,12.5h-2.8c-7.2,0-13.1-5.8-13.1-12.5"/>
	<path fill="#4F463B" d="M610.5,1002.3h-2.8c-9,0-16.6-7.3-16.6-16c0-1.9,1.6-3.5,3.5-3.5s3.5,1.6,3.5,3.5c0,4.8,4.5,9,9.6,9h2.8
		c5.1,0,9.6-4.2,9.6-9c0-1.9,1.6-3.5,3.5-3.5s3.5,1.6,3.5,3.5C627.1,995,619.5,1002.3,610.5,1002.3z"/>
</g>
<path fill="#4F463B" d="M627.1,989.8h-7v-3.5c0-8.7,7.6-16,16.6-16h3.5v7h-3.5c-5.1,0-9.6,4.2-9.6,9V989.8z"/>
<path fill="#4F463B" d="M598.1,989.1h-7v-3.5c0-4.5-4.6-8.2-10-8.2h-3.5v-7h3.5c9.4,0,17,6.8,17,15.2V989.1z"/>
<g>
	<path fill="#D15847" d="M683.6,986.4c0,6.6-5.9,12.5-13.1,12.5h-2.8c-7.2,0-13.1-5.8-13.1-12.5"/>
	<path fill="#4F463B" d="M670.5,1002.3h-2.8c-9,0-16.6-7.3-16.6-16c0-1.9,1.6-3.5,3.5-3.5s3.5,1.6,3.5,3.5c0,4.8,4.5,9,9.6,9h2.8
		c5.1,0,9.6-4.2,9.6-9c0-1.9,1.6-3.5,3.5-3.5s3.5,1.6,3.5,3.5C687.1,995,679.5,1002.3,670.5,1002.3z"/>
</g>
<path fill="#4F463B" d="M712.6,989.8c-1.9,0-3.5-1.6-3.5-3.5c0-4.8-4.5-9-9.6-9h-2.8c-5.1,0-9.6,4.2-9.6,9c0,1.9-1.6,3.5-3.5,3.5
	s-3.5-1.6-3.5-3.5c0-8.7,7.6-16,16.6-16h2.8c9,0,16.6,7.3,16.6,16C716.1,988.3,714.5,989.8,712.6,989.8z"/>
<path fill="#4F463B" d="M658.2,985.6h-7c0-4.2-5.6-8.2-11.4-8.2v-7C648.5,970.4,658.2,976.6,658.2,985.6z"/>
<g>
	<path fill="#D15847" d="M741.5,986.4c0,6.6-5.9,12.5-13.1,12.5h-2.8c-7.2,0-13.1-5.8-13.1-12.5"/>
	<path fill="#4F463B" d="M728.4,1002.3h-2.8c-9,0-16.6-7.3-16.6-16c0-1.9,1.6-3.5,3.5-3.5s3.5,1.6,3.5,3.5c0,4.8,4.5,9,9.6,9h2.8
		c5.1,0,9.6-4.2,9.6-9c0-1.9,1.6-3.5,3.5-3.5s3.5,1.6,3.5,3.5C745,995,737.4,1002.3,728.4,1002.3z"/>
</g>
<path fill="#4F463B" d="M770.5,989.8c-1.9,0-3.5-1.6-3.5-3.5c0-4.8-4.5-9-9.6-9h-2.8c-5.1,0-9.6,4.2-9.6,9c0,1.9-1.6,3.5-3.5,3.5
	s-3.5-1.6-3.5-3.5c0-8.7,7.6-16,16.6-16h2.8c9,0,16.6,7.3,16.6,16C774,988.3,772.4,989.8,770.5,989.8z"/>
<g>
	<path fill="#D15847" d="M799.4,986.4c0,6.6-5.9,12.5-13.1,12.5h-2.8c-7.2,0-13.1-5.8-13.1-12.5"/>
	<path fill="#4F463B" d="M786.3,1002.3h-2.8c-9,0-16.6-7.3-16.6-16c0-1.9,1.6-3.5,3.5-3.5s3.5,1.6,3.5,3.5c0,4.8,4.5,9,9.6,9h2.8
		c5.1,0,9.6-4.2,9.6-9c0-1.9,1.6-3.5,3.5-3.5s3.5,1.6,3.5,3.5C802.9,995,795.3,1002.3,786.3,1002.3z"/>
</g>
<path fill="#4F463B" d="M828.4,989.8c-1.9,0-3.5-1.6-3.5-3.5c0-4.8-4.5-9-9.6-9h-2.8c-5.1,0-9.6,4.2-9.6,9c0,1.9-1.6,3.5-3.5,3.5
	s-3.5-1.6-3.5-3.5c0-8.7,7.6-16,16.6-16h2.8c9,0,16.6,7.3,16.6,16C831.9,988.3,830.3,989.8,828.4,989.8z"/>
<g>
	<path fill="#D15847" d="M857.3,986.4c0,6.6-5.9,12.5-13.1,12.5h-2.8c-7.2,0-13.1-5.8-13.1-12.5"/>
	<path fill="#4F463B" d="M844.2,1002.3h-2.8c-9,0-16.6-7.3-16.6-16c0-1.9,1.6-3.5,3.5-3.5s3.5,1.6,3.5,3.5c0,4.8,4.5,9,9.6,9h2.8
		c5.1,0,9.6-4.2,9.6-9c0-1.9,1.6-3.5,3.5-3.5s3.5,1.6,3.5,3.5C860.8,995,853.2,1002.3,844.2,1002.3z"/>
</g>
<path fill="#4F463B" d="M886.3,989.8c-1.9,0-3.5-1.6-3.5-3.5c0-4.8-4.5-9-9.6-9h-2.8c-5.1,0-9.6,4.2-9.6,9c0,1.9-1.6,3.5-3.5,3.5
	s-3.5-1.6-3.5-3.5c0-8.7,7.6-16,16.6-16h2.8c9,0,16.6,7.3,16.6,16C889.8,988.3,888.2,989.8,886.3,989.8z"/>
<g>
	<path fill="#D15847" d="M915.2,986.4c0,6.6-5.9,12.5-13.1,12.5h-2.8c-7.2,0-13.1-5.8-13.1-12.5"/>
	<path fill="#4F463B" d="M902.1,1002.3h-2.8c-9,0-16.6-7.3-16.6-16c0-1.9,1.6-3.5,3.5-3.5s3.5,1.6,3.5,3.5c0,4.8,4.5,9,9.6,9h2.8
		c5.1,0,9.6-4.2,9.6-9c0-1.9,1.6-3.5,3.5-3.5s3.5,1.6,3.5,3.5C918.7,995,911.1,1002.3,902.1,1002.3z"/>
</g>
<path fill="#4F463B" d="M918.7,988.8h-7v-3.5c0-9,6.5-14.9,16.6-14.9h3.5v7h-3.5c-8,0-9.6,4.3-9.6,7.9V988.8z"/>
<g>
	<path fill="#D15847" d="M973.5,986.4c0,6.6-5.9,12.5-13.1,12.5h-2.8c-7.2,0-13.1-5.8-13.1-12.5"/>
	<path fill="#4F463B" d="M960.4,1002.3h-2.8c-9,0-16.6-7.3-16.6-16c0-1.9,1.6-3.5,3.5-3.5s3.5,1.6,3.5,3.5c0,4.8,4.5,9,9.6,9h2.8
		c5.1,0,9.6-4.2,9.6-9c0-1.9,1.6-3.5,3.5-3.5s3.5,1.6,3.5,3.5C977,995,969.4,1002.3,960.4,1002.3z"/>
</g>
<path fill="#4F463B" d="M1002.5,989.8c-1.9,0-3.5-1.6-3.5-3.5c0-4.8-4.5-9-9.6-9h-2.8c-5.1,0-9.6,4.2-9.6,9c0,1.9-1.6,3.5-3.5,3.5
	s-3.5-1.6-3.5-3.5c0-8.7,7.6-16,16.6-16h2.8c9,0,16.6,7.3,16.6,16C1006,988.3,1004.4,989.8,1002.5,989.8z"/>
<path fill="#4F463B" d="M948.1,989.1h-7v-3.5c0-4.5-4.6-8.2-10-8.2h-3.5v-7h3.5c9.4,0,17,6.8,17,15.2V989.1z"/>
<g>
	<path fill="#D15847" d="M1031.4,986.4c0,6.6-5.9,12.5-13.1,12.5h-2.8c-7.2,0-13.1-5.8-13.1-12.5"/>
	<path fill="#4F463B" d="M1018.3,1002.3h-2.8c-9,0-16.6-7.3-16.6-16c0-1.9,1.6-3.5,3.5-3.5s3.5,1.6,3.5,3.5c0,4.8,4.5,9,9.6,9h2.8
		c5.1,0,9.6-4.2,9.6-9c0-1.9,1.6-3.5,3.5-3.5s3.5,1.6,3.5,3.5C1034.9,995,1027.3,1002.3,1018.3,1002.3z"/>
</g>
<path fill="#4F463B" d="M1060.4,989.8c-1.9,0-3.5-1.6-3.5-3.5c0-4.8-4.5-9-9.6-9h-2.8c-5.1,0-9.6,4.2-9.6,9c0,1.9-1.6,3.5-3.5,3.5
	s-3.5-1.6-3.5-3.5c0-8.7,7.6-16,16.6-16h2.8c9,0,16.6,7.3,16.6,16C1063.9,988.3,1062.3,989.8,1060.4,989.8z"/>
<g>
	<path fill="#D15847" d="M1089.3,986.4c0,6.6-5.9,12.5-13.1,12.5h-2.8c-7.2,0-13.1-5.8-13.1-12.5"/>
	<path fill="#4F463B" d="M1076.2,1002.3h-2.8c-9,0-16.6-7.3-16.6-16c0-1.9,1.6-3.5,3.5-3.5s3.5,1.6,3.5,3.5c0,4.8,4.5,9,9.6,9h2.8
		c5.1,0,9.6-4.2,9.6-9c0-1.9,1.6-3.5,3.5-3.5s3.5,1.6,3.5,3.5C1092.8,995,1085.2,1002.3,1076.2,1002.3z"/>
</g>
<path fill="#4F463B" d="M1118.3,989.8c-1.9,0-3.5-1.6-3.5-3.5c0-4.8-4.5-9-9.6-9h-2.8c-5.1,0-9.6,4.2-9.6,9c0,1.9-1.6,3.5-3.5,3.5
	s-3.5-1.6-3.5-3.5c0-8.7,7.6-16,16.6-16h2.8c9,0,16.6,7.3,16.6,16C1121.8,988.3,1120.2,989.8,1118.3,989.8z"/>
<g>
	<path fill="#D15847" d="M1147.2,986.4c0,6.6-5.9,12.5-13.1,12.5h-2.8c-7.2,0-13.1-5.8-13.1-12.5"/>
	<path fill="#4F463B" d="M1134.1,1002.3h-2.8c-9,0-16.6-7.3-16.6-16c0-1.9,1.6-3.5,3.5-3.5s3.5,1.6,3.5,3.5c0,4.8,4.5,9,9.6,9h2.8
		c5.1,0,9.6-4.2,9.6-9c0-1.9,1.6-3.5,3.5-3.5s3.5,1.6,3.5,3.5C1150.7,995,1143.1,1002.3,1134.1,1002.3z"/>
</g>
<path fill="#4F463B" d="M1176.2,989.8c-1.9,0-3.5-1.6-3.5-3.5c0-4.8-4.5-9-9.6-9h-2.8c-5.1,0-9.6,4.2-9.6,9c0,1.9-1.6,3.5-3.5,3.5
	s-3.5-1.6-3.5-3.5c0-8.7,7.6-16,16.6-16h2.8c9,0,16.6,7.3,16.6,16C1179.7,988.3,1178.1,989.8,1176.2,989.8z"/>
<g>
	<path fill="#D15847" d="M1205.1,986.4c0,6.6-5.9,12.5-13.1,12.5h-2.8c-7.2,0-13.1-5.8-13.1-12.5"/>
	<path fill="#4F463B" d="M1192,1002.3h-2.8c-9,0-16.6-7.3-16.6-16c0-1.9,1.6-3.5,3.5-3.5s3.5,1.6,3.5,3.5c0,4.8,4.5,9,9.6,9h2.8
		c5.1,0,9.6-4.2,9.6-9c0-1.9,1.6-3.5,3.5-3.5s3.5,1.6,3.5,3.5C1208.6,995,1201,1002.3,1192,1002.3z"/>
</g>
<path fill="#4F463B" d="M1208.6,988.8h-7v-3.5c0-9,6.5-14.9,16.6-14.9h3.5v7h-3.5c-8,0-9.6,4.3-9.6,7.9V988.8z"/>
<g>
	<path fill="#D15847" d="M1263.4,986.4c0,6.6-5.9,12.5-13.1,12.5h-2.8c-7.2,0-13.1-5.8-13.1-12.5"/>
	<path fill="#4F463B" d="M1250.3,1002.3h-2.8c-9,0-16.6-7.3-16.6-16c0-1.9,1.6-3.5,3.5-3.5s3.5,1.6,3.5,3.5c0,4.8,4.5,9,9.6,9h2.8
		c5.1,0,9.6-4.2,9.6-9c0-1.9,1.6-3.5,3.5-3.5s3.5,1.6,3.5,3.5C1266.9,995,1259.3,1002.3,1250.3,1002.3z"/>
</g>
<path fill="#4F463B" d="M1266.9,989.8h-7v-3.5c0-8.7,7.6-16,16.6-16h3.5v7h-3.5c-5.1,0-9.6,4.2-9.6,9V989.8z"/>
<path fill="#4F463B" d="M1237.9,989.1h-7v-3.5c0-4.5-4.6-8.2-10-8.2h-3.5v-7h3.5c9.4,0,17,6.8,17,15.2V989.1z"/>
<circle fill="#EF9797" cx="962.6" cy="990.5" r="3.1"/>
<path fill="#EF9797" d="M967.3,982.6c-0.1,0-0.2,0-0.3,0c-0.8-0.2-1.3-0.9-1.2-1.8c0-0.2,3.3-15.9,20.8-15.9c0.8,0,1.5,0.7,1.5,1.5
	s-0.7,1.5-1.5,1.5c-15.1,0-17.7,12.9-17.8,13.5C968.6,982.1,968,982.6,967.3,982.6z"/>
<circle fill="#EF9797" cx="1021" cy="990.5" r="3.1"/>
<path fill="#EF9797" d="M1025.6,982.6c-0.1,0-0.2,0-0.3,0c-0.8-0.2-1.3-0.9-1.2-1.8c0-0.2,3.3-15.9,20.8-15.9c0.8,0,1.5,0.7,1.5,1.5
	s-0.7,1.5-1.5,1.5c-15.1,0-17.7,12.9-17.8,13.5C1027,982.1,1026.3,982.6,1025.6,982.6z"/>
<circle fill="#EF9797" cx="1078.7" cy="990.5" r="3.1"/>
<path fill="#EF9797" d="M1083.3,982.6c-0.1,0-0.2,0-0.3,0c-0.8-0.2-1.3-0.9-1.2-1.8c0-0.2,3.3-15.9,20.8-15.9c0.8,0,1.5,0.7,1.5,1.5
	s-0.7,1.5-1.5,1.5c-15.1,0-17.7,12.9-17.8,13.5C1084.7,982.1,1084,982.6,1083.3,982.6z"/>
<circle fill="#EF9797" cx="1137" cy="990.5" r="3.1"/>
<path fill="#EF9797" d="M1141.7,982.6c-0.1,0-0.2,0-0.3,0c-0.8-0.2-1.3-0.9-1.2-1.8c0-0.2,3.3-15.9,20.8-15.9c0.8,0,1.5,0.7,1.5,1.5
	s-0.7,1.5-1.5,1.5c-15.1,0-17.7,12.9-17.8,13.5C1143,982.1,1142.4,982.6,1141.7,982.6z"/>
<circle fill="#EF9797" cx="1194.9" cy="990.5" r="3.1"/>
<path fill="#EF9797" d="M1199.5,982.6c-0.1,0-0.2,0-0.3,0c-0.8-0.2-1.3-0.9-1.2-1.8c0-0.2,3.3-15.9,20.8-15.9c0.8,0,1.5,0.7,1.5,1.5
	s-0.7,1.5-1.5,1.5c-15.1,0-17.7,12.9-17.8,13.5C1200.9,982.1,1200.2,982.6,1199.5,982.6z"/>
<circle fill="#EF9797" cx="672.9" cy="990.5" r="3.1"/>
<path fill="#EF9797" d="M677.5,982.6c-0.1,0-0.2,0-0.3,0c-0.8-0.2-1.3-0.9-1.2-1.8c0-0.2,3.3-15.9,20.8-15.9c0.8,0,1.5,0.7,1.5,1.5
	s-0.7,1.5-1.5,1.5c-15.1,0-17.7,12.9-17.8,13.5C678.9,982.1,678.2,982.6,677.5,982.6z"/>
<circle fill="#EF9797" cx="731.2" cy="990.5" r="3.1"/>
<path fill="#EF9797" d="M735.9,982.6c-0.1,0-0.2,0-0.3,0c-0.8-0.2-1.3-0.9-1.2-1.8c0-0.2,3.3-15.9,20.8-15.9c0.8,0,1.5,0.7,1.5,1.5
	s-0.7,1.5-1.5,1.5c-15.1,0-17.7,12.9-17.8,13.5C737.2,982.1,736.6,982.6,735.9,982.6z"/>
<circle fill="#EF9797" cx="788.9" cy="990.5" r="3.1"/>
<path fill="#EF9797" d="M793.6,982.6c-0.1,0-0.2,0-0.3,0c-0.8-0.2-1.3-0.9-1.2-1.8c0-0.2,3.3-15.9,20.8-15.9c0.8,0,1.5,0.7,1.5,1.5
	s-0.7,1.5-1.5,1.5c-15.1,0-17.7,12.9-17.8,13.5C794.9,982.1,794.3,982.6,793.6,982.6z"/>
<circle fill="#EF9797" cx="847.2" cy="990.5" r="3.1"/>
<path fill="#EF9797" d="M851.9,982.6c-0.1,0-0.2,0-0.3,0c-0.8-0.2-1.3-0.9-1.2-1.8c0-0.2,3.3-15.9,20.8-15.9c0.8,0,1.5,0.7,1.5,1.5
	s-0.7,1.5-1.5,1.5c-15.1,0-17.7,12.9-17.8,13.5C853.2,982.1,852.6,982.6,851.9,982.6z"/>
<circle fill="#EF9797" cx="905.1" cy="990.5" r="3.1"/>
<path fill="#EF9797" d="M909.8,982.6c-0.1,0-0.2,0-0.3,0c-0.8-0.2-1.3-0.9-1.2-1.8c0-0.2,3.3-15.9,20.8-15.9c0.8,0,1.5,0.7,1.5,1.5
	s-0.7,1.5-1.5,1.5c-15.1,0-17.7,12.9-17.8,13.5C911.1,982.1,910.5,982.6,909.8,982.6z"/>
<circle fill="#EF9797" cx="1253.2" cy="990.5" r="3.1"/>
<path fill="#EF9797" d="M1257.9,982.6c-0.1,0-0.2,0-0.3,0c-0.8-0.2-1.3-0.9-1.2-1.8c0-0.2,3.3-15.9,20.8-15.9c0.8,0,1.5,0.7,1.5,1.5
	s-0.7,1.5-1.5,1.5c-15,0-17.7,13-17.8,13.5C1259.2,982.1,1258.6,982.6,1257.9,982.6z"/>
<circle fill="#EF9797" cx="322.8" cy="990.5" r="3.1"/>
<path fill="#EF9797" d="M327.5,982.6c-0.1,0-0.2,0-0.3,0c-0.8-0.2-1.3-0.9-1.2-1.8c0-0.2,3.3-15.9,20.8-15.9c0.8,0,1.5,0.7,1.5,1.5
	s-0.7,1.5-1.5,1.5c-15.1,0-17.7,12.9-17.8,13.5C328.8,982.1,328.2,982.6,327.5,982.6z"/>
<circle fill="#EF9797" cx="381.2" cy="990.5" r="3.1"/>
<path fill="#EF9797" d="M385.8,982.6c-0.1,0-0.2,0-0.3,0c-0.8-0.2-1.3-0.9-1.2-1.8c0-0.2,3.3-15.9,20.8-15.9c0.8,0,1.5,0.7,1.5,1.5
	s-0.7,1.5-1.5,1.5c-15.1,0-17.7,12.9-17.8,13.5C387.2,982.1,386.5,982.6,385.8,982.6z"/>
<circle fill="#EF9797" cx="438.9" cy="990.5" r="3.1"/>
<path fill="#EF9797" d="M443.5,982.6c-0.1,0-0.2,0-0.3,0c-0.8-0.2-1.3-0.9-1.2-1.8c0-0.2,3.3-15.9,20.8-15.9c0.8,0,1.5,0.7,1.5,1.5
	s-0.7,1.5-1.5,1.5c-15.1,0-17.7,12.9-17.8,13.5C444.9,982.1,444.2,982.6,443.5,982.6z"/>
<circle fill="#EF9797" cx="497.2" cy="990.5" r="3.1"/>
<path fill="#EF9797" d="M501.9,982.6c-0.1,0-0.2,0-0.3,0c-0.8-0.2-1.3-0.9-1.2-1.8c0-0.2,3.3-15.9,20.8-15.9c0.8,0,1.5,0.7,1.5,1.5
	s-0.7,1.5-1.5,1.5c-15.1,0-17.7,12.9-17.8,13.5C503.2,982.1,502.6,982.6,501.9,982.6z"/>
<circle fill="#EF9797" cx="555.1" cy="990.5" r="3.1"/>
<path fill="#EF9797" d="M559.7,982.6c-0.1,0-0.2,0-0.3,0c-0.8-0.2-1.3-0.9-1.2-1.8c0-0.2,3.3-15.9,20.8-15.9c0.8,0,1.5,0.7,1.5,1.5
	s-0.7,1.5-1.5,1.5c-15.1,0-17.7,12.9-17.8,13.5C561.1,982.1,560.4,982.6,559.7,982.6z"/>
<circle fill="#EF9797" cx="33.1" cy="990.5" r="3.1"/>
<path fill="#EF9797" d="M37.7,982.6c-0.1,0-0.2,0-0.3,0c-0.8-0.2-1.3-0.9-1.2-1.8c0-0.2,3.3-15.9,20.8-15.9c0.8,0,1.5,0.7,1.5,1.5
	s-0.7,1.5-1.5,1.5c-15.1,0-17.7,12.9-17.8,13.5C39.1,982.1,38.4,982.6,37.7,982.6z"/>
<circle fill="#EF9797" cx="91.4" cy="990.5" r="3.1"/>
<path fill="#EF9797" d="M96.1,982.6c-0.1,0-0.2,0-0.3,0c-0.8-0.2-1.3-0.9-1.2-1.8c0-0.2,3.3-15.9,20.8-15.9c0.8,0,1.5,0.7,1.5,1.5
	s-0.7,1.5-1.5,1.5c-15.1,0-17.7,12.9-17.8,13.5C97.4,982.1,96.8,982.6,96.1,982.6z"/>
<circle fill="#EF9797" cx="149.1" cy="990.5" r="3.1"/>
<path fill="#EF9797" d="M153.8,982.6c-0.1,0-0.2,0-0.3,0c-0.8-0.2-1.3-0.9-1.2-1.8c0-0.2,3.3-15.9,20.8-15.9c0.8,0,1.5,0.7,1.5,1.5
	s-0.7,1.5-1.5,1.5c-15.1,0-17.7,12.9-17.8,13.5C155.1,982.1,154.5,982.6,153.8,982.6z"/>
<circle fill="#EF9797" cx="207.4" cy="990.5" r="3.1"/>
<path fill="#EF9797" d="M212.1,982.6c-0.1,0-0.2,0-0.3,0c-0.8-0.2-1.3-0.9-1.2-1.8c0-0.2,3.3-15.9,20.8-15.9c0.8,0,1.5,0.7,1.5,1.5
	s-0.7,1.5-1.5,1.5c-15.1,0-17.7,12.9-17.8,13.5C213.4,982.1,212.8,982.6,212.1,982.6z"/>
<circle fill="#EF9797" cx="265.3" cy="990.5" r="3.1"/>
<path fill="#EF9797" d="M270,982.6c-0.1,0-0.2,0-0.3,0c-0.8-0.2-1.3-0.9-1.2-1.8c0-0.2,3.3-15.9,20.8-15.9c0.8,0,1.5,0.7,1.5,1.5
	s-0.7,1.5-1.5,1.5c-15.1,0-17.7,12.9-17.8,13.5C271.3,982.1,270.7,982.6,270,982.6z"/>
<circle fill="#EF9797" cx="613.4" cy="990.5" r="3.1"/>
<path fill="#EF9797" d="M618,982.6c-0.1,0-0.2,0-0.3,0c-0.8-0.2-1.3-0.9-1.2-1.8c0-0.2,3.3-15.9,20.8-15.9c0.8,0,1.5,0.7,1.5,1.5
	s-0.7,1.5-1.5,1.5c-15,0-17.7,13-17.8,13.5C619.4,982.1,618.8,982.6,618,982.6z"/>
</svg>
