<?xml version="1.0" encoding="utf-8"?>
<!-- Generator: Adobe Illustrator 18.1.0, SVG Export Plug-In . SVG Version: 6.00 Build 0)  -->
<svg version="1.1" id="Laag_1" xmlns="http://www.w3.org/2000/svg" xmlns:xlink="http://www.w3.org/1999/xlink" x="0px" y="0px"
	 viewBox="0 0 158 60.5" enable-background="new 0 0 158 60.5" xml:space="preserve">
<path fill="#CC7A71" stroke="#4F463B" stroke-width="7" stroke-miterlimit="10" d="M134.5,57h-111c-11,0-20-9-20-20V23.5
	c0-11,9-20,20-20h111c11,0,20,9,20,20V37C154.5,48,145.5,57,134.5,57z"/>
<path fill="none" stroke="#A34745" stroke-width="5" stroke-linecap="round" stroke-linejoin="round" stroke-miterlimit="10" d="
	M45.1,48.7H23.7c-6.6,0-12-5.4-12-12v-7.2"/>
<path fill="none" stroke="#EDBEBC" stroke-width="5" stroke-linecap="round" stroke-linejoin="round" stroke-miterlimit="10" d="
	M112.8,11.7h21.4c6.6,0,12,5.4,12,12v7.2"/>
<text transform="matrix(1 0 0 1 29.1375 34.4742)"><tspan x="0" y="0" fill="#FFFFFF" font-family="'Roca'" font-size="17.2382" letter-spacing="-2">HIRE </tspan><tspan x="58.6" y="0" fill="#FFFFFF" font-family="'Roca'" font-size="17.2382" letter-spacing="-4">m</tspan><tspan x="81.8" y="0" fill="#FFFFFF" font-family="'Roca'" font-size="17.2382" letter-spacing="-2">E</tspan></text>
</svg>
