<?xml version="1.0" encoding="utf-8"?>
<!-- Generator: Adobe Illustrator 18.1.0, SVG Export Plug-In . SVG Version: 6.00 Build 0)  -->
<svg version="1.1" id="Laag_1" xmlns="http://www.w3.org/2000/svg" xmlns:xlink="http://www.w3.org/1999/xlink" x="0px" y="0px"
	 viewBox="0 0 514.9 774.3" enable-background="new 0 0 514.9 774.3" xml:space="preserve">
<g>
	<path fill="#75C0CC" d="M327.4,748.7v-21.8c0-11,9-20,20-20h2.1c11,0,20,9,20,20v8.8l9.3,12c11,0,20-9,20-20V449.9
		c0-11-30.1-27.4-41.1-27.4l-213.4-82c-11,0-20,9-20,20v367.2c0,11,9,20,20,20l10.5-9v-11.8c0-11,9-20,20-20h2.1c11,0,20,9,20,20
		v20.8h21.9h22h5v-20.8c0-11,9-20,20-20h2.1c11,0,20,9,20,20v21.8"/>
	<path fill="#4F463B" d="M378.8,751.2h-1.7L366,736.9v-10c0-9.1-7.4-16.5-16.5-16.5h-2.1c-9.1,0-16.5,7.4-16.5,16.5v21.8h-7v-21.8
		c0-13,10.5-23.5,23.5-23.5h2.1c13,0,23.5,10.5,23.5,23.5v7.6l7.5,9.6c8.3-0.8,14.9-7.9,14.9-16.4V449.9c0-8-27-23.9-37.6-23.9h-0.6
		l-0.6-0.2L143.7,344c-8.8,0.3-15.9,7.6-15.9,16.5v367.2c0,8.7,6.7,15.8,15.3,16.5l8.2-7.1v-10.2c0-13,10.5-23.5,23.5-23.5h2.1
		c13,0,23.5,10.5,23.5,23.5v17.3h41.8v-17.3c0-13,10.5-23.5,23.5-23.5h2.1c13,0,23.5,10.5,23.5,23.5v21.8h-7v-21.8
		c0-9.1-7.4-16.5-16.5-16.5h-2.1c-9.1,0-16.5,7.4-16.5,16.5v24.3h-55.8v-24.3c0-9.1-7.4-16.5-16.5-16.5h-2.1
		c-9.1,0-16.5,7.4-16.5,16.5v13.4l-12.7,10.9h-1.3c-13,0-23.5-10.5-23.5-23.5V360.5c0-13,10.5-23.5,23.5-23.5h0.6l213.4,82
		c12.7,0.6,43.9,17.4,43.9,30.9v277.8C402.3,740.6,391.8,751.2,378.8,751.2z"/>
</g>
<g>
	<path fill="#75C0CC" d="M245.7,732.3v18.5c0,11-9,20-20,20h-8.8c-11,0-20-9-20-20v-18.5"/>
	<path fill="#4F463B" d="M225.7,774.3h-8.8c-13,0-23.5-10.5-23.5-23.5v-18.5h7v18.5c0,9.1,7.4,16.5,16.5,16.5h8.8
		c9.1,0,16.5-7.4,16.5-16.5v-18.5h7v18.5C249.2,763.8,238.6,774.3,225.7,774.3z"/>
</g>
<g>
	<path fill="#75C0CC" d="M287.8,747.7c0,11,7.4,23.2,16.3,23.2h6.9c9,0,16.4-12.2,16.4-23.2"/>
	<path fill="#4F463B" d="M311,774.3h-6.9c-11.3,0-19.8-14.1-19.8-26.7h7c0,9.7,6.5,19.7,12.8,19.7h6.9c6.4,0,12.9-9.9,12.9-19.7h7
		C330.9,760.3,322.4,774.3,311,774.3z"/>
</g>
<g>
	<path fill="#75C0CC" d="M124.3,723.3v24.3c0,11,5.7,23.2,12.6,23.2h5.3c6.9,0,12.6-12.2,12.6-23.2l0-23.3"/>
	<path fill="#4F463B" d="M142.2,774.3h-5.3c-9.5,0-16.1-14.1-16.1-26.7v-24.3h7v24.3c0,10.1,5.1,19.7,9.1,19.7h5.3
		c4,0,9.1-9.5,9.1-19.7l0-23.3l7,0l0,23.3C158.3,760.3,151.7,774.3,142.2,774.3z"/>
</g>
<g>
	<path fill="#75C0CC" d="M369.6,727.3v20.3c0,11,5.4,23.2,11.9,23.2h5.3c6.6,0,12-12.2,12-23.2l0-20.3"/>
	<path fill="#4F463B" d="M386.8,774.3h-5.3c-9.1,0-15.4-14.1-15.4-26.7v-20.3h7v20.3c0,10.7,5.2,19.7,8.4,19.7h5.3
		c3.3,0,8.5-9,8.5-19.7l0-20.3l7,0l0,20.3C402.3,760.3,395.9,774.3,386.8,774.3z"/>
</g>
<g>
	<path fill="#D15847" d="M327.4,668.9v-21.8c0-11,9-20,20-20h2.1c11,0,20,9,20,20v8.8l9.3,12c11,0,20-9,20-20V370.1
		c0-11-30.1-27.4-41.1-27.4l-213.4-82c-11,0-20,9-20,20v367.2c0,11,9,20,20,20l10.5-9v-11.8c0-11,9-20,20-20h2.1c11,0,20,9,20,20
		v20.8h21.9h22h5v-20.8c0-11,9-20,20-20h2.1c11,0,20,9,20,20v21.8"/>
	<path fill="#4F463B" d="M378.8,671.4h-1.7L366,657.1v-10c0-9.1-7.4-16.5-16.5-16.5h-2.1c-9.1,0-16.5,7.4-16.5,16.5v21.8h-7v-21.8
		c0-13,10.5-23.5,23.5-23.5h2.1c13,0,23.5,10.5,23.5,23.5v7.6l7.5,9.6c8.3-0.8,14.9-7.9,14.9-16.4V370.1c0-8-27-23.9-37.6-23.9h-0.6
		l-0.6-0.2l-212.8-81.7c-8.8,0.3-15.9,7.6-15.9,16.5v367.2c0,8.7,6.7,15.8,15.3,16.5l8.2-7.1v-10.2c0-13,10.5-23.5,23.5-23.5h2.1
		c13,0,23.5,10.5,23.5,23.5v17.3h41.8v-17.3c0-13,10.5-23.5,23.5-23.5h2.1c13,0,23.5,10.5,23.5,23.5v21.8h-7v-21.8
		c0-9.1-7.4-16.5-16.5-16.5h-2.1c-9.1,0-16.5,7.4-16.5,16.5v24.3h-55.8v-24.3c0-9.1-7.4-16.5-16.5-16.5h-2.1
		c-9.1,0-16.5,7.4-16.5,16.5v13.4l-12.7,10.9h-1.3c-13,0-23.5-10.5-23.5-23.5V280.7c0-13,10.5-23.5,23.5-23.5h0.6l213.4,82
		c12.7,0.6,43.9,17.4,43.9,30.9v277.8C402.3,660.9,391.8,671.4,378.8,671.4z"/>
</g>
<g>
	<path fill="#D15847" d="M245.7,652.6v18.5c0,11-9,20-20,20h-8.8c-11,0-20-9-20-20v-18.5"/>
	<path fill="#4F463B" d="M225.7,694.6h-8.8c-13,0-23.5-10.5-23.5-23.5v-18.5h7v18.5c0,9.1,7.4,16.5,16.5,16.5h8.8
		c9.1,0,16.5-7.4,16.5-16.5v-18.5h7v18.5C249.2,684,238.6,694.6,225.7,694.6z"/>
</g>
<g>
	<path fill="#D15847" d="M287.8,667.9c0,11,7.4,23.2,16.3,23.2h6.9c9,0,16.4-12.2,16.4-23.2"/>
	<path fill="#4F463B" d="M311,694.6h-6.9c-11.3,0-19.8-14.1-19.8-26.7h7c0,9.7,6.5,19.7,12.8,19.7h6.9c6.4,0,12.9-9.9,12.9-19.7h7
		C330.9,680.5,322.4,694.6,311,694.6z"/>
</g>
<g>
	<path fill="#D15847" d="M124.3,646.6v21.3c0,11,5.7,23.2,12.6,23.2h5.3c6.9,0,12.6-12.2,12.6-23.2l0-22.3"/>
	<path fill="#4F463B" d="M142.2,694.6h-5.3c-9.5,0-16.1-14.1-16.1-26.7v-21.3h7v21.3c0,10.1,5.1,19.7,9.1,19.7h5.3
		c4,0,9.1-9.5,9.1-19.7l0-22.3l7,0l0,22.3C158.3,680.5,151.7,694.6,142.2,694.6z"/>
</g>
<g>
	<path fill="#D15847" d="M369.6,647.6v20.3c0,11,5.4,23.2,11.9,23.2h5.3c6.6,0,12-12.2,12-23.2l0-20.3"/>
	<path fill="#4F463B" d="M386.8,694.6h-5.3c-9.1,0-15.4-14.1-15.4-26.7v-20.3h7v20.3c0,10.7,5.2,19.7,8.4,19.7h5.3
		c3.3,0,8.5-9,8.5-19.7l0-20.3l7,0l0,20.3C402.3,680.5,395.9,694.6,386.8,694.6z"/>
</g>
<g>
	<path fill="#75C0CC" d="M327.4,591.1v-21.8c0-11,9-20,20-20h2.1c11,0,20,9,20,20v8.8l9.3,12c11,0,20-9,20-20V292.3
		c0-11-30.1-27.4-41.1-27.4l-213.4-82c-11,0-20,9-20,20v367.2c0,11,9,20,20,20l10.5-9v-11.8c0-11,9-20,20-20h2.1c11,0,20,9,20,20
		v20.8h21.9h22h5v-20.8c0-11,9-20,20-20h2.1c11,0,20,9,20,20v21.8"/>
	<path fill="#4F463B" d="M378.8,593.6h-1.7L366,579.3v-10c0-9.1-7.4-16.5-16.5-16.5h-2.1c-9.1,0-16.5,7.4-16.5,16.5v21.8h-7v-21.8
		c0-13,10.5-23.5,23.5-23.5h2.1c13,0,23.5,10.5,23.5,23.5v7.6l7.5,9.6c8.3-0.8,14.9-7.9,14.9-16.4V292.3c0-8-27-23.9-37.6-23.9h-0.6
		l-0.6-0.2l-212.8-81.7c-8.8,0.3-15.9,7.6-15.9,16.5v367.2c0,8.7,6.7,15.8,15.3,16.5l8.2-7.1v-10.2c0-13,10.5-23.5,23.5-23.5h2.1
		c13,0,23.5,10.5,23.5,23.5v17.3h41.8v-17.3c0-13,10.5-23.5,23.5-23.5h2.1c13,0,23.5,10.5,23.5,23.5v21.8h-7v-21.8
		c0-9.1-7.4-16.5-16.5-16.5h-2.1c-9.1,0-16.5,7.4-16.5,16.5v24.3h-55.8v-24.3c0-9.1-7.4-16.5-16.5-16.5h-2.1
		c-9.1,0-16.5,7.4-16.5,16.5v13.4l-12.7,10.9h-1.3c-13,0-23.5-10.5-23.5-23.5V202.9c0-13,10.5-23.5,23.5-23.5h0.6l213.4,82
		c12.7,0.6,43.9,17.4,43.9,30.9v277.8C402.3,583.1,391.8,593.6,378.8,593.6z"/>
</g>
<g>
	<path fill="#75C0CC" d="M245.7,574.8v18.5c0,11-9,20-20,20h-8.8c-11,0-20-9-20-20v-18.5"/>
	<path fill="#4F463B" d="M225.7,616.8h-8.8c-13,0-23.5-10.5-23.5-23.5v-18.5h7v18.5c0,9.1,7.4,16.5,16.5,16.5h8.8
		c9.1,0,16.5-7.4,16.5-16.5v-18.5h7v18.5C249.2,606.2,238.6,616.8,225.7,616.8z"/>
</g>
<g>
	<path fill="#75C0CC" d="M287.8,590.1c0,11,7.4,23.2,16.3,23.2h6.9c9,0,16.4-12.2,16.4-23.2"/>
	<path fill="#4F463B" d="M311,616.8h-6.9c-11.3,0-19.8-14.1-19.8-26.7h7c0,9.7,6.5,19.7,12.8,19.7h6.9c6.4,0,12.9-9.9,12.9-19.7h7
		C330.9,602.7,322.4,616.8,311,616.8z"/>
</g>
<g>
	<path fill="#75C0CC" d="M124.3,574.8v15.3c0,11,5.7,23.2,12.6,23.2h5.3c6.9,0,12.6-12.2,12.6-23.2l0-15.3"/>
	<path fill="#4F463B" d="M142.2,616.8h-5.3c-9.5,0-16.1-14.1-16.1-26.7v-15.3h7v15.3c0,10.1,5.1,19.7,9.1,19.7h5.3
		c4,0,9.1-9.5,9.1-19.7l0-15.3l7,0l0,15.3C158.3,602.7,151.7,616.8,142.2,616.8z"/>
</g>
<g>
	<path fill="#75C0CC" d="M369.6,569.8v20.3c0,11,5.4,23.2,11.9,23.2h5.3c6.6,0,12-12.2,12-23.2l0-20.3"/>
	<path fill="#4F463B" d="M386.8,616.8h-5.3c-9.1,0-15.4-14.1-15.4-26.7v-20.3h7v20.3c0,10.7,5.2,19.7,8.4,19.7h5.3
		c3.3,0,8.5-9,8.5-19.7l0-20.3l7,0l0,20.3C402.3,602.7,395.9,616.8,386.8,616.8z"/>
</g>
<g>
	<path fill="#75C0CC" d="M224.1,274.6h-3.7c-16.5,0-30-13.5-30-30v-80.7c0-11,9-20,20-20h23.7c11,0,20,9,20,20v80.7
		C254.1,261.1,240.6,274.6,224.1,274.6z"/>
	<path fill="#4F463B" d="M224.1,278.1h-3.7c-18.5,0-33.5-15-33.5-33.5v-80.7c0-13,10.5-23.5,23.5-23.5h23.7
		c13,0,23.5,10.5,23.5,23.5v80.7C257.6,263.1,242.5,278.1,224.1,278.1z M210.3,147.4c-9.1,0-16.5,7.4-16.5,16.5v80.7
		c0,14.6,11.9,26.5,26.5,26.5h3.7c14.6,0,26.5-11.9,26.5-26.5v-80.7c0-9.1-7.4-16.5-16.5-16.5H210.3z"/>
</g>
<g>
	<path fill="#75C0CC" d="M287.8,274.6h-3.7c-16.5,0-30-13.5-30-30v-80.7c0-11,9-20,20-20h23.7c11,0,20,9,20,20v80.7
		C317.8,261.1,304.3,274.6,287.8,274.6z"/>
	<path fill="#4F463B" d="M287.8,278.1h-3.7c-18.5,0-33.5-15-33.5-33.5v-80.7c0-13,10.5-23.5,23.5-23.5h23.7
		c13,0,23.5,10.5,23.5,23.5v80.7C321.3,263.1,306.3,278.1,287.8,278.1z M274.1,147.4c-9.1,0-16.5,7.4-16.5,16.5v80.7
		c0,14.6,11.9,26.5,26.5,26.5h3.7c14.6,0,26.5-11.9,26.5-26.5v-80.7c0-9.1-7.4-16.5-16.5-16.5H274.1z"/>
</g>
<g>
	<path fill="#75C0CC" d="M124.3,219.7l0-138.7c0-16.5,13.5-30,30-30h6c16.5,0,30,13.5,30,30v138.7"/>
	<path fill="#4F463B" d="M120.8,219.7l0-138.7c0-18.5,15-33.5,33.5-33.5h6c18.5,0,33.5,15,33.5,33.5v138.7h-7V80.9
		c0-14.6-11.9-26.5-26.5-26.5h-6c-14.6,0-26.5,11.9-26.5,26.5l0,138.7H120.8z"/>
</g>
<g>
	<path fill="#75C0CC" d="M317.8,256V33.5c0-16.5,13.5-30,30-30h6c16.5,0,30,13.5,30,30V261"/>
	<path fill="#4F463B" d="M387.3,261h-7V33.5c0-14.6-11.9-26.5-26.5-26.5h-6c-14.6,0-26.5,11.9-26.5,26.5V256h-7V33.5
		c0-18.5,15-33.5,33.5-33.5h6c18.5,0,33.5,15,33.5,33.5V261z"/>
</g>
<path fill="#75C0CC" stroke="#303044" stroke-width="7" stroke-linecap="round" stroke-linejoin="round" stroke-miterlimit="10" d="
	M157.3,61.3"/>
<path fill="#50706E" d="M221.8,268.4c-5.7,0-11-2-15.3-5.8c-5.7-5-9.2-12.8-9.2-20.7v-5.1c0-1.9,1.6-3.5,3.5-3.5s3.5,1.6,3.5,3.5
	v5.1c0,5.8,2.6,11.7,6.8,15.4c3.6,3.2,8.2,4.5,13.3,3.9c1.9-0.3,3.7,1.1,3.9,3s-1.1,3.7-3,3.9C224.1,268.3,222.9,268.4,221.8,268.4z
	"/>
<path fill="#50706E" d="M284.7,268.4c-5.7,0-11-2-15.3-5.8c-5.7-5-9.2-12.8-9.2-20.7v-5.1c0-1.9,1.6-3.5,3.5-3.5s3.5,1.6,3.5,3.5
	v5.1c0,5.8,2.6,11.7,6.8,15.4c3.6,3.2,8.2,4.5,13.3,3.9c1.9-0.3,3.7,1.1,3.9,3c0.3,1.9-1.1,3.7-3,3.9
	C287,268.3,285.8,268.4,284.7,268.4z"/>
<path fill="#50706E" d="M200.8,229.2c-1.9,0-3.5-1.6-3.5-3.5v-4.3c0-1.9,1.6-3.5,3.5-3.5s3.5,1.6,3.5,3.5v4.3
	C204.3,227.6,202.7,229.2,200.8,229.2z"/>
<path fill="#50706E" d="M263.7,229.2c-1.9,0-3.5-1.6-3.5-3.5v-4.3c0-1.9,1.6-3.5,3.5-3.5s3.5,1.6,3.5,3.5v4.3
	C267.2,227.6,265.6,229.2,263.7,229.2z"/>
<path fill="#50706E" d="M215.9,252.7c-1.9,0-3.5-1.6-3.5-3.5v-13.9c0-1.9,1.6-3.5,3.5-3.5s3.5,1.6,3.5,3.5v13.9
	C219.4,251.2,217.8,252.7,215.9,252.7z"/>
<path fill="#50706E" d="M229.7,252.7c-1.9,0-3.5-1.6-3.5-3.5v-13.9c0-1.9,1.6-3.5,3.5-3.5s3.5,1.6,3.5,3.5v13.9
	C233.2,251.2,231.6,252.7,229.7,252.7z"/>
<path fill="#50706E" d="M242.2,252.7c-1.9,0-3.5-1.6-3.5-3.5v-13.9c0-1.9,1.6-3.5,3.5-3.5s3.5,1.6,3.5,3.5v13.9
	C245.7,251.2,244.1,252.7,242.2,252.7z"/>
<path fill="#50706E" d="M279.9,252.7c-1.9,0-3.5-1.6-3.5-3.5v-13.9c0-1.9,1.6-3.5,3.5-3.5s3.5,1.6,3.5,3.5v13.9
	C283.4,251.2,281.8,252.7,279.9,252.7z"/>
<path fill="#50706E" d="M293.7,252.7c-1.9,0-3.5-1.6-3.5-3.5v-13.9c0-1.9,1.6-3.5,3.5-3.5s3.5,1.6,3.5,3.5v13.9
	C297.2,251.2,295.7,252.7,293.7,252.7z"/>
<path fill="#50706E" d="M306.2,252.7c-1.9,0-3.5-1.6-3.5-3.5v-13.9c0-1.9,1.6-3.5,3.5-3.5s3.5,1.6,3.5,3.5v13.9
	C309.7,251.2,308.2,252.7,306.2,252.7z"/>
<path fill="#50706E" d="M344.9,252.7c-1.9,0-3.5-1.6-3.5-3.5v-13.9c0-1.9,1.6-3.5,3.5-3.5s3.5,1.6,3.5,3.5v13.9
	C348.4,251.2,346.8,252.7,344.9,252.7z"/>
<path fill="#50706E" d="M331.7,252.7c-1.9,0-3.5-1.6-3.5-3.5v-13.9c0-1.9,1.6-3.5,3.5-3.5s3.5,1.6,3.5,3.5v13.9
	C335.2,251.2,333.6,252.7,331.7,252.7z"/>
<path fill="#50706E" d="M357.7,252.7c-1.9,0-3.5-1.6-3.5-3.5v-13.9c0-1.9,1.6-3.5,3.5-3.5s3.5,1.6,3.5,3.5v13.9
	C361.2,251.2,359.6,252.7,357.7,252.7z"/>
<path fill="#50706E" d="M370.2,252.7c-1.9,0-3.5-1.6-3.5-3.5v-13.9c0-1.9,1.6-3.5,3.5-3.5s3.5,1.6,3.5,3.5v13.9
	C373.7,251.2,372.1,252.7,370.2,252.7z"/>
<g>
	<path fill="#75C0CC" d="M296.7,320.7h-44.4c-28.3,0-51.5-23.2-51.5-51.5v0c0-11,9-20,20-20h148c17.9,0,30,11.8,30,30v42.4"/>
	<path fill="#4F463B" d="M398.8,325.2c-1.9,0-3.5-1.6-3.5-3.5v-42.4c0-16.1-10.4-26.5-26.5-26.5h-148c-9.1,0-16.5,7.4-16.5,16.5
		c0,26.5,21.5,48,48,48h44.4c1.9,0,3.5,1.6,3.5,3.5s-1.6,3.5-3.5,3.5h-44.4c-30.3,0-55-24.7-55-55c0-13,10.5-23.5,23.5-23.5h148
		c20,0,33.5,13.5,33.5,33.5v42.4C402.3,323.6,400.7,325.2,398.8,325.2z"/>
</g>
<g>
	<path fill="#75C0CC" d="M308.5,320.7h-7.9c-31.7,0-57.6,25.9-57.6,57.6v20"/>
	<path fill="#4F463B" d="M242.9,401.8c-1.9,0-3.5-1.6-3.5-3.5v-20c0-33.7,27.4-61.1,61.1-61.1h7.9c1.9,0,3.5,1.6,3.5,3.5
		s-1.6,3.5-3.5,3.5h-7.9c-29.8,0-54.1,24.3-54.1,54.1v20C246.4,400.3,244.9,401.8,242.9,401.8z"/>
</g>
<path fill="#50706E" d="M266.2,312.6h-11.4c-25,0-45.4-18.1-45.4-40.4c0-1.9,1.6-3.5,3.5-3.5s3.5,1.6,3.5,3.5
	c0,18.4,17.2,33.4,38.4,33.4h11.4c1.9,0,3.5,1.6,3.5,3.5S268.1,312.6,266.2,312.6z"/>
<path fill="#50706E" d="M264.2,354.3c-0.7,0-1.5-0.2-2.1-0.7c-1.5-1.2-1.8-3.4-0.7-4.9c9.9-13,27-20.8,37.8-20.8
	c1.9,0,3.5,1.6,3.5,3.5s-1.6,3.5-3.5,3.5c-7.8,0-23.3,6.3-32.2,18.1C266.3,353.8,265.3,354.3,264.2,354.3z"/>
<path fill="#50706E" d="M291.7,312.6H280c-1.9,0-3.5-1.6-3.5-3.5s1.6-3.5,3.5-3.5h11.7c1.9,0,3.5,1.6,3.5,3.5
	S293.6,312.6,291.7,312.6z"/>
<path fill="#50706E" d="M257.6,365.9c-0.4,0-0.9-0.1-1.3-0.3c-1.8-0.7-2.6-2.8-1.9-4.6l1.4-3.3c0.7-1.8,2.8-2.6,4.6-1.9
	c1.8,0.7,2.6,2.8,1.9,4.6l-1.4,3.3C260.3,365,259,365.9,257.6,365.9z"/>
<path fill="#50706E" d="M280,656.1c-1.9,0-3.5-1.6-3.5-3.5c0-5.8-1.3-10-3.8-12.1c-2.7-2.3-6.1-1.8-6.2-1.7c-1.9,0.3-3.7-1-4-2.8
	c-0.3-1.9,0.9-3.7,2.8-4c0.3-0.1,6.6-1.2,11.9,3.2c4.3,3.5,6.4,9.5,6.4,17.5C283.5,654.5,281.9,656.1,280,656.1z"/>
<path fill="#50706E" d="M361.3,656.1c-1.9,0-3.5-1.6-3.5-3.5c0-5.8-1.3-10-3.8-12.1c-2.7-2.3-6.1-1.8-6.2-1.7c-1.9,0.3-3.7-1-4-2.8
	c-0.3-1.9,0.9-3.7,2.8-4c0.3-0.1,6.6-1.2,11.9,3.2c4.3,3.5,6.4,9.5,6.4,17.5C364.8,654.5,363.2,656.1,361.3,656.1z"/>
<path fill="#50706E" d="M188.7,656.1c-1.9,0-3.5-1.6-3.5-3.5c0-5.8-1.3-10-3.8-12.1c-2.7-2.3-6.1-1.8-6.2-1.7c-1.9,0.3-3.7-1-4-2.8
	c-0.3-1.9,0.9-3.7,2.8-4c0.3-0.1,6.6-1.2,11.9,3.2c4.3,3.5,6.4,9.4,6.4,17.5C192.2,654.5,190.7,656.1,188.7,656.1z"/>
<path fill="#7F3430" d="M280,578.1c-1.9,0-3.5-1.6-3.5-3.5c0-5.8-1.3-10-3.8-12.1c-2.7-2.3-6.1-1.8-6.2-1.7c-1.9,0.3-3.7-1-4-2.8
	c-0.3-1.9,0.9-3.7,2.8-4c0.3-0.1,6.6-1.2,11.9,3.2c4.3,3.5,6.4,9.5,6.4,17.5C283.5,576.5,281.9,578.1,280,578.1z"/>
<path fill="#7F3430" d="M361.3,578.1c-1.9,0-3.5-1.6-3.5-3.5c0-5.8-1.3-10-3.8-12.1c-2.7-2.3-6.1-1.8-6.2-1.7c-1.9,0.3-3.7-1-4-2.8
	c-0.3-1.9,0.9-3.7,2.8-4c0.3-0.1,6.6-1.2,11.9,3.2c4.3,3.5,6.4,9.5,6.4,17.5C364.8,576.5,363.2,578.1,361.3,578.1z"/>
<path fill="#7F3430" d="M188.7,578.1c-1.9,0-3.5-1.6-3.5-3.5c0-5.8-1.3-10-3.8-12.1c-2.7-2.3-6.1-1.8-6.2-1.7c-1.9,0.3-3.7-1-4-2.8
	c-0.3-1.9,0.9-3.7,2.8-4c0.3-0.1,6.6-1.2,11.9,3.2c4.3,3.5,6.4,9.4,6.4,17.5C192.2,576.5,190.7,578.1,188.7,578.1z"/>
<path fill="#7F3430" d="M361.3,593.3c-1.9,0-3.5-1.6-3.5-3.5V585c0-1.9,1.6-3.5,3.5-3.5s3.5,1.6,3.5,3.5v4.8
	C364.8,591.7,363.2,593.3,361.3,593.3z"/>
<path fill="#7F3430" d="M280,593.3c-1.9,0-3.5-1.6-3.5-3.5V585c0-1.9,1.6-3.5,3.5-3.5s3.5,1.6,3.5,3.5v4.8
	C283.5,591.7,281.9,593.3,280,593.3z"/>
<path fill="#7F3430" d="M188.7,593.3c-1.9,0-3.5-1.6-3.5-3.5V585c0-1.9,1.6-3.5,3.5-3.5s3.5,1.6,3.5,3.5v4.8
	C192.2,591.7,190.7,593.3,188.7,593.3z"/>
<path fill="#50706E" d="M361.3,671.4c-1.9,0-3.5-1.6-3.5-3.5v-4.8c0-1.9,1.6-3.5,3.5-3.5s3.5,1.6,3.5,3.5v4.8
	C364.8,669.8,363.2,671.4,361.3,671.4z"/>
<path fill="#50706E" d="M280,671.4c-1.9,0-3.5-1.6-3.5-3.5v-4.8c0-1.9,1.6-3.5,3.5-3.5s3.5,1.6,3.5,3.5v4.8
	C283.5,669.8,281.9,671.4,280,671.4z"/>
<path fill="#50706E" d="M188.7,671.4c-1.9,0-3.5-1.6-3.5-3.5v-4.8c0-1.9,1.6-3.5,3.5-3.5s3.5,1.6,3.5,3.5v4.8
	C192.2,669.8,190.7,671.4,188.7,671.4z"/>
<path fill="#BDF2F2" d="M234.9,744.5c-1.9,0-3.5-1.6-3.5-3.5v-14.2c0-1.9,1.6-3.5,3.5-3.5s3.5,1.6,3.5,3.5V741
	C238.4,743,236.8,744.5,234.9,744.5z"/>
<path fill="#BDF2F2" d="M316.9,744.5c-1.9,0-3.5-1.6-3.5-3.5v-14.2c0-1.9,1.6-3.5,3.5-3.5s3.5,1.6,3.5,3.5V741
	C320.4,743,318.8,744.5,316.9,744.5z"/>
<path fill="#BDF2F2" d="M388.6,744.5c-1.9,0-3.5-1.6-3.5-3.5v-14.2c0-1.9,1.6-3.5,3.5-3.5s3.5,1.6,3.5,3.5V741
	C392.1,743,390.6,744.5,388.6,744.5z"/>
<path fill="#BDF2F2" d="M144.1,744.5c-1.9,0-3.5-1.6-3.5-3.5v-14.2c0-1.9,1.6-3.5,3.5-3.5s3.5,1.6,3.5,3.5V741
	C147.6,743,146.1,744.5,144.1,744.5z"/>
<path fill="#EF9797" d="M234.9,664.4c-1.9,0-3.5-1.6-3.5-3.5v-14.2c0-1.9,1.6-3.5,3.5-3.5s3.5,1.6,3.5,3.5v14.2
	C238.4,662.8,236.8,664.4,234.9,664.4z"/>
<circle fill="#EF9797" cx="221.7" cy="675.3" r="9.8"/>
<path fill="#EF9797" d="M316.9,667.4c-1.9,0-3.5-1.6-3.5-3.5v-14.2c0-1.9,1.6-3.5,3.5-3.5s3.5,1.6,3.5,3.5v14.2
	C320.4,665.8,318.8,667.4,316.9,667.4z"/>
<circle fill="#EF9797" cx="308.2" cy="678.9" r="6.2"/>
<path fill="#EF9797" d="M388.6,667.4c-1.9,0-3.5-1.6-3.5-3.5v-14.2c0-1.9,1.6-3.5,3.5-3.5s3.5,1.6,3.5,3.5v14.2
	C392.1,665.8,390.6,667.4,388.6,667.4z"/>
<circle fill="#EF9797" cx="384.4" cy="679.3" r="4.8"/>
<circle fill="#EF9797" cx="139.6" cy="679.3" r="4.8"/>
<circle fill="#BDF2F2" cx="221.7" cy="597.2" r="9.8"/>
<circle fill="#BDF2F2" cx="308.2" cy="600.7" r="6.2"/>
<circle fill="#BDF2F2" cx="384.4" cy="601.1" r="4.8"/>
<circle fill="#BDF2F2" cx="139.6" cy="601.1" r="4.8"/>
<circle fill="#BDF2F2" cx="221.7" cy="754.8" r="9.8"/>
<circle fill="#BDF2F2" cx="308.2" cy="758.3" r="6.2"/>
<circle fill="#BDF2F2" cx="384.4" cy="758.8" r="4.8"/>
<circle fill="#BDF2F2" cx="139.6" cy="758.8" r="4.8"/>
<path fill="#EF9797" d="M144.1,667.4c-1.9,0-3.5-1.6-3.5-3.5v-14.2c0-1.9,1.6-3.5,3.5-3.5s3.5,1.6,3.5,3.5v14.2
	C147.6,665.8,146.1,667.4,144.1,667.4z"/>
<path fill="#50706E" d="M136.5,381.7c-1.9,0-3.5-1.6-3.5-3.5V304c0-1.9,1.6-3.5,3.5-3.5s3.5,1.6,3.5,3.5v74.2
	C140,380.2,138.4,381.7,136.5,381.7z"/>
<path fill="#50706E" d="M136.5,417.6c-1.9,0-3.5-1.6-3.5-3.5v-22.3c0-1.9,1.6-3.5,3.5-3.5s3.5,1.6,3.5,3.5v22.3
	C140,416,138.4,417.6,136.5,417.6z"/>
<path fill="#50706E" d="M136.5,597.7c-1.9,0-3.5-1.6-3.5-3.5V520c0-1.9,1.6-3.5,3.5-3.5s3.5,1.6,3.5,3.5v74.2
	C140,596.1,138.4,597.7,136.5,597.7z"/>
<path fill="#50706E" d="M136.5,510.4c-1.9,0-3.5-1.6-3.5-3.5v-11.7c0-1.9,1.6-3.5,3.5-3.5s3.5,1.6,3.5,3.5v11.7
	C140,508.8,138.4,510.4,136.5,510.4z"/>
<path fill="#BDF2F2" d="M387.2,553.6c-1.9,0-3.5-1.6-3.5-3.5v-30.5c0-1.9,1.6-3.5,3.5-3.5s3.5,1.6,3.5,3.5v30.5
	C390.7,552.1,389.2,553.6,387.2,553.6z"/>
<path fill="#BDF2F2" d="M387.6,443.1c-1.9,0-3.5-1.6-3.5-3.5v-9.9c0-1.9,1.6-3.5,3.5-3.5s3.5,1.6,3.5,3.5v9.9
	C391.1,441.6,389.6,443.1,387.6,443.1z"/>
<path id="highlight_1_" fill="#BDF2F2" d="M388.6,590.1c-1.9,0-3.5-1.6-3.5-3.5v-14.2c0-1.9,1.6-3.5,3.5-3.5s3.5,1.6,3.5,3.5v14.2
	C392.1,588.5,390.6,590.1,388.6,590.1z M316.9,590.1c-1.9,0-3.5-1.6-3.5-3.5v-14.2c0-1.9,1.6-3.5,3.5-3.5s3.5,1.6,3.5,3.5v14.2
	C320.4,588.5,318.8,590.1,316.9,590.1z M234.9,590.1c-1.9,0-3.5-1.6-3.5-3.5v-14.2c0-1.9,1.6-3.5,3.5-3.5s3.5,1.6,3.5,3.5v14.2
	C238.4,588.5,236.8,590.1,234.9,590.1z M144.1,590.1c-1.9,0-3.5-1.6-3.5-3.5v-14.2c0-1.9,1.6-3.5,3.5-3.5s3.5,1.6,3.5,3.5v14.2
	C147.6,588.5,146.1,590.1,144.1,590.1z M387.6,504.9c-1.9,0-3.5-1.6-3.5-3.5v-9.9c0-1.9,1.6-3.5,3.5-3.5s3.5,1.6,3.5,3.5v9.9
	C391.1,503.4,389.6,504.9,387.6,504.9z M387.2,419.2c-1.9,0-3.5-1.6-3.5-3.5v-30.5c0-1.9,1.6-3.5,3.5-3.5s3.5,1.6,3.5,3.5v30.5
	C390.7,417.6,389.2,419.2,387.2,419.2z M387.6,367.8c-1.9,0-3.5-1.6-3.5-3.5v-9.9c0-1.9,1.6-3.5,3.5-3.5s3.5,1.6,3.5,3.5v9.9
	C391.1,366.3,389.6,367.8,387.6,367.8z M386.2,312.5c-1.9,0-3.5-1.6-3.5-3.5v-6c0-1.9,1.6-3.5,3.5-3.5s3.5,1.6,3.5,3.5v6
	C389.7,310.9,388.2,312.5,386.2,312.5z M386.2,291.4c-1.9,0-3.5-1.6-3.5-3.5c0-14-6.8-20.5-21.5-20.5h-29.6c-1.9,0-3.5-1.6-3.5-3.5
	s1.6-3.5,3.5-3.5h29.6c18.6,0,28.5,9.5,28.5,27.5C389.7,289.9,388.2,291.4,386.2,291.4z M306.2,195.6c-1.9,0-3.5-1.6-3.5-3.5v-3.5
	c0-1.9,1.6-3.5,3.5-3.5s3.5,1.6,3.5,3.5v3.5C309.7,194.1,308.2,195.6,306.2,195.6z M242.6,195.6c-1.9,0-3.5-1.6-3.5-3.5v-3.5
	c0-1.9,1.6-3.5,3.5-3.5s3.5,1.6,3.5,3.5v3.5C246.1,194.1,244.5,195.6,242.6,195.6z M306.2,178.8c-1.9,0-3.5-1.6-3.5-3.5v-7.7
	c0-3.6-2.9-6.5-6.5-6.5H285c-1.9,0-3.5-1.6-3.5-3.5s1.6-3.5,3.5-3.5h11.3c7.4,0,13.5,6.1,13.5,13.5v7.7
	C309.7,177.2,308.2,178.8,306.2,178.8z M242.6,178.8c-1.9,0-3.5-1.6-3.5-3.5v-7.7c0-3.6-2.9-6.5-6.5-6.5h-11.3
	c-1.9,0-3.5-1.6-3.5-3.5s1.6-3.5,3.5-3.5h11.3c7.4,0,13.5,6.1,13.5,13.5v7.7C246.1,177.2,244.5,178.8,242.6,178.8z M180.1,126.2
	c-1.9,0-3.5-1.6-3.5-3.5v-15.8c0-1.9,1.6-3.5,3.5-3.5s3.5,1.6,3.5,3.5v15.8C183.6,124.6,182.1,126.2,180.1,126.2z M180.1,95.3
	c-1.9,0-3.5-1.6-3.5-3.5v-5.1c0-9.6-7-19.2-20.5-19.2c-1.9,0-3.5-1.6-3.5-3.5c0-1.9,1.6-3.5,3.5-3.5c8.1,0,15,2.7,20.1,7.9
	c4.8,4.8,7.4,11.3,7.4,18.3v5.1C183.6,93.8,182,95.3,180.1,95.3z M373.1,90.8c-1.9,0-3.5-1.6-3.5-3.5V58.4c0-1.9,1.6-3.5,3.5-3.5
	s3.5,1.6,3.5,3.5v28.9C376.6,89.3,375,90.8,373.1,90.8z M372.8,48.1c-1.9,0-3.5-1.6-3.5-3.5v-5.1c0-9.6-7-19.2-20.5-19.2
	c-1.9,0-3.5-1.6-3.5-3.5s1.6-3.5,3.5-3.5c8.1,0,15,2.7,20.1,7.9c4.8,4.8,7.4,11.3,7.4,18.3v5.1C376.3,46.5,374.7,48.1,372.8,48.1z"
	/>
<g>
	<path fill="#D15847" d="M385.7,475.3h-248c-11,0-20-9-20-20v-5c0-11,9-20,20-20h248c11,0,20,9,20,20v5
		C405.7,466.3,396.7,475.3,385.7,475.3z"/>
	<path fill="#4F463B" d="M385.7,478.8h-248c-13,0-23.5-10.5-23.5-23.5v-5c0-13,10.5-23.5,23.5-23.5h248c13,0,23.5,10.5,23.5,23.5v5
		C409.2,468.3,398.7,478.8,385.7,478.8z M137.7,433.8c-9.1,0-16.5,7.4-16.5,16.5v5c0,9.1,7.4,16.5,16.5,16.5h248
		c9.1,0,16.5-7.4,16.5-16.5v-5c0-9.1-7.4-16.5-16.5-16.5H137.7z"/>
</g>
<g>
	<defs>
		<path id="SVGID_1_" d="M385.7,475.3h-248c-11,0-20-9-20-20v-5c0-11,9-20,20-20h248c11,0,20,9,20,20v5
			C405.7,466.3,396.7,475.3,385.7,475.3z"/>
	</defs>
	<clipPath id="SVGID_2_">
		<use xlink:href="#SVGID_1_"  overflow="visible"/>
	</clipPath>
	<g opacity="0.5" clip-path="url(#SVGID_2_)">
		
			<rect x="147.6" y="369" transform="matrix(0.8018 0.5976 -0.5976 0.8018 272.0556 -67.7213)" fill="#FCF0DE" width="181" height="14.5"/>
		
			<rect x="127.6" y="395.9" transform="matrix(0.8018 0.5976 -0.5976 0.8018 284.1394 -50.4345)" fill="#FCF0DE" width="181" height="14.5"/>
		
			<rect x="106.1" y="424.8" transform="matrix(0.8018 0.5976 -0.5976 0.8018 297.1249 -31.8577)" fill="#FCF0DE" width="181" height="14.5"/>
		
			<rect x="84.3" y="454" transform="matrix(0.8018 0.5976 -0.5976 0.8018 310.2907 -13.0229)" fill="#FCF0DE" width="181" height="14.5"/>
		
			<rect x="63.4" y="482.1" transform="matrix(-0.8018 -0.5976 0.5976 -0.8018 -15.1899 973.6364)" fill="#FCF0DE" width="181" height="14.5"/>
		
			<rect x="42.4" y="510.2" transform="matrix(-0.8018 -0.5976 0.5976 -0.8018 -69.6456 1011.7021)" fill="#FCF0DE" width="181" height="14.5"/>
		
			<rect x="417.8" y="338.3" transform="matrix(0.5976 -0.8018 0.8018 0.5976 -172.7657 513.3318)" fill="#FCF0DE" width="14.5" height="181"/>
		
			<rect x="314.5" y="448.4" transform="matrix(-0.8018 -0.5976 0.5976 -0.8018 457.4476 1063.0028)" fill="#FCF0DE" width="181" height="14.5"/>
		
			<rect x="293" y="477.3" transform="matrix(-0.8018 -0.5976 0.5976 -0.8018 401.4361 1102.156)" fill="#FCF0DE" width="181" height="14.5"/>
		
			<rect x="271.2" y="506.5" transform="matrix(-0.8018 -0.5976 0.5976 -0.8018 344.6464 1141.853)" fill="#FCF0DE" width="181" height="14.5"/>
		
			<rect x="250.3" y="534.6" transform="matrix(-0.8018 -0.5976 0.5976 -0.8018 290.1906 1179.9186)" fill="#FCF0DE" width="181" height="14.5"/>
		
			<rect x="229.3" y="562.7" transform="matrix(-0.8018 -0.5976 0.5976 -0.8018 235.7349 1217.9844)" fill="#FCF0DE" width="181" height="14.5"/>
	</g>
</g>
<path fill="#4F463B" d="M385.7,478.8h-248c-13,0-23.5-10.5-23.5-23.5v-5c0-13,10.5-23.5,23.5-23.5h248c13,0,23.5,10.5,23.5,23.5v5
	C409.2,468.3,398.7,478.8,385.7,478.8z M137.7,433.8c-9.1,0-16.5,7.4-16.5,16.5v5c0,9.1,7.4,16.5,16.5,16.5h248
	c9.1,0,16.5-7.4,16.5-16.5v-5c0-9.1-7.4-16.5-16.5-16.5H137.7z"/>
<g>
	<path fill="#D15847" d="M305.6,653.7c0-24.3-18-154.3-18-154.3c0-11-9-20-20-20h-4.9c-11,0-20,9-20,20c0,0-17,133.7-17,154.3
		c0,20.7,38.7,58.7,38.7,58.7S305.6,678,305.6,653.7z"/>
	<path fill="#4F463B" d="M264.5,715.8c-0.9,0-1.8-0.3-2.5-1c-1.6-1.6-39.8-39.3-39.8-61.2c0-20.4,16-146.6,17-154.6
		c0.1-12.9,10.6-23.3,23.5-23.3h4.9c12.9,0,23.4,10.4,23.5,23.2c1.1,7.9,18,130.6,18,154.6c0,25.7-40.6,59.9-42.4,61.4
		C266.1,715.6,265.3,715.8,264.5,715.8z M262.8,482.8c-9.1,0-16.5,7.4-16.5,16.5c0,0.1,0,0.3,0,0.4c-0.2,1.3-17,133.7-17,153.9
		c0,14.7,23.7,42,35.4,53.9c3.6-3.2,10.8-9.8,17.8-17.8c12.8-14.5,19.6-27,19.6-36.1c0-23.8-17.8-152.6-18-153.9c0-0.2,0-0.3,0-0.5
		c0-9.1-7.4-16.5-16.5-16.5H262.8z"/>
</g>
<g>
	<defs>
		<path id="SVGID_3_" d="M305.7,654c0-24.3-18-154.3-18-154.3c0-11-9-20-20-20h-4.9c-11,0-20,9-20,20c0,0-17,133.7-17,154.3
			c0,20.7,38.7,58.7,38.7,58.7S305.7,678.3,305.7,654z"/>
	</defs>
	<clipPath id="SVGID_4_">
		<use xlink:href="#SVGID_3_"  overflow="visible"/>
	</clipPath>
	<g clip-path="url(#SVGID_4_)">
		
			<rect x="303.5" y="446.7" transform="matrix(0.5976 -0.8018 0.8018 0.5976 -305.7 465.3691)" opacity="0.5" fill="#FCF0DE" width="14.5" height="181"/>
		
			<rect x="200.3" y="556.8" transform="matrix(-0.8018 -0.5976 0.5976 -0.8018 186.782 1190.1409)" opacity="0.5" fill="#FCF0DE" width="181" height="14.5"/>
		
			<rect x="178.7" y="585.7" transform="matrix(-0.8018 -0.5976 0.5976 -0.8018 130.7704 1229.2941)" opacity="0.5" fill="#FCF0DE" width="181" height="14.5"/>
		
			<rect x="156.9" y="615" transform="matrix(-0.8018 -0.5976 0.5976 -0.8018 73.9808 1268.991)" opacity="0.5" fill="#FCF0DE" width="181" height="14.5"/>
		
			<rect x="136" y="643" transform="matrix(-0.8018 -0.5976 0.5976 -0.8018 19.5249 1307.0566)" opacity="0.5" fill="#FCF0DE" width="181" height="14.5"/>
		
			<rect x="115.1" y="671.1" transform="matrix(-0.8018 -0.5976 0.5976 -0.8018 -34.9307 1345.1224)" fill="#FCF0DE" width="181" height="14.5"/>
	</g>
</g>
<path fill="#4F463B" d="M264.6,716.1c-0.9,0-1.8-0.3-2.5-1c-1.6-1.6-39.8-39.3-39.8-61.2c0-20.4,16-146.6,17-154.6
	c0.1-12.9,10.6-23.3,23.5-23.3h4.9c12.9,0,23.4,10.4,23.5,23.2c1.1,7.9,18,130.6,18,154.6c0,25.7-40.6,59.9-42.4,61.4
	C266.2,715.9,265.4,716.1,264.6,716.1z M262.8,483.1c-9.1,0-16.5,7.4-16.5,16.5c0,0.1,0,0.3,0,0.4c-0.2,1.3-17,133.7-17,153.9
	c0,14.7,23.7,42,35.4,53.9c3.6-3.2,10.8-9.8,17.8-17.8c12.8-14.5,19.6-27,19.6-36.1c0-23.8-17.8-152.6-18-153.9c0-0.2,0-0.3,0-0.5
	c0-9.1-7.4-16.5-16.5-16.5H262.8z"/>
<path fill="#7F3430" d="M225.2,446.5H214c-1.9,0-3.5-1.6-3.5-3.5s1.6-3.5,3.5-3.5h11.2c1.9,0,3.5,1.6,3.5,3.5
	S227.1,446.5,225.2,446.5z"/>
<path fill="#7F3430" d="M227.7,457.5h-11.2c-1.9,0-3.5-1.6-3.5-3.5s1.6-3.5,3.5-3.5h11.2c1.9,0,3.5,1.6,3.5,3.5
	S229.6,457.5,227.7,457.5z"/>
<path fill="#7F3430" d="M231.3,467.8h-11.2c-1.9,0-3.5-1.6-3.5-3.5s1.6-3.5,3.5-3.5h11.2c1.9,0,3.5,1.6,3.5,3.5
	S233.3,467.8,231.3,467.8z"/>
<path fill="#7F3430" d="M315,446.5h-11.2c-1.9,0-3.5-1.6-3.5-3.5s1.6-3.5,3.5-3.5H315c1.9,0,3.5,1.6,3.5,3.5S317,446.5,315,446.5z"
	/>
<path fill="#7F3430" d="M312.5,457.5h-11.2c-1.9,0-3.5-1.6-3.5-3.5s1.6-3.5,3.5-3.5h11.2c1.9,0,3.5,1.6,3.5,3.5
	S314.4,457.5,312.5,457.5z"/>
<path fill="#7F3430" d="M308.9,467.8h-11.2c-1.9,0-3.5-1.6-3.5-3.5s1.6-3.5,3.5-3.5h11.2c1.9,0,3.5,1.6,3.5,3.5
	S310.8,467.8,308.9,467.8z"/>
<path fill="#7F3430" d="M270.7,504.8c-1.9,0-3.5-1.6-3.5-3.5v-11.2c0-1.9,1.6-3.5,3.5-3.5s3.5,1.6,3.5,3.5v11.2
	C274.2,503.3,272.7,504.8,270.7,504.8z"/>
<path fill="#7F3430" d="M260.4,504.8c-1.9,0-3.5-1.6-3.5-3.5v-11.2c0-1.9,1.6-3.5,3.5-3.5s3.5,1.6,3.5,3.5v11.2
	C263.9,503.3,262.3,504.8,260.4,504.8z"/>
<g>
	<path fill="#D15847" d="M277.8,486.3h-26.1c-11,0-16.1-8.2-20-20l-5-22c0-11,9-20,20-20h36.1c11,0,20,9,20,20l-5,22
		C295,476.5,288.8,486.3,277.8,486.3z"/>
	<path fill="#4F463B" d="M277.8,489.8h-26.1c-14.1,0-19.7-11.3-23.3-22.4l-0.1-0.3l-5.1-22.4v-0.4c0-13,10.5-23.5,23.5-23.5h36.1
		c13,0,23.5,10.5,23.5,23.5v0.4l-5.1,22.5C297.2,481.6,288.7,489.8,277.8,489.8z M235.1,465.4c4.1,12.5,8.8,17.4,16.6,17.4h26.1
		c10.3,0,14.8-10.8,16.6-17.4l4.9-21.5c-0.2-8.9-7.5-16.1-16.5-16.1h-36.1c-9,0-16.3,7.2-16.5,16.1L235.1,465.4z"/>
</g>
<path fill="#682D2C" d="M267.6,480.8c-0.3,0-8.4,0-15.4-0.5c-8.9-0.6-12.4-10.2-12.8-11.3l-2.7-7.4c-0.7-1.8,0.3-3.8,2.1-4.5
	c1.8-0.7,3.8,0.3,4.5,2.1l2.8,7.4c0,0,0,0.1,0,0.1c0,0,2.1,6.3,6.7,6.6c6.8,0.5,14.8,0.5,14.9,0.5c1.9,0,3.5,1.6,3.5,3.5
	S269.6,480.8,267.6,480.8z"/>
<path fill="#EF9797" d="M293.7,451.8l-6-3.6c0,0,1-2.1-0.2-5.4c-1.3-3.4-5.7-4.9-8.2-4.9h-13.5c-1.9,0-3.5-1.6-3.5-3.5
	s1.6-3.5,3.5-3.5h13.5c4.4,0,12,2.5,14.8,9.4C296.5,446.7,294,451.3,293.7,451.8z"/>
<path fill="#EF9797" d="M288.2,465.5c-0.2,0-0.4,0-0.7-0.1c-1.9-0.4-3.1-2.2-2.8-4.1l0.5-2.8c0.4-1.9,2.2-3.1,4.1-2.8
	c1.9,0.4,3.1,2.2,2.8,4.1l-0.5,2.8C291.3,464.3,289.8,465.5,288.2,465.5z"/>
<path fill="#7F3430" d="M250.7,683.3c-0.9,0-1.9-0.4-2.6-1.1c-15.1-16.5-15.6-26.7-15.6-27.8c0-0.1,0-0.2,0-0.4l3.9-38.5
	c0.2-1.9,1.9-3.3,3.8-3.1c1.9,0.2,3.3,1.9,3.1,3.8l-3.9,38.3c0.1,1,1.3,9.4,13.7,23c1.3,1.4,1.2,3.6-0.2,4.9
	C252.4,683,251.6,683.3,250.7,683.3z"/>
<path fill="#7F3430" d="M262.4,698.3c-1,0-2-0.4-2.7-1.3l-4.2-5c-1.2-1.5-1-3.7,0.5-4.9c1.5-1.2,3.7-1,4.9,0.5l4.2,5
	c1.2,1.5,1,3.7-0.5,4.9C264,698.1,263.2,698.3,262.4,698.3z"/>
<path fill="#7F3430" d="M158.7,469.5h-17.3c-5.2,0-9.3-1.6-12.2-4.7c-4.1-4.5-4-10.4-4-11.6v-4.6c0-1.9,1.6-3.5,3.5-3.5
	c1.9,0,3.5,1.6,3.5,3.5v4.7c0,0.1,0,0.2,0,0.3c0,0-0.2,4,2.2,6.5c1.5,1.6,3.9,2.4,7,2.4h17.3c1.9,0,3.5,1.6,3.5,3.5
	S160.6,469.5,158.7,469.5z"/>
<path fill="#7F3430" d="M182.4,469.5h-9c-1.9,0-3.5-1.6-3.5-3.5s1.6-3.5,3.5-3.5h9c1.9,0,3.5,1.6,3.5,3.5S184.3,469.5,182.4,469.5z"
	/>
<path fill="#F7E0DF" d="M396.2,456.7c0,0-0.1,0-0.1,0c-1.9-0.1-3.4-1.6-3.4-3.5v-0.3c0-0.1,0-0.2,0-0.3c0-1.1-0.2-4-2.2-6.1
	c-1.5-1.6-3.9-2.4-7-2.4h-17.3c-1.9,0-3.5-1.6-3.5-3.5s1.6-3.5,3.5-3.5h17.3c5.2,0,9.3,1.6,12.2,4.7c4.4,4.7,4,11,4,11.8
	C399.6,455.3,398,456.7,396.2,456.7z"/>
<path fill="#F7E0DF" d="M392.7,464.9c-0.9,0-1.8-0.4-2.5-1c-0.6-0.6-1-1.6-1-2.5s0.4-1.8,1-2.5c1.3-1.3,3.7-1.3,5,0
	c0.7,0.6,1,1.6,1,2.5c0,0.9-0.4,1.8-1,2.5C394.5,464.5,393.6,464.9,392.7,464.9z"/>
<g>
	<path fill="#4F463B" d="M27.8,414.2c-5.1,0-10-1.9-13.7-5.5c-4.6-4.4-6.9-10.7-6.1-17l5.7-44.6c1.1-8.6,7.7-15.6,16.2-17.2l7-1.3
		c4.8-1.6,10.1-1.4,15,0.9l18.7,8.8c7.8,3.7,12.3,11.9,11.3,20.4L78,391c-1,8.7-7.6,15.7-16.3,17.3l-30.4,5.6
		C30.2,414.1,29,414.2,27.8,414.2z"/>
	<path fill="#4F463B" d="M65.3,407.3c-5.1,0-10-1.9-13.7-5.5c-4.6-4.4-6.9-10.7-6.1-17l3.4-26.5c0-1.2,0.2-2.4,0.4-3.5l1.8-14.7
		c1-8.1,6.8-14.7,14.6-16.8c0.7-0.2,1.4-0.4,2.1-0.5l26.4-4.8c10.8-2,21.2,5.1,23.2,15.9c0.5,2.8,0.5,5.7-0.2,8.4l-1,8.1
		c-0.2,1.5-0.5,2.9-1,4.2c0,1.5-0.2,2.9-0.6,4.3l-1,8c-0.1,0.9-0.3,1.8-0.5,2.7c0.2,1.7,0.2,3.5,0,5.2l-1.3,10.2
		c-1.1,8.6-7.7,15.5-16.2,17.1L68.9,407C67.7,407.2,66.5,407.3,65.3,407.3z"/>
	<path fill="#4F463B" d="M108,405.6c-5.1,0-10-1.9-13.7-5.5c-4.6-4.4-6.9-10.7-6.1-17l7.3-57.9c1.1-8.6,7.7-15.6,16.2-17.2l13.1-2.4
		c6.3-1.1,12.7,0.8,17.4,5.1c4.6,4.4,6.9,10.7,6.1,17l-7.4,57.9c-1.1,8.6-7.7,15.6-16.2,17.1l-13.1,2.4
		C110.4,405.5,109.2,405.6,108,405.6z"/>
	<path fill="#4F463B" d="M134.9,400.7c-5.1,0-10-1.9-13.7-5.5c-4.6-4.4-6.9-10.7-6.1-17l7.3-57.6c1.1-8.6,7.7-15.6,16.2-17.2
		l9.5-1.7c4.9-1.8,10.4-1.6,15.4,0.7l24.1,11.4c7.8,3.7,12.3,11.9,11.3,20.4l-4.9,41.6c-1,8.7-7.6,15.7-16.3,17.3l-39.3,7.2
		C137.3,400.6,136.1,400.7,134.9,400.7z"/>
	<path fill="#4F463B" d="M182.7,391.9c-5.1,0-10-1.9-13.7-5.5c-4.6-4.4-6.9-10.7-6.1-17l4.4-34.5c0-1.3,0.2-2.7,0.5-4l2.4-19.2
		c1-8.1,6.8-14.7,14.6-16.8c0.7-0.2,1.4-0.4,2.2-0.5l34.1-6.2c10.9-2,21.3,5.2,23.3,16c0.5,2.9,0.4,5.8-0.3,8.6l-1.4,10.8
		c-0.2,1.8-0.7,3.5-1.3,5.1c0.1,1.9-0.2,3.8-0.6,5.6l-1.3,10.7c-0.2,1.3-0.5,2.6-0.9,3.8c0.4,2.1,0.5,4.2,0.2,6.4l-1.7,13.2
		c-1.1,8.6-7.7,15.5-16.2,17.1l-34.5,6.3C185.1,391.8,183.9,391.9,182.7,391.9z"/>
	<path fill="#4F463B" d="M228.9,383.5c-5.1,0-10-1.9-13.8-5.5c-4.6-4.4-6.9-10.7-6.1-17l7.4-57.9c1.1-8.6,7.7-15.6,16.2-17.1
		l39.4-7.2c6.3-1.1,12.7,0.8,17.3,5.1s6.9,10.7,6.1,17l-1.7,13.9c-0.1,0.5-0.1,1-0.2,1.5l-0.8,6.3c0,0.5-0.1,1-0.1,1.5l-1.8,13.8
		c-0.1,0.5-0.1,0.9-0.2,1.4l-2.5,19.6c-1.1,8.7-7.7,15.6-16.2,17.2l-13.1,2.4c-2.3,0.4-4.6,0.4-6.8,0.1c-1.9,1.1-4.1,1.9-6.4,2.3
		l-13.1,2.4C231.3,383.4,230.1,383.5,228.9,383.5z"/>
	<path fill="#4F463B" d="M277.4,374.6c-5.1,0-10-1.9-13.8-5.5c-4.6-4.4-6.9-10.7-6.1-17l7.4-57.9c1.1-8.6,7.7-15.6,16.2-17.1
		l13.1-2.4c6.3-1.1,12.7,0.8,17.3,5.1c4.6,4.4,6.9,10.7,6.1,17l-2.1,17c6.1-1,12.3,1,16.9,5.2c4.6,4.4,6.9,10.7,6.1,17l-1.8,13.8
		c-1.1,8.6-7.7,15.6-16.2,17.1l-39.5,7.2C279.8,374.5,278.6,374.6,277.4,374.6z"/>
	<path fill="#4F463B" d="M323.3,366.2c-5.1,0-10-1.9-13.8-5.5c-4.6-4.4-6.9-10.7-6.1-17l4.4-34.5c0-1.4,0.2-2.7,0.5-4l2.4-19.2
		c1-8.1,6.8-14.7,14.5-16.8c0.7-0.2,1.5-0.4,2.2-0.5l34.1-6.2c5.2-1,10.6,0.2,15,3.2c4.4,3,7.4,7.7,8.3,12.9
		c0.5,2.9,0.4,5.8-0.3,8.5l-1.4,10.8c-0.2,1.8-0.7,3.5-1.3,5.1c0.1,1.9-0.2,3.8-0.6,5.6l-1.3,10.7c-0.2,1.3-0.5,2.6-0.9,3.8
		c0.4,2.1,0.5,4.2,0.2,6.4l-1.7,13.2c-1.1,8.6-7.7,15.5-16.2,17.1l-34.5,6.3C325.7,366.1,324.5,366.2,323.3,366.2z"/>
	<path fill="#4F463B" d="M374.1,350.7c-5.1,0-10-1.9-13.8-5.5c-4.6-4.4-6.9-10.7-6.1-17l1.4-10.7c1.1-8.5,7.5-15.4,15.9-17.1
		l2.5-19.6c1.1-8.7,7.7-15.6,16.2-17.2l10.2-1.9c6.3-1.2,12.7,0.8,17.4,5.1c4.6,4.4,6.9,10.7,6.1,17l-5.7,44.8
		c-1.1,8.6-7.7,15.6-16.2,17.1l-24.2,4.4C376.5,350.6,375.3,350.7,374.1,350.7z"/>
	<path fill="#4F463B" d="M408,344.5c-5.1,0-10-1.9-13.7-5.5c-4.6-4.4-6.9-10.7-6.1-17l5.7-44.8c1.1-8.6,7.7-15.6,16.2-17.2l10.2-1.9
		c0,0,0,0,0,0l21.7-4c6.3-1.1,12.7,0.8,17.4,5.1c4.6,4.4,6.9,10.7,6.1,17l-5.7,44.8c-1.1,8.6-7.7,15.6-16.2,17.1l-31.9,5.8
		C410.4,344.4,409.2,344.5,408,344.5z"/>
	<path fill="#4F463B" d="M450.3,336.7c-5.1,0-10-1.9-13.7-5.5c-4.6-4.4-6.9-10.7-6.1-17l5.7-44.8c1.1-8.6,7.6-15.6,16.2-17.2
		l24.9-4.6c6.3-1.2,12.7,0.7,17.4,5.1c4.6,4.4,6.9,10.7,6.1,17.1l-0.2,1.2c3.2,4.2,4.7,9.4,4,14.7l-3.5,27.8
		c-1.1,8.6-7.7,15.6-16.2,17.2l-30.8,5.7C452.7,336.6,451.5,336.7,450.3,336.7z"/>
</g>
<g>
	<path opacity="0.8" fill="#FFFFFF" d="M62,356.4l-3.8,32.2l-30.4,5.6l5.7-44.6l9.7-1.8l0.2-0.3L62,356.4z M51.4,362.7l-9.2-4.4
		l-3,23.3l10-1.8L51.4,362.7z"/>
	<path opacity="0.8" fill="#FFFFFF" d="M97.8,337.6l-0.1,0l-1.3,10.2l-16.6,3l-0.8,6.3l16.2-3l-0.1,0l-1.3,10.2l-16.1,2.9l-1,7.9
		l16.6-3L92,382.4l-16.6,3l-10.1,1.9l3.6-28.2l-0.1-0.1l0.1,0l2.1-16.4l0.4-0.1l0,0L97.8,337.6L97.8,337.6z"/>
	<path fill="#FFFFFF" d="M115.3,327.7l13.1-2.4l-7.4,57.9l-13.1,2.4L115.3,327.7z"/>
	<path fill="#FFFFFF" d="M179.1,331.9l-4.9,41.6l-39.3,7.2l7.3-57.6l12.5-2.3l0.2-0.3L179.1,331.9z M165.4,340l-11.9-5.6l-3.8,30.1
		l12.9-2.4L165.4,340z"/>
	<path fill="#FFFFFF" d="M224.7,307.8l-0.2,0l-1.7,13.1l-21.4,3.9l-1,8.1l20.9-3.8l-0.2,0l-1.7,13.2l-20.7,3.8l-1.3,10.2l21.4-3.9
		l-1.7,13.2l-21.4,3.9l-13.1,2.4l4.6-36.4l-0.1-0.2l0.1,0l2.7-21.2l0.5-0.1l0-0.1L224.7,307.8L224.7,307.8z"/>
	<path fill="#FFFFFF" d="M273.9,312.2l-1.1,9.2l0.1,0l-1.8,13.8l-0.1,0l-2.7,21l-13.1,2.4l2.7-21l-13.2,2.4l-2.7,21l-13.1,2.4
		l7.4-57.9l39.4-7.2L273.9,312.2L273.9,312.2z M260.8,314.6l-13.2,2.4l-1.1,9.2l13.2-2.4L260.8,314.6z"/>
	<path fill="#FFFFFF" d="M318.6,333.5l-1.8,13.8l-39.5,7.2l7.4-57.9l13.1-2.4l-5.6,44L318.6,333.5z"/>
	<path fill="#FFFFFF" d="M365.2,282l-0.2,0l-1.7,13.1l-21.4,3.9l-1,8.1l20.9-3.8l-0.2,0l-1.7,13.2l-20.7,3.8l-1.3,10.2l21.4-3.9
		l-1.7,13.2l-21.4,3.9l-13.1,2.4l4.6-36.4l-0.1-0.2l0.1,0l2.7-21.2l0.5-0.1l0-0.1L365.2,282L365.2,282z"/>
	<path opacity="0.8" fill="#FFFFFF" d="M404,281.5l-5.7,44.8l-24.2,4.4l1.4-10.7l14.1-2.6l4.3-34.1L404,281.5z"/>
	<path opacity="0.8" fill="#FFFFFF" d="M445.6,273.8l-5.7,44.8l-31.9,5.8l5.7-44.8l10.2-1.9l0,0l10.1-1.8L445.6,273.8z M432.5,286.7
		l-10,1.8l-3,23.4l10.1-1.8L432.5,286.7z"/>
	<path opacity="0.8" fill="#FFFFFF" d="M478.7,284.4l6-1.1l-3.5,27.8l-30.8,5.7L456,272l24.9-4.6L478.7,284.4z M473.2,295.9
		l-10.5,1.9l-0.8,6.4l10.6-1.9L473.2,295.9z M463.9,287.1l4.6-0.8l0.8-6.4l-4.6,0.8L463.9,287.1z"/>
</g>
<g>
	<circle fill="#4F463B" cx="10.3" cy="426.4" r="6.7"/>
	<circle fill="#4F463B" cx="172.7" cy="286.5" r="6.7"/>
	<circle fill="#4F463B" cx="342.2" cy="377.5" r="6.7"/>
	<circle fill="#4F463B" cx="444.5" cy="244.3" r="6.7"/>
	<circle fill="#4F463B" cx="501" cy="337.2" r="6.7"/>
	<circle fill="#4F463B" cx="98.3" cy="410.7" r="6.7"/>
	<circle fill="#4F463B" cx="25.8" cy="422.6" r="2.9"/>
	<circle fill="#4F463B" cx="52.5" cy="319.7" r="2.9"/>
	<circle fill="#4F463B" cx="251.4" cy="384.2" r="2.9"/>
	<circle fill="#4F463B" cx="165.9" cy="296.1" r="2.9"/>
	<circle fill="#4F463B" cx="313.5" cy="269.4" r="2.9"/>
	<circle fill="#4F463B" cx="60.8" cy="317.3" r="1.8"/>
	<circle fill="#4F463B" cx="45.8" cy="320.6" r="1.2"/>
	<circle fill="#4F463B" cx="316.4" cy="258.7" r="1.2"/>
	<circle fill="#4F463B" cx="391.8" cy="258.7" r="1.2"/>
	<circle fill="#4F463B" cx="233.7" cy="388.3" r="1.2"/>
	<circle fill="#4F463B" cx="107.9" cy="404" r="2.9"/>
	<circle fill="#4F463B" cx="357.9" cy="364.9" r="2.9"/>
	<circle fill="#4F463B" cx="382.1" cy="258.7" r="2.9"/>
	<circle fill="#4F463B" cx="457" cy="240.5" r="2.9"/>
	<circle fill="#4F463B" cx="507.7" cy="319.7" r="2.9"/>
</g>
<path fill="#4F463B" d="M510.8,308.6c-0.1,0-0.2,0-0.3,0c-0.7-0.1-1.2-0.8-1.1-1.6c7.2-37.3-2.2-41.7-2.3-41.7
	c-0.5-0.2-0.9-0.7-0.9-1.2c-0.2-10.2-3.2-17.2-8.7-20.9c-9.2-6.2-22.6-1.4-22.7-1.3c-0.7,0.3-1.5-0.1-1.7-0.8
	c-0.3-0.7,0.1-1.5,0.8-1.7c0.6-0.2,14.9-5.4,25.2,1.6c6.1,4.2,9.4,11.7,9.8,22.3c2.7,1.8,9.7,9.9,3.1,44.3
	C512,308.1,511.5,308.6,510.8,308.6z"/>
<path fill="#4F463B" d="M197.3,287.4c-0.9,0-1.6-0.6-1.8-1.5c-0.2-1,0.5-1.9,1.4-2.1l22.5-4c0,0,0.1,0,0.1,0c4.1-0.4,5.8-0.4,7,0.3
	c2.3-1.8,5.4-2.3,7.8-2.6c0.6-0.1,1.3-0.2,1.8-0.3c2.9-0.6,27.6-5,29.8-5.4c0.9-0.3,5.5-1.6,9.6,0.1c1.8-2.5,4.6-3.2,7.4-3.7
	l10.1-1.6c0.9,0,1.8,0.4,2.1,1.7s-1.5,1.9-1.5,1.9l-10.1,1.6c-3.3,0.5-4.7,1.3-5.6,3.3c-0.2,0.5-0.6,0.8-1.1,1
	c-0.5,0.1-1,0.1-1.5-0.2c-3.2-2.1-8.3-0.5-8.3-0.5c-0.1,0-0.2,0.1-0.3,0.1c-0.3,0-26.8,4.8-29.8,5.4c-0.6,0.1-1.3,0.2-2,0.3
	c-2.4,0.4-5.5,0.8-6.8,2.6c-0.3,0.4-0.8,0.6-1.3,0.7c-0.5,0-1-0.1-1.4-0.5c-0.2-0.2-0.3-0.3-0.4-0.4c-0.1-0.1-0.1-0.1-0.2-0.2
	c-0.2-0.1-1.1-0.2-4.8,0.2l-22.4,4C197.6,287.3,197.4,287.4,197.3,287.4z"/>
<path fill="#4F463B" d="M77,314.5c-0.4,0-0.8-0.3-0.9-0.7c-0.1-0.5,0.2-1,0.7-1.1l10.8-2.2c4.4-0.5,5.8-0.4,6.6,0.2
	c2.5-5.8,10.4-9.1,14.6-10.1c2.9-0.7,12.7-2.5,13.7-2.7c0.7-0.2,5.7-1.7,9.7,0.3c1.7-2.8,4.6-3.5,7.2-3.9l10.1-1.6
	c0.5-0.1,0.9,0.3,1,0.7c0.1,0.5-0.3,0.9-0.7,1l-10.1,1.6c-3.1,0.5-5.1,1.3-6.3,3.8c-0.1,0.2-0.3,0.4-0.6,0.5c-0.3,0.1-0.5,0-0.7-0.1
	c-3.6-2.4-9-0.6-9.1-0.6c0,0-0.1,0-0.1,0c-0.1,0-10.7,2-13.6,2.7c-4.1,0.9-12.1,4.2-13.7,10.1c-0.1,0.3-0.3,0.5-0.6,0.6
	c-0.3,0.1-0.6,0-0.9-0.2c-0.2-0.1-0.3-0.3-0.4-0.4c-0.5-0.5-0.8-0.8-5.8-0.3l-10.8,2.2C77.1,314.5,77,314.5,77,314.5z"/>
<path fill="#4F463B" d="M115.3,411.5l-0.6-3.5l10.1-1.6c3.3-0.5,4.7-1.3,5.6-3.3c0.2-0.5,0.6-0.8,1.1-1c0.5-0.1,1-0.1,1.5,0.2
	c3.2,2.1,8.3,0.5,8.3,0.5c0.1,0,0.2-0.1,0.3-0.1c0.3,0,26.8-4.8,29.8-5.4c0.6-0.1,1.3-0.2,2-0.3c2.4-0.4,5.5-0.8,6.8-2.6
	c0.3-0.4,0.8-0.6,1.3-0.7c0.5,0,1,0.1,1.4,0.5c0.2,0.2,0.3,0.3,0.4,0.4c0.1,0.1,0.1,0.1,0.2,0.2c0.2,0.1,1.1,0.2,4.8-0.2l22.4-4
	c1-0.2,1.9,0.5,2.1,1.4c0.2,1-0.5,1.9-1.4,2.1l-22.5,4c0,0-0.1,0-0.1,0c-4.1,0.4-5.8,0.4-7-0.3c-2.3,1.8-5.4,2.3-7.8,2.6
	c-0.6,0.1-1.3,0.2-1.8,0.3c-2.9,0.6-27.6,5-29.8,5.4c-0.9,0.3-5.5,1.6-9.6-0.1c-1.8,2.5-4.6,3.2-7.4,3.7L115.3,411.5z"/>
<path fill="#4F463B" d="M37.7,419.3c-0.4,0-0.8-0.3-0.9-0.7c-0.1-0.5,0.2-1,0.7-1c0.2,0,15.2-2.7,18.2-3.3c0.6-0.1,1.2-0.2,1.9-0.3
	c2.6-0.4,5.8-0.9,7.4-2.9c0.2-0.2,0.4-0.3,0.6-0.3c0.2,0,0.5,0.1,0.7,0.2c0.2,0.1,0.3,0.3,0.4,0.4c0.5,0.5,0.8,0.8,5.8,0.3l10.3-1.8
	c0.5-0.1,1,0.2,1,0.7c0.1,0.5-0.2,1-0.7,1l-10.4,1.9c-5,0.5-6.1,0.3-7-0.5c-2.1,2-5.3,2.5-7.9,2.9c-0.7,0.1-1.3,0.2-1.8,0.3
	c-3,0.6-17.6,3.2-18.2,3.3C37.8,419.3,37.8,419.3,37.7,419.3z"/>
<path fill="#4F463B" d="M377.8,359.1c-0.7,0-1.4-0.5-1.5-1.3c-0.1-0.8,0.4-1.6,1.2-1.7l22.5-3.7c4.5-1.1,4.7-1.4,4.9-1.8
	c0.1-0.2,0.2-0.3,0.3-0.5c0.2-0.4,0.5-0.6,0.9-0.7c0.4-0.1,0.8,0,1.2,0.2c2,1.3,5,0.7,7.5,0.2c0.7-0.1,1.4-0.3,2-0.3
	c2.9-0.4,21.6-3.9,21.8-3.9c0.1,0,0.2,0,0.3,0c0.1,0,5.5-0.1,7.9-3.3c0.3-0.3,0.7-0.6,1.1-0.6c0.4,0,0.9,0.1,1.2,0.5
	c1.7,1.8,3.7,1.8,6.6,1.3c3.1-0.6,17.9-3.6,18.1-3.6c0.8-0.2,1.6,0.4,1.8,1.2c0.2,0.8-0.4,1.6-1.2,1.8c-0.6,0.1-15,3.1-18.1,3.7
	c-2.7,0.5-5.6,0.7-8.1-1.1c-3.2,3-8.1,3.3-9,3.3c-1.7,0.3-18.9,3.5-21.8,3.9c-0.5,0.1-1.1,0.2-1.8,0.3c-2.4,0.5-5.6,1.1-8.3,0.1
	c-0.8,1-2.2,1.6-6.5,2.6c0,0-0.1,0-0.1,0l-22.6,3.7C377.9,359.1,377.8,359.1,377.8,359.1z"/>
<path fill="#4F463B" d="M269.9,382.5c-0.4,0-0.8-0.3-0.9-0.8c-0.1-0.5,0.3-0.9,0.7-1c3.1-0.5,5.1-1.3,6.3-3.8
	c0.1-0.2,0.3-0.4,0.6-0.5c0.3-0.1,0.5,0,0.7,0.1c3.6,2.4,9,0.6,9.1,0.6c0,0,0.1,0,0.1,0c0.3-0.1,31.3-5.7,34.3-6.3
	c0.5-0.1,1,0.2,1.1,0.7c0.1,0.5-0.2,1-0.7,1.1c-2.9,0.6-32.3,5.9-34.3,6.3c-0.7,0.2-5.7,1.7-9.7-0.3c-1.7,2.8-4.6,3.5-7.2,3.9
	C270,382.5,269.9,382.5,269.9,382.5z"/>
<path fill="#4F463B" d="M1.3,393.7c-0.2,0-0.4,0-0.5-0.1c-0.6-0.3-0.9-1-0.7-1.7c0.1-0.4,1-4.3,4.4-35l0.2-2
	c2.5-22.4,3.3-29.9,28.7-33.6c0.7-0.1,1.4,0.4,1.5,1.1c0.1,0.7-0.4,1.4-1.1,1.5c-23.4,3.4-24,8.7-26.4,31.2l-0.2,2
	c-3.5,31.4-4.4,35.2-4.6,35.7C2.4,393.4,1.9,393.7,1.3,393.7z"/>
<g>
	<g>
		<path fill="#75C0CC" d="M218.7,396.2l-0.8,5.7l6.1-1.1l-1.2,8.6l-6.1,1.1l-0.8,6l-8.2,1.4l0.8-6l-7.8,1.4l-0.8,6l-8.2,1.4l0.8-6
			l-6,1.1l1.2-8.6l6-1.1l0.8-5.7l-6,1.1l1.2-8.6l6-1.1l0.9-7.1l8.2-1.4l-0.9,7.1l7.8-1.4l1-7.1l8.1-1.4l-0.9,7.1l6-1.1l-1.2,8.6
			L218.7,396.2z M210.6,397.6l-7.8,1.4l-0.8,5.7l7.8-1.4L210.6,397.6z"/>
		<path fill="#4F463B" d="M191.9,431.2c-2.7,0-5.3-1-7.3-2.9c-0.9-0.8-1.6-1.8-2.1-2.9c-1.1-0.5-2.1-1.2-3.1-2
			c-2.4-2.3-3.6-5.7-3.1-9l1.2-8.6c0.1-0.9,0.4-1.9,0.7-2.7c-0.1-1-0.2-2,0-3l1.2-8.6c0.5-4,3.3-7.3,7-8.5c0.8-4.3,4.2-7.8,8.5-8.5
			l8.2-1.4c1.4-0.2,2.7-0.2,4,0.1c1.1-0.7,2.4-1.2,3.8-1.5l8.1-1.4c3.3-0.6,6.7,0.4,9.1,2.8c1.3,1.2,2.2,2.7,2.7,4.3
			c0.9,0.5,1.7,1,2.4,1.7c2.4,2.3,3.6,5.7,3.1,9l-1.2,8.6c-0.1,0.9-0.4,1.8-0.7,2.6c0.2,1,0.2,2,0,3l-1.2,8.6
			c-0.5,4.1-3.4,7.4-7.2,8.6c-1.1,3.8-4.3,6.7-8.3,7.4l-8.2,1.4c-1.4,0.2-2.7,0.2-4-0.1c-1.1,0.7-2.4,1.2-3.8,1.4l-8.2,1.4
			C193.1,431.1,192.5,431.2,191.9,431.2z"/>
	</g>
	<g>
		<path fill="#75C0CC" d="M255.5,399l-16.2,2.8l-1.5,10.8l-8.1,1.4l4.8-35.9l24.4-4.3l-2,14.6L255.5,399z M249.6,383.9l-8.2,1.4
			l-1.1,8l8.1-1.4L249.6,383.9z"/>
		<path fill="#4F463B" d="M229.7,424.6c-2.7,0-5.3-1-7.3-2.9c-2.4-2.3-3.6-5.6-3.1-9l4.8-35.9c0.6-4.5,4.1-8.2,8.6-8.9l24.4-4.3
			c3.3-0.6,6.7,0.4,9.1,2.8s3.6,5.6,3.1,9l-2,14.6l-1.5,10.5c-0.6,4.5-4.1,8.1-8.6,8.9l-8.7,1.5l-0.4,3.2c-0.6,4.5-4.1,8.1-8.6,8.9
			l-8.1,1.4C230.9,424.5,230.3,424.6,229.7,424.6z"/>
	</g>
	<g>
		<path fill="#75C0CC" d="M277.6,386l5.8,18.6l-8.1,1.4l-4.1-13.2l-0.9,0.2l-1.9,14.3l-8.2,1.4l4.8-35.9l8.1-1.4l-1.5,10.9l5-11.5
			l8.2-1.4L277.6,386z"/>
		<path fill="#4F463B" d="M260.2,419.2c-2.7,0-5.3-1-7.3-2.9c-2.4-2.3-3.6-5.7-3.1-9l4.8-35.9c0.6-4.5,4.1-8.1,8.6-8.9l8.1-1.4
			c0.6-0.1,1.2-0.2,1.8-0.2c0.6-0.2,1.2-0.4,1.8-0.5l8.2-1.4c3.8-0.7,7.7,0.8,10.1,3.9c2.4,3,2.9,7.2,1.4,10.7l-5.7,13.1l4.6,14.9
			c0.9,2.9,0.5,6-1.1,8.6c-1.6,2.6-4.2,4.4-7.1,4.9l-8.1,1.4c-1.2,0.2-2.4,0.2-3.6,0c-1,0.6-2.1,1-3.3,1.2L262,419
			C261.4,419.2,260.8,419.2,260.2,419.2z"/>
	</g>
	<g>
		<path fill="#75C0CC" d="M314.5,388.7l-16.2,2.8l-1.5,10.8l-8.1,1.4l4.8-35.9l24.4-4.3l-2,14.6L314.5,388.7z M308.7,373.5l-8.2,1.4
			l-1.1,8l8.1-1.4L308.7,373.5z"/>
		<path fill="#4F463B" d="M288.7,414.2c-2.7,0-5.3-1-7.3-2.9c-2.4-2.3-3.6-5.7-3.1-9l4.8-35.9c0.6-4.5,4.1-8.2,8.6-8.9l24.4-4.3
			c3.3-0.6,6.7,0.4,9.1,2.8c2.4,2.3,3.6,5.6,3.1,9l-2,14.6l-1.5,10.5c-0.6,4.5-4.1,8.1-8.6,8.9l-8.7,1.5l-0.4,3.2
			c-0.6,4.5-4.1,8.1-8.6,8.9l-8.1,1.4C289.9,414.2,289.3,414.2,288.7,414.2z"/>
	</g>
</g>
<g>
	<path fill="#BDF2F2" d="M218.7,396.2l-0.8,5.7l6.1-1.1l-1.2,8.6l-6.1,1.1l-0.8,6l-8.2,1.4l0.8-6l-7.8,1.4l-0.8,6l-8.2,1.4l0.8-6
		l-6,1.1l1.2-8.6l6-1.1l0.8-5.7l-6,1.1l1.2-8.6l6-1.1l0.9-7.1l8.2-1.4l-0.9,7.1l7.8-1.4l1-7.1l8.1-1.4l-0.9,7.1l6-1.1l-1.2,8.6
		L218.7,396.2z M210.6,397.6l-7.8,1.4l-0.8,5.7l7.8-1.4L210.6,397.6z"/>
	<path fill="#BDF2F2" d="M255.5,399l-16.2,2.8l-1.5,10.8l-8.1,1.4l4.8-35.9l24.4-4.3l-2,14.6L255.5,399z M249.6,383.9l-8.2,1.4
		l-1.1,8l8.1-1.4L249.6,383.9z"/>
	<path fill="#BDF2F2" d="M277.6,386l5.8,18.6l-8.1,1.4l-4.1-13.2l-0.9,0.2l-1.9,14.3l-8.2,1.4l4.8-35.9l8.1-1.4l-1.5,10.9l5-11.5
		l8.2-1.4L277.6,386z"/>
	<path fill="#BDF2F2" d="M314.5,388.7l-16.2,2.8l-1.5,10.8l-8.1,1.4l4.8-35.9l24.4-4.3l-2,14.6L314.5,388.7z M308.7,373.5l-8.2,1.4
		l-1.1,8l8.1-1.4L308.7,373.5z"/>
</g>
<g>
	<g>
		<path fill="#75C0CC" d="M101.3,506.7v-20c0-0.3,0.2-0.6,0.5-0.9c0.3-0.3,0.7-0.4,1.1-0.5c0.4-0.1,0.8,0,1.1,0.1
			c0.3,0.2,0.4,0.4,0.4,0.7v1.2c0.4-0.8,0.9-1.4,1.7-2c0.7-0.6,1.6-1,2.6-1.2c1.6-0.3,2.9,0.1,4,1.1c1.1,1,1.7,2.4,1.7,4.1v2.9
			c0,1.6-0.6,3.2-1.7,4.7s-2.4,2.3-3.9,2.6c-0.9,0.2-1.7,0.1-2.5-0.3c-0.8-0.4-1.3-0.8-1.7-1.5v8.3c0,0.3-0.2,0.6-0.5,0.9
			c-0.3,0.3-0.7,0.5-1.2,0.5c-0.5,0.1-0.9,0-1.2-0.1C101.5,507.2,101.3,507,101.3,506.7z M104.7,494.8c0,0.5,0.3,1,1,1.5
			s1.4,0.7,2.2,0.6c0.8-0.1,1.6-0.6,2.2-1.4c0.7-0.8,1-1.6,1-2.5V490c0-0.8-0.3-1.5-1-2.1s-1.4-0.8-2.3-0.6
			c-0.8,0.1-1.6,0.6-2.2,1.3c-0.6,0.7-1,1.6-1,2.5V494.8z"/>
		<path fill="#FFFFFF" d="M102.5,512.6c-1.1,0-2.2-0.3-3.1-0.8c-1.9-1-3-2.9-3-5.1v-20c0-1.8,0.8-3.5,2.3-4.7c1-0.8,2.2-1.4,3.5-1.6
			c0.8-0.1,1.7-0.2,2.4,0c1-0.6,2.2-1,3.4-1.2c3.1-0.6,6.1,0.3,8.3,2.4c2.1,2,3.3,4.7,3.3,7.8v2.9c0,2.8-0.9,5.4-2.7,7.7
			c-2.4,3.1-5.1,4.2-7,4.5c0,0,0,0-0.1,0v1.6c0,1.8-0.8,3.5-2.3,4.7c-1,0.9-2.2,1.4-3.6,1.6C103.4,512.5,102.9,512.6,102.5,512.6z
			 M107.1,491.9c0.4,0.3,1,0.5,1.5,0.4C108.2,492,107.6,491.8,107.1,491.9z"/>
	</g>
	<g>
		<path fill="#75C0CC" d="M116.7,491.9V489c0-1.7,0.6-3.2,1.9-4.7c1.3-1.5,2.8-2.4,4.6-2.7c1.8-0.3,3.3,0,4.6,1c1.3,1,2,2.4,2,4v2.9
			c0,1.6-0.7,3.2-2,4.7c-1.3,1.5-2.8,2.4-4.6,2.7c-1.8,0.3-3.3-0.1-4.6-1.1C117.4,494.9,116.7,493.6,116.7,491.9z M120.1,491.3
			c0,0.9,0.3,1.6,1,2.1c0.6,0.6,1.4,0.8,2.3,0.6c0.9-0.2,1.6-0.6,2.3-1.4c0.6-0.8,1-1.6,1-2.5v-2.9c0-0.8-0.3-1.5-1-2.1
			c-0.6-0.6-1.4-0.8-2.3-0.6c-0.9,0.2-1.6,0.6-2.3,1.4c-0.6,0.8-1,1.6-1,2.4V491.3z"/>
		<path fill="#FFFFFF" d="M122.1,502.2c-2.4,0-4.6-0.8-6.5-2.3c-2.5-2-3.9-4.8-3.9-8V489c0-2.9,1.1-5.6,3.2-8
			c2.1-2.3,4.6-3.8,7.5-4.3c3.1-0.5,6.1,0.2,8.5,2c2.5,1.9,3.9,4.8,3.9,8v2.9c0,2.9-1.1,5.6-3.2,8c-2.1,2.4-4.6,3.9-7.5,4.4
			C123.5,502.1,122.8,502.2,122.1,502.2z M122.5,489.2c0.4,0.3,1,0.4,1.5,0.4c-0.4-0.2-0.9-0.4-1.3-0.4h0
			C122.7,489.1,122.6,489.1,122.5,489.2z"/>
	</g>
	<g>
		<path fill="#75C0CC" d="M131.3,481.6c0-0.4,0.2-0.7,0.7-1.1c0.5-0.4,0.9-0.6,1.4-0.7c0.5-0.1,0.9,0,1,0.4l3.5,9.2l2.7-9.2
			c0.1-0.5,0.5-0.8,1.2-0.9c0.6-0.1,1,0.1,1.2,0.5l2.7,8.3l3.5-10.5c0.1-0.4,0.5-0.7,1-0.8c0.5-0.1,0.9,0,1.4,0.2s0.7,0.5,0.7,0.9
			c0,0.2,0,0.3-0.1,0.5l-4.9,13.7c-0.2,0.5-0.6,0.8-1.3,0.9c-0.7,0.1-1.2,0-1.4-0.4l-2.8-7.7l-2.7,8.6c-0.2,0.5-0.7,0.8-1.4,1
			c-0.7,0.1-1.1,0-1.3-0.5l-4.9-11.9C131.4,481.9,131.3,481.8,131.3,481.6z"/>
		<path fill="#FFFFFF" d="M137.3,499.6c-2.5,0-4.6-1.4-5.5-3.6l-4.9-12c0-0.1-0.1-0.2-0.1-0.2c-0.3-0.8-0.4-1.5-0.4-2.2
			c0-1.1,0.3-3.3,2.7-5.1c1.1-0.8,2.3-1.4,3.6-1.6c1.9-0.3,3.6,0.2,4.9,1.2c0.9-0.9,2.1-1.5,3.5-1.7c1.5-0.3,2.8,0,4,0.6
			c0.9-1.6,2.5-2.7,4.4-3c1.4-0.2,2.8-0.1,4.1,0.4c2.4,1,3.9,3.1,3.9,5.5c0,0.8-0.2,1.6-0.5,2.4l-4.9,13.6c-0.8,2.2-2.7,3.7-5.2,4.1
			c-1.6,0.3-3.1,0.1-4.3-0.6c-1,1.1-2.3,1.8-4,2.1C138.1,499.6,137.7,499.6,137.3,499.6z"/>
	</g>
	<g>
		<path fill="#75C0CC" d="M153.9,485.4v-3c0-1.7,0.6-3.2,1.9-4.7c1.3-1.4,2.8-2.3,4.7-2.6c1.7-0.3,3.2,0,4.5,0.9
			c1.2,0.9,1.9,2.2,1.9,3.8c0,0.6-0.1,1.2-0.2,1.6c-0.1,0.4-0.4,0.7-0.7,1c-0.3,0.2-0.6,0.4-0.9,0.5c-0.3,0.1-0.6,0.2-1.1,0.3
			l-6.7,1.2v0.7c0,1.1,0.4,1.8,1.1,2.3c0.8,0.5,1.8,0.6,3,0.4c0.9-0.2,1.7-0.5,2.5-1c0.8-0.5,1.2-0.8,1.4-0.9
			c0.4-0.1,0.7,0.1,0.9,0.3s0.4,0.6,0.4,0.9c0,0.5-0.5,1.1-1.5,1.8s-2.3,1.2-3.7,1.5c-2.2,0.4-3.9,0.1-5.3-0.8
			C154.6,488.7,153.9,487.3,153.9,485.4z M157.2,482.1l5.3-0.9c0.5-0.1,0.8-0.2,0.9-0.4c0.2-0.2,0.2-0.4,0.2-0.8
			c0-0.8-0.3-1.5-0.9-2c-0.6-0.5-1.4-0.6-2.3-0.5c-0.9,0.2-1.6,0.6-2.3,1.2c-0.6,0.7-1,1.4-1,2.3V482.1z"/>
		<path fill="#FFFFFF" d="M159.4,495.6c-2.4,0-4.5-0.6-6.3-1.8c-2.8-1.8-4.3-4.8-4.3-8.4v-3c0-2.9,1.1-5.7,3.2-8
			c2-2.3,4.6-3.7,7.5-4.2c3.1-0.5,5.9,0.1,8.2,1.7c2.5,1.8,3.9,4.6,3.9,7.9c0,1.2-0.2,2.3-0.5,3.3c-0.1,0.4-0.3,0.8-0.5,1.1
			c0.5,0.9,0.7,1.9,0.7,2.9c0,2.2-1.2,4.2-3.6,5.9c-1.6,1.1-3.5,1.9-5.7,2.3C161.2,495.5,160.3,495.6,159.4,495.6z"/>
	</g>
	<g>
		<path fill="#75C0CC" d="M169.5,487.6v-12.8c0-0.3,0.2-0.6,0.5-0.9c0.3-0.3,0.7-0.4,1.2-0.5c0.4-0.1,0.8,0,1.1,0.1
			c0.3,0.2,0.4,0.4,0.4,0.7v1.4c0.4-0.8,0.9-1.5,1.6-2.2c0.7-0.7,1.5-1.1,2.4-1.2l1-0.2c0.3-0.1,0.6,0,0.9,0.3
			c0.3,0.2,0.4,0.6,0.4,1c0,0.4-0.1,0.8-0.4,1.1c-0.3,0.3-0.5,0.5-0.9,0.6l-1,0.2c-1,0.2-1.9,0.8-2.7,1.8c-0.8,1-1.2,2.2-1.2,3.6
			v6.5c0,0.3-0.2,0.6-0.5,0.8c-0.3,0.3-0.7,0.5-1.2,0.6c-0.5,0.1-0.9,0-1.2-0.1C169.6,488.1,169.5,487.8,169.5,487.6z"/>
		<path fill="#FFFFFF" d="M170.7,493.4c-1.2,0-2.3-0.3-3.3-0.9c-1.8-1.1-2.9-2.9-2.9-5v-12.8c0-1.8,0.8-3.5,2.3-4.7
			c1-0.8,2.2-1.4,3.5-1.6c0.8-0.1,1.6-0.1,2.4,0c1-0.6,2-1,3.1-1.2l1-0.2c1.9-0.3,3.8,0.3,5.2,1.6c1.2,1.2,1.9,2.8,1.9,4.6
			c0,1.5-0.5,2.9-1.4,4.1c-1,1.4-2.4,2.3-4,2.6l-0.6,0.1c0,0.1-0.1,0.2-0.1,0.5v6.5c0,1-0.3,3-2.2,4.6c-1,0.9-2.3,1.5-3.6,1.7
			C171.5,493.4,171.1,493.4,170.7,493.4z"/>
	</g>
	<g>
		<path fill="#75C0CC" d="M180.3,480.7v-3c0-1.7,0.6-3.2,1.9-4.7c1.3-1.4,2.8-2.3,4.7-2.6c1.7-0.3,3.2,0,4.5,0.9
			c1.2,0.9,1.9,2.2,1.9,3.8c0,0.6-0.1,1.2-0.2,1.6c-0.1,0.4-0.4,0.7-0.7,1c-0.3,0.2-0.6,0.4-0.9,0.5c-0.3,0.1-0.6,0.2-1.1,0.3
			l-6.7,1.2v0.7c0,1.1,0.4,1.8,1.1,2.3c0.8,0.5,1.8,0.6,3,0.4c0.9-0.2,1.7-0.5,2.5-1c0.8-0.5,1.2-0.8,1.4-0.9
			c0.4-0.1,0.7,0.1,0.9,0.3c0.3,0.3,0.4,0.6,0.4,0.9c0,0.5-0.5,1.1-1.5,1.8s-2.3,1.2-3.7,1.5c-2.2,0.4-3.9,0.1-5.3-0.8
			C181,484,180.3,482.6,180.3,480.7z M183.6,477.4l5.3-0.9c0.5-0.1,0.8-0.2,0.9-0.4c0.2-0.2,0.2-0.4,0.2-0.8c0-0.8-0.3-1.5-0.9-2
			c-0.6-0.5-1.4-0.6-2.3-0.5c-0.9,0.2-1.6,0.6-2.3,1.2c-0.6,0.7-1,1.4-1,2.3V477.4z"/>
		<path fill="#FFFFFF" d="M185.9,490.9c-2.4,0-4.5-0.6-6.3-1.8c-2.8-1.8-4.3-4.8-4.3-8.4v-3c0-2.9,1.1-5.7,3.2-8
			c2-2.3,4.6-3.7,7.5-4.2c3.1-0.5,5.9,0.1,8.2,1.7c2.5,1.8,3.9,4.6,3.9,7.9c0,1.2-0.2,2.3-0.5,3.3c-0.1,0.4-0.3,0.8-0.5,1.1
			c0.5,0.9,0.7,1.9,0.7,2.9c0,2.2-1.2,4.2-3.6,5.9c-1.6,1.1-3.5,1.9-5.7,2.3C187.6,490.8,186.7,490.9,185.9,490.9z"/>
	</g>
	<g>
		<path fill="#75C0CC" d="M195.3,478.1v-2.9c0-1.7,0.6-3.3,1.7-4.7s2.4-2.3,4-2.5c0.9-0.2,1.8-0.1,2.5,0.3c0.7,0.3,1.3,0.8,1.6,1.4
			v-10.1c0-0.3,0.2-0.6,0.5-0.9c0.3-0.3,0.7-0.4,1.2-0.5c0.5-0.1,0.9-0.1,1.2,0.1c0.3,0.1,0.5,0.4,0.5,0.7v21.7
			c0,0.3-0.2,0.6-0.5,0.8c-0.3,0.3-0.7,0.5-1.2,0.6c-0.4,0.1-0.8,0-1.1-0.2c-0.3-0.2-0.5-0.4-0.5-0.7v-1.1c-0.3,0.7-0.9,1.4-1.7,2.1
			c-0.8,0.6-1.7,1-2.6,1.2c-1.5,0.3-2.8-0.1-3.9-1.2S195.3,479.7,195.3,478.1z M198.6,477.5c0,0.9,0.3,1.6,1,2.1s1.4,0.8,2.2,0.6
			c0.8-0.1,1.6-0.6,2.2-1.4s1-1.4,1-1.8v-3.6c0-1-0.3-1.7-1-2.2c-0.7-0.5-1.4-0.7-2.2-0.5c-0.9,0.2-1.6,0.6-2.3,1.4
			c-0.6,0.8-1,1.6-1,2.4V477.5z"/>
		<path fill="#FFFFFF" d="M200,488.5c-2.4,0-4.7-0.9-6.5-2.7c-2.1-2-3.2-4.7-3.2-7.7v-2.9c0-2.8,0.9-5.5,2.7-7.8
			c1.9-2.4,4.3-3.9,7.1-4.4v-3.4c0-1.8,0.8-3.5,2.3-4.7c1-0.8,2.2-1.3,3.5-1.6c1.5-0.3,3-0.1,4.2,0.5c2.1,1,3.3,3,3.3,5.2v21.7
			c0,1.7-0.8,3.3-2.1,4.5c-1,0.9-2.3,1.5-3.7,1.8c-0.8,0.1-1.6,0.1-2.4,0c-1.1,0.6-2.3,1.1-3.5,1.3
			C201.2,488.4,200.6,488.5,200,488.5z M201.2,475.3c0.4,0.3,0.9,0.4,1.4,0.4C202.2,475.4,201.7,475.3,201.2,475.3z"/>
	</g>
	<g>
		<path fill="#75C0CC" d="M218.3,479v-21.7c0-0.3,0.1-0.6,0.4-0.9c0.3-0.3,0.7-0.4,1.2-0.5c0.5-0.1,0.9-0.1,1.2,0.1
			c0.3,0.1,0.5,0.4,0.5,0.7v10.1c0.4-0.7,0.9-1.4,1.6-2c0.7-0.6,1.5-1,2.5-1.1c1.6-0.3,2.9,0.1,4,1.1c1.1,1,1.7,2.4,1.7,4.1v2.9
			c0,1.6-0.6,3.2-1.7,4.7c-1.1,1.5-2.4,2.3-3.9,2.6c-1,0.2-1.8,0.1-2.6-0.3c-0.8-0.3-1.4-0.8-1.7-1.5v1.1c0,0.3-0.2,0.6-0.5,0.9
			c-0.3,0.3-0.7,0.5-1.1,0.5c-0.5,0.1-0.9,0-1.2-0.1C218.5,479.5,218.3,479.2,218.3,479z M221.6,474.1c0,0.5,0.3,1,1,1.5
			s1.4,0.7,2.2,0.6c0.9-0.2,1.6-0.6,2.2-1.4c0.6-0.8,1-1.6,1-2.5v-2.9c0-0.8-0.3-1.5-1-2.1c-0.6-0.6-1.4-0.8-2.3-0.6
			c-0.8,0.1-1.6,0.6-2.2,1.3c-0.7,0.7-1,1.6-1,2.5V474.1z"/>
		<path fill="#FFFFFF" d="M219.5,484.8c-1.2,0-2.3-0.3-3.2-0.9c-1.9-1.1-3-3-3-5v-21.7c0-1.8,0.8-3.5,2.2-4.7c1-0.8,2.2-1.4,3.5-1.6
			c1.5-0.3,2.9-0.1,4.1,0.4c2.2,0.9,3.5,3,3.5,5.3v1.8c2.4,0,4.7,0.9,6.5,2.6c2.1,2,3.3,4.7,3.3,7.8v2.9c0,2.8-0.9,5.3-2.7,7.7
			c-2.4,3.1-5.1,4.2-7,4.5c-1.2,0.2-2.5,0.2-3.6,0c-0.7,0.4-1.5,0.7-2.2,0.8C220.4,484.8,219.9,484.8,219.5,484.8z M224.1,471.2
			c0.4,0.3,1,0.4,1.6,0.4C225.2,471.3,224.6,471.2,224.1,471.2z"/>
	</g>
	<g>
		<path fill="#75C0CC" d="M232.9,483.2c0-1,0.3-1.5,0.9-1.6c1-0.2,1.9-0.8,2.8-1.9c0.9-1.1,1.5-2.5,1.7-4.1l-5.3-11.4
			c-0.1-0.1-0.1-0.2-0.1-0.4c0-0.4,0.2-0.8,0.7-1.2c0.5-0.4,1-0.7,1.5-0.7c0.5-0.1,0.9,0,1,0.4l4,9.6l3.4-10.9
			c0.2-0.4,0.5-0.7,1-0.8c0.4-0.1,0.9,0,1.4,0.2c0.5,0.2,0.8,0.6,0.8,1c0,0.2,0,0.3-0.1,0.4l-4.7,13.2l-0.5,1.5
			c-0.1,0.3-0.3,0.8-0.6,1.5c-0.3,0.7-0.5,1.2-0.7,1.5l-0.8,1.3c-0.3,0.5-0.6,1-1,1.3c-0.3,0.3-0.7,0.6-1.1,1
			c-0.4,0.3-0.8,0.6-1.3,0.8s-1,0.4-1.6,0.4C233.4,484.5,232.9,484.1,232.9,483.2z"/>
		<path fill="#FFFFFF" d="M234,489.4c-3.5,0-6.1-2.7-6.1-6.2c0-3.9,2.4-5.9,4.7-6.4c0.1-0.1,0.2-0.1,0.3-0.3
			c0.1-0.1,0.2-0.2,0.2-0.3l-4.4-9.5c-0.5-0.8-0.7-1.8-0.7-2.8c0-1.1,0.3-3.2,2.5-5c1.2-1,2.5-1.6,3.8-1.9c1.9-0.3,3.7,0.2,5.1,1.4
			c0.9-1.6,2.5-2.7,4.3-3c1.4-0.3,2.9,0,4.4,0.6c2.3,1.1,3.7,3.1,3.7,5.6c0,0.8-0.1,1.5-0.4,2.2l-5.2,14.6c0,0.1,0,0.1-0.1,0.2
			l-0.6,1.5c-0.3,0.9-0.6,1.5-0.9,2c0,0,0,0.1-0.1,0.1l-0.8,1.3c-0.6,1-1.2,1.7-1.8,2.4c-0.4,0.4-0.8,0.8-1.3,1.2
			c-0.8,0.7-1.7,1.2-2.6,1.6c-0.8,0.3-1.7,0.6-2.6,0.8C234.9,489.4,234.4,489.4,234,489.4z"/>
	</g>
</g>
<g id="layer1_4_" transform="translate(116.92129,-338.61963)">
	<g id="g31225_4_" transform="translate(35.40372,35.392161)">
		<g>
			<path id="path38_4_" fill="#75C0CC" d="M133.8,760.3c0,0-5.6-4.6-5.6-4.6c-0.3-0.3-0.8-0.4-1.3-0.3l-9.4,1.7v3.6l10.3-1.8
				c0.8-0.1,1.5,0,2.1,0.5c0.6,0.5,0.9,1.1,0.9,1.9v10.3l3.6-0.6v-9.4C134.3,760.9,134.1,760.5,133.8,760.3"/>
			<path fill="#FFFFFF" d="M130.7,776.5c-1.2,0-2.3-0.4-3.2-1.2c-1.1-1-1.8-2.4-1.8-3.8v-7.3l-7.4,1.3c-1.5,0.3-3-0.1-4.1-1.1
				s-1.8-2.4-1.8-3.8V757c0-2.4,1.7-4.5,4.1-4.9l9.4-1.7c1.9-0.3,3.9,0.2,5.4,1.4l0,0.1c1.1,0.8,2.8,2.2,5.6,4.5
				c1.5,1.2,2.4,3,2.4,5v9.5c0,2.4-1.7,4.5-4.1,4.9l-3.6,0.6C131.3,776.5,131,776.5,130.7,776.5z"/>
		</g>
		<g>
			<path id="path42_4_" fill="#75C0CC" d="M143.8,752.3c-0.5,0.1-0.9,0.4-1.3,0.8l-5.6,6.6c-0.3,0.4-0.5,0.9-0.5,1.4v9.4l3.6-0.6
				v-10.3c0-1.6,1.3-3.2,3-3.5l10.3-1.8v-3.6L143.8,752.3"/>
			<path fill="#FFFFFF" d="M136.4,775.5c-1.2,0-2.3-0.4-3.2-1.2c-1.1-1-1.8-2.4-1.8-3.8v-9.5c0-1.7,0.6-3.3,1.7-4.6l5.6-6.6
				c1.1-1.3,2.6-2.2,4.2-2.4l9.4-1.7c1.5-0.3,3,0.1,4.1,1.1c1.1,1,1.8,2.4,1.8,3.8v3.6c0,2.4-1.7,4.5-4.1,4.9l-9.2,1.6v9.1
				c0,2.4-1.7,4.5-4.1,4.9l-3.6,0.6C136.9,775.5,136.6,775.5,136.4,775.5z"/>
		</g>
		<g>
			<path id="path46_4_" fill="#75C0CC" d="M167.8,747.7c-1.7,0.3-3.5,1.9-4.4,3.8l0,0.1l-0.2,0V749l-2.7,0.5v16.9l2.9-0.5v-7.7
				c0-4.3,1.9-7.4,4.8-7.9c0.6-0.1,1.2-0.1,1.6,0v-2.6C169.2,747.6,168.7,747.6,167.8,747.7"/>
			<path fill="#FFFFFF" d="M160.4,771.3c-1.2,0-2.3-0.4-3.2-1.2c-1.1-0.9-1.8-2.4-1.8-3.8v-16.9c0-2.4,1.7-4.5,4.1-4.9l2.7-0.5
				c0.5-0.1,1-0.1,1.4,0c1-0.6,2.1-1,3.2-1.2c1.1-0.2,1.9-0.2,3-0.2c2.7,0.1,4.9,2.3,4.9,5v2.6c0,1.5-0.7,2.9-1.8,3.9
				c-1.1,0.9-2.5,1.3-3.9,1.1c-0.2,0.3-0.7,1.2-0.7,3v7.7c0,2.4-1.7,4.5-4.1,4.9l-2.9,0.5C161,771.3,160.7,771.3,160.4,771.3z"/>
		</g>
		<g>
			<path id="path50_4_" fill="#75C0CC" d="M258,733.5c-1.1-0.9-2.8-1.1-5.1-0.7c-1.9,0.3-3.8,1.2-5.5,2.5l0.2,2.4
				c1.3-1.3,3.1-2.2,4.9-2.5c1.5-0.3,2.5-0.1,3.2,0.5c0.7,0.6,1.1,1.7,1.1,3.4v0.1l-0.1,0c-1.2,0.2-2.1,0.3-3.3,0.5
				c-2.1,0.4-4.9,1.4-6.5,3.3c-0.9,1.1-1.3,2.3-1.3,3.6c0,1.6,0.4,2.7,1.3,3.4c1,0.9,2.7,1.1,4.8,0.7c3.1-0.5,4.7-2.6,5.2-3.5l0,0
				l0.2,0v2.2l2.6-0.5v-10.3C259.6,736,259.1,734.4,258,733.5z M256.7,741.2v1.6c0,1.3-0.4,2.6-1.2,3.5c-0.9,1-2.1,1.7-3.6,2
				c-0.9,0.2-1.9-0.1-2.5-0.6c-0.5-0.4-0.8-1-0.8-1.8c0-3.1,4.2-4.2,6-4.5c0.3-0.1,0.7-0.1,1-0.1c0.3,0,0.7-0.1,1-0.1L256.7,741.2"
				/>
			<path fill="#FFFFFF" d="M249.8,755.8c-3.1,0-5.1-1.1-6.2-2c-1.4-1.2-3.2-3.4-3.2-7.3c0-2.5,0.9-4.9,2.5-6.8
				c-0.2-0.5-0.4-1.1-0.4-1.7l-0.2-2.4c-0.1-1.7,0.6-3.3,2-4.3c2.4-1.8,5-3,7.7-3.5c3.8-0.7,6.8-0.1,9.1,1.8
				c2.3,1.9,3.5,4.9,3.5,8.9v10.3c0,2.4-1.7,4.5-4.1,4.9l-2.6,0.5c-0.5,0.1-1.1,0.1-1.6,0c-1.1,0.6-2.4,1.1-3.9,1.4
				C251.5,755.8,250.6,755.8,249.8,755.8z"/>
		</g>
		<g>
			<path id="path54_4_" fill="#75C0CC" d="M181.9,746.9c-1.1-0.9-2.8-1.1-5.1-0.7c-1.9,0.3-3.8,1.2-5.5,2.5l0.2,2.4
				c1.3-1.3,3.1-2.2,4.9-2.5c1.5-0.3,2.5-0.1,3.2,0.5c0.7,0.6,1.1,1.7,1.1,3.4v0.1l-0.1,0c-1.2,0.2-2.1,0.3-3.3,0.5
				c-2.1,0.4-4.9,1.4-6.5,3.3c-0.9,1.1-1.3,2.3-1.3,3.6c0,1.6,0.4,2.7,1.3,3.4c1,0.9,2.7,1.1,4.8,0.7c3.1-0.5,4.7-2.6,5.2-3.5l0,0
				l0.2,0v2.2l2.6-0.5v-10.3C183.6,749.5,183,747.8,181.9,746.9z M180.7,754.6v1.6c0,1.3-0.4,2.6-1.2,3.5c-0.9,1-2.1,1.7-3.6,2
				c-0.9,0.2-1.9-0.1-2.5-0.6c-0.5-0.4-0.8-1-0.8-1.8c0-3.1,4.2-4.2,6-4.5c0.3-0.1,0.7-0.1,1-0.1c0.3,0,0.7-0.1,1-0.1L180.7,754.6"
				/>
			<path fill="#FFFFFF" d="M173.8,769.3c-3.1,0-5.1-1.1-6.2-2c-1.4-1.2-3.1-3.4-3.1-7.3c0-2.5,0.9-4.9,2.5-6.8
				c-0.2-0.5-0.4-1.1-0.4-1.7l-0.2-2.4c-0.1-1.7,0.6-3.3,2-4.3c2.4-1.8,5-3,7.7-3.5c3.9-0.7,6.8-0.1,9.1,1.8
				c2.3,1.9,3.5,4.9,3.5,8.9v10.3c0,2.4-1.7,4.5-4.1,4.9l-2.6,0.5c-0.5,0.1-1.1,0.1-1.6,0c-1.1,0.6-2.4,1.1-3.9,1.4
				C175.5,769.2,174.6,769.3,173.8,769.3z"/>
		</g>
		<g>
			<path id="path58_4_" fill="#75C0CC" d="M199.4,743.7c-1-0.9-2.5-1.1-4.5-0.8c-2.4,0.4-4.6,2-5.5,4l0,0.1l-0.2,0v-2.7l-2.8,0.5
				v16.9l2.9-0.5v-7.8c0-2.2,0.4-4,1.3-5.4c0.9-1.5,2.3-2.4,4-2.7c2.7-0.3,3.7,1.3,3.7,5.6v8.8l2.9-0.5v-10.1
				C201.3,746.5,200.6,744.7,199.4,743.7"/>
			<path fill="#FFFFFF" d="M186.4,766.8c-1.2,0-2.3-0.4-3.2-1.2c-1.1-1-1.8-2.4-1.8-3.8v-16.9c0-2.4,1.7-4.5,4.1-4.9l2.8-0.5
				c0.6-0.1,1.2-0.1,1.7,0c1.2-0.7,2.6-1.2,4-1.4c3.4-0.6,6.3,0.1,8.5,1.8c2.4,2,3.6,5.1,3.6,9.2v10.1c0,2.4-1.7,4.5-4.1,4.9
				l-2.9,0.5c-1.5,0.3-3-0.1-4.1-1.1c-0.4-0.3-0.7-0.7-1-1.1c-0.5,1.9-2,3.4-4,3.8l-2.9,0.5C186.9,766.7,186.6,766.8,186.4,766.8z"
				/>
		</g>
		<g>
			<path id="path62_4_" fill="#75C0CC" d="M228,744.7c-1.6-0.5-3.1-0.9-3.1-2.5c0-1.3,1.2-2.4,3.1-2.7c0.7-0.1,2.4,0,3.2,0.2
				l0.2-2.5c-1.3-0.2-2.4-0.2-3.8,0c-2,0.3-3.5,1.2-4.6,2.4c-0.9,1-1.3,2.3-1.3,3.8c0,2.6,2.2,3.3,4.2,3.9c1.6,0.5,3.2,1,3.2,2.5
				c0,0.7-0.2,1.3-0.6,1.8c-0.8,1-2.1,1.3-2.7,1.4c-0.8,0.1-2.5,0.1-3.8-0.5l-0.2,2.6c1.5,0.5,3.2,0.3,4.6,0.1c1.6-0.3,3-1,4.1-2
				c1.2-1.1,1.8-2.6,1.8-4.3C232.2,745.9,230,745.3,228,744.7"/>
			<path fill="#FFFFFF" d="M224,760.4c-1.4,0-2.6-0.2-3.8-0.6c-2.1-0.7-3.5-2.8-3.4-5l0.2-2.6c0.1-1.3,0.7-2.5,1.6-3.4
				c-1.1-1.3-1.9-3-1.9-5.3c0-2.7,0.9-5.1,2.5-7c1.8-2.1,4.4-3.5,7.5-4.1c1.7-0.3,3.2-0.3,5.3-0.1c2.7,0.3,4.6,2.7,4.4,5.4l-0.2,2.5
				c-0.1,1-0.5,2-1.2,2.7c1.3,1.3,2.2,3.2,2.2,5.9c0,3-1.2,5.8-3.3,7.9c-1.7,1.7-4.1,2.9-6.7,3.3C226.4,760.2,225.3,760.4,224,760.4
				z"/>
		</g>
		<g>
			<path id="path66_4_" fill="#75C0CC" d="M242.4,750c-0.7,0.1-1.4,0-1.9-0.4c-0.6-0.5-0.9-1.3-0.9-2.3v-9.5l4.5-0.8v-2.3l-4.5,0.8
				v-4.9l-2.9,1.5v4l-3.9,0.7v2.3l3.9-0.7v10.1c0,1.5,0.4,2.7,1.2,3.3c0.9,0.7,2.2,0.9,3.9,0.6c1-0.2,2-0.6,2.6-0.9v-2.4
				C243.9,749.5,243.2,749.8,242.4,750"/>
			<path fill="#FFFFFF" d="M240.4,757.5c-2.8,0-4.6-1-5.7-1.9c-1.4-1.1-3-3.3-3-7.2v-4.6c-0.8-0.2-1.5-0.5-2.1-1
				c-1.1-1-1.8-2.4-1.8-3.8v-2.3c0-2.3,1.6-4.3,3.9-4.9c0.1-1.8,1.1-3.5,2.8-4.3l2.9-1.5c1.5-0.8,3.4-0.7,4.9,0.2
				c1.2,0.8,2,2,2.3,3.4c1,0.1,2,0.5,2.8,1.2c1.1,1,1.8,2.4,1.8,3.8v2.3c0,2.4-1.7,4.5-4.1,4.9l-0.4,0.1v2.1c0.7,0,1.4,0.2,2,0.5
				c1.7,0.8,2.8,2.6,2.8,4.5v2.4c0,2-1.1,3.7-2.9,4.5c-1.1,0.5-2.3,1-3.8,1.3C241.9,757.5,241.2,757.5,240.4,757.5z"/>
		</g>
		<g>
			<path id="path70_4_" fill="#75C0CC" d="M275,721.2v10.4l-0.2,0l0,0c-1.1-1.6-3-2.2-5.6-1.7c-2,0.3-3.6,1.3-4.9,2.8
				c-1.5,1.8-2.4,4.3-2.4,7.1c0,3.1,0.9,5.6,2.5,6.9c1.2,1,2.8,1.3,4.7,1c2.9-0.5,4.9-2.3,5.7-3.8l0-0.1l0.2,0v2.4l2.8-0.5v-24.9
				L275,721.2z M275,737.7c0,2.1-0.7,4.1-1.9,5.5c-0.9,1-2,1.7-3.2,1.9c-1.1,0.2-2.1,0-3-0.7c-1.4-1.2-1.9-3.5-1.9-5
				c0-2.2,0.6-4.2,1.7-5.5c0.8-1,1.9-1.6,3.1-1.8c1.3-0.2,2.4,0,3.3,0.8C274.4,733.8,275,735.6,275,737.7"/>
			<path fill="#FFFFFF" d="M267.8,752.7c-2.5,0-4.7-0.8-6.5-2.3c-2.8-2.3-4.4-6.1-4.4-10.7c0-3.9,1.3-7.6,3.6-10.3
				c2-2.4,4.7-3.9,7.8-4.4c0.6-0.1,1.1-0.2,1.7-0.2v-3.5c0-2.4,1.7-4.5,4.1-4.9l2.9-0.5c1.5-0.3,3,0.1,4.1,1.1
				c1.1,1,1.8,2.4,1.8,3.8v24.9c0,2.4-1.7,4.5-4.1,4.9L276,751c-0.6,0.1-1.2,0.1-1.8,0c-1.3,0.7-2.7,1.2-4.2,1.5
				C269.3,752.6,268.6,752.7,267.8,752.7z"/>
		</g>
		<g>
			<path id="path74_4_" fill="#75C0CC" d="M216.7,731.5v10.4l-0.2,0l0,0c-1.1-1.6-3-2.2-5.6-1.7c-2,0.3-3.6,1.3-4.9,2.8
				c-1.5,1.8-2.4,4.3-2.4,7.1c0,3.1,0.9,5.6,2.5,6.9c1.2,1,2.8,1.3,4.7,1c2.9-0.5,4.9-2.3,5.7-3.8l0-0.1l0.2,0v2.4l2.8-0.5V731
				L216.7,731.5z M216.7,748c0,2.1-0.7,4.1-1.9,5.5c-0.9,1-2,1.7-3.2,1.9c-1.1,0.2-2.1,0-3-0.7c-1.4-1.2-1.9-3.5-1.9-5
				c0-2.2,0.6-4.2,1.7-5.5c0.8-1,1.9-1.6,3.1-1.8c1.3-0.2,2.4,0,3.3,0.8C216,744.1,216.7,745.9,216.7,748"/>
			<path fill="#FFFFFF" d="M209.5,763c-2.5,0-4.7-0.8-6.5-2.3c-2.8-2.3-4.4-6.1-4.4-10.7c0-3.9,1.3-7.6,3.6-10.3
				c2-2.4,4.7-3.9,7.8-4.4c0.6-0.1,1.1-0.2,1.7-0.2v-3.5c0-2.4,1.7-4.5,4.1-4.9l2.9-0.5c1.5-0.3,2.9,0.1,4.1,1.1
				c1.1,1,1.8,2.4,1.8,3.8v24.9c0,2.4-1.7,4.5-4.1,4.9l-2.8,0.5c-0.6,0.1-1.2,0.1-1.8,0c-1.3,0.7-2.7,1.2-4.2,1.5
				C210.9,762.9,210.2,763,209.5,763z"/>
		</g>
	</g>
</g>
<g>
	<path fill="#75C0CC" d="M101.3,506.7v-20c0-0.3,0.2-0.6,0.5-0.9c0.3-0.3,0.7-0.4,1.1-0.5c0.4-0.1,0.8,0,1.1,0.1
		c0.3,0.2,0.4,0.4,0.4,0.7v1.2c0.4-0.8,0.9-1.4,1.7-2c0.7-0.6,1.6-1,2.6-1.2c1.6-0.3,2.9,0.1,4,1.1c1.1,1,1.7,2.4,1.7,4.1v2.9
		c0,1.6-0.6,3.2-1.7,4.7s-2.4,2.3-3.9,2.6c-0.9,0.2-1.7,0.1-2.5-0.3c-0.8-0.4-1.3-0.8-1.7-1.5v8.3c0,0.3-0.2,0.6-0.5,0.9
		c-0.3,0.3-0.7,0.5-1.2,0.5c-0.5,0.1-0.9,0-1.2-0.1C101.5,507.2,101.3,507,101.3,506.7z M104.7,494.8c0,0.5,0.3,1,1,1.5
		s1.4,0.7,2.2,0.6c0.8-0.1,1.6-0.6,2.2-1.4c0.7-0.8,1-1.6,1-2.5V490c0-0.8-0.3-1.5-1-2.1s-1.4-0.8-2.3-0.6c-0.8,0.1-1.6,0.6-2.2,1.3
		c-0.6,0.7-1,1.6-1,2.5V494.8z"/>
	<path fill="#75C0CC" d="M116.7,491.9V489c0-1.7,0.6-3.2,1.9-4.7c1.3-1.5,2.8-2.4,4.6-2.7c1.8-0.3,3.3,0,4.6,1c1.3,1,2,2.4,2,4v2.9
		c0,1.6-0.7,3.2-2,4.7c-1.3,1.5-2.8,2.4-4.6,2.7c-1.8,0.3-3.3-0.1-4.6-1.1C117.4,494.9,116.7,493.6,116.7,491.9z M120.1,491.3
		c0,0.9,0.3,1.6,1,2.1c0.6,0.6,1.4,0.8,2.3,0.6c0.9-0.2,1.6-0.6,2.3-1.4c0.6-0.8,1-1.6,1-2.5v-2.9c0-0.8-0.3-1.5-1-2.1
		c-0.6-0.6-1.4-0.8-2.3-0.6c-0.9,0.2-1.6,0.6-2.3,1.4c-0.6,0.8-1,1.6-1,2.4V491.3z"/>
	<path fill="#75C0CC" d="M131.3,481.6c0-0.4,0.2-0.7,0.7-1.1c0.5-0.4,0.9-0.6,1.4-0.7c0.5-0.1,0.9,0,1,0.4l3.5,9.2l2.7-9.2
		c0.1-0.5,0.5-0.8,1.2-0.9c0.6-0.1,1,0.1,1.2,0.5l2.7,8.3l3.5-10.5c0.1-0.4,0.5-0.7,1-0.8c0.5-0.1,0.9,0,1.4,0.2s0.7,0.5,0.7,0.9
		c0,0.2,0,0.3-0.1,0.5l-4.9,13.7c-0.2,0.5-0.6,0.8-1.3,0.9c-0.7,0.1-1.2,0-1.4-0.4l-2.8-7.7l-2.7,8.6c-0.2,0.5-0.7,0.8-1.4,1
		c-0.7,0.1-1.1,0-1.3-0.5l-4.9-11.9C131.4,481.9,131.3,481.8,131.3,481.6z"/>
	<path fill="#75C0CC" d="M153.9,485.4v-3c0-1.7,0.6-3.2,1.9-4.7c1.3-1.4,2.8-2.3,4.7-2.6c1.7-0.3,3.2,0,4.5,0.9
		c1.2,0.9,1.9,2.2,1.9,3.8c0,0.6-0.1,1.2-0.2,1.6c-0.1,0.4-0.4,0.7-0.7,1c-0.3,0.2-0.6,0.4-0.9,0.5c-0.3,0.1-0.6,0.2-1.1,0.3
		l-6.7,1.2v0.7c0,1.1,0.4,1.8,1.1,2.3c0.8,0.5,1.8,0.6,3,0.4c0.9-0.2,1.7-0.5,2.5-1c0.8-0.5,1.2-0.8,1.4-0.9
		c0.4-0.1,0.7,0.1,0.9,0.3s0.4,0.6,0.4,0.9c0,0.5-0.5,1.1-1.5,1.8s-2.3,1.2-3.7,1.5c-2.2,0.4-3.9,0.1-5.3-0.8
		C154.6,488.7,153.9,487.3,153.9,485.4z M157.2,482.1l5.3-0.9c0.5-0.1,0.8-0.2,0.9-0.4c0.2-0.2,0.2-0.4,0.2-0.8c0-0.8-0.3-1.5-0.9-2
		c-0.6-0.5-1.4-0.6-2.3-0.5c-0.9,0.2-1.6,0.6-2.3,1.2c-0.6,0.7-1,1.4-1,2.3V482.1z"/>
	<path fill="#75C0CC" d="M169.5,487.6v-12.8c0-0.3,0.2-0.6,0.5-0.9c0.3-0.3,0.7-0.4,1.2-0.5c0.4-0.1,0.8,0,1.1,0.1
		c0.3,0.2,0.4,0.4,0.4,0.7v1.4c0.4-0.8,0.9-1.5,1.6-2.2c0.7-0.7,1.5-1.1,2.4-1.2l1-0.2c0.3-0.1,0.6,0,0.9,0.3c0.3,0.2,0.4,0.6,0.4,1
		c0,0.4-0.1,0.8-0.4,1.1c-0.3,0.3-0.5,0.5-0.9,0.6l-1,0.2c-1,0.2-1.9,0.8-2.7,1.8c-0.8,1-1.2,2.2-1.2,3.6v6.5c0,0.3-0.2,0.6-0.5,0.8
		c-0.3,0.3-0.7,0.5-1.2,0.6c-0.5,0.1-0.9,0-1.2-0.1C169.6,488.1,169.5,487.8,169.5,487.6z"/>
	<path fill="#75C0CC" d="M180.3,480.7v-3c0-1.7,0.6-3.2,1.9-4.7c1.3-1.4,2.8-2.3,4.7-2.6c1.7-0.3,3.2,0,4.5,0.9
		c1.2,0.9,1.9,2.2,1.9,3.8c0,0.6-0.1,1.2-0.2,1.6c-0.1,0.4-0.4,0.7-0.7,1c-0.3,0.2-0.6,0.4-0.9,0.5c-0.3,0.1-0.6,0.2-1.1,0.3
		l-6.7,1.2v0.7c0,1.1,0.4,1.8,1.1,2.3c0.8,0.5,1.8,0.6,3,0.4c0.9-0.2,1.7-0.5,2.5-1c0.8-0.5,1.2-0.8,1.4-0.9
		c0.4-0.1,0.7,0.1,0.9,0.3c0.3,0.3,0.4,0.6,0.4,0.9c0,0.5-0.5,1.1-1.5,1.8s-2.3,1.2-3.7,1.5c-2.2,0.4-3.9,0.1-5.3-0.8
		C181,484,180.3,482.6,180.3,480.7z M183.6,477.4l5.3-0.9c0.5-0.1,0.8-0.2,0.9-0.4c0.2-0.2,0.2-0.4,0.2-0.8c0-0.8-0.3-1.5-0.9-2
		c-0.6-0.5-1.4-0.6-2.3-0.5c-0.9,0.2-1.6,0.6-2.3,1.2c-0.6,0.7-1,1.4-1,2.3V477.4z"/>
	<path fill="#75C0CC" d="M195.3,478.1v-2.9c0-1.7,0.6-3.3,1.7-4.7s2.4-2.3,4-2.5c0.9-0.2,1.8-0.1,2.5,0.3c0.7,0.3,1.3,0.8,1.6,1.4
		v-10.1c0-0.3,0.2-0.6,0.5-0.9c0.3-0.3,0.7-0.4,1.2-0.5c0.5-0.1,0.9-0.1,1.2,0.1c0.3,0.1,0.5,0.4,0.5,0.7v21.7
		c0,0.3-0.2,0.6-0.5,0.8c-0.3,0.3-0.7,0.5-1.2,0.6c-0.4,0.1-0.8,0-1.1-0.2c-0.3-0.2-0.5-0.4-0.5-0.7v-1.1c-0.3,0.7-0.9,1.4-1.7,2.1
		c-0.8,0.6-1.7,1-2.6,1.2c-1.5,0.3-2.8-0.1-3.9-1.2S195.3,479.7,195.3,478.1z M198.6,477.5c0,0.9,0.3,1.6,1,2.1s1.4,0.8,2.2,0.6
		c0.8-0.1,1.6-0.6,2.2-1.4s1-1.4,1-1.8v-3.6c0-1-0.3-1.7-1-2.2c-0.7-0.5-1.4-0.7-2.2-0.5c-0.9,0.2-1.6,0.6-2.3,1.4
		c-0.6,0.8-1,1.6-1,2.4V477.5z"/>
	<path fill="#75C0CC" d="M218.3,479v-21.7c0-0.3,0.1-0.6,0.4-0.9c0.3-0.3,0.7-0.4,1.2-0.5c0.5-0.1,0.9-0.1,1.2,0.1
		c0.3,0.1,0.5,0.4,0.5,0.7v10.1c0.4-0.7,0.9-1.4,1.6-2c0.7-0.6,1.5-1,2.5-1.1c1.6-0.3,2.9,0.1,4,1.1c1.1,1,1.7,2.4,1.7,4.1v2.9
		c0,1.6-0.6,3.2-1.7,4.7c-1.1,1.5-2.4,2.3-3.9,2.6c-1,0.2-1.8,0.1-2.6-0.3c-0.8-0.3-1.4-0.8-1.7-1.5v1.1c0,0.3-0.2,0.6-0.5,0.9
		c-0.3,0.3-0.7,0.5-1.1,0.5c-0.5,0.1-0.9,0-1.2-0.1C218.5,479.5,218.3,479.2,218.3,479z M221.6,474.1c0,0.5,0.3,1,1,1.5
		s1.4,0.7,2.2,0.6c0.9-0.2,1.6-0.6,2.2-1.4c0.6-0.8,1-1.6,1-2.5v-2.9c0-0.8-0.3-1.5-1-2.1c-0.6-0.6-1.4-0.8-2.3-0.6
		c-0.8,0.1-1.6,0.6-2.2,1.3c-0.7,0.7-1,1.6-1,2.5V474.1z"/>
	<path fill="#75C0CC" d="M232.9,483.2c0-1,0.3-1.5,0.9-1.6c1-0.2,1.9-0.8,2.8-1.9c0.9-1.1,1.5-2.5,1.7-4.1l-5.3-11.4
		c-0.1-0.1-0.1-0.2-0.1-0.4c0-0.4,0.2-0.8,0.7-1.2c0.5-0.4,1-0.7,1.5-0.7c0.5-0.1,0.9,0,1,0.4l4,9.6l3.4-10.9c0.2-0.4,0.5-0.7,1-0.8
		c0.4-0.1,0.9,0,1.4,0.2c0.5,0.2,0.8,0.6,0.8,1c0,0.2,0,0.3-0.1,0.4l-4.7,13.2l-0.5,1.5c-0.1,0.3-0.3,0.8-0.6,1.5
		c-0.3,0.7-0.5,1.2-0.7,1.5l-0.8,1.3c-0.3,0.5-0.6,1-1,1.3c-0.3,0.3-0.7,0.6-1.1,1c-0.4,0.3-0.8,0.6-1.3,0.8s-1,0.4-1.6,0.4
		C233.4,484.5,232.9,484.1,232.9,483.2z"/>
</g>
<g id="layer1_3_" transform="translate(116.92129,-338.61963)">
	<g id="g31225_3_" transform="translate(35.40372,35.392161)">
		<path id="path38_2_" fill="#75C0CC" d="M133.8,760.3c0,0-5.6-4.6-5.6-4.6c-0.3-0.3-0.8-0.4-1.3-0.3l-9.4,1.7v3.6l10.3-1.8
			c0.8-0.1,1.5,0,2.1,0.5c0.6,0.5,0.9,1.1,0.9,1.9v10.3l3.6-0.6v-9.4C134.3,760.9,134.1,760.5,133.8,760.3"/>
		<path id="path42_2_" fill="#75C0CC" d="M143.8,752.3c-0.5,0.1-0.9,0.4-1.3,0.8l-5.6,6.6c-0.3,0.4-0.5,0.9-0.5,1.4v9.4l3.6-0.6
			v-10.3c0-1.6,1.3-3.2,3-3.5l10.3-1.8v-3.6L143.8,752.3"/>
		<path id="path46_2_" fill="#75C0CC" d="M167.8,747.7c-1.7,0.3-3.5,1.9-4.4,3.8l0,0.1l-0.2,0V749l-2.7,0.5v16.9l2.9-0.5v-7.7
			c0-4.3,1.9-7.4,4.8-7.9c0.6-0.1,1.2-0.1,1.6,0v-2.6C169.2,747.6,168.7,747.6,167.8,747.7"/>
		<path id="path50_2_" fill="#75C0CC" d="M258,733.5c-1.1-0.9-2.8-1.1-5.1-0.7c-1.9,0.3-3.8,1.2-5.5,2.5l0.2,2.4
			c1.3-1.3,3.1-2.2,4.9-2.5c1.5-0.3,2.5-0.1,3.2,0.5c0.7,0.6,1.1,1.7,1.1,3.4v0.1l-0.1,0c-1.2,0.2-2.1,0.3-3.3,0.5
			c-2.1,0.4-4.9,1.4-6.5,3.3c-0.9,1.1-1.3,2.3-1.3,3.6c0,1.6,0.4,2.7,1.3,3.4c1,0.9,2.7,1.1,4.8,0.7c3.1-0.5,4.7-2.6,5.2-3.5l0,0
			l0.2,0v2.2l2.6-0.5v-10.3C259.6,736,259.1,734.4,258,733.5z M256.7,741.2v1.6c0,1.3-0.4,2.6-1.2,3.5c-0.9,1-2.1,1.7-3.6,2
			c-0.9,0.2-1.9-0.1-2.5-0.6c-0.5-0.4-0.8-1-0.8-1.8c0-3.1,4.2-4.2,6-4.5c0.3-0.1,0.7-0.1,1-0.1c0.3,0,0.7-0.1,1-0.1L256.7,741.2"/>
		<path id="path54_2_" fill="#75C0CC" d="M181.9,746.9c-1.1-0.9-2.8-1.1-5.1-0.7c-1.9,0.3-3.8,1.2-5.5,2.5l0.2,2.4
			c1.3-1.3,3.1-2.2,4.9-2.5c1.5-0.3,2.5-0.1,3.2,0.5c0.7,0.6,1.1,1.7,1.1,3.4v0.1l-0.1,0c-1.2,0.2-2.1,0.3-3.3,0.5
			c-2.1,0.4-4.9,1.4-6.5,3.3c-0.9,1.1-1.3,2.3-1.3,3.6c0,1.6,0.4,2.7,1.3,3.4c1,0.9,2.7,1.1,4.8,0.7c3.1-0.5,4.7-2.6,5.2-3.5l0,0
			l0.2,0v2.2l2.6-0.5v-10.3C183.6,749.5,183,747.8,181.9,746.9z M180.7,754.6v1.6c0,1.3-0.4,2.6-1.2,3.5c-0.9,1-2.1,1.7-3.6,2
			c-0.9,0.2-1.9-0.1-2.5-0.6c-0.5-0.4-0.8-1-0.8-1.8c0-3.1,4.2-4.2,6-4.5c0.3-0.1,0.7-0.1,1-0.1c0.3,0,0.7-0.1,1-0.1L180.7,754.6"/>
		<path id="path58_2_" fill="#75C0CC" d="M199.4,743.7c-1-0.9-2.5-1.1-4.5-0.8c-2.4,0.4-4.6,2-5.5,4l0,0.1l-0.2,0v-2.7l-2.8,0.5
			v16.9l2.9-0.5v-7.8c0-2.2,0.4-4,1.3-5.4c0.9-1.5,2.3-2.4,4-2.7c2.7-0.3,3.7,1.3,3.7,5.6v8.8l2.9-0.5v-10.1
			C201.3,746.5,200.6,744.7,199.4,743.7"/>
		<path id="path62_2_" fill="#75C0CC" d="M228,744.7c-1.6-0.5-3.1-0.9-3.1-2.5c0-1.3,1.2-2.4,3.1-2.7c0.7-0.1,2.4,0,3.2,0.2l0.2-2.5
			c-1.3-0.2-2.4-0.2-3.8,0c-2,0.3-3.5,1.2-4.6,2.4c-0.9,1-1.3,2.3-1.3,3.8c0,2.6,2.2,3.3,4.2,3.9c1.6,0.5,3.2,1,3.2,2.5
			c0,0.7-0.2,1.3-0.6,1.8c-0.8,1-2.1,1.3-2.7,1.4c-0.8,0.1-2.5,0.1-3.8-0.5l-0.2,2.6c1.5,0.5,3.2,0.3,4.6,0.1c1.6-0.3,3-1,4.1-2
			c1.2-1.1,1.8-2.6,1.8-4.3C232.2,745.9,230,745.3,228,744.7"/>
		<path id="path66_2_" fill="#75C0CC" d="M242.4,750c-0.7,0.1-1.4,0-1.9-0.4c-0.6-0.5-0.9-1.3-0.9-2.3v-9.5l4.5-0.8v-2.3l-4.5,0.8
			v-4.9l-2.9,1.5v4l-3.9,0.7v2.3l3.9-0.7v10.1c0,1.5,0.4,2.7,1.2,3.3c0.9,0.7,2.2,0.9,3.9,0.6c1-0.2,2-0.6,2.6-0.9v-2.4
			C243.9,749.5,243.2,749.8,242.4,750"/>
		<path id="path70_2_" fill="#75C0CC" d="M275,721.2v10.4l-0.2,0l0,0c-1.1-1.6-3-2.2-5.6-1.7c-2,0.3-3.6,1.3-4.9,2.8
			c-1.5,1.8-2.4,4.3-2.4,7.1c0,3.1,0.9,5.6,2.5,6.9c1.2,1,2.8,1.3,4.7,1c2.9-0.5,4.9-2.3,5.7-3.8l0-0.1l0.2,0v2.4l2.8-0.5v-24.9
			L275,721.2z M275,737.7c0,2.1-0.7,4.1-1.9,5.5c-0.9,1-2,1.7-3.2,1.9c-1.1,0.2-2.1,0-3-0.7c-1.4-1.2-1.9-3.5-1.9-5
			c0-2.2,0.6-4.2,1.7-5.5c0.8-1,1.9-1.6,3.1-1.8c1.3-0.2,2.4,0,3.3,0.8C274.4,733.8,275,735.6,275,737.7"/>
		<path id="path74_2_" fill="#75C0CC" d="M216.7,731.5v10.4l-0.2,0l0,0c-1.1-1.6-3-2.2-5.6-1.7c-2,0.3-3.6,1.3-4.9,2.8
			c-1.5,1.8-2.4,4.3-2.4,7.1c0,3.1,0.9,5.6,2.5,6.9c1.2,1,2.8,1.3,4.7,1c2.9-0.5,4.9-2.3,5.7-3.8l0-0.1l0.2,0v2.4l2.8-0.5V731
			L216.7,731.5z M216.7,748c0,2.1-0.7,4.1-1.9,5.5c-0.9,1-2,1.7-3.2,1.9c-1.1,0.2-2.1,0-3-0.7c-1.4-1.2-1.9-3.5-1.9-5
			c0-2.2,0.6-4.2,1.7-5.5c0.8-1,1.9-1.6,3.1-1.8c1.3-0.2,2.4,0,3.3,0.8C216,744.1,216.7,745.9,216.7,748"/>
	</g>
</g>
</svg>
